<svg width="32" height="32" viewBox="0 0 32 32" fill="none" xmlns="http://www.w3.org/2000/svg">
<path d="M22.069 28.2368V18.448C22.069 14.8378 22.1072 11.2241 22.069 7.6139C22.052 6.00069 21.0992 4.32314 19.6666 3.55322C18.7036 3.03618 17.6482 3.1344 16.596 3.1344H13.2984C11.8308 3.1344 10.5518 3.79256 10.081 5.26916C9.91057 5.80201 9.93089 6.35856 9.93089 6.90946V15.4699C9.93089 19.2598 9.87106 23.0539 9.93089 26.8426C9.93089 26.9136 9.93089 26.9848 9.93089 27.0559C9.93089 27.6655 10.3847 28.3926 10.8893 28.7154C11.394 29.0383 11.7191 28.782 11.7191 28.2368V7.82952C11.7191 7.05058 12.0386 6.34614 12.7261 5.91941C13.5039 5.43737 14.5255 5.57736 15.4039 5.57736H18.6371C19.0006 5.57736 19.3595 5.55929 19.7095 5.67782C20.187 5.83926 20.2774 5.92732 20.2819 6.36646C20.3158 9.58724 20.2819 12.8091 20.2819 16.0299C20.2819 19.6356 20.2096 23.2504 20.2819 26.855C20.283 26.9216 20.2819 26.9894 20.2819 27.0559C20.2819 27.6655 20.7356 28.3926 21.2403 28.7154C21.745 29.0383 22.069 28.782 22.069 28.2368Z" fill="#B49164"/>
<path d="M6.14552 10.7514H25.8573C26.1429 10.7514 26.4286 10.7491 26.7141 10.7514C27.1849 10.7548 27.6535 10.9523 27.9436 11.0889C28.0882 11.1578 28.043 11.2549 27.974 11.0912C28.1502 11.5089 28.017 11.1578 28.026 11.2154C28.0417 11.326 28.0418 11.4378 28.0452 11.5484C28.0475 11.6466 28.0452 11.7448 28.0452 11.843V23.0046C28.0452 24.0037 28.2032 25.0478 27.396 25.8143C26.6782 26.4962 25.7863 26.4239 24.8888 26.4239H10.9219C9.00052 26.4239 7.07123 26.4759 5.15095 26.4239C4.73325 26.4127 4.29637 26.2005 4.05365 26.0865C3.91028 26.0187 3.95319 25.9205 4.02317 26.0842C3.84707 25.6733 3.97915 26.0154 3.97124 25.9601C3.95544 25.8494 3.95544 25.7377 3.95205 25.627C3.94528 25.329 3.95205 25.0287 3.95205 24.7306V15.1687C3.95205 14.3549 3.89673 13.5206 3.95205 12.7078C4.02995 11.5665 5.05274 10.7841 6.14327 10.7514C7.13105 10.722 6.06763 8.28134 5.14869 8.30843C3.79175 8.34907 2.67752 9.21721 2.29031 10.5154C2.15032 10.9873 2.16387 11.4807 2.16387 11.9672V16.1589C2.16387 18.9225 2.09839 21.6962 2.16387 24.4586C2.2158 26.669 3.98931 28.8501 6.27647 28.8658C7.14685 28.8715 8.01612 28.8658 8.88651 28.8658H19.3312C21.7944 28.8658 24.2588 28.8839 26.7222 28.8658C28.6086 28.8523 29.8073 27.4062 29.83 25.5841C29.8435 24.4981 29.83 23.411 29.83 22.325C29.83 19.2058 29.83 16.0866 29.83 12.9674C29.83 10.757 28.2213 8.36714 25.8505 8.3073C25.2432 8.29263 24.6325 8.3073 24.0252 8.3073C20.6971 8.3073 17.3691 8.3073 14.0411 8.3073H5.15095C4.17896 8.3073 5.22207 10.7514 6.14552 10.7514Z" fill="#B49164"/>
</svg>
