<svg width="368" height="692" viewBox="0 0 368 692" fill="none" xmlns="http://www.w3.org/2000/svg">
<path opacity="0.97" d="M30.1791 770H28.2277C18.6359 743.923 8.13278 716.927 0 677.347V652.921C9.2757 715.674 20.2897 740.82 30.1791 770Z" fill="#FAFAFA"/>
<path opacity="0.94" d="M43.6994 770H41.8215C28.2093 722.666 12.3223 692.439 1.41855 596.246C0.8967 591.639 0.4263 587 0 582.338V548.166C14.1782 693.152 32.1305 725.615 43.6994 770Z" fill="#FAFAFA"/>
<path opacity="0.91" d="M54.9376 770C44.0522 719.817 26.9414 689.454 14.0569 597.393C10.0401 568.647 8.00048 537.663 6.14828 508.619C4.60845 482.825 2.12048 447.267 0 418.782V326.637C1.59863 393.106 3.675 471.017 4.59008 483.222C7.21403 521.233 12.5024 559.144 18.0259 596.827C31.8476 690.95 48.5651 726.332 56.7494 770H54.9376Z" fill="#FAFAFA"/>
<path d="M0 137.547V16.4389C0.28665 11.0603 0.591675 5.57884 0.915075 -0.00193787C1.21643 57.4786 0.6909 102.434 0 137.547Z" fill="#FAFAFA"/>
<path opacity="0.88" d="M67.7616 770C60.3307 721.685 44.1497 690.45 29.2696 611.146C23.092 578.007 19.7808 544.218 16.9768 510.652C14.1654 477.627 10.9498 442.966 7.94728 409.867C4.05546 368.14 3.52258 325.413 3.54831 283.465C3.68061 262.921 3.43438 240.723 3.05586 220.235C2.55973 195.908 -1.14834 133.343 5.23146 5.29028C7.06161 154.482 3.66223 193.908 4.26861 239.19C4.35681 245.139 11.7913 454.69 14.8563 485.45C17.8624 518.861 23.1361 552.497 28.8838 585.548C46.046 685.844 63.5794 721.96 69.4337 770H67.7616Z" fill="#FAFAFA"/>
<path opacity="0.85" d="M25.2004 486.564C24.9578 484.414 24.7226 482.259 24.4948 480.105C24.7263 482.23 24.9615 484.38 25.2004 486.564ZM79.7741 770C72.7696 697.604 47.8604 663.307 34.274 562.75C31.0877 541.115 27.9824 512.082 25.2041 486.564C25.7259 491.152 26.2882 495.722 26.8946 500.277C50.33 668.186 77.1869 696.035 81.4205 770H79.7741ZM10.493 280.903C10.3938 262.694 9.83153 242.539 9.30233 224.327C8.56366 200.11 4.07648 138.222 9.55223 10.5881C11.669 107.09 10.1108 219.297 10.7503 243.161C12.0365 294.638 15.9357 327.089 19.732 412.588C20.7206 434.962 22.1391 457.675 24.4948 480.105C23.8296 474.02 23.1828 468.201 22.5617 462.807C14.5723 390.059 12.0329 381.728 10.493 280.903Z" fill="#FAFAFA"/>
<path opacity="0.79" d="M105.915 770H104.048C104.872 710.2 91.682 691.443 70.1832 608.768C55.7662 554.618 48.6514 498.715 39.4418 443.536C32.5071 402.61 28.0824 361.196 26.1383 319.751C24.6389 287.105 23.327 252.782 21.269 220.275C16.3849 154.486 16.4363 87.1162 18.1893 21.1763C23.9003 185.6 21.3388 218.081 25.0616 269.933C28.6447 319.336 34.4475 369.251 38.4092 418.591C39.813 434.588 41.5035 452.172 43.6681 468.083C52.9585 538.034 73.5863 605.823 92.7073 673.561C104.625 715.207 106.944 745.082 105.915 770.004V770Z" fill="#FAFAFA"/>
<path opacity="0.82" d="M92.1551 770C90.0824 714.7 75.9814 690.343 57.2389 613.573C49.1907 581.125 43.9759 548.063 39.5181 515.016C38.298 505.347 36.4972 493.63 35.347 484.024C17.0675 346.949 21.2901 378.879 16.406 247.227C14.8515 203.584 9.1589 147.266 13.8666 15.8784C14.7118 44.455 16.7331 154.89 16.6486 215.937C16.7221 266.26 32.1056 456.392 33.0611 465.403C34.8986 481.671 37.3131 498.748 40.0546 514.928C41.2086 522.012 43.3695 532.332 44.6668 539.508C47.8971 555.522 51.6382 572.386 55.4051 588.312C78.146 686.105 93.7207 713.964 93.8162 770H92.1588H92.1551Z" fill="#FAFAFA"/>
<path opacity="0.76" d="M58.6102 493.571C57.5592 488.366 56.5743 482.928 55.6482 477.45C56.589 482.59 57.5739 487.961 58.6102 493.571ZM117.473 770H115.69C120.523 679.652 93.6661 674.884 61.1607 507.358C60.2787 502.601 59.4334 498.016 58.6139 493.571C58.7205 494.104 58.8307 494.641 58.9373 495.171C65.1297 527.427 74.2216 559.625 83.5635 591.062C110.417 681.906 122.772 710.773 117.473 770ZM22.5034 26.47C25.5683 95.5018 29.1919 233.293 30.7133 255.451C32.8595 290.388 49.5293 433.926 49.5367 433.97C50.257 439.62 51.4954 449.925 52.2157 455.48C53.2631 462.546 54.4024 470.031 55.6519 477.447C29.5594 334.795 38.6513 366.923 28.4532 236.97C26.8215 210.941 19.9639 153.126 22.5034 26.4664V26.47Z" fill="#FAFAFA"/>
<path opacity="0.73" d="M128.793 770H127.565C133.361 701.347 117.345 667.712 96.3903 599.397C92.3257 585.974 88.217 571.357 84.8103 557.75C79.7572 538.129 75.1634 517.424 70.7681 497.663C65.7665 474.535 59.9857 448.572 55.3515 425.234C47.2702 384.89 42.8565 343.817 39.9569 302.792C39.0749 291.671 37.4726 270.594 36.6678 259.73C34.8487 238.393 32.5959 213.555 30.6959 192.114C27.1165 139.012 26.2014 84.9689 26.8262 31.7678C29.7551 87.3182 35.6756 237.495 37.5682 259.66C40.3943 297.288 60.5737 451.797 69.4892 491.634C72.5395 505.619 76.016 519.744 79.9887 533.497C111.248 647.988 139.164 680.41 128.793 770Z" fill="#FAFAFA"/>
<path opacity="0.7" d="M140.805 770H138.897C150.496 669.513 117.035 640.69 89.1893 523.898C81.7547 495.332 73.7138 463.186 66.9959 434.422C51.3772 367.232 49.1465 319.534 42.9431 257.877C40.8887 236.58 38.3677 215.011 36.3979 193.665C32.337 141.582 30.8376 89.2888 31.139 37.0544C43.498 264.826 43.6009 256.352 45.0929 270.013C50.4805 321.362 60.5978 376.644 68.3704 427.893C71.6742 448.065 75.2867 468.307 80.123 488.167C86.7491 516.06 95.558 543.39 105.073 570.412C132.595 650.363 152.565 692.91 140.805 770Z" fill="#FAFAFA"/>
<path opacity="0.67" d="M152.263 770H150.286C163.27 682.038 142.006 650.473 117.252 572.746C109.766 550.364 102.419 525.225 95.7858 502.454C95.1354 500.145 94.4959 497.88 93.8712 495.652C94.518 497.924 95.1721 500.189 95.8483 502.439C102.684 525.747 111.243 549.166 119.923 571.798C147.706 645.006 166.772 690.652 152.263 770ZM40.5469 176.971C37.3313 132.211 35.4607 87.2336 35.457 42.3484C39.0696 99.9576 44.7695 180.783 48.6503 237.72C49.4037 247.786 50.4253 258.146 51.5572 268.179C57.7018 321.284 69.5206 378.184 78.9911 430.984C82.8939 451.285 87.3701 472.197 92.9267 492.296C56.037 360.625 63.6774 367.68 47.0333 237.881C44.5857 217.757 42.0426 197.151 40.5469 176.967V176.971Z" fill="#FAFAFA"/>
<path opacity="0.64" d="M163.18 770H161.577C176.976 682.388 158.623 648.716 132.49 574.066C121.498 543.423 111.344 512.49 101.554 481.443C97.32 468.123 92.8843 454.01 88.9778 440.591C69.2651 376.133 63.1021 308.832 53.7419 242.374C44.2236 178.044 40.5927 112.601 39.7695 47.6461C44.367 111.406 49.9677 178.519 55.3552 242.187C61.9702 311.016 78.1696 378.452 92.6969 445.925C98.1102 469.675 104.839 493.266 112.942 516.233C150.038 621.812 185.913 660.594 163.18 770Z" fill="#FAFAFA"/>
<path opacity="0.61" d="M174.655 770H172.597C193.17 666.77 169.507 636.488 130.952 529.655C121.43 503.818 111.287 475.52 102.453 449.366C79.9985 382.64 74.3831 335.53 64.3614 270.936C59.3083 237.815 46.4605 172.052 44.0938 52.9402C49.4482 117.707 60.5908 238.911 65.3095 270.796C74.2839 330.913 89.7115 389.868 104.426 448.778C108.976 465.837 114.569 484.502 120.559 501.071C129.42 525.916 140.129 550.015 150.698 574.165C183.626 648.315 192.398 695.77 174.655 770Z" fill="#FAFAFA"/>
<path opacity="0.58" d="M186.024 770H183.937C201.996 689.77 192.804 650.164 168.347 587.537C158.241 561.721 142.317 523.071 132.178 497.454C118.801 463.598 105.27 429.573 95.8799 394.356C83.1865 347.409 76.2701 299.167 67.5861 251.411C64.3741 233.654 51.6182 166.912 48.4062 58.2305C59.3394 174.052 69.1406 250.8 69.1884 251.161C72.7899 279.241 78.3061 307.046 84.9431 334.552C93.5463 369.853 103.175 404.948 113.119 439.881C117.651 455.403 122.465 470.859 127.97 486.064C138.918 516.56 153.011 545.721 166.528 575.136C191.261 628.749 209.026 680.983 186.024 770Z" fill="#FAFAFA"/>
<path opacity="0.52" d="M207.891 770H205.954C239.573 642.841 208.938 606.68 145.339 468.3C142.781 462.822 137.787 451.793 135.358 446.249C116.237 403.448 101.952 359.129 74.5216 224.981C65.1247 173.618 59.7959 120.953 57.047 68.8185C64.2059 132.078 73.2501 197.518 83.5805 260.186C91.6545 307.854 106.259 354.081 121.856 399.728C132.296 430.003 142.965 460.719 155.967 490.027C162.292 504.273 169.881 519.611 177.003 533.538C187.572 554.111 198.663 574.669 207.321 596.187C229.695 650.866 227.89 703.615 207.895 769.993L207.891 770Z" fill="#FAFAFA"/>
<path opacity="0.55" d="M197.044 770H194.986C213.199 696.439 210.105 652.37 184.468 588.353C165.343 540.126 141.911 491.755 122.706 443.572C98.1385 383.511 87.3561 319.251 74.7104 255.951C70.8296 236.451 66.8827 215.919 64.255 196.265C58.4779 153.03 54.373 107.053 52.7266 63.5245C61.6752 148.413 64.1044 165.225 74.5487 243.698C76.7868 259.48 79.3887 275.848 82.7072 291.41C93.486 344.449 121.229 431.944 133.169 465.517C146.388 503.737 165.226 539.563 182.583 575.996C185.905 583.066 189.466 591.014 192.325 598.25C211.861 645.602 217.675 696.255 197.036 770H197.044Z" fill="#FAFAFA"/>
<path opacity="0.49" d="M219.087 770H216.831C243.927 673.392 235.323 626.69 202.825 556.486C194.549 538.534 185.064 520.045 175.943 502.49C169.666 490.274 159.894 471.851 153.804 459.572C118.201 391.404 101.766 315.726 83.8692 241.536C72.5171 192.871 64.4174 125.288 61.3672 74.1125C75.9753 188.162 90.9914 264.469 91.0355 264.69C109.833 360.732 165.476 480.895 170.621 491.663C185.402 522.413 203.571 551.791 217.606 582.923C241.545 636.631 244.198 691.597 219.091 770L219.087 770Z" fill="#FAFAFA"/>
<path opacity="0.46" d="M229.416 770H227.81C258.544 667.609 251.731 615.812 202.952 524.795C182.229 486.064 158.136 448.01 141.131 407.419C120.713 359.203 107.803 308.285 93.9848 257.911C93.4593 255.907 73.6877 188.026 65.6836 79.4066C72.0046 123.501 80.0235 181.217 97.3805 263.293C118.221 361.736 179.998 482.068 185.694 493.024C201.493 523.277 220.269 552.137 233.822 583.559C260.264 645.69 251.617 703.784 229.42 769.996L229.416 770Z" fill="#FAFAFA"/>
<path opacity="0.43" d="M240.847 770H238.793C257.94 710.075 268.777 652.355 248.87 590.956C239.862 562.93 226.015 536.791 211.12 511.362C228.712 541.185 247.304 570.772 256.753 604.297C265.907 637.65 270.178 686.2 240.844 770H240.847ZM211.124 511.362C208.309 506.59 208.504 506.887 211.124 511.362V511.362ZM153.5 410.268C140.557 383.077 130.384 354.445 121.053 325.847C104.667 273.873 80.6614 207.459 70.0039 84.7006C72.0031 97.6157 86.2143 194.213 108.007 279.465C131.862 370.214 195.645 484.277 201.161 494.105C203.745 498.718 206.398 503.31 209.084 507.891C204.336 499.851 199.5 491.877 194.7 483.932C179.953 460.057 165.4 435.716 153.5 410.268Z" fill="#FAFAFA"/>
<path opacity="0.4" d="M251.708 770H249.559C270.587 706.975 282.494 648.793 262.921 585.805C247.706 537.821 217.208 496.689 190.505 454.616C151.844 395.518 129.081 328.034 107.479 261.311C107.005 259.837 84.5253 193.426 74.3125 89.9946C76.5249 102.796 101.026 258.12 136.494 340.435C162.049 400.636 202.783 470.859 210.773 484.572C228.986 515.711 250.143 545.53 263.693 579.143C288.962 641.797 273.641 710.56 251.705 769.996L251.708 770Z" fill="#FAFAFA"/>
<path opacity="0.37" d="M262.504 770H260.347C290.692 681.167 296.969 618.407 266.124 552.666C258.987 537.063 249.557 521.358 245.971 515.582C245.993 515.619 246.015 515.652 246.04 515.689C264.323 544.475 281.633 574.941 287.583 608.959C296.572 661.502 282.122 718.472 262.504 770ZM244.493 513.292C237.301 502.119 238.584 503.898 244.493 513.292V513.292ZM245.971 515.582C243.85 512.292 244.184 512.703 245.971 515.582V515.582ZM179.527 415.231C163.423 387.364 150.358 357.831 138.539 327.946C134.07 316.939 129.763 305.299 125.552 294.222C123.542 288.572 121.329 282.925 119.319 277.252C116.122 268.429 112.528 257.738 109.58 248.716C107.221 241.308 88.4049 181.706 78.6367 95.2923C80.8344 107.274 105.924 249.628 139.576 327.52C152.023 356.923 167.502 385.368 183.337 413.044C201.18 444.223 220.146 475.226 239.554 505.586C232.946 495.468 226.034 485.553 219.136 475.756C205.27 456.028 191.485 436.212 179.53 415.231H179.527Z" fill="#FAFAFA"/>
<path opacity="0.34" d="M273.443 770H271.183C295.53 701.762 307.698 644.407 294.049 586.831C278.801 521.13 227.84 472.87 193.222 417.246C178.165 393.463 165.218 368.294 153.635 342.659C130.85 291.561 98.3773 222.334 82.957 100.583C84.8644 110.2 102.28 203.573 131.504 286.649C155.34 355.291 194.104 411.577 256.116 505.637C262.459 515.27 269.537 526.347 275.24 536.299C287.357 557.195 297.029 579.875 301.208 603.786C309.936 654.028 295.486 713.696 273.447 769.996L273.443 770Z" fill="#FAFAFA"/>
<path opacity="0.31" d="M284.081 770H282.052C310.125 694.251 330.448 610.918 291.368 536.512C282.177 518.63 270.759 502.009 258.598 486.027C231.315 451.517 202.922 416.61 181.636 377.967C165.841 350.093 151.887 320.659 138.83 291.447C131.245 274.539 102.363 211.286 87.2695 105.877C88.7469 112.457 90.3455 119.928 91.7383 126.498C139.822 327.913 166.852 351.861 252.27 475.711C270.251 501.803 289.979 528.751 302.584 557.901C318.056 592.525 332.469 649.682 284.077 769.996L284.081 770Z" fill="#FAFAFA"/>
<path opacity="0.28" d="M295.788 514.729C294.318 512.424 292.792 510.086 291.216 507.715C292.767 510.02 294.292 512.354 295.788 514.729ZM295.012 770H292.715C323.585 688.641 342.982 607.794 307.878 536.38C304.163 528.77 300.102 521.59 295.788 514.729C299.36 520.325 302.619 525.703 305.486 530.821C315.802 549.64 319.734 560.063 324.324 575.368C326.371 582.996 328.197 591.368 329.182 599.217C333.997 637.359 327.455 691.866 295.012 770.004V770ZM184.928 364.846C169.691 338.791 155.7 311.895 142.764 284.631C119.487 236.157 101.674 174.199 91.5898 111.174C108.561 184.291 119.516 216.411 136.09 261.267C139.449 270.532 143.319 280.208 147.112 289.307C160.107 320.924 177.449 350.626 196.956 378.644C226.734 421.209 265.491 468.921 291.216 507.715C279.147 489.778 265.491 473.888 252.114 457.877C227.172 428.845 204.258 397.934 184.928 364.846Z" fill="#FAFAFA"/>
<path opacity="0.25" d="M305.69 770H303.397C329.732 702.648 351.535 628.473 333.513 561.647C326.836 537.31 314.366 514.968 299.288 494.855C279.862 469.153 256.816 446.212 236.64 421.121C205.855 383.643 180.442 342.089 157.462 299.461C131.686 252.208 110.014 194.934 95.9023 116.465C102.436 142.177 134.045 275.557 195.726 361.081C228.401 407.084 267.036 448.506 299.49 494.704C315.807 517.685 330.408 542.475 337.864 569.86C339.305 575.235 340.496 580.728 341.536 586.209C341.738 587.474 342.425 592.253 342.668 593.753C342.741 594.257 342.826 594.761 342.884 595.264C343.142 598.055 343.458 601.591 343.715 604.386C347.067 659.723 325.333 723.766 305.69 770Z" fill="#FAFAFA"/>
<path opacity="0.22" d="M316.037 770H314.027C341.303 701.52 358.597 640.984 352.405 582.507C350.898 565.611 344.474 544.707 340.421 535.916C326.61 503.983 307.809 482.392 284.601 457.333C262.419 433.786 240.472 409.915 221.031 384.011C201.443 358.221 183.803 331.03 167.225 303.218C146.939 269.065 134.984 242.403 121.883 203.886C112.765 177.063 105.709 149.545 100.223 121.755C112.637 168.497 127.693 214.731 147.755 258.782C160.566 288.252 175.402 317.395 193.928 343.714C229.836 395.081 276.218 438.065 312.796 489.024C346.771 535.832 353.551 565.633 356.741 594.246C359.457 624.705 357.23 674.55 316.033 769.993L316.037 770Z" fill="#FAFAFA"/>
<path opacity="0.19" d="M344.462 510.766C343.503 509.134 342.525 507.509 341.533 505.895C342.54 507.505 343.517 509.13 344.462 510.766ZM326.917 770H324.874C345.318 720.148 366.607 658.315 367.206 600.812C367.023 590.496 368.004 565.096 355.325 532.758C353.201 528.016 351.551 523.041 344.458 510.766C369.103 552.784 370.293 584.592 370.914 603.849C371.05 641.745 360.327 694.505 326.917 770ZM301.1 456.539C266.754 422.095 233.37 386.437 204.999 346.799C185.985 320.523 167.61 293.546 152.564 264.76C149.172 258.23 121.187 204.805 104.543 127.053C125.016 198.107 142.124 235.9 164.104 279.303C168.753 288.164 173.626 297.281 178.727 305.88C215.252 369.68 273.663 416.198 318.634 473.491C326.781 483.851 334.583 494.627 341.529 505.895C336.674 498.13 331.158 490.667 325.477 483.597C317.825 474.318 309.432 465.208 301.1 456.539Z" fill="#FAFAFA"/>
<path opacity="0.16" d="M337.698 770H335.534C359.542 712.718 383.853 642.756 380.497 578.324C380.104 574.125 379.77 568.923 379.071 564.761C378.748 562.824 378.594 560.728 378.16 558.761C373.754 532.674 362.144 508.13 346.015 487.248C337.423 475.921 327.658 465.543 317.692 455.429C291.673 429.727 264.963 404.595 240.928 376.938C222.138 355.504 204.446 333.141 187.788 310.001C178.244 296.781 169.277 283.116 161.118 268.991C137.297 226.341 120.116 179.835 108.863 132.347C120.366 169.559 142.111 235.654 189.129 309.082C232.913 378.32 304.105 424.334 349.851 491.998C381.728 538.365 412.631 604.444 337.702 769.996L337.698 770Z" fill="#FAFAFA"/>
<path opacity="0.14" d="M348.354 770H346.142C371.767 709.939 394.314 645.385 394.519 582.89C394.405 577.213 394.108 570.302 393.516 564.662C386.71 495.752 341.316 460.844 298.742 420.499C280.951 403.952 263.076 386.456 246.538 368.695C224.312 344.714 202.934 319.884 183.729 293.391C148.849 245.543 129.375 189.287 128.659 187.393C122.775 171.342 117.472 154.137 113.18 137.641C128.471 184.033 147.82 229.257 173.27 271.009C189.763 299.108 208.546 325.997 230.875 349.795C264.152 385.816 303.545 415.569 336.329 452.109C355.395 473.289 372.811 496.693 383.814 523.141C387.75 531.942 392.866 548.559 394.394 558.35C396.871 571.085 412.747 629.981 348.354 769.996V770Z" fill="#FAFAFA"/>
<path opacity="0.12" d="M392.243 505.873C392.111 505.608 391.978 505.344 391.846 505.079C392.162 505.663 392.026 505.391 392.243 505.873ZM333.028 435.632C314.792 419.253 296.053 403.099 278.2 386.287C254.258 363.872 231.204 340.299 209.617 315.612C173.257 274.076 147.073 231.926 122.84 160.615C120.954 154.758 119.249 148.832 117.496 142.935C119.679 148.692 121.715 154.49 123.88 160.247C145.018 212.864 159.193 241.474 192.54 289.962C197.001 296.337 202.33 303.583 207.052 309.755C223.321 330.821 241.921 350.085 261.755 367.806C295.263 397.934 331.976 424.996 361.134 459.668C372.438 472.859 383.959 489.392 391.846 505.075C390.111 501.884 387.984 497.755 386.073 494.796C372.302 471.977 352.681 453.348 333.028 435.628V435.632ZM359.418 770H356.823C384.606 705.865 406.167 642.786 408.042 582.805C409.126 560.806 403.988 532.942 398.222 519.615C394.69 510.553 394.72 511.402 392.243 505.877C419.897 561.556 422.947 636.716 359.418 770.004V770Z" fill="#FAFAFA"/>
<path opacity="0.1" d="M409.823 508.556C408.977 506.59 408.092 504.63 407.166 502.671C409.227 506.917 409.477 507.689 409.823 508.556ZM380.459 463.653C365.278 446.911 347.961 432.312 330.725 417.72C314.974 404.511 299.179 391.206 283.73 377.577C262.11 358.456 240.993 338.703 220.957 317.909C209.678 306.171 198.378 293.402 188.44 280.476C158.666 240.815 136.454 195.548 121.816 148.229C145.991 210.764 169.014 248.161 198.852 288.079C206.092 297.685 214.276 307.763 222.155 316.81C241.133 338.497 262.892 357.655 285.369 375.636C315.834 400.161 347.88 423.44 373.752 453.069C388.28 469.392 399.235 485.91 407.169 502.671C403.854 495.843 400.076 489.222 395.769 482.98C391.304 476.355 385.74 469.642 380.467 463.649L380.459 463.653ZM369.504 770H367.211C407.856 676.899 432.409 596.452 417.169 530.615C416.335 527.714 415.71 524.53 414.688 521.692C411.822 513.163 413.016 516.512 409.823 508.553C434.967 566.997 430.91 641.002 369.504 769.996V770Z" fill="#FAFAFA"/>
<path opacity="0.08" d="M380.252 770H378.113C403.081 714.45 434.274 635.069 435.435 566.794C435.45 559.717 435.116 552.192 434.443 545.155C433.914 541.556 433.447 536.42 432.624 532.891C430.191 520.821 431.246 526.681 429.022 517.795C428.49 515.986 426.858 511.472 426.167 509.332C431.856 524.317 435.516 540.276 436.938 557.412C442.947 627.506 407.281 714.262 380.252 770ZM426.163 509.332C425.417 507.365 425.961 508.707 426.163 509.332V509.332ZM399.031 463.947C383.537 445.918 365.195 430.731 346.787 415.76C324.116 397.566 291.339 371.658 269.704 352.938C244.593 331.269 219.551 309.174 198.107 283.774C166.238 245.44 142.023 200.717 126.129 153.523C136.364 178.118 148.194 202.849 161.997 225.672C179.949 255.811 201.68 283.634 225.222 309.593C261.248 350.056 307.468 378.849 349.551 412.349C360.818 421.444 371.88 431.216 381.902 441.69C398.865 459.289 412.408 478.226 421.889 499.075C418.262 491.689 415.565 486.138 408.567 476.164C405.763 472.219 402.096 467.645 399.034 463.951L399.031 463.947ZM425.755 508.273C423.76 503.428 423.929 503.557 425.755 508.273V508.273ZM424.322 504.689C423.543 502.799 422.731 500.932 421.886 499.075C422.628 500.582 422.918 501.167 424.322 504.689Z" fill="#FAFAFA"/>
<path opacity="0.06" d="M440.024 503.946C439.704 503.079 439.377 502.218 439.043 501.358C439.396 502.2 439.66 502.913 440.024 503.946ZM450.681 581.956C448.069 633.337 425.103 700.009 390.871 770H388.504C430.528 676.88 456.525 596.757 447.164 532.027C445.849 522.567 443.184 512.961 440.024 503.946C449.156 528.692 452.144 554.982 450.681 581.956ZM428.154 479.491C411.829 451.977 379.669 426.933 372.613 421.176C346.635 400.459 319.462 380.927 293.197 360.493C263.587 337.431 233.731 314.248 207.995 286.792C174.02 249.892 147.703 205.871 130.449 158.813C144.447 189.099 153.48 206.853 172.403 235.304C186.32 255.977 202.332 275.134 219.193 293.447C238.832 314.979 260.559 334.582 283.987 351.931C339.204 393.386 410.686 428.411 439.043 501.354C437.407 497.472 434.364 490.16 431.299 484.888L428.154 479.491Z" fill="#FAFAFA"/>
<path opacity="0.04" d="M462.429 593.967C455.024 653.197 424.11 724.317 401.589 770H399.157C422.265 720.034 445.432 663.862 456.843 605.808C457.589 602.529 458.398 596.72 459.037 593.481C465.906 553.019 461.036 528.96 460.628 524.795C459.302 515.928 456.229 505.748 456.424 506.406C455.373 502.821 454.271 499.788 455.527 503.391C456.336 505.634 458.842 514.295 459.658 518.575C459.992 520.303 460.79 523.038 460.992 524.733C465.321 547.482 465.226 570.993 462.425 593.967H462.429ZM454.969 501.777C453.638 497.961 453.958 498.781 454.969 501.777V501.777ZM398.491 426.348C379.176 410.319 358.607 395.893 338.129 381.371C309.325 361.034 279.238 340.078 251.517 318.409C239.981 309.343 228.651 299.696 218.082 289.509C198.524 270.348 181.2 248.819 166.408 225.786C151.737 202.794 143.792 185.658 134.77 164.115C137.61 169.677 140.293 175.497 143.241 180.989C157.364 207.691 166.103 220.305 178.855 238.22C193.937 258.782 211.467 277.807 229.677 295.638C250.562 316.233 273.391 334.858 297.671 351.324C337.372 378.647 381.149 401.334 414.75 436.573C436.45 459.837 445.686 479.623 445.928 480.134C446.593 481.568 447.964 484.391 448.633 485.825C449.919 488.373 452.499 494.671 454.083 499.218C443.025 468.565 423.165 447.223 398.499 426.348H398.491Z" fill="#FAFAFA"/>
<path opacity="0.02" d="M412.102 770H409.79C453.391 676.274 489.898 575.544 471.288 504.935C469.575 498.685 469.322 497.998 469.616 498.818C479.461 531.008 496.528 602.025 412.102 770ZM469.517 498.535C468.987 497.024 468.998 497.02 469.517 498.535V498.535ZM462.659 481.134C461.523 479.046 459.447 474.774 458.242 472.726C445.442 450.918 429.558 435.348 409.776 419.378C391.959 405.055 372.195 391.827 353.184 379.088C324.097 359.864 286.292 335.637 258.333 315.505C251.758 310.748 244.434 305.149 238.146 300.027C213.45 279.936 191.705 256.208 173.245 230.293C164.885 217.863 168.299 223.235 162.75 214.345L159.383 208.948C151.794 196.261 145.058 182.927 139.09 169.409C146.947 184.36 155.308 199.048 164.782 213.029C168.846 219.121 172.191 223.786 172.602 224.327C193.248 253.179 216.081 275.848 240.377 297.402C262.386 317.09 286.332 334.681 311.403 350.273C373.066 389.114 424.41 410.536 458.745 472.454C459.763 474.462 461.917 478.873 462.898 481.024C463.651 482.873 465.834 488.057 466.543 489.814C467.124 491.454 468.307 494.998 469.131 497.399C468.263 494.913 467.278 492.241 466.448 489.851C465.191 487.027 463.989 483.91 462.666 481.131L462.659 481.134Z" fill="#FAFAFA"/>
</svg>
