<svg width="1440" height="550" viewBox="0 0 1440 550" fill="none" xmlns="http://www.w3.org/2000/svg">
<g clip-path="url(#clip0_4715_728)">
<rect x="-2" width="1442" height="284" fill="black"/>
<g clip-path="url(#clip1_4715_728)">
<path d="M-405 250.029C-275.202 212.437 -128.644 172.707 3.01593 183.054C24.4651 184.64 45.7762 187.33 67.915 190.641C69.5013 190.848 71.0876 191.055 72.6049 191.331C84.3295 193.124 96.261 194.986 108.813 196.987C112.331 197.538 115.917 198.09 119.572 198.711C121.434 198.987 123.297 199.332 125.09 199.608C230.128 216.231 368.134 235.199 625.799 212.713C805.323 194.848 985.882 179.467 1166.44 185.261C1360.93 191.744 1554.32 214.92 1747.98 232.992C1858.67 243.545 1969.78 255.271 2081.1 252.167C2136.41 249.684 2193.38 244.166 2244 220.231V979.931H-405V250.029Z" fill="#F9F9FC"/>
<path opacity="0.09" d="M2210.83 81.521C2174.34 102.559 2132.48 111.663 2091.1 117.388C2048.54 123.113 2005.65 124.907 1962.75 124.907C1949.64 124.907 1936.61 124.769 1923.5 124.493C1807.5 120.975 1691.7 111.319 1575.97 101.593C1549.01 99.4548 1521.97 97.1785 1495.01 94.9023C1414.04 88.3496 1333.07 82.4177 1251.96 79.1759C1231.34 78.0722 1188.37 75.934 1167.89 74.8994C1084.37 71.1057 998.986 66.8982 915.465 66.1394C904.155 65.9325 892.844 65.8635 881.464 65.8635C724.217 65.8635 567.038 84.556 413.929 120.423C322.96 139.737 229.99 153.946 136.883 153.946C134.676 153.946 132.538 153.946 130.331 153.946C118.469 154.428 106.606 154.704 94.7437 154.704C61.501 154.704 28.3273 152.566 -4.57059 147.186C-18.5022 144.979 -32.3647 142.22 -46.0894 139.668C-59.7451 137.047 -73.4698 134.701 -87.3324 133.322C-95.6086 132.425 -103.816 131.942 -112.023 131.942C-159.266 131.942 -205.613 146.289 -250.097 162.085C-288.237 175.88 -326.79 192.503 -364.447 209.471C-378.033 216.024 -391.551 222.715 -405 229.405C-389.758 222.508 -373.964 215.541 -357.964 208.574C-357.688 208.437 -357.481 208.368 -357.205 208.23C-326.928 195.124 -294.927 181.605 -262.512 169.741C-262.098 169.603 -261.684 169.465 -261.27 169.258C-253.132 166.292 -244.925 163.395 -236.718 160.705C-234.511 159.947 -232.235 159.188 -229.959 158.498C-221.476 155.739 -213.268 153.256 -205.268 150.98C-204.578 150.773 -203.889 150.566 -203.199 150.428C-202.716 150.29 -202.233 150.152 -201.82 150.014C-195.819 148.359 -189.75 146.772 -183.819 145.393C-177.957 144.013 -172.232 142.703 -166.646 141.599L-164.025 141.047L-161.059 140.564C-156.99 139.806 -153.059 139.185 -149.197 138.564L-148.576 138.495C-145.266 137.874 -141.886 137.529 -138.507 137.185C-138.438 137.185 -138.369 137.185 -138.3 137.185L-127.955 136.081C-126.23 135.943 -124.506 135.874 -122.782 135.736C-112.161 135.115 -102.161 135.184 -92.574 135.667C-83.6081 136.15 -74.6423 136.978 -65.8143 138.288C-63.2625 138.702 -60.6417 139.116 -58.0209 139.53C-46.4343 141.392 -34.9166 143.668 -22.7782 146.151C-8.63968 148.979 6.11951 151.945 22.327 154.497C41.4312 157.394 60.7423 159.464 80.0534 160.498C91.1573 161.119 102.606 161.464 114.055 161.464C128.607 161.464 143.159 160.981 157.436 160.153C158.125 160.084 158.815 160.084 159.436 160.016C160.608 159.947 161.712 159.878 162.884 159.809C163.436 159.74 163.988 159.74 164.539 159.671C166.953 159.533 169.367 159.326 171.781 159.188C173.919 159.05 176.195 158.843 178.402 158.705C178.471 158.705 178.471 158.705 178.54 158.705C285.855 150.635 391.514 126.079 497.173 107.18C562.417 96.4198 628.144 88.9704 694.146 83.6593C695.94 83.5213 697.802 83.3144 699.595 83.1765C700.285 83.1075 700.905 83.0385 701.595 82.9695C703.319 82.8316 704.974 82.6936 706.699 82.4867C707.457 82.4177 708.216 82.3487 708.974 82.2798C710.63 82.1418 712.354 82.0039 714.009 81.8659C714.768 81.7969 715.527 81.728 716.285 81.659C718.009 81.521 719.734 81.3831 721.458 81.2451C722.148 81.1762 722.768 81.1072 723.458 81.1072C725.32 80.9692 727.182 80.8313 729.044 80.6933C729.251 80.6933 729.527 80.6933 729.734 80.6244C736.562 80.1415 743.459 79.6587 750.493 79.1759C750.562 79.1759 750.631 79.1759 750.769 79.1759C752.838 79.0379 754.976 78.9 757.114 78.762C757.528 78.762 758.011 78.693 758.425 78.693C760.425 78.5551 762.494 78.4861 764.563 78.3482C765.046 78.3482 765.529 78.2792 766.08 78.2792C768.149 78.1412 770.218 78.0722 772.287 77.9343C772.701 77.9343 773.046 77.8653 773.46 77.8653C775.667 77.7274 777.874 77.6584 780.15 77.5204C780.219 77.5204 780.219 77.5204 780.288 77.5204C790.15 77.0376 800.151 76.6238 810.358 76.2789C810.427 76.2789 810.496 76.2789 810.565 76.2789C845.67 74.5545 880.705 73.2439 915.741 72.1403C946.984 71.3126 978.226 70.8298 1009.47 70.8298C1062.37 70.8298 1115.34 72.1403 1168.1 75.0373C1292.38 81.4521 1416.38 95.5231 1540.39 106.904C1540.52 106.904 1540.66 106.904 1540.87 106.973C1541.56 107.042 1542.25 107.111 1542.87 107.18C1549.63 107.801 1556.39 108.422 1563.08 108.973C1563.77 109.042 1564.46 109.111 1565.21 109.18C1570.53 109.663 1575.77 110.077 1581.08 110.56C1584.73 110.905 1588.6 111.181 1592.6 111.526C1614.46 113.319 1636.32 115.112 1658.18 116.906C1659.22 116.975 1660.32 117.044 1661.43 117.182C1664.67 117.457 1667.84 117.664 1671.01 117.94C1755.08 124.631 1839.29 130.563 1923.64 131.46C2007.58 131.253 2093.99 130.149 2173.79 101.248C2200 91.3156 2225.24 77.1066 2244.28 56.1379C2234.55 66.4153 2222.96 74.5545 2210.83 81.521Z" fill="#B49164"/>
<path opacity="0.16" d="M1922.68 133.667C1862.74 131.597 1802.95 127.942 1743.08 123.527C1716.05 121.596 1688.81 119.458 1661.15 117.181C1595.35 111.87 1576.32 110.284 1540.59 107.042C1535.77 106.628 1530.8 106.145 1526.04 105.731C1525.42 105.662 1524.8 105.593 1524.18 105.593C1433.49 98.0061 1342.65 91.0396 1251.75 87.5218C1169.54 83.3143 1078.92 79.1068 999.676 76.6926C934.432 74.3474 876.36 74.2785 824.014 75.8649C820.289 76.0029 816.427 76.2098 812.703 76.3477C792.771 77.0375 773.598 77.9342 754.908 79.1068C495.932 95.454 386.893 153.325 181.092 158.705C180.195 158.774 179.299 158.843 178.264 158.912C176.057 159.05 173.85 159.188 171.643 159.395C169.298 159.533 166.816 159.739 164.402 159.877C145.918 161.119 129.09 161.671 113.503 161.671C53.5009 161.671 13.3614 153.601 -22.9848 146.358C-58.0207 139.392 -88.2288 133.322 -128.092 136.288L-138.438 137.391C-165.818 140.495 -198.647 148.29 -235.89 160.636C-277.409 174.431 -318.79 191.744 -357.274 208.436C-358.377 208.919 -359.481 209.402 -360.584 209.885C-360.929 210.023 -361.343 210.23 -361.688 210.368C-376.24 217.127 -390.723 224.094 -405.138 231.06C-391.758 225.335 -378.447 219.542 -364.998 213.817C-364.929 213.817 -364.929 213.748 -364.86 213.748C-363.481 213.127 -362.102 212.506 -360.722 211.954C-359.895 211.609 -359.067 211.264 -358.239 210.851C-357.412 210.506 -356.515 210.092 -355.619 209.747C-300.789 186.571 -241.407 163.119 -178.784 148.358C-144.162 140.702 -114.851 137.805 -86.5046 139.116C-60.8484 140.288 -37.951 144.979 -13.7431 149.876C8.94742 154.497 34.6725 159.671 66.4669 162.774C102.882 166.361 142.056 166.706 186.265 163.878C187.713 163.809 189.23 163.74 190.748 163.671C190.817 163.671 190.817 163.671 190.886 163.671C274.337 157.946 376.41 140.15 456.344 124.838C544.072 107.801 632.903 97.9372 721.458 91.3155C726.975 90.8327 732.7 90.3498 738.355 90.0049C748.218 89.3152 758.494 88.6254 768.908 87.9357C776.219 87.4528 783.943 87.039 792.84 86.6251C863.877 82.5556 945.122 79.5896 1019.06 79.5896C1186.79 79.5896 1326.52 94.7643 1496.11 110.767C1497.76 110.905 1499.42 111.043 1501.07 111.181C1503.42 111.387 1505.9 111.594 1508.32 111.801C1569.7 117.595 1635.49 123.596 1700.12 128.631C1704.19 128.976 1708.25 129.252 1712.26 129.597C1714.81 129.804 1717.43 130.011 1720.05 130.218C1759.5 133.184 1799.02 135.736 1838.54 137.736C1937.78 142.702 2079.24 145.668 2172.89 112.284C2197.79 103.248 2225.17 88.4185 2244.21 69.864C2175.65 136.012 2017.92 136.15 1922.68 133.667Z" fill="#B49164"/>
<path opacity="0.23" d="M2130.55 131.529C2024.06 152.083 1863.71 142.427 1724.81 130.839C1720.53 130.494 1716.26 130.149 1712.12 129.804C1708.12 129.459 1704.05 129.114 1699.98 128.838C1635.36 123.803 1569.63 117.802 1508.18 112.008C1505.76 111.801 1503.35 111.595 1500.94 111.388C1498.66 111.181 1496.32 110.974 1494.04 110.767C1337.83 98.6961 1056.71 84.8319 915.604 84.1422C879.533 83.8663 843.67 84.4181 807.875 85.9355C805.392 86.0735 802.771 86.2114 800.289 86.3494C788.15 86.9012 778.15 87.453 768.839 88.0738C758.425 88.7635 748.149 89.4533 738.355 90.1431C737.941 90.1431 737.459 90.212 737.045 90.212C482.897 109.939 394.411 161.119 189.299 163.878C188.334 163.947 187.368 163.947 186.471 164.016C142.263 166.844 103.02 166.499 66.6047 162.913C34.8104 159.809 9.08527 154.566 -13.6053 149.945C-37.8131 145.048 -60.7106 140.426 -86.3667 139.185C-114.713 137.874 -144.024 140.771 -178.646 148.428C-241.269 163.188 -300.651 186.64 -355.481 209.816C-356.377 210.161 -357.205 210.575 -358.101 210.92C-358.929 211.265 -359.757 211.678 -360.584 212.023C-361.067 212.23 -361.55 212.437 -362.033 212.644C-376.447 219.197 -390.792 225.818 -405.069 232.509C-391.482 226.784 -377.826 221.128 -364.171 215.472C-363.826 215.334 -363.481 215.196 -363.136 215.058C-360.722 214.024 -358.308 212.989 -355.826 211.954C-304.444 190.986 -261.063 175.397 -223.338 164.223C-188.647 153.946 -158.645 147.462 -131.61 144.427C-80.3665 138.564 -45.0548 145.6 -4.08768 153.67C18.8787 158.222 44.8798 163.326 76.3982 166.637C112.469 170.362 150.746 171.121 193.368 168.913C194.334 168.844 195.368 168.844 196.334 168.844C196.61 168.844 196.817 168.844 197.093 168.844C207.99 168.224 219.3 167.534 227.921 166.706C241.577 165.81 283.441 161.257 290.682 160.222C327.649 155.532 336.133 154.773 415.446 141.875C504.07 124.493 601.246 111.526 699.319 102.697C716.837 101.11 733.32 99.6617 749.321 98.4202C753.045 98.1443 756.908 97.8684 760.563 97.6614C888.982 88.2807 1016.3 85.9355 1125.54 89.9361C1251.27 94.2126 1392.04 109.042 1542.87 123.251C1542.94 123.251 1543.08 123.251 1543.15 123.251C1545.9 123.527 1548.73 123.803 1551.56 124.01C1552.11 124.079 1552.66 124.079 1553.21 124.148C1558.94 124.7 1564.73 125.183 1570.59 125.735C1571.15 125.804 1571.7 125.804 1572.25 125.873C1575.15 126.148 1578.04 126.424 1580.94 126.7C1581.35 126.769 1581.7 126.769 1582.11 126.838C1584.73 127.045 1587.42 127.321 1590.11 127.528C1590.66 127.597 1591.22 127.597 1591.77 127.666C1594.66 127.942 1597.63 128.218 1600.53 128.425C1601.08 128.494 1601.7 128.494 1602.25 128.563C1604.94 128.838 1607.7 129.045 1610.46 129.321C1610.8 129.321 1611.22 129.39 1611.56 129.39C1614.53 129.666 1617.49 129.942 1620.46 130.149C1621.15 130.218 1621.84 130.287 1622.53 130.356C1625.56 130.632 1628.6 130.908 1631.7 131.184C1631.77 131.184 1631.77 131.184 1631.84 131.184C1634.87 131.46 1637.98 131.735 1641.01 131.942C1641.7 132.011 1642.32 132.08 1643.01 132.149C1646.05 132.425 1649.15 132.701 1652.18 132.908C1652.67 132.977 1653.15 132.977 1653.63 133.046C1656.39 133.253 1659.15 133.529 1661.84 133.736C1662.53 133.805 1663.15 133.874 1663.84 133.874C1666.87 134.15 1669.98 134.357 1673.01 134.632C1673.63 134.701 1674.25 134.77 1674.94 134.77C1677.77 134.977 1680.6 135.253 1683.43 135.46C1683.91 135.529 1684.32 135.529 1684.81 135.598C1687.98 135.874 1691.15 136.081 1694.25 136.357C1694.94 136.426 1695.56 136.495 1696.25 136.495C1699.5 136.771 1702.74 136.978 1706.05 137.254C1710.12 137.598 1714.26 137.943 1718.26 138.219C1720.6 138.426 1722.95 138.633 1725.29 138.771C1725.29 138.771 1725.29 138.771 1725.36 138.771C1776.67 142.634 1828.05 145.876 1879.5 148.083C1969.92 151.187 2086.82 152.014 2171.79 123.114C2196.96 114.423 2224.41 100.007 2244 81.866C2214.76 109.111 2169.45 123.941 2130.55 131.529Z" fill="#B49164"/>
<path opacity="0.3" d="M1992.89 152.911C1905.23 152.911 1817.85 147.186 1730.53 139.806C1726.46 139.461 1722.32 139.116 1718.32 138.84C1714.32 138.495 1710.19 138.15 1706.12 137.874C1633.77 132.218 1564.94 125.804 1506.87 120.285C1436.18 114.285 1349.14 108.353 1167.54 100.282C1085.47 96.6267 1003.06 93.4539 920.707 93.4539C853.67 93.4539 796.495 95.5921 746.217 99.1099C725.113 100.765 702.974 102.697 678.835 105.042C580.832 115.526 510.346 131.391 436.205 145.117C355.375 159.257 280.061 168.982 197.989 169.12C197.506 169.12 196.955 169.12 196.472 169.12C195.506 169.12 194.472 169.12 193.506 169.189C150.884 171.397 112.606 170.638 76.5361 166.913C45.0176 163.671 19.0166 158.498 -3.94983 153.946C-44.848 145.875 -80.1597 138.84 -131.403 144.703C-158.439 147.807 -188.44 154.291 -223.131 164.499C-260.925 175.673 -304.237 191.262 -355.619 212.23C-358.033 213.196 -360.516 214.299 -362.929 215.334C-363.067 215.403 -363.205 215.472 -363.343 215.541C-377.344 221.68 -391.206 227.888 -405 234.233C-391.068 228.577 -377.068 222.921 -363.067 217.403C-361.895 216.921 -360.722 216.438 -359.55 215.955C-358.102 215.334 -356.515 214.713 -355.067 214.093C-319.41 200.021 -272.374 182.157 -225.269 168.637C-200.647 161.533 -177.543 156.084 -156.439 152.359C-132.576 148.152 -110.506 146.013 -90.7808 146.013C-54.2277 146.013 -25.9507 151.531 6.80917 157.946C53.9834 167.189 107.503 177.604 201.989 173.949C202.472 173.949 202.955 173.949 203.438 173.949C203.92 173.949 204.403 173.949 204.886 173.949H205.645C443.723 163.947 552.969 99.9376 1041.68 97.0406C1192.92 97.5234 1347.07 112.698 1502.59 127.735L1504.66 127.942C1576.94 134.977 1647.77 141.668 1719.91 147.186C1722.95 147.393 1725.98 147.669 1728.88 147.945C1730.46 148.083 1732.05 148.221 1733.64 148.359C1740.05 148.841 1746.53 149.324 1753.02 149.738C1922.06 162.361 2088.06 169.051 2190.76 127.321C2210.21 119.32 2228.62 108.422 2244 94.0746C2185.1 145.531 2071.17 152.911 1992.89 152.911Z" fill="#B49164"/>
<path opacity="0.37" d="M2000.75 162.361C1912.75 162.361 1824.95 156.291 1737.22 148.703C1734.39 148.497 1731.64 148.221 1728.88 148.014C1725.91 147.738 1722.88 147.531 1719.91 147.255C1647.77 141.806 1576.94 135.046 1504.66 128.011L1503.14 127.873C1299.62 111.87 1041.75 102.283 930.018 102.283C813.255 102.283 696.561 108.56 581.246 128.011C494.484 141.53 363.996 175.328 206.817 174.018H204.817C203.852 174.087 202.886 174.018 201.921 174.087C107.434 177.742 53.9149 167.327 6.7406 158.084C-26.0193 151.669 -54.2963 146.151 -90.7805 146.151C-110.436 146.151 -132.506 148.29 -156.369 152.497C-177.405 156.222 -200.578 161.671 -225.131 168.775C-272.236 182.364 -319.203 200.228 -354.929 214.23C-356.446 214.782 -357.963 215.472 -359.412 216.093C-360.584 216.576 -361.757 217.058 -362.929 217.541C-376.999 223.542 -390.999 229.612 -404.931 235.82C-391.482 230.578 -378.033 225.336 -364.584 220.162C-363.274 219.611 -361.894 219.128 -360.584 218.576C-359.067 217.955 -357.481 217.334 -355.963 216.714C-302.444 196.297 -257.27 181.122 -217.889 170.362C-181.681 160.429 -150.231 154.222 -121.885 151.325C-68.021 145.875 -30.3643 153.049 13.2926 161.395C61.2255 170.569 115.641 180.915 207.093 178.846C207.852 178.846 208.611 178.846 209.369 178.846C209.99 178.846 210.68 178.846 211.3 178.846C211.507 178.846 211.714 178.846 211.921 178.846C287.303 176.777 362.548 167.258 437.102 156.705C460.62 153.394 496.484 147.462 520.002 143.737C594.419 131.942 669.18 123.941 744.08 118.216C750.218 117.733 756.494 117.181 762.563 116.768C768.701 116.354 774.771 115.94 780.771 115.526C795.254 114.56 809.738 113.664 824.221 112.767C854.843 110.974 885.465 109.525 916.018 108.215C971.744 106.145 1027.68 105.18 1083.68 106.076C1223.13 108.697 1361.97 122.079 1500.73 135.667C1501.35 135.736 1501.97 135.736 1502.59 135.805C1504.25 135.943 1505.97 136.081 1507.7 136.219C1580.32 143.323 1655.43 150.635 1729.91 156.291C1733.29 156.567 1736.67 156.843 1739.98 157.118C1740.53 157.187 1741.15 157.187 1741.77 157.256C1745.36 157.532 1748.88 157.808 1752.46 158.015C1923.37 171.259 2087.3 178.294 2190.21 138.564C2209.72 130.908 2228.41 120.423 2244.21 106.559C2185.65 154.842 2076.48 162.361 2000.75 162.361Z" fill="#B49164"/>
<path opacity="0.44" d="M2158.69 157.05C2046.27 183.467 1857.36 168.224 1739.15 157.325C1736.05 157.05 1732.95 156.774 1729.77 156.567C1655.29 150.911 1580.18 143.599 1507.56 136.495C1507.35 136.495 1507.21 136.495 1507.01 136.426C1309.96 120.768 1049.47 111.319 929.19 111.319C565.521 111.319 460.689 184.295 211.507 179.053C210.818 179.053 210.059 179.053 209.369 179.053C208.611 179.053 207.852 179.053 207.093 179.053C115.641 181.122 61.2255 170.776 13.2926 161.602C-30.3643 153.256 -68.021 146.082 -121.885 151.532C-150.231 154.428 -181.681 160.636 -217.889 170.569C-257.27 181.329 -302.444 196.504 -355.963 216.921C-357.481 217.541 -359.067 218.162 -360.584 218.783C-361.55 219.197 -362.584 219.611 -363.55 219.956C-377.412 225.681 -391.206 231.543 -404.931 237.406C-391.413 232.233 -377.826 227.129 -364.239 222.094C-363.481 221.818 -362.722 221.473 -361.963 221.197C-360.377 220.576 -358.791 219.956 -357.481 219.473C-302.306 199.194 -255.821 184.157 -215.268 173.535C-177.956 163.74 -145.541 157.601 -116.23 154.773C-60.6414 149.462 -21.4674 156.843 23.8447 165.327C70.0534 173.949 122.4 183.812 206.128 183.812C208.128 183.812 210.197 183.812 212.197 183.812C213.438 183.812 214.749 183.812 216.059 183.812C218.68 183.812 221.37 183.743 223.99 183.674C332.271 181.743 456.758 163.188 561.797 147.255C726.976 124.631 968.847 108.146 1167.27 117.251C1277.41 122.424 1387.07 132.839 1496.8 143.53C1496.94 143.53 1497.07 143.53 1497.21 143.53C1499.35 143.668 1501.63 143.875 1503.7 144.082L1515.9 145.255C1585.97 152.083 1658.39 159.119 1729.84 164.706C1731.98 164.844 1734.19 165.051 1736.33 165.258C1737.77 165.396 1739.29 165.534 1740.74 165.672C1740.74 165.672 1740.74 165.672 1740.81 165.672C1744.46 165.947 1748.05 166.223 1751.71 166.499C1918.61 179.191 2149.17 197.331 2244 119.251C2219.1 138.495 2188.96 149.6 2158.69 157.05Z" fill="#B49164"/>
<path opacity="0.51" d="M2157.93 167.879C2045.03 192.365 1859.36 176.984 1741.5 165.878C1739.77 165.74 1738.05 165.603 1736.33 165.465C1734.19 165.258 1731.98 165.051 1729.84 164.913C1658.46 159.326 1585.97 152.29 1515.9 145.462L1507.28 144.634C1308.86 128.769 1050.37 120.147 941.673 120.147C884.637 120.147 834.014 121.803 788.771 124.493C757.39 126.7 726.148 129.321 695.526 132.149C590.832 143.185 519.933 159.119 457.999 167.879C331.374 186.64 259.647 184.64 219.783 183.881C217.231 183.881 214.679 183.881 212.197 183.881C210.196 183.881 208.127 183.881 206.127 183.881C122.4 183.881 70.053 174.087 23.8443 165.396C-21.4678 156.912 -60.6417 149.6 -116.161 154.842C-145.473 157.601 -177.819 163.74 -215.131 173.604C-255.684 184.295 -302.168 199.332 -357.343 219.542C-358.653 220.024 -360.309 220.645 -361.826 221.266C-363.067 221.749 -364.309 222.232 -365.412 222.646C-378.723 228.095 -391.896 233.475 -405 238.993C-392.103 234.233 -379.068 229.543 -366.102 224.853C-365.412 224.577 -364.654 224.301 -363.964 224.025C-361.964 223.266 -359.826 222.508 -357.757 221.749C-310.72 204.988 -248.649 183.95 -185.819 169.948C-80.4356 148.014 -29.744 157.394 34.3965 169.258C81.088 177.88 133.987 187.675 220.059 188.227C220.749 188.227 221.507 188.227 222.197 188.296C222.542 188.296 222.956 188.296 223.3 188.296C223.852 188.296 224.404 188.365 224.887 188.365C225.576 188.365 226.335 188.365 227.025 188.365C365.099 188.434 497.104 163.326 671.525 144.289C672.766 144.151 674.008 144.013 675.249 143.875C703.802 140.771 737.251 137.253 772.425 134.563C773.598 134.494 774.839 134.356 776.012 134.288C857.118 127.666 947.398 123.251 1050.44 123.251C1202.51 123.251 1353.9 137.598 1505.28 152.497C1506.87 152.635 1508.45 152.842 1510.04 152.98C1511.28 153.118 1512.45 153.187 1513.7 153.325C1517.01 153.601 1520.39 153.946 1523.77 154.222C1591.7 160.912 1661.98 167.81 1731.36 173.328C1734.32 173.535 1737.36 173.811 1740.33 174.087C1741.57 174.224 1742.81 174.293 1743.98 174.431C1746.39 174.638 1748.74 174.776 1751.15 174.983C1923.23 188.089 2146.89 207.264 2244.07 131.942C2218.62 150.359 2188.27 160.843 2157.93 167.879Z" fill="#B49164"/>
<path opacity="0.58" d="M2172.48 175.19C2060.68 203.056 1879.71 186.847 1748.81 174.983C1745.98 174.776 1743.08 174.5 1740.33 174.224C1737.36 173.949 1734.33 173.673 1731.36 173.466C1661.98 167.948 1591.77 161.05 1523.77 154.359C1520.45 154.015 1517.01 153.739 1513.7 153.463C1511.76 153.325 1509.83 153.118 1507.9 152.911C1314.45 136.977 1060.02 129.252 944.846 129.252C882.361 129.252 826.152 130.77 766.977 135.184C734.493 137.736 703.595 141.047 676.905 143.875C624.489 150.083 567.038 158.636 499.656 170.362C408.894 183.881 315.649 192.986 223.99 188.502C223.783 188.502 223.577 188.502 223.37 188.502C223.025 188.502 222.611 188.502 222.266 188.502C221.576 188.502 220.818 188.502 220.128 188.433C134.056 187.882 81.1572 178.087 34.4657 169.465C-29.6747 157.601 -80.3664 148.221 -185.681 170.155C-248.511 184.157 -310.582 205.195 -357.619 221.956C-359.688 222.714 -361.757 223.473 -363.757 224.232C-363.826 224.232 -363.964 224.301 -364.033 224.301C-377.688 229.612 -391.344 234.992 -404.862 240.51C-391.689 235.82 -378.447 231.198 -365.205 226.577C-364.24 226.232 -363.274 225.887 -362.377 225.542C-360.791 224.991 -359.136 224.37 -357.55 223.818C-300.513 204.16 -252.166 189.675 -209.82 179.398C-170.853 169.948 -136.851 164.154 -105.885 161.602C-47.0547 156.774 -4.70825 164.361 44.3282 173.121C91.5024 181.536 144.953 191.124 226.266 192.641C227.853 192.641 229.439 192.71 231.232 192.848C378.755 195.124 484.69 173.604 660.421 154.98C663.525 154.635 666.628 154.359 669.732 154.015C669.87 154.015 670.008 153.946 670.146 153.946C672.353 153.67 674.629 153.394 676.836 153.187C720.355 148.703 762.632 145.048 806.151 141.944C808.703 141.737 811.393 141.599 813.944 141.461C814.979 141.392 816.083 141.323 817.117 141.254C854.153 138.702 893.948 136.426 937.122 134.494C1145.96 126.286 1307.89 141.116 1490.8 159.188C1492.38 159.326 1493.97 159.533 1495.56 159.671C1495.9 159.671 1496.25 159.74 1496.59 159.74C1498.59 159.877 1500.66 160.084 1502.59 160.222L1515.56 161.533C1583.91 168.293 1654.6 175.328 1732.33 181.674C1734.39 181.881 1736.53 182.019 1738.6 182.157C1739.84 182.226 1741.15 182.364 1742.46 182.502C1743.02 182.57 1743.57 182.639 1744.12 182.639C1746.33 182.846 1748.53 182.984 1750.67 183.191C1870.47 193.4 2053.44 208.505 2168.07 178.57C2195.1 171.534 2221.52 160.843 2244.14 144.427C2222.48 159.257 2197.52 168.568 2172.48 175.19Z" fill="#B49164"/>
<path opacity="0.65" d="M2176.83 184.916C2065.72 213.886 1855.64 194.021 1738.12 182.364C1736.12 182.226 1734.19 182.019 1732.19 181.881C1654.46 175.466 1583.77 168.5 1515.42 161.74L1502.45 160.429C1502.25 160.429 1502.04 160.36 1501.83 160.36C1343 147.807 1148.16 140.495 999.676 138.495C984.089 138.288 968.502 138.219 952.916 138.219C894.982 138.219 850.084 139.53 808.289 141.944C807.531 142.013 806.772 142.013 806.082 142.082C762.701 145.186 720.493 148.842 677.043 153.325C522.14 172.086 395.721 203.125 230.198 192.986C228.818 192.917 227.508 192.848 226.266 192.848C144.884 191.331 91.4336 181.743 44.2593 173.328C-4.77707 164.568 -47.1236 156.981 -105.953 161.809C-136.92 164.361 -170.922 170.155 -209.889 179.605C-252.235 189.882 -300.513 204.367 -357.549 224.025C-359.136 224.577 -360.791 225.198 -362.377 225.75C-363.274 226.094 -364.17 226.37 -365.067 226.715C-378.447 231.75 -391.758 236.855 -404.931 242.097C-391.551 237.475 -378.102 232.923 -364.584 228.44C-363.688 228.164 -362.791 227.819 -361.963 227.543C-360.377 226.991 -358.791 226.439 -357.136 225.887C-298.995 206.574 -249.683 192.296 -206.44 182.295C-166.577 173.052 -131.748 167.396 -99.8153 165.051C-39.2612 160.567 4.80951 168.293 55.9149 177.329C92.2612 183.743 133.435 190.986 187.23 194.986C202.128 196.09 208.128 196.228 208.128 196.228H208.197C215.852 196.642 224.335 196.987 233.301 197.194C235.094 197.263 236.956 197.332 238.819 197.4C381.928 200.297 507.243 181.398 658.421 164.706C663.387 164.085 668.422 163.533 673.387 162.982C703.733 159.671 731.252 156.912 757.735 154.567C763.736 154.015 769.874 153.532 775.943 153.049C860.084 145.876 953.605 140.702 1062.09 140.702C1204.3 140.702 1326.79 151.601 1486.32 166.982C1486.8 167.051 1487.28 167.051 1487.76 167.12C1489.07 167.189 1490.45 167.327 1491.7 167.465C1501.76 168.431 1511.97 169.396 1522.32 170.431C1579.42 175.949 1644.18 182.226 1715.36 188.572L1733.36 190.158C1737.43 190.503 1741.7 190.917 1745.84 191.331C1746.33 191.4 1746.81 191.4 1747.29 191.469C1881.64 203.401 2056.48 216.921 2167.45 189.606C2194.55 182.985 2221.1 172.845 2244.21 157.119C2222.21 171.121 2199.58 178.708 2176.83 184.916Z" fill="#B49164"/>
<path opacity="0.72" d="M2083.44 208.23C1983.65 213.748 1840.4 200.849 1727.64 189.813L1715.22 188.709C1644.05 182.364 1579.35 176.087 1522.18 170.569C1512.45 169.603 1502.87 168.706 1493.42 167.81C1358.52 157.188 1138.37 147.324 933.19 147.324C869.119 147.324 808.565 150.497 754.425 155.049C728.975 157.394 702.354 160.016 673.249 163.188C672.559 163.257 671.87 163.326 671.18 163.395C595.798 172.224 541.52 181.881 520.76 184.364C427.998 196.78 333.512 203.953 239.715 197.745C238.542 197.676 237.301 197.607 236.128 197.469C235.163 197.4 234.128 197.4 233.163 197.331C224.128 197.125 215.714 196.78 207.989 196.366C207.783 196.366 206.817 196.366 203.093 196.159C199.989 196.021 194.748 195.676 187.092 195.124C185.368 194.986 183.713 194.848 182.057 194.71C137.366 191.469 101.916 185.606 69.9151 179.881C65.0873 179.053 60.3975 178.225 55.7766 177.397C4.67117 168.362 -39.3995 160.636 -99.9536 165.12C-131.817 167.465 -166.715 173.121 -206.509 182.364C-249.753 192.365 -299.065 206.643 -357.205 225.956C-358.791 226.508 -360.447 227.06 -362.033 227.612C-362.86 227.888 -363.757 228.233 -364.654 228.509C-378.102 233.544 -391.551 238.579 -405 243.683C-392.241 239.476 -379.413 235.268 -366.654 231.13C-366.102 230.923 -365.481 230.716 -364.929 230.509C-362.929 229.819 -360.929 229.129 -358.998 228.509C-298.168 208.919 -232.373 189.123 -163.956 177.191C-103.885 165.878 -44.848 164.223 11.568 172.362C34.8793 175.88 54.3973 179.26 73.2946 182.502C123.297 191.124 162.815 197.952 235.784 201.056C238.06 201.125 240.336 201.263 242.612 201.401C387.376 206.919 497.449 190.503 655.179 174.156C657.8 173.811 660.49 173.535 663.111 173.259C716.561 167.741 763.666 163.533 811.185 160.016C815.048 159.74 818.979 159.464 822.91 159.257C852.222 157.119 883.257 155.187 916.155 153.463C967.26 150.98 1018.99 149.324 1070.23 149.324C1074.58 149.324 1078.85 149.324 1083.2 149.393C1215.41 150.152 1354.17 162.154 1491.49 175.466C1494.94 175.742 1498.52 176.018 1501.97 176.363L1509.49 177.122C1525.83 178.708 1542.46 180.363 1558.53 181.95C1616.67 187.675 1676.74 193.607 1734.39 198.573C1736.81 198.78 1739.29 198.987 1741.7 199.263C1743.08 199.401 1744.46 199.539 1745.84 199.677C1747.08 199.815 1748.33 199.884 1749.57 200.022C1904.47 213.334 2140 236.924 2244 169.81C2198.41 197.193 2136.41 205.333 2083.44 208.23Z" fill="#B49164"/>
<path opacity="0.79" d="M2082.75 218.162C1970.2 221.473 1858.05 211.265 1746.12 199.884C1744.6 199.746 1743.08 199.608 1741.64 199.47C1739.22 199.263 1736.74 198.987 1734.32 198.78C1676.67 193.814 1616.6 187.882 1558.46 182.157C1542.39 180.57 1525.83 178.915 1509.42 177.328L1503.63 176.777C1317.69 162.085 1085.13 156.153 968.295 156.153C907.051 156.153 860.429 157.325 813.944 160.015C812.979 160.084 812.082 160.153 811.117 160.222C763.873 163.74 717.044 167.948 664.007 173.328C547.106 188.158 402.549 214.782 239.094 201.401C237.922 201.332 236.749 201.263 235.646 201.194C162.747 198.09 123.159 191.262 73.1568 182.64C54.2595 179.398 34.7415 176.018 11.4303 172.5C-44.9857 164.43 -103.954 166.016 -164.025 177.328C-232.441 189.261 -298.168 209.057 -359.067 228.646C-360.998 229.267 -363.067 229.957 -364.998 230.647C-365.55 230.854 -366.102 231.061 -366.653 231.199C-379.55 235.751 -392.379 240.441 -405.138 245.132C-392.31 240.993 -379.413 236.924 -366.447 232.854C-365.895 232.647 -365.274 232.509 -364.722 232.302C-362.515 231.543 -360.239 230.785 -357.963 230.095C-283.754 207.057 -187.612 179.674 -101.747 172.569C-32.0197 166.361 19.9823 175.259 80.1916 185.537C126.4 193.469 178.816 202.436 247.302 205.402C247.922 205.402 248.612 205.471 249.233 205.54C249.508 205.54 249.853 205.608 250.129 205.608C250.75 205.677 251.44 205.677 252.06 205.746C399.79 212.023 513.519 197.607 657.042 182.846C659.387 182.571 661.731 182.226 664.145 182.019C697.94 178.57 743.252 174.087 794.012 170.086C796.633 169.879 799.392 169.672 802.013 169.534C802.84 169.465 803.668 169.396 804.496 169.396C862.774 164.913 926.914 161.188 999.745 159.05C1024.78 158.291 1049.95 157.946 1075.2 157.946C1212.17 157.946 1351.34 169.948 1496.73 184.019C1497.21 184.088 1497.7 184.088 1498.18 184.157C1500.87 184.364 1503.56 184.571 1506.25 184.847C1528.11 186.985 1550.18 189.123 1571.56 191.262C1628.39 196.849 1682.05 202.16 1735.15 206.85C1737.43 207.057 1739.77 207.264 1742.05 207.54C1743.22 207.678 1744.39 207.747 1745.64 207.885C1746.88 208.023 1748.12 208.092 1749.29 208.23C1835.5 216.162 1930.19 224.301 2017.85 224.301C2089.1 224.301 2182.89 219.404 2244.21 182.364C2197.52 208.437 2135.51 215.748 2082.75 218.162Z" fill="#B49164"/>
<path opacity="0.86" d="M2082.13 228.095C1970.47 230.371 1859.43 219.956 1747.98 208.368C1745.91 208.161 1743.84 207.954 1741.84 207.747C1739.57 207.54 1737.22 207.264 1734.95 207.057C1681.84 202.367 1628.18 197.056 1571.35 191.469C1549.97 189.33 1527.9 187.192 1506.04 185.054C1503.42 184.778 1500.66 184.571 1497.97 184.364C1496.18 184.226 1494.32 184.088 1492.52 183.881C1346.1 172.707 1177.13 167.051 1041.4 165.465C1018.64 165.12 995.813 164.913 973.054 164.913C900.775 164.913 848.29 166.568 792.771 170.5C742.562 174.5 697.733 178.915 664.214 182.295C664.145 182.295 664.145 182.295 664.076 182.295C561.314 195.124 408.342 220.162 250.681 205.953C250.474 205.953 250.336 205.953 250.129 205.884C249.853 205.884 249.508 205.816 249.232 205.816C248.612 205.747 247.922 205.747 247.301 205.678C178.885 202.712 126.4 193.745 80.1914 185.813C19.9821 175.466 -31.951 166.568 -101.678 172.845C-187.474 180.088 -283.616 207.471 -357.826 230.509C-359.964 231.199 -362.171 231.888 -364.309 232.578C-377.895 237.268 -391.482 242.028 -405 246.856C-391.827 242.787 -378.654 238.717 -365.412 234.716C-364.447 234.44 -363.481 234.096 -362.516 233.751C-360.929 233.268 -359.274 232.716 -357.757 232.233C-313.962 219.128 -275.754 208.644 -240.856 200.366C-196.026 189.675 -156.025 182.295 -121.954 178.501C-77.9527 173.328 -38.5719 172.776 2.18835 176.777C31.7757 179.674 59.4319 184.364 88.6745 189.261C133.366 196.849 184.057 205.402 254.06 209.54C255.853 209.678 257.716 209.816 259.509 209.954C285.441 211.403 313.994 212.23 346.064 212.23C473.172 212.23 560.693 201.332 678.008 189.744C678.422 189.675 678.835 189.675 679.18 189.606C681.042 189.399 682.974 189.123 684.905 188.985C712.354 186.295 754.562 182.295 803.461 178.57C807.461 178.294 811.53 178.018 815.53 177.742C852.291 175.052 892.499 172.5 937.19 170.293C1138.51 161.326 1284.1 171.121 1511.63 193.4C1512.45 193.469 1513.28 193.538 1514.04 193.607C1516.25 193.814 1518.59 193.952 1520.8 194.228C1523.35 194.503 1525.97 194.71 1528.59 194.986C1551.56 197.263 1574.94 199.608 1597.56 201.884C1654.32 207.609 1712.94 213.472 1770.26 218.576C1775.98 219.059 1781.78 219.68 1787.43 220.162C1788.4 220.231 1789.36 220.369 1790.33 220.438C1972.4 236.51 2149.1 247.753 2244.07 194.848C2196.34 219.68 2135.51 226.094 2082.13 228.095Z" fill="#B49164"/>
<path opacity="0.93" d="M1787.64 220.507C1787.5 220.507 1787.43 220.507 1787.29 220.507C1781.64 219.955 1775.84 219.404 1770.12 218.921C1712.81 213.817 1654.11 207.885 1597.42 202.229C1574.8 199.952 1551.49 197.607 1528.45 195.331C1525.83 195.055 1523.28 194.848 1520.66 194.572C1520.45 194.572 1520.32 194.572 1520.11 194.503C1350.59 180.156 1128.92 174.018 984.572 174.018C895.948 174.018 849.187 175.604 794.426 179.536C752.494 182.846 716.078 186.226 690.422 188.709C560.624 202.849 416.205 226.232 253.509 209.816C183.713 205.677 133.159 197.124 88.5368 189.537C59.2943 184.571 31.638 179.881 2.05066 177.053C-38.6406 173.052 -78.0215 173.604 -122.023 178.777C-156.093 182.571 -196.095 189.882 -240.924 200.642C-275.753 208.988 -313.962 219.404 -357.757 232.509C-359.274 232.992 -360.929 233.475 -362.515 234.027C-363.412 234.302 -364.309 234.647 -365.274 234.923C-378.654 239.338 -391.896 243.89 -405.138 248.511C-391.275 244.373 -377.275 240.234 -363.274 236.165C-362.308 235.889 -361.343 235.613 -360.446 235.268C-358.998 234.785 -357.412 234.302 -355.963 233.889C-293.616 215.817 -219.406 195.883 -142.231 184.985C-40.7097 170.086 25.8447 181.122 102.813 193.952C147.436 201.401 193.575 209.057 252.681 213.196C254.336 213.334 256.061 213.472 257.785 213.679C394.756 222.921 513.381 214.162 637.8 202.78C638.006 202.78 638.282 202.712 638.489 202.712C640.214 202.505 642.007 202.298 643.731 202.16C657.042 200.918 670.628 199.677 683.801 198.435C721.389 194.917 760.287 191.262 800.427 187.951C803.116 187.744 805.944 187.537 808.703 187.399C808.772 187.399 808.91 187.399 808.979 187.399C924.638 178.087 1052.51 171.879 1208.03 178.363C1304.24 183.122 1402.66 191.537 1501.14 200.918C1504.39 201.194 1507.63 201.539 1510.87 201.884C1511.56 201.953 1512.25 202.022 1512.94 202.022C1515.7 202.229 1518.52 202.505 1521.21 202.712C1555.42 206.022 1590.18 209.471 1623.77 212.782C1663.08 216.714 1703.7 220.714 1743.36 224.508C1751.29 225.267 1759.15 226.025 1766.95 226.715C1768.88 226.922 1770.88 227.129 1772.81 227.336C1773.71 227.405 1774.6 227.543 1775.5 227.612C1927.85 241.821 2065.37 251.684 2164.69 233.406C2192.07 228.371 2219.1 220.507 2243.93 207.747C2142.13 256.444 1945.85 236.372 1787.64 220.507Z" fill="#B49164"/>
<path d="M2163.93 241.89C2136.48 245.891 2108.75 247.477 2081.03 247.891C1969.58 248.236 1876.05 238.579 1765.57 226.646C1758.26 225.957 1750.88 225.267 1743.5 224.577C1703.84 220.783 1663.22 216.783 1623.91 212.851C1590.32 209.54 1555.56 206.091 1521.35 202.781C1521.08 202.781 1520.8 202.712 1520.59 202.712C1413.9 194.228 1286.45 187.123 1124.78 184.295C1020.71 182.64 916.5 181.605 812.565 187.261C811.323 187.33 810.151 187.399 808.91 187.468C806.151 187.606 803.392 187.813 800.633 188.02C760.563 191.331 721.665 194.986 684.008 198.504C670.835 199.746 657.179 200.987 643.938 202.229C643.662 202.229 643.455 202.298 643.179 202.298C622.764 204.712 602.005 207.126 583.59 208.919C475.31 220.025 365.72 225.819 257.302 213.679C255.853 213.541 254.336 213.403 252.888 213.265C193.782 209.126 147.642 201.401 103.02 194.021C26.0513 181.191 -40.503 170.155 -141.955 185.054C-219.269 196.021 -293.409 215.955 -355.757 234.027C-357.205 234.441 -358.722 234.923 -360.171 235.406C-361.205 235.751 -362.24 236.027 -363.343 236.372C-377.344 240.855 -391.206 245.408 -405 250.029C-275.202 212.437 -128.644 172.707 3.01593 183.054C24.4651 184.64 45.7762 187.33 67.915 190.641C69.5013 190.848 71.0876 191.055 72.6049 191.331C84.3295 193.124 96.261 194.986 108.813 196.987C112.331 197.538 115.917 198.09 119.572 198.711C121.434 198.987 123.297 199.332 125.09 199.608C230.128 216.231 368.134 235.199 625.799 212.713C805.323 194.848 985.882 179.467 1166.44 185.261C1360.93 191.744 1554.32 214.92 1747.98 232.992C1858.67 243.545 1969.78 255.271 2081.1 252.167C2136.41 249.684 2193.38 244.166 2244 220.232C2218.55 231.475 2191.31 237.82 2163.93 241.89Z" fill="#B49164"/>
<path opacity="0.02" d="M2116.27 620.567C2031.72 619.601 1945.64 614.911 1861.3 608.289C1789.71 602.84 1710.53 593.735 1639.15 585.389C1544.46 574.905 1448.38 561.869 1354.86 543.521C1292.45 531.381 1229.62 516.482 1167.54 503.101C1064.44 480.339 957.744 462.612 854.567 439.505C808.565 429.504 762.977 417.985 717.389 406.328C679.043 398.12 639.248 389.981 600.695 382.049C572.418 376.255 543.176 370.254 515.588 364.46C445.655 349.906 375.859 338.387 308.27 330.317C296.614 328.937 284.614 327.696 272.958 326.592L268.268 326.109C268.061 326.109 267.924 326.109 267.717 326.04C254.13 325.144 240.543 324.316 227.025 323.695C237.715 325.006 248.819 326.109 259.854 327.282C260.613 327.351 261.372 327.42 262.13 327.489C264.268 327.696 266.544 327.903 268.475 328.11C277.165 329.075 284.131 329.903 290.476 330.8C319.029 334.386 349.099 338.594 377.376 342.939L379.1 343.215C406.274 347.837 437.103 353.01 463.793 357.976C497.864 364.184 540.9 373.358 578.901 381.428C587.867 383.359 596.35 385.153 604.419 386.877C613.178 388.739 622.282 390.602 631.593 392.533C666.836 399.844 706.837 408.121 743.804 416.261C745.666 416.674 747.666 417.157 749.598 417.64C764.15 420.882 778.357 424.055 791.806 427.228C831.877 436.54 876.085 447.3 916.018 457.163C987.814 474.752 1061.82 491.513 1134.37 505.584C1193.41 517.586 1294.1 533.726 1354.66 544.211C1476.25 565.11 1611.08 592.149 1733.22 605.116C1859.92 618.636 1988.75 626.292 2116.13 624.981C2157.65 624.912 2202.14 623.05 2243.86 621.257C2202.41 620.981 2157.86 621.878 2116.27 620.567Z" fill="#B49164"/>
<path opacity="0.9" d="M2084.27 284.586C1867.36 285.551 1652.74 245.27 1436.45 232.509C1287.69 222.714 1138.58 217.265 989.469 215.127C894.499 214.161 799.461 217.541 704.906 227.267C649.8 232.992 588.281 238.855 532.899 241.545C482.552 244.028 430.895 244.304 380.617 241.683C326.891 238.786 273.579 231.75 220.68 222.232C219.645 222.094 218.749 221.956 217.99 221.818C217.163 221.68 216.542 221.611 216.404 221.611C191.299 218.369 165.85 214.368 141.297 210.575C111.71 206.022 81.1572 201.263 51.0181 197.676C36.3279 195.952 21.2238 194.641 6.18878 193.883C5.15424 193.814 4.05075 193.814 2.94727 193.745C-24.4331 193.538 -51.8135 194.917 -79.0559 197.745C-168.439 207.747 -256.097 230.716 -341.756 257.409C-312.789 249.891 -282.236 242.028 -253.063 235.13C-240.235 232.302 -226.165 229.267 -213.406 226.301C-191.543 221.749 -165.611 216.852 -143.61 213.334C-132.782 211.609 -119.264 209.954 -108.505 208.368L-103.471 207.816L-83.332 205.54L-78.2973 204.988L-73.2626 204.574C-62.9864 203.884 -53.3997 202.78 -42.9856 202.505C-22.0882 201.332 -1.19083 201.332 19.6376 202.229C21.4308 202.229 23.2239 202.298 25.0171 202.367C48.2594 203.539 72.812 205.884 98.1924 209.471C118.814 212.368 139.78 215.748 160.126 218.99C179.299 222.094 199.162 225.267 218.611 228.026C225.784 229.06 233.163 230.095 240.474 231.13C242.681 231.405 244.957 231.75 247.164 232.095C247.302 232.095 247.509 232.164 247.646 232.164C278.337 236.096 309.166 239.062 339.995 241.338C448.206 248.856 557.107 247.339 665.249 239.2C751.942 232.233 841.67 225.887 928.708 221.956C1030.16 217.196 1132.03 216.645 1233.41 222.37C1428.59 234.027 1645.43 262.031 1840.47 279.137C1921.44 286.172 2003.09 291.759 2084.41 288.931C2138.48 286.448 2193.38 280.378 2244.07 260.375C2192.83 278.447 2138.2 283.482 2084.27 284.586Z" fill="#B49164"/>
<path opacity="0.85" d="M2165.79 297.415C2086.13 307.21 2005.58 303.209 1925.78 297.415C1712.53 279.826 1500.04 249.615 1285.96 241.752C1247.62 239.751 1204.1 237.889 1165.61 236.372C1018.5 230.371 870.774 226.715 724.01 241.131C651.662 248.028 576.556 254.512 503.932 254.995C437.378 255.754 369.858 251.822 303.993 241.752C285.579 239.131 267.233 235.958 248.957 232.578C248.336 232.509 247.715 232.371 247.026 232.302C244.819 231.957 242.543 231.612 240.336 231.336C233.025 230.371 225.646 229.336 218.473 228.232C199.024 225.473 179.161 222.3 159.988 219.197C139.642 215.955 118.607 212.575 98.0544 209.678C72.7431 206.16 48.1214 203.746 24.9481 202.573C24.4653 202.573 23.9825 202.504 23.4998 202.504C-1.05295 202.297 -25.6056 203.263 -50.0204 205.47C-91.1944 209.195 -133.817 216.575 -174.163 225.266C-219.82 234.923 -265.477 247.615 -310.168 260.996C-213.268 236.785 -114.644 214.506 -14.5017 210.85C3.15414 210.023 20.81 210.161 38.4659 210.85C38.5348 210.85 38.6728 210.85 38.7418 210.85C40.6729 210.919 42.6039 210.919 44.3971 210.988C79.226 212.782 116.262 217.127 164.402 225.059C196.541 230.371 233.025 236.44 269.233 241.407C270.406 241.545 271.854 241.752 273.096 241.959C273.923 242.097 274.751 242.234 275.579 242.372C288.2 244.028 300.821 245.614 313.442 246.994C342.409 250.029 374.479 252.65 403.515 254.512C483.242 258.927 564.693 258.927 644.49 254.926C697.733 252.374 751.459 247.477 804.703 244.511C911.052 238.441 1018.99 233.612 1125.47 235.406C1178.79 236.441 1232.72 239.062 1285.83 242.924C1471 257.409 1679.84 284.241 1865.09 299.898C1965.09 307.279 2066.41 314.383 2166.07 299.691C2192.48 295.622 2218.9 289.483 2244 280.378C2218.55 288.586 2192.27 293.966 2165.79 297.415Z" fill="#B49164"/>
<path opacity="0.8" d="M2087.58 321.35C1929.02 323.557 1771.57 300.726 1614.04 284.793C1469.63 269.135 1324.17 260.72 1179.06 253.891C1060.3 248.511 940.984 243.407 822.221 249.615C713.665 255.547 604.833 269.549 495.863 266.307C463.379 265.548 429.378 263.686 397.032 260.582C368.272 257.616 337.236 253.34 308.752 248.511C297.786 246.649 286.82 244.718 275.855 242.648C274.958 242.51 273.992 242.373 273.027 242.166C271.785 241.959 270.337 241.752 269.165 241.614C232.956 236.648 196.472 230.647 164.333 225.266C116.193 217.334 79.2261 212.989 44.3282 211.195C44.2592 211.195 44.1903 211.195 44.1213 211.195C36.6038 211.126 27.6379 211.057 23.7067 211.264C18.672 211.402 8.87857 211.678 3.77493 211.816C-3.88055 212.161 -17.8121 213.196 -26.0193 213.679C-32.0196 214.299 -50.1582 216.024 -55.7446 216.645C-91.4012 221.197 -128.299 227.474 -163.404 235.13C-201.957 243.545 -240.786 253.822 -278.65 264.79C-224.303 251.753 -169.059 239.476 -113.816 230.923C-99.3325 228.715 -79.2628 225.956 -64.8484 224.508L-55.0549 223.404L-45.1925 222.576C-26.847 220.852 -4.57022 219.335 13.9133 219.128C20.948 219.059 26.0517 218.783 33.6382 218.921C39.9143 218.921 50.8112 219.197 60.2599 219.61C60.8806 219.61 61.5013 219.61 62.191 219.679C64.1911 219.748 66.0532 219.748 67.5015 219.817C69.6396 219.886 71.5017 220.024 73.019 220.093C80.4676 220.438 88.5369 221.197 96.3303 221.887C98.3993 222.094 100.468 222.232 102.537 222.438C139.918 226.301 177.506 232.578 213.921 238.648C231.853 241.614 250.474 244.718 268.82 247.546C278.199 248.994 287.786 250.443 297.304 251.753C297.993 251.822 298.683 251.96 299.373 252.098C299.924 252.167 300.476 252.305 301.028 252.374C302.062 252.512 303.028 252.65 303.994 252.788C383.997 263.617 464.758 269.066 545.382 269.825C624.006 271.066 704.837 266.445 783.185 261.41C874.844 256.306 968.433 252.443 1060.23 252.098C1298.38 250.305 1534.25 288.31 1770.88 310.038C1823.43 315.211 1876.19 320.177 1929.02 323.212C2008.13 327.627 2088.13 330.041 2166.82 318.522C2193.03 314.728 2218.97 308.934 2244.07 300.588C2193.24 315.28 2140.27 320.246 2087.58 321.35Z" fill="#B49164"/>
<path opacity="0.75" d="M2089.3 339.835C1880.47 342.318 1673.77 304.658 1465.97 289.345C1394.52 283.482 1322.79 279.068 1251.2 274.791C1101.54 266.583 950.985 257.064 801.186 266.169C710.424 272.239 618.765 280.585 527.796 277.895C452.138 276.309 376.893 267.066 302.683 252.65C302.132 252.581 301.58 252.512 301.028 252.374C300.477 252.305 299.925 252.236 299.373 252.098C298.683 251.96 297.925 251.891 297.304 251.753C287.786 250.443 278.2 248.994 268.82 247.546C250.475 244.787 231.922 241.683 213.921 238.648C177.506 232.578 139.919 226.301 102.538 222.438C100.538 222.3 98.4686 222.094 96.3306 221.887C88.5372 221.197 80.4679 220.507 73.0193 220.093C71.433 220.024 69.5709 219.886 67.5019 219.817C66.0535 219.748 64.1914 219.679 62.1913 219.679C61.5706 219.679 60.8809 219.679 60.2602 219.61C21.8449 219.266 -17.4669 222.163 -55.5374 227.267C-87.6076 231.681 -120.437 237.475 -152.024 244.442C-166.99 247.546 -184.715 252.029 -199.681 255.616C-215.475 259.478 -231.268 263.962 -246.993 268.169C-232.717 264.997 -218.302 261.824 -204.026 258.582L-199.267 257.616L-189.681 255.685L-170.507 251.753C-122.85 242.441 -74.0899 234.509 -25.6742 230.44C3.4304 228.094 32.6729 226.784 61.9155 227.336C68.6054 227.405 75.2953 227.612 81.9852 227.888C85.7784 228.025 89.5717 228.163 93.296 228.37C142.677 231.405 192.472 239.889 240.543 248.097C257.992 251.063 276.062 254.167 293.856 256.926C304.063 258.582 314.477 260.168 324.822 261.686C327.374 262.031 329.926 262.444 332.409 262.858C422.826 275.481 514.761 281.344 605.937 281.896C670.629 282.24 737.114 278.723 801.6 275.343C931.536 269.618 1062.58 265.272 1192.51 271.48C1283.76 275.688 1374.66 285 1465.35 295.208C1620.94 312.452 1776.47 331.627 1932.75 341.629C2020.61 346.25 2109.72 348.388 2196.55 331.972C2207.45 329.972 2219.24 327.075 2229.93 324.316C2233.93 323.212 2239.66 321.557 2244.07 320.246C2193.52 333.765 2141.31 338.663 2089.3 339.835Z" fill="#B49164"/>
<path opacity="0.7" d="M858.291 278.93C781.461 281.275 703.665 289.138 626.834 289.897C550.003 291.069 471.931 286.724 395.997 274.584C375.031 271.342 354.203 267.48 333.374 263.41C330.547 262.927 327.65 262.513 324.822 262.1C314.477 260.582 304.063 258.996 293.856 257.34C276.062 254.581 257.992 251.477 240.543 248.511C192.403 240.303 142.677 231.888 93.296 228.784C89.0199 228.508 84.606 228.37 80.123 228.232C70.4675 228.163 60.8119 228.232 51.4323 228.439L32.0522 229.198L27.2244 229.405C20.0517 229.888 10.2582 230.647 3.08556 231.198C-18.5015 233.061 -42.7094 236.303 -64.2274 239.475C-74.7106 241.338 -92.2285 244.028 -102.367 246.028C-140.092 253.202 -178.232 262.237 -215.406 272.032C-184.301 265.548 -152.024 258.582 -120.643 253.478C-80.0212 246.373 -37.6057 240.648 3.56833 237.958L13.1549 237.406L22.7415 236.854L27.5693 236.578L32.397 236.441L51.6391 235.889C66.7432 235.475 81.7783 235.682 96.7444 236.372C98.2617 236.372 99.779 236.441 101.365 236.51C102.4 236.51 103.503 236.578 104.469 236.647C104.883 236.647 105.296 236.716 105.641 236.716C163.368 239.958 221.439 250.029 277.579 259.754C303.235 264.169 329.788 268.79 355.996 272.653C357.72 272.929 359.582 273.205 361.375 273.55C372.755 275.205 384.066 276.722 395.446 278.033C536.072 296.449 678.422 297.277 819.945 289.759C935.467 285.758 1051.75 283.068 1167.27 287.483C1191.68 288.517 1216.31 289.828 1240.86 291.483C1113.54 283.206 985.952 275.136 858.291 278.93ZM2234.62 342.663L2229.93 343.767C2209.52 347.974 2188.76 351.285 2168 353.492C2091.24 361.494 2013.78 359.08 1936.89 353.906C1731.57 338.594 1527.35 308.037 1321.62 296.794C1296.03 295.208 1270.45 293.484 1244.86 291.828C1270.51 293.553 1296.17 295.622 1321.55 297.967C1475.35 313.004 1628.46 333.903 1782.33 348.319C1910.33 360.252 2040.13 372.116 2168.27 355.769C2188.96 353.01 2209.72 349.216 2230 344.181C2233.72 343.146 2239.86 341.629 2244 340.456L2234.62 342.663Z" fill="#B49164"/>
<path opacity="0.65" d="M2225.31 364.115L2215.93 365.908C2212.83 366.529 2209.65 366.805 2206.48 367.288L2187.65 370.047C2186.07 370.254 2184.55 370.53 2182.96 370.668L2178.2 371.15L2168.76 372.116C2162.41 372.737 2156.14 373.496 2149.79 373.978C2080.2 379.014 2010.2 377.358 1940.61 372.668C1737.91 358.045 1536.39 327.765 1333.41 315.28C1245 308.796 1155.61 302.313 1067.06 297.415C997.538 293.76 926.708 292.035 857.188 294.173C800.772 295.622 742.149 300.45 685.802 301.485C668.146 301.83 646.352 302.175 628.696 301.899C614.006 302.037 595.798 301.278 581.108 300.795C506.415 298.174 432.206 287.966 359.03 273.274C358.065 273.136 357.099 272.929 356.133 272.791C329.926 268.928 303.442 264.307 277.717 259.892C221.577 250.167 163.505 240.096 105.779 236.854C105.365 236.854 104.951 236.786 104.538 236.786C103.503 236.717 102.468 236.648 101.434 236.648C101.227 236.648 101.089 236.648 100.882 236.648C4.80946 235.475 -90.7805 252.374 -183.681 275.757C-90.5736 256.995 4.11977 242.166 99.3649 244.235C103.917 244.304 108.538 244.442 113.09 244.58C115.779 244.649 118.331 244.649 120.607 244.787C146.056 245.959 173.919 248.649 203.3 252.719C234.887 257.409 266.82 262.927 297.786 268.307C325.719 273.136 354.616 278.171 383.169 282.516C383.514 282.585 383.79 282.585 384.135 282.654C384.755 282.723 385.307 282.861 385.928 282.93C387.238 283.137 388.549 283.344 389.79 283.62C399.721 285.138 409.722 286.517 419.653 287.828C545.727 304.865 673.318 309.969 800.496 305.072C822.428 304.382 854.912 303.347 876.637 303.071C990.572 300.933 1105.68 299.76 1219.48 307.072C1269.27 310.107 1321.76 314.797 1371.41 320.246C1510.18 335.835 1649.22 354.251 1788.19 367.357C1889.43 377.151 1991.3 384.946 2093.1 380.807C2124.62 379.359 2156.89 376.462 2188.14 371.702C2193.93 370.668 2211.1 367.84 2216.34 366.736C2223.72 365.081 2236.07 362.184 2244.28 360.39L2225.31 364.115Z" fill="#B49164"/>
<path opacity="0.6" d="M2225.45 383.773C2219.24 384.808 2213.1 385.98 2206.9 386.67C2176.14 391.084 2144.41 393.499 2113.31 394.74C1956.54 399.362 1800.47 379.565 1644.94 362.253C1495.42 345.009 1345.14 333.766 1195.06 322.178C1089.06 314.038 981.676 306.451 875.327 308.727C806.772 309.969 737.045 315.073 668.491 314.038C593.385 313.556 518.002 307.348 443.999 294.38C425.033 291.138 406.136 287.414 387.307 283.551C386.756 283.482 386.204 283.344 385.652 283.275C385.101 283.206 384.48 283.068 383.859 282.999C383.514 282.93 383.238 282.93 382.894 282.861C354.341 278.516 325.512 273.481 297.511 268.583C266.613 263.203 234.612 257.616 203.024 252.995C173.644 248.925 145.781 246.235 120.332 245.063C120.056 245.063 119.78 245.063 119.435 244.994C103.227 244.718 87.0889 244.925 71.0193 245.683C-4.15607 249.132 -79.1935 262.031 -152.3 279.482C-66.2964 263.065 21.0863 251.27 108.745 252.305C114.952 252.374 121.159 252.581 127.366 252.788C130.401 252.857 133.367 252.926 136.194 253.064C164.885 254.374 193.3 257.064 220.68 260.996C234.957 262.996 253.164 265.824 276.269 269.756C329.512 279.482 370.41 286.517 408.895 292.449C411.308 292.794 413.86 293.277 416.412 293.691C481.242 303.554 546.348 311.417 611.799 315.28C680.56 319.97 750.011 320.66 818.911 319.074C906.155 317.211 994.78 317.073 1082.02 318.453C1156.99 319.97 1232.79 324.04 1307.41 331.282C1469.63 347.63 1631.08 372.047 1793.5 386.67C1893.44 396.327 1994.06 403.362 2094.48 399.362C2131.79 397.775 2170.14 394.119 2206.9 387.843C2218.62 385.98 2231.72 382.876 2243.79 380.462L2225.45 383.773Z" fill="#B49164"/>
<path opacity="0.55" d="M2225.66 403.431L2216.48 404.811C2214.97 405.018 2213.45 405.294 2211.86 405.5L2207.24 405.983L2188.83 408.122L2179.58 409.156C2164.14 410.26 2148.82 411.846 2133.31 412.398C1972.54 419.503 1812.12 399.569 1652.53 381.566C1486.52 362.322 1319.76 349.423 1153.27 335.145C1073.33 328.592 992.228 323.143 912.018 323.212C844.429 322.729 775.392 327.351 707.803 326.247C693.664 326.247 675.595 325.557 661.456 325.213C647.318 324.523 629.248 323.695 615.109 322.66C546.762 318.729 479.656 306.796 412.757 293.208C411.446 293.001 410.136 292.794 408.894 292.587C370.41 286.655 329.512 279.62 276.269 269.894C253.164 265.962 235.026 263.065 220.68 261.134C193.3 257.202 164.885 254.512 136.194 253.202C135.849 253.202 135.436 253.202 135.091 253.133C49.2253 251.96 -37.054 264.514 -120.712 283.068C-54.5029 271.825 14.6722 262.376 81.8472 260.582C104.814 260.099 128.677 260.03 152.057 261.065C156.402 261.203 160.678 261.341 164.816 261.617C167.989 261.824 171.161 262.031 174.265 262.238C202.611 264.1 233.439 267.756 266.061 273.067C281.51 275.481 298.201 278.378 314.339 281.275C316.546 281.689 318.684 282.034 320.891 282.448C362.341 290.173 399.032 296.588 432.964 302.037C435.102 302.382 437.378 302.795 439.585 303.209C510.002 314.383 580.901 323.281 652.007 327.903C713.596 332.455 776.081 333.49 837.808 332.869C979.813 332.248 1122.72 332.524 1264.31 344.526C1443 360.459 1620.6 390.257 1799.36 405.845C1904.19 415.778 2009.72 422.606 2114.96 416.95C2136.07 415.64 2158.89 413.502 2179.79 411.156C2187.1 410.122 2199.24 408.328 2207.38 407.225C2218.69 405.569 2232.21 402.603 2243.93 400.534L2225.66 403.431Z" fill="#B49164"/>
<path opacity="0.5" d="M1301.07 365.218C1288.86 363.977 1276.65 362.804 1264.44 361.701C1276.72 362.873 1288.93 364.046 1301.07 365.218ZM2225.86 423.158L2216.76 424.4C2177.45 429.228 2137.65 431.711 2098.13 432.332C1951.85 434.746 1805.36 417.778 1660.32 401.155C1566.53 390.119 1463 380.117 1368.66 371.495C1346.59 369.564 1324.03 367.495 1301.07 365.287C1420.73 377.496 1539.77 396.189 1659.29 409.984C1804.81 426.055 1951.64 442.195 2098.27 436.677C2140.96 434.746 2183.79 431.159 2225.93 423.848L2244 420.744L2225.86 423.158ZM856.636 338.111C832.566 338.318 807.461 339.215 783.392 339.077C679.663 339.766 575.659 331.489 474.069 310.521C463.517 308.451 453.034 306.244 442.551 304.037C442.344 303.968 442.137 303.968 441.93 303.899C439.033 303.347 435.999 302.795 433.102 302.313C399.17 296.863 362.479 290.449 321.029 282.723C318.891 282.31 316.684 281.965 314.477 281.551C298.338 278.654 281.717 275.757 266.199 273.343C233.577 268.032 202.748 264.376 174.402 262.513C171.299 262.307 168.126 262.031 164.954 261.893C159.229 261.548 153.091 261.341 146.953 261.203C131.918 261.065 116.952 261.272 101.917 261.962C38.259 264.583 -26.64 273.894 -88.9873 286.862C-42.4338 279.688 9.36134 273.067 56.4666 270.239C91.9853 268.032 127.987 267.48 163.712 268.928C166.402 268.997 169.092 269.066 171.575 269.135C181.92 269.618 192.334 270.308 202.403 271.135C260.337 275.826 318.477 286.655 374.686 297.139C401.032 302.037 428.274 307.141 455.172 311.486C459.931 312.314 464.896 313.142 470 313.969C471.862 314.245 473.793 314.659 475.793 315.004C487.311 316.866 499.174 318.66 509.519 320.177C539.313 324.73 570.487 328.868 600.35 332.317C667.042 340.042 734.424 344.733 801.599 346.25C929.466 347.492 1058.3 348.388 1186.03 355.769C1212.17 357.286 1238.31 359.287 1264.38 361.632C1164.85 352.044 1060.92 341.836 966.64 338.939C932.915 337.697 890.568 337.628 856.636 338.111Z" fill="#B49164"/>
<path opacity="0.45" d="M2208.14 444.885L2190.14 446.472L2181.17 447.3C2178.2 447.576 2175.17 447.851 2172.14 447.989L2154.14 449.024L2145.1 449.576L2140.62 449.852L2136.13 449.99C1979.71 455.853 1823.16 438.54 1667.98 420.606C1575.35 409.639 1473.42 399.43 1380.31 390.326C1248.1 377.841 1097.96 358.459 966.02 353.493C939.743 352.527 902.017 351.906 875.533 352.044C839.877 352.044 802.841 352.527 767.184 351.216C731.252 350.251 694.837 348.25 659.042 344.733C597.591 339.835 537.313 328.178 477.173 315.418C474.759 314.935 472.345 314.521 470.138 314.107C465.103 313.28 460.069 312.452 455.31 311.624C428.412 307.279 401.17 302.175 374.824 297.277C260.475 275.964 231.025 273.619 202.541 271.273C192.472 270.446 182.127 269.756 171.713 269.273C169.506 269.135 167.092 269.135 164.747 269.066C90.3301 268.238 15.7755 276.584 -57.1929 290.449C2.18876 282.447 62.6049 276.24 122.607 275.688C139.918 275.481 157.574 275.757 175.161 276.447C177.92 276.516 180.747 276.584 183.437 276.653C192.955 277.067 202.817 277.619 212.68 278.309C263.785 282.103 313.787 290.38 373.169 301.554C418.274 310.176 455.862 316.935 491.518 323.005L493.863 323.419C495.518 323.695 497.174 324.04 498.76 324.316C599.66 341.215 701.458 354.389 803.255 358.528C826.704 359.631 852.222 360.183 875.602 360.735C983.4 363.011 1092.85 366.391 1200.51 373.427C1405 388.118 1606.73 427.573 1811.09 444.334C1918.95 454.266 2028.2 460.405 2136.48 453.301C2142.13 453.025 2148.55 452.335 2154.55 451.852C2164.55 451.024 2180.89 449.576 2190.55 448.334C2207.79 446.61 2227.31 443.368 2244.28 440.747C2232.07 442.126 2220.07 443.644 2208.14 444.885Z" fill="#B49164"/>
<path opacity="0.4" d="M2173.03 467.096C2099.31 471.372 2024.13 470.338 1950.47 465.923C1906.33 463.095 1861.3 459.784 1817.29 455.508C1656.32 438.471 1482.38 418.123 1320.93 401.638C1252.72 394.464 1176.37 384.877 1108.09 378.255C1025.75 369.633 941.467 365.908 858.567 365.494C829.739 365.288 798.289 364.115 769.529 362.735C716.355 359.976 662.629 354.596 610.006 346.319C571.797 340.387 533.934 332.524 496.139 324.178C495.312 324.04 494.415 323.833 493.519 323.695L491.174 323.281C455.517 317.28 417.929 310.452 372.824 301.83C313.443 290.656 263.441 282.448 212.404 278.654C202.542 277.964 192.748 277.412 183.231 276.998C182.61 276.998 182.058 276.929 181.437 276.929C112.124 275.895 42.4664 282.585 -25.7432 294.242C47.8459 285.345 122.401 280.861 196.541 284.31C199.3 284.379 202.128 284.448 204.335 284.586C222.611 285.551 240.819 287 258.406 288.931C316.684 295.277 376.893 306.796 435.102 317.97C463.655 323.419 493.243 329.075 521.933 334.041C522.278 334.11 522.554 334.179 522.899 334.179C523.52 334.248 524.071 334.386 524.692 334.455C525.934 334.662 527.106 334.938 528.209 335.145C531.934 335.766 535.589 336.387 539.313 337.007C568.487 341.905 607.109 348.113 636.283 352.32C674.008 357.631 713.527 362.459 751.46 366.046C810.014 371.909 870.844 374.116 929.673 376.048C1035.95 380.669 1143.96 384.877 1249.96 394.533C1344.31 403.155 1439.35 417.088 1533.08 430.47C1650.81 447.438 1769.15 460.819 1887.78 469.441C1911.09 471.165 1935.64 472.476 1959.09 473.373C2041.79 476.89 2126.34 475.649 2208.76 465.854L2244.07 460.888C2227.59 462.681 2189.03 466.061 2173.03 467.096Z" fill="#B49164"/>
<path opacity="0.35" d="M2173.86 486.271C2151.45 487.444 2125.86 488.202 2103.58 488.409C1963.02 489.858 1822.47 476.132 1683.01 459.646C1574.73 446.748 1441.9 433.229 1333.34 420.399C1193.68 404.121 1053.68 383.014 912.914 379.841C884.292 378.945 853.739 378.324 825.118 376.806C784.84 374.599 742.563 371.426 702.492 366.46C644.352 359.493 586.557 348.595 529.451 335.628C528.278 335.352 527.106 335.076 525.934 334.8C525.52 334.731 525.037 334.662 524.623 334.524C524.002 334.386 523.451 334.317 522.83 334.248C522.485 334.179 522.209 334.11 521.864 334.11C493.174 329.213 463.586 323.557 435.033 318.039C376.824 306.865 316.615 295.346 258.337 289C240.75 287.069 222.542 285.62 204.266 284.655C201.714 284.517 198.335 284.448 195.162 284.31C131.849 283.344 68.3984 288.31 5.84424 297.76C26.3968 295.829 50.2598 293.76 71.5709 292.38C84.537 291.828 97.6409 291.001 111.09 290.656C142.677 289.483 174.334 289.759 205.99 291.207C208.266 291.276 210.611 291.345 212.818 291.414C237.095 292.725 261.785 294.794 286.269 297.622C337.374 303.554 392.48 314.176 445.723 324.454C462.414 327.696 478.208 330.731 493.863 333.628C512.761 337.145 529.52 340.249 545.245 343.146C545.521 343.215 545.865 343.284 546.141 343.284C546.762 343.422 547.383 343.491 548.003 343.629C549.107 343.836 550.279 344.112 551.383 344.319C601.523 353.355 651.732 361.701 702.147 368.667C759.805 376.737 819.255 383.083 877.396 386.394C1022.78 394.74 1171.27 401.155 1315.9 418.123C1438.18 432.539 1559.77 454.128 1682.05 468.199C1821.85 484.133 1962.89 497.031 2103.72 492.479C2138 491.237 2174.69 488.547 2209.1 485.029L2244 480.615C2227.66 482.477 2189.86 485.305 2173.86 486.271Z" fill="#B49164"/>
<path opacity="0.3" d="M2174.76 505.377C2158.27 506.136 2139.24 506.688 2122.75 506.895C1887.09 510.62 1648.74 472.131 1414.66 447.645C1382.86 443.851 1343 438.954 1311.27 434.815C1254.31 427.642 1196.17 419.158 1139.13 412.053C1058.99 401.638 977.606 395.292 896.845 392.188C868.706 391.015 838.429 388.946 810.358 386.67C722.01 379.772 634.765 364.046 548.486 344.181C548.279 344.112 548.072 344.112 547.865 344.043C547.245 343.905 546.624 343.836 546.003 343.698C545.727 343.629 545.383 343.56 545.107 343.56C529.382 340.732 512.554 337.628 493.725 334.041C478.07 331.144 462.276 328.109 445.586 324.868C392.342 314.59 337.237 303.968 286.131 298.036C261.992 295.277 237.577 293.208 213.646 291.897C189.507 291.345 165.161 291.552 141.16 292.518C106.814 293.828 71.4331 297.277 37.3628 301.554C94.5374 297.277 153.298 295.208 210.542 297.829C213.852 297.967 217.232 298.174 220.611 298.381C222.68 298.45 224.68 298.519 226.543 298.588C256.268 300.381 285.717 303.071 313.994 306.658C363.72 313.073 417.585 323.557 469.725 333.766C486.691 337.076 502.76 340.249 518.692 343.215C534.693 346.25 553.59 349.837 572.763 353.424C573.108 353.493 573.453 353.562 573.797 353.631C574.487 353.768 575.108 353.906 575.798 353.975C577.246 354.251 578.556 354.527 579.798 354.803C673.25 372.116 767.115 387.981 861.74 396.878C1006.85 409.225 1166.72 417.157 1311.27 434.884C1343.07 438.747 1382.59 444.127 1414.52 448.748C1647.43 484.478 1886.95 519.517 2122.89 510.688C2151.51 509.516 2181.1 507.378 2209.52 504.688L2244 500.756C2220.14 502.687 2199.79 504.205 2174.76 505.377Z" fill="#B49164"/>
<path opacity="0.25" d="M2209.86 523.035C2193.38 523.863 2174.89 524.759 2158.55 525.173C1901.57 531.933 1646.67 491.582 1392.04 462.75C1348.17 457.025 1300.1 450.472 1256.38 444.058C1166.23 430.401 1075.47 417.226 984.434 410.191C921.88 405.707 859.119 402.465 796.909 394.74C722.975 386.394 649.869 371.357 577.315 354.596C576.832 354.527 576.349 354.389 575.797 354.32C575.108 354.182 574.487 354.044 573.797 353.975C573.452 353.906 573.108 353.837 572.763 353.768C553.59 350.182 534.623 346.595 518.692 343.56C502.76 340.594 486.759 337.421 469.724 334.11C417.584 323.902 363.72 313.418 314.063 307.003C285.855 303.416 256.474 300.726 226.818 298.933C174.195 297.484 121.297 299.76 69.0879 305.347C90.3991 304.451 115.71 303.14 137.504 303.071C162.264 302.795 189.713 303.14 214.404 304.106C220.956 304.382 227.646 304.796 234.405 305.209C236.198 305.278 237.991 305.347 239.646 305.416C255.854 306.52 273.165 307.899 291.028 309.693C357.513 316.108 426.619 329.834 493.449 343.077C509.933 346.319 527.037 349.768 543.589 352.872C551.796 354.458 560.004 356.045 568.142 357.631C579.522 359.838 590.832 361.977 602.212 364.184C603.867 364.529 605.592 364.874 607.247 365.218C607.454 365.287 607.661 365.287 607.936 365.356C709.872 384.877 812.013 403.431 915.466 413.364C938.639 415.709 993.814 420.399 1017.75 422.606C1118.03 431.918 1242.38 442.333 1341.14 456.06C1414.11 465.923 1488.52 478.201 1561.22 489.168C1753.02 517.379 1947.51 537.313 2141.58 528.967C2146.82 528.691 2162.34 527.863 2167.24 527.656C2174.07 527.174 2185.31 526.346 2192.9 525.794L2201.45 525.173C2204.27 524.966 2207.17 524.759 2210 524.484L2244.07 521.035C2244 520.897 2209.86 523.035 2209.86 523.035Z" fill="#B49164"/>
<path opacity="0.2" d="M2210.27 542.624C2182.69 543.935 2153.51 544.487 2125.93 544.831C1895.02 546.625 1665.98 513.516 1437.21 486.409C1371.41 477.856 1302.17 467.716 1236.72 456.887C1159.48 444.334 1080.37 432.263 1002.43 424.676C935.26 418.537 867.878 413.432 801.116 403.5C736.838 394.533 671.18 380.255 606.695 365.149C605.178 364.805 603.66 364.46 602.143 364.184C590.763 361.977 579.384 359.838 568.073 357.631C559.866 356.045 551.658 354.458 543.52 352.872C526.968 349.699 509.933 346.319 493.38 343.077C426.55 329.834 357.444 316.108 290.959 309.693C273.303 307.968 256.268 306.52 240.267 305.485C193.713 303.899 146.953 305.003 100.675 308.865C149.229 307.624 198.472 308.106 247.233 311.348C247.647 311.348 248.129 311.417 248.543 311.417C250.888 311.555 253.371 311.624 255.647 311.831C271.648 313.004 287.441 314.452 302.683 316.177C321.443 318.039 345.168 321.074 369.513 324.661C444.758 337.076 521.106 352.458 594.97 367.288C607.04 369.702 619.523 372.254 631.73 374.668L632.144 374.737C632.42 374.806 632.696 374.875 632.972 374.875C634.006 375.082 635.041 375.358 636.007 375.565C636.282 375.634 636.489 375.703 636.765 375.772C735.666 395.568 834.704 414.467 934.363 426.469C1073.27 442.885 1215.13 455.232 1353.55 474.89C1470.38 491.651 1587.01 513.654 1704.39 526.898C1821.71 540.072 1940.2 549.729 2058.41 549.522C2097.51 549.591 2137.65 548.487 2176.62 546.073C2196.9 545.038 2223.1 542.762 2244 540.831C2244 540.969 2210.27 542.624 2210.27 542.624Z" fill="#B49164"/>
<path opacity="0.15" d="M2177.45 563.179C2144.41 564.007 2110.62 563.8 2077.58 563.455C2000.61 562.351 1921.78 557.592 1845.09 551.246C1712.53 538.969 1580.39 522.759 1448.25 505.929C1417.83 501.791 1379.55 496.273 1349.41 491.513C1252.03 476.407 1151.2 456.129 1053.47 443.575C987.676 434.884 920.777 429.435 855.188 419.502C781.185 409.087 705.872 392.809 632.421 375.082C632.352 375.082 632.283 375.082 632.214 375.013L631.8 374.944C619.524 372.461 607.04 369.978 595.04 367.564C521.175 352.665 444.827 337.352 369.583 324.937C345.237 321.35 321.512 318.315 302.752 316.453C287.511 314.728 271.717 313.28 255.716 312.107C254.682 312.038 253.647 311.969 252.613 311.9C212.542 310.245 172.334 310.452 132.332 312.659C164.471 312.797 199.99 313.487 232.129 315.487C240.336 315.901 248.612 316.453 256.82 317.073C258.82 317.142 260.889 317.28 262.613 317.418C303.925 320.66 347.996 325.971 397.17 333.697C447.586 341.974 515.657 355.838 575.66 368.115C605.592 374.185 633.869 379.979 658.422 384.739C659.939 385.015 661.801 385.497 663.594 385.842H663.663C748.908 402.948 834.36 421.365 920.225 434.746C958.226 440.816 1013.68 447.714 1052.23 452.887C1161.06 467.51 1273.83 479.304 1382.31 496.617C1447.62 506.619 1514.39 518.345 1579.63 528.484C1755.15 555.454 1933.16 570.904 2110.89 568.007C2138.07 567.456 2166.96 566.145 2194.14 564.628C2207.31 564.076 2229.72 562.006 2244 560.972C2223.03 561.799 2198.9 562.834 2177.45 563.179Z" fill="#B49164"/>
<path opacity="0.1" d="M1589.63 542.21C1514.04 533.312 1437 523.242 1361.9 510.688C1244.03 491.03 1124.3 464.613 1005.75 449.507C1000.92 448.817 935.673 439.988 932.57 439.505C917.673 437.16 890.982 433.022 875.809 430.676C833.394 423.503 788.909 415.088 746.907 405.707C718.493 399.499 690.216 392.671 661.939 385.704C660.697 385.428 659.456 385.152 658.352 384.945C633.731 380.186 605.523 374.392 575.59 368.322C515.588 356.114 447.585 342.249 397.101 333.903C348.064 326.178 304.132 320.867 262.889 317.625C229.922 315.97 196.748 315.832 163.781 316.315C185.644 317.556 207.507 317.832 229.37 319.487C239.439 320.246 249.923 321.074 260.199 321.833C261.647 321.902 263.302 322.039 264.82 322.108C266.82 322.246 268.682 322.315 270.268 322.453C276.613 323.074 286.545 324.109 295.304 325.005C301.304 325.626 307.028 326.247 311.097 326.661C320.339 327.489 335.098 329.489 348.133 331.351C355.651 332.386 362.755 333.352 367.927 333.972L371.996 334.524L376.065 335.145C376.065 335.145 392.204 337.697 392.273 337.697C434.826 344.043 481.173 353.286 521.243 361.425C545.934 366.598 577.522 373.013 610.971 379.772C637.524 385.152 665.042 390.739 690.285 395.982C691.733 396.257 693.25 396.602 694.768 397.016C713.803 400.948 731.459 404.673 746.425 407.845C808.013 420.951 877.878 436.263 939.605 447.3C1084.09 473.028 1233.13 490.478 1378.04 513.447C1445.62 524.277 1521.08 537.796 1588.73 548.349C1740.26 572.008 1893.57 585.32 2046.96 587.182C2070.55 587.389 2105.79 587.389 2129.17 586.631C2143.86 586.148 2163.79 585.665 2178.41 584.906C2187.38 584.492 2202.55 583.872 2211.24 583.251L2244 581.044C2024.89 589.597 1806.67 569.249 1589.63 542.21Z" fill="#B49164"/>
<path opacity="0.05" d="M2163.1 602.081C2160.41 602.15 2157.72 602.081 2155.03 602.081L2146.96 601.943L2114.62 601.53C2097.17 601.254 2085.65 601.599 2066.06 600.84C1920.61 597.391 1775.22 583.251 1630.87 565.731C1557.49 557.454 1478.73 547.453 1406.11 535.382C1322.52 522.138 1234.79 502.48 1151.68 486.271C1090.92 474.269 1021.68 463.095 960.226 453.163C875.188 438.885 790.219 421.503 706.699 400.396C701.112 398.948 695.595 397.568 690.008 396.12C664.835 390.946 637.455 385.359 611.04 379.979C577.59 373.22 546.003 366.805 521.312 361.632C481.242 353.424 434.895 344.181 392.342 337.904C392.342 337.904 391.997 337.835 376.134 335.352L372.065 334.731L367.996 334.179C362.754 333.559 355.651 332.593 348.133 331.558C335.098 329.765 320.339 327.696 311.097 326.868C307.028 326.454 301.373 325.833 295.303 325.212C287.303 324.385 278.268 323.419 271.992 322.798C246.474 321.212 220.956 320.246 195.438 320.039C211.783 321.35 231.784 322.798 247.922 323.971C252.819 324.523 257.716 325.006 262.682 325.488C264.613 325.626 266.544 325.764 268.337 325.971L273.027 326.454C284.613 327.627 296.614 328.799 308.339 330.179C375.996 338.249 445.723 349.768 515.726 364.322C543.313 370.116 572.556 376.117 600.833 381.911C639.455 389.843 679.387 398.051 717.872 406.259C719.872 406.673 721.941 407.156 724.01 407.708C739.321 411.018 754.425 414.26 769.184 417.571C852.015 436.126 939.329 456.818 1022.57 472.269C1143.54 495.583 1268.58 512.551 1390.1 532.899C1512.45 553.729 1634.73 577.181 1758.46 589.045C1854.67 598.357 1952.95 605.254 2049.72 605.875C2114.2 607.117 2179.79 604.634 2244.07 601.185C2220.21 601.185 2186.96 601.737 2163.1 602.081Z" fill="#B49164"/>
<path opacity="0.95" d="M1185.2 202.849C1175.13 202.505 1165.13 202.229 1155.06 202.022C1165.06 202.298 1175.13 202.573 1185.2 202.849ZM685.94 213.541C662.628 215.955 627.11 220.162 604.143 222.232C551.383 227.267 492.76 231.405 439.93 232.095C357.651 233.682 275.372 226.922 194.334 212.368C170.264 208.23 146.263 203.608 122.193 199.332C121.297 199.194 120.4 199.056 119.504 198.918C115.917 198.366 112.331 197.745 108.745 197.193C96.1925 195.193 84.261 193.262 72.5364 191.537C72.3295 191.537 72.1915 191.468 71.9846 191.468C3.84399 181.881 -65.7449 183.398 -133.679 193.676C-215.061 206.436 -295.064 228.439 -373.412 253.754C-320.582 239.338 -267.27 225.404 -213.613 214.437L-203.543 212.299L-193.474 210.437L-173.266 206.781L-168.232 205.884L-163.128 205.126L-152.99 203.608C-127.816 199.608 -102.091 196.711 -76.6419 194.71C-51.2616 192.986 -25.6744 192.641 -0.156128 193.676C1.98187 193.676 4.1199 193.745 6.18896 193.814C21.224 194.572 36.3281 195.814 51.0183 197.607C81.2264 201.194 111.779 205.953 141.298 210.506C165.919 214.299 191.3 218.231 216.404 221.542C216.542 221.542 217.094 221.68 217.99 221.749C218.749 221.887 219.715 222.025 220.818 222.163C238.888 224.439 257.095 226.439 275.303 227.819C419.033 240.372 563.797 234.233 707.251 220.438C856.084 207.885 1005.61 198.711 1155.06 202.022C1128.99 201.332 1102.92 200.711 1076.92 200.159C946.432 197.262 815.669 198.78 685.94 213.541ZM2164.48 260.306C2144.55 263.134 2123.31 264.859 2103.1 265.617C2041.51 268.101 1979.78 264.652 1918.33 259.685C1768.12 247.546 1618.04 227.474 1467.63 216.438C1373.9 209.816 1279.41 205.608 1185.13 202.849C1210.72 203.746 1236.37 204.988 1261.96 206.643C1449 219.128 1649.22 243.131 1835.71 259.961C1921.23 267.342 2007.16 273.826 2092.96 270.032C2113.24 268.928 2134.48 267.066 2154.55 264.169C2185.1 259.616 2215.59 252.581 2243.93 240.234C2218.48 250.374 2191.58 256.444 2164.48 260.306Z" fill="#B49164"/>
</g>
</g>
<defs>
<clipPath id="clip0_4715_728">
<rect width="1440" height="550" fill="white"/>
</clipPath>
<clipPath id="clip1_4715_728">
<rect width="2649" height="924" fill="white" transform="translate(-405 56)"/>
</clipPath>
</defs>
</svg>
