<svg width="32" height="32" viewBox="0 0 32 32" fill="none" xmlns="http://www.w3.org/2000/svg">
<path d="M13.5994 7.72164H16.9575C18.1377 7.72164 19.4206 7.6135 20.5885 7.80328C21.5485 7.95885 22.5011 8.3384 23.2422 8.9055C23.3425 8.98274 23.4367 9.0666 23.5321 9.14824C23.5541 9.167 23.7791 9.37884 23.6715 9.27181C23.7413 9.34242 23.8073 9.41745 23.8721 9.49248C23.8647 9.48476 24.1643 9.86209 24.0201 9.6657C24.3013 10.0497 24.4041 10.2571 24.5214 10.6124C24.7575 11.3306 24.7207 12.0743 24.7207 12.8135C24.7207 17.4761 24.7207 22.1377 24.7207 26.8004C24.7207 27.6688 23.9735 28.2547 23.0135 28.2668C22.215 28.2766 21.4151 28.2668 20.6154 28.2668H8.30279C8.14259 28.2668 7.98116 28.2712 7.82095 28.2668C7.60327 28.2601 7.43451 28.1862 7.2266 28.1509C7.17402 28.1421 7.05906 28.0924 7.08352 28.0616C7.09575 28.0461 7.26451 28.3318 7.27186 28.3318C7.28898 28.3318 7.27186 28.2337 7.27186 28.1465C7.22538 26.2157 7.27186 24.2793 7.27186 22.3485C7.27186 19.7269 7.27186 17.1065 7.27186 14.4851C7.27186 13.9731 7.24862 13.4578 7.2743 12.9459C7.36602 11.057 8.66967 9.35125 10.476 8.44541C11.4458 7.95994 12.4926 7.73377 13.5981 7.72164C14.6585 7.70949 13.5186 5.32298 12.5207 5.33402C10.1384 5.3605 7.88576 6.40425 6.54787 8.19717C5.65146 9.3976 5.33594 10.779 5.33594 12.2045C5.33594 14.5457 5.33594 16.8858 5.33594 19.2272V26.6207C5.33594 28.1576 6.10762 29.732 7.728 30.4138C8.52903 30.7514 9.50127 30.6544 10.3647 30.6544H23.4049C24.607 30.6544 25.8422 30.5088 26.4047 29.3645C26.7509 28.6584 26.6579 27.8111 26.6579 27.0531V14.8734C26.6579 14.2832 26.6653 13.694 26.6579 13.1037C26.631 10.8275 25.4007 8.55133 23.4783 7.0839C21.9362 5.90665 20.1054 5.33513 18.0949 5.33513L12.5207 5.33402C11.4678 5.33402 12.5978 7.72164 13.5981 7.72164H13.5994Z" fill="#B49164"/>
<path d="M14.0094 3.68481C15.1914 3.68481 16.4038 3.76609 17.5825 3.68481C17.6298 3.68143 17.745 3.70852 17.7879 3.68481C17.6965 3.73335 17.3047 2.7354 17.2279 2.96344C17.1637 3.15423 17.2279 3.47935 17.2279 3.67916V5.48429L17.6242 4.85323H12.2009L13.5918 6.66512V5.06997C13.5918 4.80017 13.5838 4.52923 13.5918 4.25943C13.5974 4.06751 13.5602 4.27409 13.6053 4.1296C13.6707 3.91963 13.7611 3.71077 14.0094 3.68481C15.0289 3.57531 13.9135 1.1459 13.0149 1.24186C11.8611 1.36604 11.8047 2.56493 11.8047 3.48387V5.48429C11.8047 6.13115 12.4493 7.29619 13.1955 7.29619H18.6187C18.9619 7.29619 19.015 6.92364 19.015 6.66512V4.49085C19.015 3.22987 18.3478 1.38184 16.8769 1.24976C15.6091 1.13574 14.2894 1.24186 13.0149 1.24186C12.0429 1.24186 13.086 3.68481 14.0094 3.68481Z" fill="#B49164"/>
<path d="M7.97365 13.3327H24.9622C25.8819 13.3327 24.895 10.666 24.0211 10.666H7.03257C6.11285 10.666 7.09986 13.3327 7.97365 13.3327Z" fill="#B49164"/>
<path d="M7.97377 25.3327H24.9619C25.8825 25.3327 24.8946 22.666 24.0199 22.666H7.0329C6.11234 22.666 7.09918 25.3327 7.97377 25.3327Z" fill="#B49164"/>
<path d="M10.9574 21.4718C10.8934 21.2229 10.8383 20.9901 10.7921 20.7731C10.7494 20.5598 10.7174 20.3661 10.6961 20.1918C10.6747 20.0211 10.6641 19.8754 10.6641 19.7545C10.6641 19.5055 10.705 19.2975 10.7867 19.1305C10.8721 18.9634 10.9841 18.8301 11.1227 18.7305C11.265 18.6274 11.4196 18.5545 11.5867 18.5118C11.7538 18.4655 11.921 18.4425 12.0881 18.4425C12.2587 18.4425 12.4152 18.4567 12.5574 18.4851C12.5645 18.3749 12.5556 18.2754 12.5307 18.1865C12.5094 18.0975 12.4756 18.0211 12.4294 17.9571C12.3867 17.8931 12.3334 17.8434 12.2694 17.8078C12.209 17.7722 12.1432 17.7545 12.0721 17.7545C12.0045 17.7545 11.937 17.7722 11.8694 17.8078C11.8018 17.8398 11.7378 17.8878 11.6774 17.9518C11.6205 18.0158 11.5654 18.0975 11.5121 18.1971L10.9307 17.8771C11.0267 17.6602 11.1405 17.4895 11.2721 17.3651C11.4036 17.2371 11.5405 17.1465 11.6827 17.0931C11.8285 17.0362 11.9707 17.0078 12.1094 17.0078C12.3227 17.0078 12.5058 17.0541 12.6587 17.1465C12.8152 17.2354 12.9414 17.3527 13.0374 17.4985C13.1334 17.6407 13.2045 17.7935 13.2507 17.9571C13.297 18.1207 13.3201 18.2771 13.3201 18.4265C13.3201 18.5402 13.3076 18.6541 13.2827 18.7678C13.2614 18.8781 13.2347 18.9775 13.2027 19.0665C13.1743 19.1554 13.1458 19.2247 13.1174 19.2745C12.9218 19.2211 12.737 19.1821 12.5627 19.1571C12.3885 19.1322 12.2303 19.1251 12.0881 19.1358C11.9494 19.1429 11.8285 19.1714 11.7254 19.2211C11.6258 19.2674 11.5476 19.3367 11.4907 19.4291C11.4374 19.5215 11.4107 19.6389 11.4107 19.7811C11.4107 19.9127 11.4214 20.0621 11.4427 20.2291C11.4641 20.3998 11.4943 20.5758 11.5334 20.7571C11.5725 20.9385 11.617 21.1181 11.6667 21.2958L10.9574 21.4718Z" fill="#B49164"/>
<path d="M13.3813 20.608L13.1094 19.9467C13.2978 19.8827 13.4702 19.808 13.6266 19.7227C13.7868 19.6373 13.9253 19.5431 14.0426 19.44C14.1601 19.3369 14.2506 19.2249 14.3146 19.104C14.3786 18.9796 14.4108 18.8463 14.4108 18.704C14.4108 18.5547 14.3769 18.3911 14.3094 18.2133C14.2418 18.0356 14.1601 17.8543 14.0641 17.6693L14.7626 17.3333C14.8268 17.4436 14.8818 17.5627 14.9281 17.6907C14.9778 17.8151 15.0188 17.9271 15.0508 18.0267C15.0826 18.1263 15.1041 18.1937 15.1148 18.2293C15.1645 18.4 15.2321 18.5137 15.3174 18.5707C15.4062 18.6276 15.5485 18.656 15.7441 18.656C15.8792 18.656 15.9752 18.6916 16.0321 18.7627C16.0925 18.8303 16.1226 18.9156 16.1226 19.0187C16.1226 19.1289 16.0854 19.2213 16.0108 19.296C15.9361 19.3671 15.8294 19.4027 15.6908 19.4027C15.5449 19.4027 15.4169 19.3813 15.3066 19.3387C15.1965 19.296 15.1076 19.2337 15.0401 19.152C14.9761 19.0703 14.9352 18.9743 14.9174 18.864L15.1148 18.976C15.0934 19.1644 15.0312 19.3423 14.9281 19.5093C14.8285 19.68 14.6988 19.8364 14.5388 19.9787C14.3788 20.1209 14.1992 20.2453 14 20.352C13.8009 20.4587 13.5948 20.544 13.3813 20.608ZM14.4694 16.7893C14.3592 16.7893 14.2649 16.752 14.1868 16.6773C14.1121 16.6027 14.0748 16.5103 14.0748 16.4C14.0748 16.2897 14.1121 16.1956 14.1868 16.1173C14.2649 16.0391 14.3592 16 14.4694 16C14.5761 16 14.6668 16.0391 14.7414 16.1173C14.8196 16.1956 14.8586 16.2897 14.8586 16.4C14.8586 16.5103 14.8196 16.6027 14.7414 16.6773C14.6668 16.752 14.5761 16.7893 14.4694 16.7893Z" fill="#B49164"/>
<path d="M15.6953 19.403L15.7486 18.6563C15.8305 18.6563 15.8998 18.6367 15.9566 18.5977C16.0172 18.555 16.0793 18.4857 16.1433 18.3897C16.2073 18.2901 16.282 18.1567 16.3673 17.9897C16.474 17.7763 16.5842 17.6093 16.698 17.4883C16.8153 17.3674 16.9345 17.2821 17.0553 17.2323C17.1798 17.179 17.3042 17.1523 17.4286 17.1523C17.5852 17.1523 17.7309 17.1861 17.866 17.2537C18.0012 17.3213 18.1185 17.4137 18.218 17.531C18.3176 17.6447 18.394 17.7763 18.4473 17.9257C18.5042 18.0714 18.5326 18.2226 18.5326 18.379C18.5326 18.5674 18.4918 18.7381 18.41 18.891C18.3318 19.0403 18.2216 19.1594 18.0793 19.2483C17.9406 19.3337 17.7806 19.3763 17.5993 19.3763C17.4465 19.3763 17.2686 19.3497 17.066 19.2963C16.8633 19.243 16.65 19.131 16.426 18.9603L16.698 18.315C16.858 18.4253 17.0073 18.5053 17.146 18.555C17.2882 18.6047 17.4056 18.6297 17.498 18.6297C17.5692 18.6297 17.6278 18.6226 17.674 18.6083C17.7202 18.5941 17.754 18.571 17.7753 18.539C17.7966 18.507 17.8073 18.4643 17.8073 18.411C17.8073 18.3363 17.7896 18.2599 17.754 18.1817C17.7185 18.1034 17.6705 18.0377 17.61 17.9843C17.5532 17.9274 17.4856 17.899 17.4073 17.899C17.3326 17.899 17.2686 17.9274 17.2153 17.9843C17.1656 18.0377 17.1158 18.1159 17.066 18.219C17.0198 18.3186 16.9629 18.4359 16.8953 18.571C16.8136 18.7346 16.7336 18.8714 16.6553 18.9817C16.5772 19.0883 16.4936 19.1737 16.4046 19.2377C16.3193 19.2981 16.218 19.3407 16.1006 19.3657C15.9869 19.3906 15.8518 19.403 15.6953 19.403Z" fill="#B49164"/>
<path d="M18.6704 20.6027L18.3984 19.92C18.7042 19.8133 18.9514 19.696 19.1398 19.568C19.3318 19.44 19.4722 19.3031 19.5611 19.1573C19.6535 19.0116 19.6998 18.8604 19.6998 18.704C19.6998 18.6044 19.6855 18.5013 19.6571 18.3947C19.6287 18.2844 19.5878 18.1689 19.5344 18.048C19.4847 17.9271 19.4242 17.8009 19.3531 17.6693L20.0518 17.3333C20.1762 17.5716 20.2722 17.7991 20.3398 18.016C20.4108 18.2329 20.4464 18.4356 20.4464 18.624C20.4464 18.7983 20.4234 18.9653 20.3771 19.1253C20.3344 19.2853 20.2668 19.4347 20.1744 19.5733C20.0855 19.7156 19.97 19.8489 19.8278 19.9733C19.6855 20.0977 19.5184 20.2116 19.3264 20.3147C19.1344 20.4213 18.9158 20.5173 18.6704 20.6027ZM19.8491 16.7893C19.7388 16.7893 19.6447 16.752 19.5664 16.6773C19.4918 16.6027 19.4544 16.5103 19.4544 16.4C19.4544 16.2897 19.4918 16.1956 19.5664 16.1173C19.6447 16.0391 19.7388 16 19.8491 16C19.9558 16 20.0464 16.0391 20.1211 16.1173C20.1994 16.1956 20.2384 16.2897 20.2384 16.4C20.2384 16.5103 20.1994 16.6027 20.1211 16.6773C20.0464 16.752 19.9558 16.7893 19.8491 16.7893Z" fill="#B49164"/>
</svg>
