<svg width="32" height="32" viewBox="0 0 32 32" fill="none" xmlns="http://www.w3.org/2000/svg">
<path d="M7.15087 4.01032H24.8841C25.2029 4.01032 25.5219 4.0042 25.8407 4.01032C26.0117 4.01276 26.1803 4.09473 26.3379 4.09964L26.3733 4.12655C26.2072 4.16325 26.1131 4.02377 26.0924 3.70811C26.002 3.60411 26.0851 3.34104 26.0619 3.69342C26.0605 3.713 26.0619 3.73257 26.0619 3.75215C26.0264 4.61475 26.0619 5.48589 26.0619 6.3497C26.0619 10.0717 26.0619 13.7925 26.0619 17.5144C26.0619 19.1308 26.0619 20.747 26.0619 22.3633C26.0619 23.0032 26.1644 23.741 26.0619 24.376C25.8712 25.553 24.4139 25.3377 23.5575 25.3377H6.51196C6.39345 25.3377 6.27619 25.3401 6.15768 25.3377C6.00253 25.3353 5.71179 25.1971 5.62505 25.2214C5.99153 25.1174 5.9048 26.1452 5.93779 25.6546C5.93779 25.6398 5.93779 25.624 5.93779 25.6093C5.94268 25.5041 5.93779 25.3964 5.93779 25.2912C5.93779 24.8397 5.93779 24.3894 5.93779 23.938C5.93779 20.4154 5.93779 16.8929 5.93779 13.3704C5.93779 11.573 5.93779 9.7756 5.93779 7.97823C5.93779 7.02755 5.88037 6.05607 5.93779 5.1066C5.97688 4.4618 6.5254 4.04212 7.15087 4.01032C8.2308 3.95525 7.06413 1.31365 6.07461 1.36381C4.74669 1.43111 4.02715 2.47233 4.00272 3.72768C3.99783 4.00787 4.00272 4.28928 4.00272 4.56947C4.00272 6.02303 4.00272 7.47659 4.00272 8.93013C4.00272 12.8773 4.00272 16.8244 4.00272 20.7715C4.00272 21.8947 3.9966 23.0179 4.00272 24.1411C4.01249 25.9776 5.33185 27.9634 7.29747 27.9854C10.3564 28.0197 13.4179 27.9854 16.4768 27.9854C19.5725 27.9854 22.6693 28.0185 25.7649 27.9854C26.5541 27.9769 27.3128 27.6551 27.7061 26.9294C27.9797 26.4254 27.9956 25.8797 27.9956 25.3266V5.69389C27.9956 5.45531 28.0055 5.21549 27.9956 4.9769C27.9297 3.37408 26.7141 1.53389 25.0161 1.37116C24.1927 1.29285 23.3327 1.36259 22.5068 1.36259H17.0388C13.5963 1.36259 10.1524 1.36259 6.70987 1.36259H6.07339C5.02156 1.36259 6.15156 4.01032 7.15087 4.01032Z" fill="#B49164"/>
<path d="M5.49252 9.33268H27.58C28.6283 9.33268 27.5033 6.66602 26.5075 6.66602H4.41997C3.37179 6.66602 4.49668 9.33268 5.49252 9.33268Z" fill="#B49164"/>
<path d="M5.49441 20.0007H27.5795C28.6291 20.0007 27.5027 17.334 26.5056 17.334H4.42051C3.37099 17.334 4.49731 20.0007 5.49441 20.0007Z" fill="#B49164"/>
<path d="M10.4175 23.458C10.8034 23.458 11.1162 23.1452 11.1162 22.7592C11.1162 22.3733 10.8034 22.0605 10.4175 22.0605C10.0316 22.0605 9.71875 22.3733 9.71875 22.7592C9.71875 23.1452 10.0316 23.458 10.4175 23.458Z" fill="#B49164"/>
<path d="M10.9463 23.3719C11.0494 23.3779 11.0045 23.3962 10.9439 23.367C10.7631 23.2834 10.6625 23.1342 10.5448 22.9801C10.3507 22.7229 10.193 22.4342 10.1724 22.1079C10.1724 21.9053 10.1651 21.8702 10.1493 22.0035L10.1809 21.9283C10.1602 21.9721 10.1348 22.0121 10.1081 22.0521C10.1602 21.9709 10.1311 22.0437 10.0681 22.0813C10.0268 22.1067 9.98556 22.131 9.93947 22.1479C9.89702 22.1649 9.89459 22.1661 9.92976 22.1515C9.97828 22.1346 9.9613 22.1322 9.8776 22.1455C9.77814 22.1249 9.8218 22.1225 9.88003 22.1503C9.96979 22.1915 10.0486 22.2583 10.1202 22.3274C10.3944 22.5943 10.6273 23.0226 10.6515 23.4095C10.6515 23.5999 10.6564 23.6473 10.6685 23.5514C10.6794 23.5017 10.6758 23.5017 10.6588 23.5514C10.6345 23.657 10.6976 23.4933 10.7158 23.4653C10.6782 23.5235 10.6625 23.4945 10.7255 23.4557C10.7777 23.4241 10.8262 23.3913 10.8832 23.3695C10.9839 23.3319 10.7425 23.3829 10.9463 23.3719C12.0199 23.3137 10.8577 20.6947 9.87639 20.7469C8.93748 20.7978 8.65242 21.7051 8.80404 22.5118C8.986 23.4774 9.84 24.7645 10.9451 24.7694C11.8003 24.773 12.1557 23.8899 12.0417 23.1597C11.8755 22.0982 11.0579 20.8099 9.87639 20.7469C9.64469 20.7347 9.50519 20.9627 9.46395 21.1545C9.4033 21.4383 9.49912 21.8191 9.60951 22.0751C9.83636 22.6003 10.2985 23.3367 10.9463 23.3719Z" fill="#B49164"/>
<path d="M21.5971 23.458C21.983 23.458 22.2959 23.1452 22.2959 22.7592C22.2959 22.3733 21.983 22.0605 21.5971 22.0605C21.2112 22.0605 20.8984 22.3733 20.8984 22.7592C20.8984 23.1452 21.2112 23.458 21.5971 23.458Z" fill="#B49164"/>
<path d="M22.1338 23.3719C22.2369 23.3779 22.1921 23.3962 22.1314 23.367C21.9506 23.2834 21.8499 23.1342 21.7322 22.9801C21.5382 22.7229 21.3805 22.4342 21.3598 22.1079C21.3598 21.9053 21.3526 21.8702 21.3367 22.0035L21.3683 21.9283C21.3477 21.9721 21.3222 22.0121 21.2955 22.0521C21.3477 21.9709 21.3186 22.0437 21.2555 22.0813C21.2143 22.1067 21.173 22.131 21.127 22.1479C21.0845 22.1649 21.0821 22.1661 21.1173 22.1515C21.1658 22.1346 21.1487 22.1322 21.0651 22.1455C20.9655 22.1249 21.0093 22.1225 21.0675 22.1503C21.1573 22.1915 21.2361 22.2583 21.3077 22.3274C21.5818 22.5943 21.8147 23.0226 21.839 23.4095C21.839 23.5999 21.8438 23.6473 21.8559 23.5514C21.8669 23.5017 21.8633 23.5017 21.8463 23.5514C21.8221 23.657 21.8851 23.4933 21.9033 23.4653C21.8657 23.5235 21.8499 23.4945 21.913 23.4557C21.9651 23.4241 22.0137 23.3913 22.0707 23.3695C22.1714 23.3319 21.9299 23.3829 22.1338 23.3719C23.2073 23.3137 22.0453 20.6947 21.0638 20.7469C20.125 20.7978 19.8399 21.7051 19.9915 22.5118C20.1735 23.4774 21.0274 24.7645 22.1326 24.7694C22.9878 24.773 23.3431 23.8899 23.2291 23.1597C23.063 22.0982 22.2454 20.8099 21.0638 20.7469C20.8322 20.7347 20.6926 20.9627 20.6514 21.1545C20.5907 21.4383 20.6866 21.8191 20.797 22.0751C21.0238 22.6003 21.4859 23.3367 22.1338 23.3719Z" fill="#B49164"/>
<path d="M7.85156 26.7188H9.71604V28.3503C9.71604 28.7361 9.40307 29.049 9.01732 29.049H8.5515C8.16575 29.049 7.85278 28.7361 7.85278 28.3503L7.85156 26.7188Z" fill="#B49164"/>
<path d="M8.38391 28.0325H10.2484L8.7539 26.0856V27.5109C8.7539 27.5752 8.76359 27.6468 8.7539 27.7098C8.79271 27.4514 8.68839 27.7098 8.53069 27.745C8.44214 27.7657 8.29414 27.7365 8.20438 27.7365C7.8259 27.7365 8.10975 27.6625 8.35965 28.0168L8.74662 28.6876C8.9031 29.0176 8.8097 29.0442 8.8097 28.7786V27.3532C8.8097 26.6982 8.32205 25.9169 7.77981 25.57C7.23757 25.223 6.88821 25.4985 6.88821 26.0844C6.88821 26.5951 6.87607 27.1083 6.88821 27.6189C6.91731 28.8332 7.83318 30.3192 9.15421 30.3616C9.51085 30.3725 9.89417 30.3677 10.1914 30.1457C10.6014 29.84 10.6657 29.3633 10.673 28.8877C10.6802 28.377 10.673 27.8652 10.673 27.3532C10.673 26.6581 9.9803 25.4062 9.17846 25.4062H7.31399C6.26954 25.4062 7.39041 28.0313 8.3827 28.0313L8.38391 28.0325Z" fill="#B49164"/>
<path d="M22.2969 26.7188H24.1614V28.3503C24.1614 28.7361 23.8483 29.049 23.4626 29.049H22.9969C22.611 29.049 22.2981 28.7361 22.2981 28.3503L22.2969 26.7188Z" fill="#B49164"/>
<path d="M22.8369 28.0325H24.7015L23.2069 26.0856V27.5109C23.2069 27.5752 23.2167 27.6468 23.2069 27.7098C23.2457 27.4514 23.1415 27.7098 22.9837 27.745C22.8952 27.7657 22.7472 27.7365 22.6575 27.7365C22.2789 27.7365 22.5628 27.6625 22.8127 28.0168L23.1997 28.6876C23.3561 29.0176 23.2628 29.0442 23.2628 28.7786V27.3532C23.2628 26.6982 22.7751 25.9169 22.2329 25.57C21.6907 25.223 21.3413 25.4985 21.3413 26.0844C21.3413 26.5951 21.3292 27.1083 21.3413 27.6189C21.3704 28.8332 22.2863 30.3192 23.6073 30.3616C23.9639 30.3725 24.3472 30.3677 24.6444 30.1457C25.0545 29.84 25.1188 29.3633 25.126 28.8877C25.1333 28.377 25.126 27.8652 25.126 27.3532C25.126 26.6581 24.4333 25.4062 23.6316 25.4062H21.7671C20.7227 25.4062 21.8435 28.0313 22.8357 28.0313L22.8369 28.0325Z" fill="#B49164"/>
<path d="M26.9688 8.31055V12.9711H27.4345C27.9489 12.9711 28.3661 12.5538 28.3661 12.0395V9.24339C28.3661 8.72905 27.9489 8.31176 27.4345 8.31176L26.9688 8.31055Z" fill="#B49164"/>
<path d="M26.009 7.67698V12.3376C26.009 13.0326 26.7017 14.2845 27.5035 14.2845C27.8722 14.2845 28.2519 14.304 28.5915 14.1293C29.1387 13.8466 29.3134 13.2437 29.3279 12.6748C29.3425 12.1059 29.3279 11.583 29.3279 11.0384C29.3279 10.3227 29.3837 9.61787 29.1217 8.93371C28.8427 8.20709 28.2895 7.45499 27.5545 7.14445C27.1917 6.99159 26.8205 7.00008 26.4359 7.00008C25.3915 7.00008 26.5125 9.62515 27.5047 9.62515C27.6575 9.62515 27.8941 9.67488 28.0409 9.63243C25.6062 10.3421 27.4671 8.15978 27.4077 8.65348C27.4003 8.71171 27.4113 8.77115 27.4077 8.82938C27.3749 9.29642 27.4077 9.77922 27.4077 10.2475C27.4077 10.6053 27.4683 11.0274 27.4077 11.3804C27.4077 11.3804 27.4695 11.2555 27.3943 11.3501C27.2899 11.4811 27.2281 11.5952 27.0522 11.6485C26.8763 11.7019 26.6191 11.6607 26.4347 11.6607L27.9293 13.6077V8.94706C27.9293 8.292 27.4417 7.51079 26.8994 7.16384C26.3571 6.81691 26.0078 7.09229 26.0078 7.67819L26.009 7.67698Z" fill="#B49164"/>
<path d="M5.04588 8.31055V12.9711H4.58006C4.06573 12.9711 3.64844 12.5538 3.64844 12.0395V9.24339C3.64844 8.72905 4.06573 8.31176 4.58006 8.31176L5.04588 8.31055Z" fill="#B49164"/>
<path d="M4.08361 7.67678V12.3374L4.50939 11.6593C4.35654 11.6593 4.11999 11.6095 3.97322 11.652C6.40783 10.9423 4.54699 13.1246 4.60643 12.6309C4.61371 12.5727 4.60279 12.5133 4.60643 12.455C4.63919 11.988 4.60643 11.5052 4.60643 11.037C4.60643 10.6791 4.54578 10.257 4.60643 9.90397C4.60643 9.90397 4.54457 10.0289 4.61978 9.93429C4.7241 9.80329 4.78597 9.68925 4.96186 9.63588C5.13775 9.5825 5.39493 9.62375 5.57931 9.62375C6.62375 9.62375 5.50289 6.99869 4.51061 6.99869C4.14183 6.99869 3.76214 6.97928 3.42249 7.15396C2.87539 7.4366 2.70071 8.03949 2.68615 8.60842C2.67161 9.17734 2.68615 9.70017 2.68615 10.2448C2.68615 10.9605 2.63035 11.6653 2.89238 12.3495C3.17138 13.0761 3.72454 13.8282 4.45966 14.1387C4.82235 14.2916 5.19355 14.2831 5.5781 14.2831C5.96263 14.2831 6.00389 13.8828 6.00389 13.605V8.94444C6.00389 8.28938 5.51623 7.50817 4.97399 7.16124C4.43175 6.8143 4.08239 7.08966 4.08239 7.67557L4.08361 7.67678Z" fill="#B49164"/>
</svg>
