<svg width="32" height="32" viewBox="0 0 32 32" fill="none" xmlns="http://www.w3.org/2000/svg">
<path d="M31.0527 15.9887C31.0131 14.8212 29.699 13.8608 28.9313 13.0959C27.8118 11.9783 26.6923 10.8617 25.5729 9.74504C25.2455 9.41767 24.8617 8.9106 24.3715 8.87016C24.0941 8.84758 23.8127 8.84382 23.5306 8.84664V8.06583H25.0827C25.4647 8.06583 25.7629 8.01032 25.7997 7.53526C25.8514 6.84758 25.253 5.88144 24.5325 5.80995C23.6529 5.7234 22.7206 5.80995 21.8382 5.80995H16.9303C15.8739 5.80995 14.7911 5.74222 13.7357 5.80995C13.4167 5.83064 13.2286 5.98399 13.2041 6.34147C13.1533 7.07994 13.7911 8.03384 14.5597 8.06583C14.8635 8.079 15.1683 8.07994 15.4731 8.07806V8.86922C14.8438 8.86451 14.2267 8.86734 13.6162 9.0743C12.9097 9.31419 12.3866 9.7996 11.9069 10.3471C11.0085 11.3716 10.111 12.396 9.2126 13.4205C8.96519 13.7027 8.71871 13.984 8.47224 14.2652H5.20319C3.92379 14.2888 2.77328 14.8861 1.97366 15.8777C1.22577 16.8061 0.95578 17.9604 0.952018 19.1308C0.951076 19.5192 0.927558 19.9181 0.974595 20.3048C1.07525 21.1297 1.5127 21.9313 2.14392 22.4704C2.71683 22.9576 3.35088 23.0244 4.02351 23.0263C4.20226 23.4449 4.42427 23.8439 4.72248 24.2116C5.36406 25.0037 6.24835 25.5964 7.27375 25.7177C8.222 25.8307 9.15427 25.46 9.81562 24.7855C10.3123 24.2793 10.5513 23.6716 10.7451 23.0207H22.0057C22.1843 23.4412 22.4073 23.8419 22.7074 24.2116C23.3481 25.0037 24.2333 25.5964 25.2587 25.7177C26.2061 25.8307 27.1383 25.46 27.8006 24.7855C28.2973 24.2793 28.5353 23.6716 28.7301 23.0197C29.5381 23.0169 30.3302 22.9595 30.7809 22.1411C31.0931 21.5729 31.0405 20.9153 31.0423 20.2897C31.0451 18.8588 31.1015 17.4187 31.0527 15.9887ZM25.1495 10.9059C25.237 10.8937 25.223 10.9445 25.1233 10.9078C25.1326 10.9078 25.1411 10.9068 25.1495 10.9059ZM24.905 11.1223C25.9549 12.1703 27.0047 13.2192 28.0546 14.2681H24.0451C23.6039 13.2192 23.1627 12.1712 22.7215 11.1223H24.905ZM22.0405 6.825C22.0405 6.825 22.0423 6.82688 22.0423 6.82783H22.0405V6.825ZM22.5673 14.2719H18.6002V11.126H21.2427C21.6839 12.1749 22.1261 13.2229 22.5673 14.2719ZM17.1683 8.06583H21.8345V8.87016H17.1683V8.06583ZM13.5823 12.0188C14.4262 11.0997 15.6923 11.0583 16.9041 11.0941V14.2681H11.6369C12.285 13.5183 12.9332 12.7686 13.5823 12.0188ZM9.11571 21.2812C9.00752 22.492 7.99811 23.4535 6.78832 23.4853C6.2935 23.4853 5.8664 23.3132 5.5174 22.9943C5.51646 22.9943 5.51646 22.9943 5.51551 22.9924C5.50516 22.9793 5.48071 22.9492 5.44308 22.9031C5.43932 22.8975 5.43462 22.8908 5.43086 22.8833C5.43743 22.8833 5.33302 22.6651 5.33207 22.6604C5.30008 22.5569 5.26999 22.2691 5.27939 22.0884C5.3396 20.8975 6.35466 19.8513 7.55315 19.8212C8.0696 19.808 8.52022 19.9764 8.88523 20.3104C8.88616 20.3104 8.88616 20.3123 8.88616 20.3123C8.89746 20.3255 8.92191 20.3556 8.95954 20.4017C8.9633 20.4073 8.968 20.4148 8.97178 20.4224C8.96519 20.4224 9.06867 20.6407 9.07055 20.6444C9.10912 20.7704 9.13358 21.0771 9.11571 21.2812ZM27.0969 21.2812C26.9887 22.4892 25.9821 23.4505 24.7733 23.4853C24.2775 23.4853 23.8475 23.3141 23.4986 22.9943C23.4986 22.9943 23.4967 22.9924 23.4958 22.9915C23.4845 22.9773 23.461 22.9483 23.4242 22.9031C23.4205 22.8975 23.4158 22.8908 23.4121 22.8833C23.4186 22.8833 23.3151 22.6651 23.3133 22.6604C23.2813 22.5569 23.2521 22.2691 23.2606 22.0884C23.3207 20.8975 24.3358 19.8513 25.5343 19.8212C26.0507 19.808 26.5014 19.9764 26.8665 20.3104V20.3123C26.8777 20.3255 26.9022 20.3556 26.9398 20.4017C26.9435 20.4073 26.9482 20.4148 26.9521 20.4224C26.9454 20.4224 27.0489 20.6407 27.0507 20.6444C27.0894 20.7704 27.1147 21.0771 27.0969 21.2812ZM29.3575 20.0413C29.333 20.5352 28.9567 20.6989 28.5371 20.7497C28.4111 20.3359 28.2379 19.936 27.9887 19.5512C27.333 18.5372 26.349 17.7393 25.1251 17.5823C24.0602 17.444 23.0245 17.9323 22.3527 18.7479C21.8674 19.3377 21.6905 20.0404 21.5719 20.7657H10.5616C10.4337 20.3461 10.2606 19.9407 10.0075 19.5512C9.35183 18.5372 8.36782 17.7393 7.14392 17.5823C6.07807 17.444 5.04327 17.9323 4.37159 18.7479C3.88616 19.3377 3.70931 20.0404 3.58983 20.7657H3.08184C2.96519 20.7657 2.84854 20.7676 2.73188 20.7657C2.71212 20.7657 2.68391 20.7592 2.65098 20.7507C2.65004 20.7112 2.6491 20.6725 2.6491 20.634C2.6491 20.3471 2.63499 20.0555 2.65756 19.7695C2.79867 18.0019 4.25963 16.5484 6.04327 16.5212C7.34336 16.5013 8.64534 16.5212 9.94638 16.5212H29.3585L29.3575 20.0413Z" fill="#B49164"/>
<path d="M25.1436 10.9043C25.1351 10.9052 25.1267 10.9062 25.1172 10.9062C25.2169 10.9429 25.2311 10.8921 25.1436 10.9043Z" fill="#B49164"/>
</svg>
