<svg width="486" height="782" viewBox="0 0 486 782" fill="none" xmlns="http://www.w3.org/2000/svg">
<g clip-path="url(#clip0_2292_29287)">
<path d="M469.705 0H471.607C476.648 11.2683 481.512 22.727 486 35.8995V45.3345C481.001 27.9803 475.459 14.0275 469.705 0Z" fill="#E9EAEA"/>
<path opacity="0.97" d="M455.316 0H457.3C467.052 26.4831 477.731 53.8996 486 94.0966V118.903C476.569 55.1728 465.371 29.6343 455.316 0Z" fill="#E9EAEA"/>
<path opacity="0.94" d="M441.569 0H443.479C457.319 48.0713 473.471 78.7698 484.558 176.462C485.088 181.14 485.567 185.852 486 190.586V225.291C471.585 78.0454 453.332 45.0769 441.569 0Z" fill="#E9EAEA"/>
<path opacity="0.91" d="M430.143 0C441.21 50.9649 458.608 81.8015 471.708 175.297C475.792 204.491 477.866 235.958 479.749 265.454C481.314 291.65 483.844 327.762 486 356.691V450.272C484.375 382.767 482.263 303.643 481.333 291.247C478.665 252.644 473.288 214.142 467.672 175.872C453.619 80.2819 436.622 44.3488 428.301 0H430.143Z" fill="#E9EAEA"/>
<path d="M486 642.309V765.304C485.709 770.766 485.398 776.333 485.07 782.001C484.763 723.625 485.298 677.969 486 642.309Z" fill="#E9EAEA"/>
<path opacity="0.88" d="M417.103 0C424.658 49.0682 441.11 80.7897 456.239 161.329C462.52 194.985 465.887 229.301 468.737 263.39C471.596 296.93 474.865 332.131 477.918 365.745C481.875 408.123 482.417 451.516 482.391 494.117C482.256 514.981 482.506 537.525 482.891 558.333C483.396 583.039 487.166 646.579 480.679 776.627C478.819 625.11 482.275 585.07 481.658 539.082C481.569 533.041 474.01 320.224 470.893 288.984C467.837 255.052 462.475 220.893 456.631 187.327C439.182 85.468 421.355 48.7882 415.403 0H417.103Z" fill="#E9EAEA"/>
<path opacity="0.85" d="M460.378 287.853C460.624 290.037 460.864 292.225 461.095 294.413C460.86 292.255 460.621 290.071 460.378 287.853ZM404.891 0C412.013 73.5239 437.339 108.356 451.152 210.48C454.392 232.452 457.549 261.937 460.374 287.853C459.844 283.193 459.272 278.552 458.655 273.926C434.828 103.401 407.521 75.1182 403.217 0H404.891ZM475.331 496.72C475.432 515.213 476.004 535.681 476.542 554.177C477.293 578.771 481.855 641.624 476.288 771.247C474.136 673.241 475.72 559.285 475.07 535.05C473.762 482.771 469.798 449.813 465.938 362.982C464.933 340.259 463.49 317.192 461.095 294.413C461.772 300.592 462.429 306.503 463.061 311.98C471.184 385.862 473.766 394.323 475.331 496.72Z" fill="#E9EAEA"/>
<path opacity="0.79" d="M378.313 -0.000172555H380.211C379.374 60.7321 392.785 79.7814 414.643 163.745C429.302 218.738 436.535 275.513 445.899 331.552C452.95 373.115 457.449 415.176 459.425 457.265C460.95 490.421 462.284 525.279 464.376 558.292C469.342 625.106 469.29 693.526 467.507 760.494C461.701 593.508 464.305 560.521 460.52 507.861C456.877 457.687 450.977 406.995 446.949 356.885C445.522 340.64 443.803 322.781 441.602 306.622C432.156 235.581 411.183 166.735 391.742 97.9421C379.625 55.6468 377.267 25.3068 378.313 -0.00390625V-0.000172555Z" fill="#E9EAEA"/>
<path opacity="0.82" d="M392.303 0C394.41 56.1622 408.747 80.898 427.803 158.865C435.986 191.819 441.288 225.396 445.821 258.958C447.061 268.778 448.892 280.677 450.062 290.433C468.647 429.644 464.354 397.217 469.32 530.92C470.9 575.243 476.688 632.439 471.902 765.874C471.042 736.852 468.987 624.696 469.073 562.698C468.998 511.591 453.357 318.495 452.386 309.344C450.518 292.823 448.063 275.479 445.275 259.048C444.102 251.853 441.905 241.372 440.586 234.084C437.302 217.82 433.498 200.694 429.668 184.519C406.546 85.2029 390.711 56.909 390.614 0H392.299H392.303Z" fill="#E9EAEA"/>
<path opacity="0.76" d="M426.407 280.737C427.476 286.023 428.477 291.546 429.419 297.109C428.462 291.889 427.461 286.434 426.407 280.737ZM366.559 0H368.372C363.458 91.7556 390.764 96.5982 423.814 266.735C424.711 271.567 425.57 276.223 426.403 280.737C426.295 280.195 426.183 279.65 426.074 279.112C419.778 246.353 410.534 213.653 401.036 181.726C373.733 89.4668 361.171 60.1498 366.559 0ZM463.118 755.117C460.002 685.01 456.318 545.071 454.771 522.568C452.589 487.087 435.64 341.312 435.632 341.267C434.9 335.529 433.641 325.063 432.909 319.421C431.844 312.245 430.685 304.643 429.415 297.113C455.944 441.987 446.7 409.359 457.069 541.337C458.728 567.772 465.7 626.488 463.118 755.121V755.117Z" fill="#E9EAEA"/>
<path opacity="0.73" d="M355.05 0H356.298C350.406 69.723 366.69 103.883 387.995 173.262C392.128 186.894 396.305 201.739 399.769 215.557C404.907 235.484 409.577 256.512 414.046 276.581C419.132 300.07 425.009 326.437 429.721 350.138C437.937 391.112 442.425 432.825 445.373 474.489C446.27 485.784 447.899 507.189 448.717 518.222C450.567 539.892 452.857 565.117 454.789 586.892C458.428 640.822 459.359 695.707 458.724 749.737C455.746 693.321 449.726 540.803 447.802 518.293C444.928 480.079 424.411 323.163 415.346 282.704C412.245 268.501 408.71 254.156 404.671 240.189C372.889 123.914 344.506 90.9864 355.05 0Z" fill="#E9EAEA"/>
<path opacity="0.7" d="M342.84 0H344.779C332.987 102.053 367.008 131.325 395.319 249.937C402.878 278.948 411.053 311.595 417.884 340.808C433.764 409.045 436.032 457.486 442.339 520.104C444.428 541.733 446.991 563.639 448.994 585.316C453.123 638.212 454.647 691.32 454.341 744.368C441.775 513.047 441.67 521.653 440.153 507.779C434.676 455.63 424.389 399.487 416.486 347.439C413.127 326.952 409.454 306.394 404.537 286.225C397.8 257.897 388.844 230.141 379.17 202.699C351.187 121.502 330.883 78.2918 342.84 0Z" fill="#E9EAEA"/>
<path opacity="0.67" d="M331.188 0H333.198C319.997 89.3324 341.617 121.39 366.786 200.328C374.397 223.058 381.866 248.589 388.611 271.716C389.272 274.061 389.922 276.361 390.557 278.623C389.9 276.316 389.235 274.016 388.547 271.731C381.597 248.059 372.895 224.276 364.069 201.291C335.821 126.942 316.436 80.5843 331.188 0ZM444.774 602.271C448.044 647.729 449.945 693.407 449.949 738.992C446.276 680.485 440.481 598.399 436.535 540.576C435.769 530.353 434.73 519.831 433.58 509.642C427.332 455.709 415.316 397.922 405.687 344.299C401.718 323.681 397.167 302.444 391.518 282.032C429.025 415.754 421.257 408.589 438.179 540.411C440.668 560.849 443.253 581.777 444.774 602.275V602.271Z" fill="#E9EAEA"/>
<path opacity="0.64" d="M320.089 0H321.718C306.062 88.9777 324.722 123.175 351.292 198.987C362.468 230.108 372.792 261.523 382.746 293.054C387.051 306.581 391.561 320.915 395.533 334.543C415.575 400.006 421.841 468.355 431.358 535.849C441.036 601.181 444.727 667.644 445.564 733.611C440.89 668.858 435.196 600.699 429.718 536.039C422.992 466.137 406.522 397.65 391.751 329.125C386.247 305.006 379.406 281.046 371.167 257.722C333.451 150.498 296.975 111.111 320.089 0Z" fill="#E9EAEA"/>
<path opacity="0.61" d="M308.423 0H310.515C289.599 104.838 313.658 135.593 352.858 244.09C362.539 270.331 372.852 299.069 381.834 325.63C404.664 393.397 410.374 441.241 420.563 506.842C425.701 540.479 438.764 607.267 441.17 728.235C435.726 662.458 424.397 539.366 419.599 506.984C410.475 445.93 394.789 386.057 379.828 326.228C375.202 308.904 369.515 289.948 363.424 273.12C354.416 247.887 343.528 223.413 332.781 198.886C299.302 123.582 290.383 75.387 308.423 0Z" fill="#E9EAEA"/>
<path opacity="0.58" d="M296.862 0H298.985C280.623 81.4804 289.968 121.704 314.835 185.307C325.11 211.525 341.3 250.777 351.61 276.794C365.21 311.177 378.968 345.733 388.515 381.498C401.421 429.177 408.453 478.171 417.282 526.671C420.548 544.705 433.517 612.487 436.783 722.862C425.667 605.236 415.702 527.291 415.653 526.925C411.991 498.407 406.383 470.169 399.635 442.234C390.888 406.383 381.098 370.741 370.987 335.263C366.38 319.5 361.485 303.803 355.888 288.361C344.757 257.39 330.427 227.774 316.684 197.901C291.538 143.452 273.475 90.404 296.862 0Z" fill="#E9EAEA"/>
<path opacity="0.52" d="M274.629 0H276.599C242.417 129.141 273.564 165.866 338.228 306.402C340.829 311.965 345.907 323.166 348.377 328.797C367.818 372.264 382.342 417.274 410.231 553.513C419.785 605.676 425.203 659.161 427.998 712.109C420.719 647.863 411.524 581.404 401.02 517.759C392.811 469.348 377.962 422.4 362.105 376.043C351.489 345.296 340.642 314.101 327.422 284.336C320.992 269.868 313.276 254.291 306.035 240.148C295.289 219.254 284.012 198.375 275.209 176.522C252.461 120.99 254.295 67.4193 274.626 0.00746739L274.629 0Z" fill="#E9EAEA"/>
<path opacity="0.55" d="M285.66 0H287.752C269.234 74.7075 272.38 119.463 298.446 184.478C317.891 233.457 341.715 282.581 361.242 331.515C386.221 392.512 397.183 457.773 410.041 522.06C413.987 541.864 418 562.716 420.671 582.677C426.545 626.585 430.719 673.279 432.393 717.486C423.294 631.275 420.824 614.2 410.205 534.505C407.93 518.476 405.284 501.853 401.91 486.049C390.951 432.183 362.744 343.324 350.604 309.228C337.164 270.413 318.011 234.028 300.363 197.027C296.985 189.847 293.365 181.775 290.458 174.427C270.594 126.337 264.683 74.8942 285.667 0L285.66 0Z" fill="#E9EAEA"/>
<path opacity="0.49" d="M263.248 0H265.542C237.993 98.114 246.74 145.543 279.782 216.842C288.196 235.073 297.84 253.85 307.114 271.679C313.496 284.086 323.432 302.795 329.623 315.266C365.822 384.496 382.532 461.354 400.729 536.7C412.271 586.123 420.506 654.759 423.607 706.732C408.755 590.906 393.487 513.409 393.443 513.185C374.33 415.646 317.756 293.61 312.525 282.674C297.497 251.446 279.023 221.61 264.754 189.993C240.414 135.447 237.716 79.6248 263.244 0L263.248 0Z" fill="#E9EAEA"/>
<path opacity="0.46" d="M252.744 0H254.377C223.129 103.987 230.056 156.591 279.651 249.026C300.721 288.361 325.217 327.008 342.506 368.232C363.266 417.199 376.393 468.911 390.442 520.07C390.976 522.105 411.079 591.044 419.217 701.356C412.79 656.574 404.637 597.959 386.989 514.604C365.8 414.627 302.989 292.419 297.197 281.293C281.134 250.568 262.044 221.259 248.264 189.347C221.38 126.247 230.172 67.2476 252.74 0.00373369L252.744 0Z" fill="#E9EAEA"/>
<path opacity="0.43" d="M241.123 0H243.212C223.745 60.8592 212.726 119.478 232.967 181.835C242.125 210.297 256.204 236.843 271.348 262.669C253.461 232.381 234.558 202.333 224.952 168.285C215.644 134.413 211.302 85.1058 241.127 0H241.123ZM271.344 262.669C274.206 267.516 274.008 267.213 271.344 262.669V262.669ZM329.933 365.338C343.093 392.953 353.435 422.031 362.922 451.075C379.583 503.858 403.99 571.308 414.826 695.979C412.794 682.863 398.344 584.76 376.187 498.179C351.933 406.017 287.082 290.175 281.474 280.195C278.847 275.509 276.149 270.846 273.418 266.194C278.246 274.359 283.163 282.458 288.043 290.526C303.037 314.773 317.834 339.494 329.933 365.338Z" fill="#E9EAEA"/>
<path opacity="0.4" d="M230.078 0H232.264C210.884 64.0067 198.778 123.096 218.678 187.066C234.147 235.798 265.157 277.57 292.306 320.299C331.614 380.318 354.758 448.854 376.721 516.616C377.203 518.114 400.06 585.559 410.443 690.603C408.194 677.602 383.283 519.857 347.222 436.26C321.238 375.121 279.823 303.803 271.699 289.877C253.181 258.252 231.67 227.968 217.894 193.831C192.201 130.201 207.779 60.3664 230.082 0.0037337L230.078 0Z" fill="#E9EAEA"/>
<path opacity="0.37" d="M219.102 0H221.295C190.443 90.2173 184.061 153.955 215.421 220.721C222.678 236.567 232.266 252.517 235.912 258.383C235.89 258.346 235.868 258.312 235.842 258.275C217.252 229.04 199.653 198.099 193.604 163.551C184.465 110.189 199.156 52.3315 219.102 0ZM237.415 260.709C244.727 272.056 243.423 270.249 237.415 260.709V260.709ZM235.912 258.383C238.068 261.725 237.728 261.306 235.912 258.383V258.383ZM303.469 360.298C319.842 388.599 333.125 418.592 345.142 448.943C349.685 460.122 354.065 471.943 358.347 483.192C360.39 488.931 362.64 494.666 364.684 500.427C367.935 509.388 371.589 520.246 374.585 529.408C376.984 536.932 396.115 597.462 406.047 685.223C403.812 673.055 378.303 528.482 344.088 449.376C331.433 419.514 315.694 390.627 299.594 362.519C281.453 330.854 262.169 299.368 242.436 268.535C249.155 278.81 256.183 288.88 263.196 298.83C277.294 318.865 291.31 338.99 303.465 360.298H303.469Z" fill="#E9EAEA"/>
<path opacity="0.34" d="M207.982 0H210.28C185.525 69.3011 173.154 127.55 187.031 186.024C202.534 252.749 254.348 301.761 289.546 358.252C304.855 382.405 318.018 407.966 329.796 434.001C352.962 485.896 385.978 556.201 401.656 679.85C399.717 670.083 382.01 575.254 352.297 490.884C328.062 421.172 288.649 364.009 225.6 268.483C219.15 258.7 211.954 247.451 206.155 237.344C193.835 216.121 184.001 193.088 179.753 168.804C170.878 117.779 185.57 57.1815 207.978 0.0037337L207.982 0Z" fill="#E9EAEA"/>
<path opacity="0.31" d="M197.165 0H199.227C170.684 76.9291 150.021 161.561 189.755 237.127C199.1 255.288 210.709 272.168 223.074 288.398C250.813 323.446 279.682 358.898 301.324 398.143C317.383 426.451 331.571 456.343 344.846 486.011C352.558 503.183 381.924 567.421 397.27 674.473C395.767 667.79 394.142 660.203 392.726 653.531C343.837 448.977 316.355 424.656 229.508 298.875C211.225 272.377 191.168 245.009 178.351 215.404C162.621 180.24 147.966 122.193 197.168 0.0037337L197.165 0Z" fill="#E9EAEA"/>
<path opacity="0.28" d="M185.264 259.249C186.758 261.59 188.309 263.965 189.912 266.373C188.335 264.032 186.784 261.661 185.264 259.249ZM186.052 -5.04847e-05H188.387C157.001 82.6266 137.279 164.734 172.971 237.261C176.748 244.99 180.877 252.282 185.264 259.249C181.632 253.566 178.317 248.104 175.403 242.907C164.915 223.794 160.917 213.209 156.25 197.665C154.168 189.918 152.311 181.416 151.31 173.445C146.415 134.708 153.066 79.3522 186.052 -0.00378418V-5.04847e-05ZM297.979 411.468C313.471 437.929 327.696 465.245 340.848 492.934C364.515 542.162 382.626 605.086 392.879 669.093C375.624 594.837 364.485 562.216 347.634 516.661C344.218 507.252 340.284 497.425 336.428 488.184C323.215 456.075 305.583 425.91 285.75 397.456C255.473 354.227 216.067 305.771 189.912 266.373C202.183 284.59 216.067 300.727 229.668 316.987C255.028 346.472 278.325 377.865 297.979 411.468Z" fill="#E9EAEA"/>
<path opacity="0.25" d="M175.194 0H177.525C150.749 68.4013 128.581 143.732 146.905 211.6C153.694 236.317 166.372 259.006 181.703 279.433C201.454 305.536 224.885 328.834 245.399 354.316C276.7 392.378 302.538 434.58 325.902 477.872C352.11 525.861 374.144 584.028 388.492 663.72C381.849 637.607 349.711 502.148 286.997 415.291C253.776 368.572 214.494 326.504 181.497 279.587C164.907 256.247 150.062 231.071 142.481 203.259C141.016 197.8 139.805 192.222 138.748 186.655C138.542 185.37 137.844 180.517 137.597 178.993C137.522 178.482 137.436 177.97 137.376 177.459C137.115 174.625 136.794 171.033 136.532 168.195C133.124 111.996 155.222 46.9549 175.194 0Z" fill="#E9EAEA"/>
<path opacity="0.22" d="M164.675 0H166.719C138.987 69.5475 121.403 131.027 127.699 190.415C129.231 207.575 135.762 228.805 139.883 237.732C153.925 270.163 173.041 292.091 196.637 317.54C219.191 341.454 241.505 365.697 261.271 392.004C281.187 418.196 299.122 445.811 315.978 474.056C336.603 508.742 348.758 535.819 362.079 574.937C371.349 602.178 378.523 630.125 384.102 658.348C371.48 610.877 356.171 563.922 335.774 519.185C322.748 489.256 307.664 459.659 288.828 432.929C252.319 380.762 205.16 337.108 167.971 285.355C133.427 237.818 126.533 207.552 123.29 178.493C120.528 147.559 122.793 96.9379 164.679 0.00746739L164.675 0Z" fill="#E9EAEA"/>
<path opacity="0.19" d="M135.773 263.274C136.748 264.932 137.742 266.582 138.751 268.221C137.727 266.586 136.733 264.936 135.773 263.274ZM153.611 0H155.688C134.902 50.6289 113.257 113.426 112.648 171.825C112.835 182.301 111.837 208.097 124.728 240.939C126.887 245.756 128.565 250.807 135.777 263.274C110.72 220.602 109.509 188.298 108.878 168.741C108.739 130.254 119.642 76.6714 153.611 0ZM179.86 318.346C214.781 353.327 248.724 389.54 277.57 429.797C296.902 456.482 315.585 483.879 330.882 513.114C334.331 519.745 362.784 574.003 379.707 652.967C358.891 580.806 341.498 542.424 319.149 498.344C314.423 489.345 309.468 480.086 304.282 471.353C267.145 406.558 207.757 359.316 162.033 301.13C153.749 290.608 145.817 279.665 138.755 268.221C143.691 276.107 149.299 283.686 155.076 290.866C162.855 300.29 171.389 309.542 179.86 318.346Z" fill="#E9EAEA"/>
<path opacity="0.16" d="M142.652 0H144.852C120.442 58.1747 95.7248 129.227 99.1362 194.664C99.536 198.928 99.876 204.211 100.586 208.437C100.915 210.405 101.072 212.533 101.513 214.531C105.993 241.025 117.796 265.951 134.196 287.158C142.932 298.662 152.86 309.202 162.993 319.474C189.448 345.576 216.605 371.099 241.041 399.188C260.146 420.955 278.134 443.667 295.071 467.167C304.775 480.594 313.892 494.472 322.187 508.817C346.407 552.131 363.875 599.363 375.316 647.591C363.621 609.798 341.512 542.674 293.707 468.101C249.191 397.784 176.807 351.053 130.295 282.335C97.8845 235.245 66.4642 168.136 142.648 0.00373369L142.652 0Z" fill="#E9EAEA"/>
<path opacity="0.14" d="M131.817 0H134.067C108.012 60.9974 85.0887 126.557 84.8794 190.026C84.9953 195.791 85.2979 202.811 85.8995 208.538C92.8195 278.522 138.973 313.974 182.26 354.947C200.349 371.753 218.523 389.521 235.337 407.559C257.936 431.914 279.671 457.131 299.198 484.036C334.661 532.63 354.461 589.763 355.19 591.686C361.172 607.987 366.563 625.461 370.928 642.214C355.38 595.099 335.707 549.171 309.832 506.767C293.063 478.23 273.965 450.922 251.262 426.754C217.428 390.171 177.377 359.954 144.043 322.845C124.658 301.335 106.951 277.567 95.7639 250.706C91.7621 241.768 86.5609 224.892 85.0064 214.949C82.488 202.015 66.3463 142.202 131.817 0.0037337V0Z" fill="#E9EAEA"/>
<path opacity="0.12" d="M87.1921 268.243C87.3266 268.512 87.4611 268.781 87.5956 269.05C87.2743 268.456 87.4126 268.733 87.1921 268.243ZM147.398 339.579C165.939 356.213 184.991 372.619 203.143 389.693C227.487 412.457 250.926 436.398 272.874 461.47C309.843 503.653 336.466 546.46 361.104 618.882C363.021 624.83 364.755 630.849 366.537 636.838C364.318 630.991 362.248 625.103 360.047 619.256C338.554 565.819 324.143 536.763 290.238 487.52C285.702 481.045 280.284 473.686 275.482 467.417C258.941 446.023 240.03 426.459 219.864 408.462C185.795 377.865 148.467 350.381 118.822 315.168C107.328 301.772 95.6142 284.982 87.5956 269.054C89.3593 272.294 91.5227 276.487 93.4657 279.493C107.466 302.668 127.416 321.587 147.398 339.583V339.579ZM120.567 -0.000172555H123.205C94.9566 65.1341 73.0345 129.197 71.1289 190.112C70.0266 212.455 75.2502 240.752 81.1128 254.287C84.7036 263.49 84.6737 262.628 87.1921 268.24C59.0749 211.693 55.9736 135.361 120.567 -0.00390625V-0.000172555Z" fill="#E9EAEA"/>
<path opacity="0.1" d="M69.3201 265.518C70.1795 267.516 71.08 269.506 72.0216 271.496C69.9254 267.183 69.6714 266.399 69.3201 265.518ZM99.1748 311.121C114.61 328.125 132.217 342.951 149.741 357.77C165.756 371.185 181.815 384.698 197.523 398.538C219.505 417.957 240.975 438.018 261.347 459.136C272.814 471.058 284.304 484.025 294.407 497.153C324.681 537.432 347.264 583.405 362.146 631.461C337.568 567.951 314.159 529.972 283.822 489.431C276.461 479.675 268.14 469.441 260.129 460.253C240.833 438.228 218.709 418.771 195.857 400.51C164.881 375.602 132.299 351.961 105.994 321.871C91.2236 305.293 80.0851 288.518 72.0179 271.496C75.3883 278.429 79.2294 285.154 83.6086 291.493C88.1484 298.221 93.8055 305.039 99.1674 311.125L99.1748 311.121ZM110.313 0H112.645C71.3192 94.5521 46.3556 176.253 61.8509 243.116C62.6991 246.062 63.3343 249.295 64.373 252.177C67.2875 260.84 66.0731 257.438 69.3201 265.522C43.755 206.167 47.8801 131.008 110.313 0.0037337V0Z" fill="#E9EAEA"/>
<path opacity="0.08" d="M99.384 0H101.559C76.1729 56.4161 44.4574 137.034 43.2766 206.373C43.2617 213.56 43.6017 221.203 44.2855 228.349C44.8235 232.004 45.2981 237.22 46.1351 240.805C48.6086 253.062 47.5363 247.111 49.7968 256.135C50.3386 257.972 51.9977 262.557 52.7001 264.73C46.916 249.512 43.1945 233.304 41.7484 215.901C35.6393 144.714 71.902 56.6066 99.384 0ZM52.7039 264.73C53.4623 266.728 52.9094 265.365 52.7039 264.73V264.73ZM80.2905 310.823C96.0436 329.133 114.692 344.557 133.409 359.76C156.459 378.238 189.785 404.55 211.782 423.562C237.313 445.568 262.774 468.008 284.577 493.804C316.98 532.735 341.599 578.155 357.76 626.085C347.354 601.106 335.326 575.99 321.291 552.811C303.039 522.202 280.945 493.945 257.009 467.582C220.38 426.489 173.386 397.246 130.599 363.225C119.143 353.988 107.896 344.064 97.7064 333.426C80.4586 315.553 66.6896 296.321 57.0494 275.147C60.7373 282.648 63.4799 288.286 70.5942 298.416C73.4452 302.422 77.1742 307.067 80.2867 310.819L80.2905 310.823ZM53.1186 265.805C55.1475 270.727 54.9756 270.596 53.1186 265.805V265.805ZM54.5758 269.446C55.368 271.365 56.1938 273.262 57.0531 275.147C56.2984 273.616 56.0032 273.023 54.5758 269.446Z" fill="#E9EAEA"/>
<path opacity="0.06" d="M38.6133 270.2C38.9383 271.081 39.2708 271.955 39.6109 272.829C39.2522 271.974 38.9832 271.249 38.6133 270.2ZM27.7774 190.975C30.4341 138.793 53.7835 71.0821 88.5891 0H90.9953C48.2684 94.5708 21.8363 175.943 31.3532 241.682C32.6909 251.289 35.3999 261.045 38.6133 270.2C29.328 245.069 26.2903 218.369 27.7774 190.975ZM50.6822 295.037C67.2797 322.98 99.9779 348.414 107.152 354.26C133.565 375.3 161.193 395.137 187.898 415.889C218.003 439.31 248.358 462.855 274.525 490.738C309.069 528.213 335.826 572.921 353.369 620.712C339.137 589.954 329.952 571.924 310.713 543.029C296.563 522.034 280.283 502.578 263.14 483.98C243.172 462.112 221.082 442.204 197.262 424.585C141.121 382.483 68.4418 346.913 39.6109 272.832C41.2736 276.775 44.3675 284.201 47.4837 289.556L50.6822 295.037Z" fill="#E9EAEA"/>
<path opacity="0.04" d="M15.8314 178.777C23.3604 118.623 54.7919 46.3949 77.6892 0H80.1628C56.6677 50.7446 33.1127 107.792 21.5109 166.751C20.7523 170.081 19.9303 175.98 19.2802 179.27C12.2967 220.363 17.2475 244.796 17.6622 249.026C19.0111 258.032 22.1349 268.371 21.9368 267.702C23.0055 271.343 24.1264 274.423 22.8485 270.764C22.0265 268.486 19.4782 259.69 18.6487 255.344C18.3087 253.589 17.4978 250.811 17.2923 249.09C12.8907 225.986 12.9879 202.109 15.8351 178.777H15.8314ZM23.4165 272.403C24.7691 276.279 24.444 275.446 23.4165 272.403V272.403ZM80.8391 349.007C100.478 365.286 121.391 379.937 142.211 394.685C171.498 415.34 202.089 436.622 230.273 458.628C242.002 467.836 253.522 477.633 264.268 487.979C284.154 507.439 301.768 529.304 316.807 552.695C331.723 576.046 339.801 593.448 348.975 615.328C346.086 609.679 343.359 603.768 340.362 598.19C326.003 571.072 317.117 558.262 304.151 540.068C288.817 519.185 270.994 499.863 252.479 481.755C231.245 460.839 208.034 441.924 183.346 425.201C142.981 397.452 98.4717 374.411 64.3088 338.624C42.2448 314.997 32.8549 294.902 32.6083 294.383C31.932 292.927 30.5383 290.06 29.8582 288.603C28.5504 286.016 25.9274 279.62 24.317 275.002C35.5602 306.133 55.7522 327.807 80.8317 349.007H80.8391Z" fill="#E9EAEA"/>
<path opacity="0.02" d="M67.0026 0H69.3529C25.023 95.1868 -12.0955 197.486 6.82614 269.196C8.56735 275.543 8.8252 276.241 8.52628 275.409C-1.48383 242.716 -18.8362 170.593 67.0026 0ZM8.62717 275.696C9.16522 277.231 9.15402 277.234 8.62717 275.696V275.696ZM15.5995 293.368C16.754 295.488 18.8652 299.827 20.0908 301.907C33.105 324.055 49.2542 339.867 69.3678 356.086C87.4824 370.633 107.577 384.067 126.906 397.004C156.481 416.527 194.918 441.132 223.346 461.578C230.03 466.409 237.477 472.096 243.87 477.297C268.979 497.702 291.088 521.799 309.857 548.118C318.357 560.741 314.886 555.286 320.528 564.314L323.951 569.795C331.667 582.68 338.516 596.223 344.584 609.951C336.595 594.766 328.095 579.85 318.462 565.651C314.329 559.464 310.929 554.726 310.511 554.177C289.519 524.875 266.304 501.853 241.602 479.963C219.224 459.969 194.877 442.103 169.387 426.268C106.692 386.822 54.489 365.066 19.5789 302.183C18.5438 300.144 16.3543 295.664 15.3566 293.48C14.5906 291.602 12.3711 286.337 11.65 284.552C11.0596 282.887 9.85645 279.288 9.01947 276.85C9.90128 279.374 10.9027 282.088 11.7471 284.515C13.025 287.383 14.2469 290.549 15.592 293.371L15.5995 293.368Z" fill="#E9EAEA"/>
</g>
<defs>
<clipPath id="clip0_2292_29287">
<rect width="486" height="782" fill="white" transform="matrix(-1 0 0 1 486 0)"/>
</clipPath>
</defs>
</svg>
