<svg width="486" height="782" viewBox="0 0 486 782" fill="none" xmlns="http://www.w3.org/2000/svg">
<g clip-path="url(#clip0_1009_11495)">
<path d="M16.2949 0H14.393C9.35248 11.2683 4.48755 22.727 0 35.8995V45.3345C4.99945 27.9803 10.5407 14.0275 16.2949 0Z" fill="#E9EAEA"/>
<path opacity="0.97" d="M30.6842 0H28.7001C18.9478 26.4831 8.26889 53.8996 0 94.0966V118.903C9.43094 55.1728 20.6293 29.6343 30.6842 0Z" fill="#E9EAEA"/>
<path opacity="0.94" d="M44.4308 0H42.5215C28.6814 48.0713 12.5285 78.7698 1.44229 176.462C0.911708 181.14 0.433435 185.852 0 190.586V225.291C14.4154 78.0454 32.6683 45.0769 44.4308 0Z" fill="#E9EAEA"/>
<path opacity="0.91" d="M55.857 0C44.7895 50.9649 27.3923 81.8015 14.2921 175.297C10.2081 204.491 8.13438 235.958 6.25118 265.454C4.68558 291.65 2.15596 327.762 0 356.691V450.272C1.62538 382.767 3.73651 303.643 4.6669 291.247C7.33476 252.644 12.7116 214.142 18.3276 175.872C32.3806 80.2819 49.3779 44.3488 57.6991 0H55.857Z" fill="#E9EAEA"/>
<path d="M0 642.309V765.304C0.291448 770.766 0.601578 776.333 0.93039 782.001C1.23678 723.625 0.702463 677.969 0 642.309Z" fill="#E9EAEA"/>
<path opacity="0.88" d="M68.8976 0C61.3424 49.0682 44.8905 80.7897 29.7614 161.329C23.4803 194.985 20.1137 229.301 17.2628 263.39C14.4044 296.93 11.1349 332.131 8.08219 365.745C4.12522 408.123 3.58343 451.516 3.60959 494.117C3.7441 514.981 3.49375 537.525 3.10889 558.333C2.60447 583.039 -1.16567 646.579 5.32091 776.627C7.18169 625.11 3.72542 585.07 4.34194 539.082C4.43162 533.041 11.9906 320.224 15.1068 288.984C18.1633 255.052 23.5252 220.893 29.3691 187.327C46.8186 85.468 64.6454 48.7882 70.5977 0H68.8976Z" fill="#E9EAEA"/>
<path opacity="0.85" d="M25.6221 287.853C25.3755 290.037 25.1364 292.225 24.9047 294.413C25.1401 292.255 25.3793 290.071 25.6221 287.853ZM81.1093 0C73.9875 73.5239 48.6614 108.356 34.8476 210.48C31.608 232.452 28.4507 261.937 25.6259 287.853C26.1565 283.193 26.7281 278.552 27.3447 273.926C51.1724 103.401 78.4788 75.1182 82.7832 0H81.1093ZM10.6686 496.72C10.5678 515.213 9.99606 535.681 9.45801 554.177C8.70697 578.771 4.1447 641.624 9.71209 771.247C11.8643 673.241 10.28 559.285 10.9302 535.05C12.238 482.771 16.2024 449.813 20.0622 362.982C21.0673 340.259 22.5096 317.192 24.9047 294.413C24.2284 300.592 23.5708 306.503 22.9393 311.98C14.8162 385.862 12.2342 394.323 10.6686 496.72Z" fill="#E9EAEA"/>
<path opacity="0.79" d="M107.687 -0.000172555H105.789C106.626 60.7321 93.2153 79.7814 71.3567 163.745C56.6984 218.738 49.4645 275.513 40.1008 331.552C33.05 373.115 28.5513 415.176 26.5747 457.265C25.0502 490.421 23.7162 525.279 21.6238 558.292C16.658 625.106 16.7103 693.526 18.4926 760.494C24.2991 593.508 21.6948 560.521 25.4799 507.861C29.123 457.687 35.0229 406.995 39.0509 356.885C40.4782 340.64 42.197 322.781 44.3978 306.622C53.8437 235.581 74.8167 166.735 94.2578 97.9421C106.375 55.6468 108.733 25.3068 107.687 -0.00390625V-0.000172555Z" fill="#E9EAEA"/>
<path opacity="0.82" d="M93.6972 0C91.5898 56.1622 77.2528 80.898 58.1966 158.865C50.0136 191.819 44.7115 225.396 40.1792 258.958C38.9386 268.778 37.1077 280.677 35.9382 290.433C17.3528 429.644 21.6461 397.217 16.6803 530.92C15.0997 575.243 9.31187 632.439 14.0983 765.874C14.9577 736.852 17.0128 624.696 16.9269 562.698C17.0016 511.591 32.6426 318.495 33.6141 309.344C35.4824 292.823 37.9373 275.479 40.7247 259.048C41.8979 251.853 44.095 241.372 45.414 234.084C48.6984 217.82 52.5022 200.694 56.3321 184.519C79.4536 85.2029 95.2889 56.909 95.386 0H93.7009H93.6972Z" fill="#E9EAEA"/>
<path opacity="0.76" d="M59.593 280.737C58.5244 286.023 57.523 291.546 56.5814 297.109C57.5379 291.889 58.5393 286.434 59.593 280.737ZM119.441 0H117.628C122.542 91.7556 95.2356 96.5982 62.1862 266.735C61.2894 271.567 60.43 276.223 59.5968 280.737C59.7051 280.195 59.8172 279.65 59.9256 279.112C66.2216 246.353 75.4657 213.653 84.9639 181.726C112.267 89.4668 124.829 60.1498 119.441 0ZM22.8818 755.117C25.9981 685.01 29.6823 545.071 31.2292 522.568C33.4113 487.087 50.3601 341.312 50.3676 341.267C51.0999 335.529 52.3591 325.063 53.0915 319.421C54.1564 312.245 55.3147 304.643 56.5851 297.113C30.0559 441.987 39.3001 409.359 28.9312 541.337C27.2722 567.772 20.2999 626.488 22.8818 755.121V755.117Z" fill="#E9EAEA"/>
<path opacity="0.73" d="M130.95 0H129.702C135.594 69.723 119.31 103.883 98.0048 173.262C93.8722 186.894 89.6948 201.739 86.2311 215.557C81.0934 235.484 76.4227 256.512 71.9539 276.581C66.8685 300.07 60.991 326.437 56.2792 350.138C48.0627 391.112 43.5751 432.825 40.627 474.489C39.7302 485.784 38.1011 507.189 37.2828 518.222C35.4333 539.892 33.1428 565.117 31.211 586.892C27.5717 640.822 26.6413 695.707 27.2765 749.737C30.2545 693.321 36.274 540.803 38.1983 518.293C41.0717 480.079 61.5888 323.163 70.6536 282.704C73.7549 268.501 77.2896 254.156 81.3288 240.189C113.111 123.914 141.494 90.9864 130.95 0Z" fill="#E9EAEA"/>
<path opacity="0.7" d="M143.16 0H141.221C153.013 102.053 118.992 131.325 90.681 249.937C83.122 278.948 74.9465 311.595 68.1162 340.808C52.236 409.045 49.968 457.486 43.6608 520.104C41.5721 541.733 39.0088 563.639 37.006 585.316C32.8772 638.212 31.3527 691.32 31.6591 744.368C44.225 513.047 44.3296 521.653 45.8466 507.779C51.3243 455.63 61.6109 399.487 69.5137 347.439C72.8728 326.952 76.5458 306.394 81.463 286.225C88.1999 257.897 97.1563 230.141 106.83 202.699C134.813 121.502 155.117 78.2918 143.16 0Z" fill="#E9EAEA"/>
<path opacity="0.67" d="M154.812 0H152.802C166.003 89.3324 144.383 121.39 119.214 200.328C111.603 223.058 104.134 248.589 97.3893 271.716C96.7279 274.061 96.0778 276.361 95.4425 278.623C96.1002 276.316 96.7653 274.016 97.4528 271.731C104.403 248.059 113.105 224.276 121.931 201.291C150.179 126.942 169.564 80.5843 154.812 0ZM41.2258 602.271C37.9564 647.729 36.0545 693.407 36.0508 738.992C39.7238 680.485 45.5191 598.399 49.4648 540.576C50.2308 530.353 51.2696 519.831 52.4204 509.642C58.6679 455.709 70.6845 397.922 80.3134 344.299C84.2816 323.681 88.8327 302.444 94.4823 282.032C56.9752 415.754 64.7434 408.589 47.8208 540.411C45.3323 560.849 42.7466 581.777 41.2258 602.275V602.271Z" fill="#E9EAEA"/>
<path opacity="0.64" d="M165.911 0H164.282C179.938 88.9777 161.278 123.175 134.708 198.987C123.532 230.108 113.208 261.523 103.254 293.054C98.9492 306.581 94.4393 320.915 90.4674 334.543C70.4247 400.006 64.1586 468.355 54.6417 535.849C44.9642 601.181 41.2725 667.644 40.4355 733.611C45.1099 668.858 50.8044 600.699 56.2821 536.039C63.0078 466.137 79.4783 397.65 94.2487 329.125C99.7526 305.006 106.594 281.046 114.833 257.722C152.549 150.498 189.025 111.111 165.911 0Z" fill="#E9EAEA"/>
<path opacity="0.61" d="M177.577 0H175.485C196.401 104.838 172.342 135.593 133.142 244.09C123.461 270.331 113.148 299.069 104.166 325.63C81.3357 393.397 75.6264 441.241 65.4369 506.842C60.2992 540.479 47.2364 607.267 44.8301 728.235C50.2742 662.458 61.6033 539.366 66.4009 506.984C75.5255 445.93 91.2113 386.057 106.172 326.228C110.798 308.904 116.485 289.948 122.576 273.12C131.584 247.887 142.472 223.413 153.219 198.886C186.698 123.582 195.617 75.387 177.577 0Z" fill="#E9EAEA"/>
<path opacity="0.58" d="M189.138 0H187.015C205.377 81.4804 196.032 121.704 171.165 185.307C160.89 211.525 144.7 250.777 134.39 276.794C120.79 311.177 107.032 345.733 97.485 381.498C84.5791 429.177 77.547 478.171 68.7176 526.671C65.4519 544.705 52.4825 612.487 49.2168 722.862C60.3329 605.236 70.2982 527.291 70.3467 526.925C74.0085 498.407 79.617 470.169 86.3652 442.234C95.1123 406.383 104.902 370.741 115.013 335.263C119.62 319.5 124.515 303.803 130.112 288.361C141.243 257.39 155.573 227.774 169.316 197.901C194.462 143.452 212.525 90.404 189.138 0Z" fill="#E9EAEA"/>
<path opacity="0.52" d="M211.37 0H209.401C243.583 129.141 212.435 165.866 147.771 306.402C145.171 311.965 140.093 323.166 137.623 328.797C118.182 372.264 103.658 417.274 75.7688 553.513C66.2146 605.676 60.7966 659.161 58.0017 712.109C65.2804 647.863 74.476 581.404 84.9793 517.759C93.1884 469.348 108.037 422.4 123.895 376.043C134.51 345.296 145.357 314.101 158.577 284.336C165.008 269.868 172.724 254.291 179.965 240.148C190.711 219.254 201.988 198.375 210.791 176.522C233.539 120.99 231.704 67.4193 211.374 0.00746739L211.37 0Z" fill="#E9EAEA"/>
<path opacity="0.55" d="M200.34 0H198.248C216.766 74.7075 213.62 119.463 187.554 184.478C168.109 233.457 144.285 282.581 124.758 331.515C99.7794 392.512 88.8165 457.773 75.9592 522.06C72.0135 541.864 68.0004 562.716 65.3288 582.677C59.4551 626.585 55.2814 673.279 53.6074 717.486C62.7058 631.275 65.1756 614.2 75.7948 534.505C78.0703 518.476 80.7158 501.853 84.0898 486.049C95.049 432.183 123.256 343.324 135.396 309.228C148.836 270.413 167.989 234.028 185.637 197.027C189.015 189.847 192.635 181.775 195.542 174.427C215.406 126.337 221.317 74.8942 200.333 0L200.34 0Z" fill="#E9EAEA"/>
<path opacity="0.49" d="M222.752 0H220.458C248.007 98.114 239.26 145.543 206.218 216.842C197.804 235.073 188.16 253.85 178.886 271.679C172.504 284.086 162.568 302.795 156.377 315.266C120.178 384.496 103.468 461.354 85.2712 536.7C73.7291 586.123 65.4939 654.759 62.3926 706.732C77.2452 590.906 92.5126 513.409 92.5574 513.185C111.67 415.646 168.244 293.61 173.475 282.674C188.503 251.446 206.977 221.61 221.246 189.993C245.586 135.447 248.284 79.6248 222.756 0L222.752 0Z" fill="#E9EAEA"/>
<path opacity="0.46" d="M233.256 0H231.623C262.871 103.987 255.944 156.591 206.349 249.026C185.279 288.361 160.783 327.008 143.494 368.232C122.734 417.199 109.607 468.911 95.558 520.07C95.0237 522.105 74.9213 591.044 66.7832 701.356C73.21 656.574 81.3631 597.959 99.0106 514.604C120.2 414.627 183.011 292.419 188.803 281.293C204.866 250.568 223.956 221.259 237.736 189.347C264.62 126.247 255.828 67.2476 233.26 0.00373369L233.256 0Z" fill="#E9EAEA"/>
<path opacity="0.43" d="M244.877 0H242.788C262.255 60.8592 273.274 119.478 253.033 181.835C243.875 210.297 229.796 236.843 214.652 262.669C232.539 232.381 251.442 202.333 261.048 168.285C270.356 134.413 274.698 85.1058 244.873 0H244.877ZM214.656 262.669C211.794 267.516 211.992 267.213 214.656 262.669V262.669ZM156.067 365.338C142.907 392.953 132.565 422.031 123.078 451.075C106.417 503.858 82.0097 571.308 71.1738 695.979C73.2065 682.863 87.6556 584.76 109.813 498.179C134.067 406.017 198.918 290.175 204.526 280.195C207.153 275.509 209.851 270.846 212.582 266.194C207.754 274.359 202.837 282.458 197.957 290.526C182.963 314.773 168.166 339.494 156.067 365.338Z" fill="#E9EAEA"/>
<path opacity="0.4" d="M255.922 0H253.736C275.116 64.0067 287.222 123.096 267.322 187.066C251.853 235.798 220.843 277.57 193.694 320.299C154.386 380.318 131.242 448.854 109.279 516.616C108.797 518.114 85.9404 585.559 75.5566 690.603C77.806 677.602 102.717 519.857 138.778 436.26C164.762 375.121 206.177 303.803 214.301 289.877C232.819 258.252 254.33 227.968 268.106 193.831C293.799 130.201 278.221 60.3664 255.918 0.0037337L255.922 0Z" fill="#E9EAEA"/>
<path opacity="0.37" d="M266.898 0H264.705C295.557 90.2173 301.939 153.955 270.579 220.721C263.322 236.567 253.734 252.517 250.088 258.383C250.11 258.346 250.132 258.312 250.158 258.275C268.748 229.04 286.347 198.099 292.396 163.551C301.535 110.189 286.844 52.3315 266.898 0ZM248.585 260.709C241.273 272.056 242.577 270.249 248.585 260.709V260.709ZM250.088 258.383C247.932 261.725 248.272 261.306 250.088 258.383V258.383ZM182.531 360.298C166.158 388.599 152.875 418.592 140.858 448.943C136.315 460.122 131.935 471.943 127.653 483.192C125.61 488.931 123.36 494.666 121.316 500.427C118.065 509.388 114.411 520.246 111.415 529.408C109.016 536.932 89.8848 597.462 79.9531 685.223C82.1876 673.055 107.697 528.482 141.912 449.376C154.567 419.514 170.306 390.627 186.406 362.519C204.547 330.854 223.831 299.368 243.564 268.535C236.845 278.81 229.817 288.88 222.804 298.83C208.706 318.865 194.69 338.99 182.535 360.298H182.531Z" fill="#E9EAEA"/>
<path opacity="0.34" d="M278.018 0H275.72C300.475 69.3011 312.846 127.55 298.969 186.024C283.466 252.749 231.652 301.761 196.454 358.252C181.145 382.405 167.982 407.966 156.204 434.001C133.038 485.896 100.022 556.201 84.3438 679.85C86.283 670.083 103.99 575.254 133.703 490.884C157.938 421.172 197.351 364.009 260.4 268.483C266.85 258.7 274.046 247.451 279.845 237.344C292.165 216.121 301.999 193.088 306.247 168.804C315.122 117.779 300.43 57.1815 278.022 0.0037337L278.018 0Z" fill="#E9EAEA"/>
<path opacity="0.31" d="M288.835 0H286.773C315.316 76.9291 335.979 161.561 296.245 237.127C286.9 255.288 275.291 272.168 262.926 288.398C235.187 323.446 206.318 358.898 184.676 398.143C168.617 426.451 154.429 456.343 141.154 486.011C133.442 503.183 104.076 567.421 88.7305 674.473C90.2325 667.79 91.8579 660.203 93.2741 653.531C142.163 448.977 169.645 424.656 256.492 298.875C274.775 272.377 294.832 245.009 307.649 215.404C323.379 180.24 338.034 122.193 288.832 0.0037337L288.835 0Z" fill="#E9EAEA"/>
<path opacity="0.28" d="M300.737 259.249C299.242 261.59 297.691 263.965 296.088 266.373C297.665 264.032 299.216 261.661 300.737 259.249ZM299.948 -0.000172555H297.613C329 82.6265 348.721 164.734 313.03 237.261C309.252 244.99 305.123 252.282 300.737 259.249C304.368 253.566 307.683 248.104 310.597 242.907C321.086 223.794 325.084 213.209 329.751 197.665C331.832 189.918 333.689 181.416 334.69 173.445C339.585 134.708 332.934 79.3521 299.948 -0.00390625V-0.000172555ZM188.021 411.468C172.53 437.929 158.305 465.244 145.152 492.933C121.485 542.162 103.374 605.086 93.1213 669.093C110.377 594.837 121.515 562.216 138.367 516.661C141.782 507.252 145.716 497.425 149.572 488.184C162.785 456.074 180.417 425.91 200.251 397.455C230.528 354.227 269.933 305.771 296.088 266.373C283.818 284.59 269.933 300.727 256.332 316.987C230.972 346.472 207.675 377.865 188.021 411.468Z" fill="#E9EAEA"/>
<path opacity="0.25" d="M310.806 0H308.475C335.251 68.4013 357.419 143.732 339.095 211.6C332.306 236.317 319.628 259.006 304.297 279.433C284.546 305.536 261.115 328.834 240.601 354.316C209.3 392.378 183.462 434.58 160.098 477.872C133.89 525.861 111.856 584.028 97.5078 663.72C104.151 637.607 136.289 502.148 199.003 415.291C232.224 368.572 271.506 326.504 304.503 279.587C321.093 256.247 335.938 231.071 343.519 203.259C344.984 197.8 346.195 192.222 347.252 186.655C347.458 185.37 348.156 180.517 348.403 178.993C348.478 178.482 348.564 177.97 348.624 177.459C348.885 174.625 349.206 171.033 349.468 168.195C352.876 111.996 330.778 46.9549 310.806 0Z" fill="#E9EAEA"/>
<path opacity="0.22" d="M321.325 0H319.281C347.013 69.5475 364.597 131.027 358.301 190.415C356.769 207.575 350.238 228.805 346.116 237.732C332.074 270.163 312.959 292.091 289.362 317.54C266.809 341.454 244.495 365.697 224.728 392.004C204.813 418.196 186.878 445.811 170.022 474.056C149.397 508.742 137.242 535.819 123.921 574.937C114.651 602.178 107.477 630.125 101.898 658.348C114.52 610.877 129.829 563.922 150.226 519.185C163.252 489.256 178.336 459.659 197.172 432.929C233.681 380.762 280.84 337.108 318.029 285.355C352.573 237.818 359.467 207.552 362.71 178.493C365.471 147.559 363.207 96.9379 321.321 0.00746739L321.325 0Z" fill="#E9EAEA"/>
<path opacity="0.19" d="M350.227 263.274C349.252 264.932 348.258 266.582 347.249 268.221C348.273 266.586 349.267 264.936 350.227 263.274ZM332.389 0H330.312C351.098 50.6289 372.743 113.426 373.352 171.825C373.165 182.301 374.163 208.097 361.272 240.939C359.113 245.756 357.435 250.807 350.223 263.274C375.28 220.602 376.491 188.298 377.122 168.741C377.261 130.254 366.358 76.6714 332.389 0ZM306.14 318.346C271.219 353.327 237.276 389.54 208.43 429.797C189.098 456.482 170.415 483.879 155.118 513.114C151.669 519.745 123.216 574.003 106.293 652.967C127.109 580.806 144.502 542.424 166.851 498.344C171.577 489.345 176.532 480.086 181.718 471.353C218.855 406.558 278.243 359.316 323.967 301.13C332.251 290.608 340.183 279.665 347.245 268.221C342.309 276.107 336.701 283.686 330.924 290.866C323.145 300.29 314.611 309.542 306.14 318.346Z" fill="#E9EAEA"/>
<path opacity="0.16" d="M343.348 0H341.148C365.558 58.1747 390.275 129.227 386.864 194.664C386.464 198.928 386.124 204.211 385.414 208.437C385.085 210.405 384.928 212.533 384.487 214.531C380.007 241.025 368.204 265.951 351.804 287.158C343.068 298.662 333.14 309.202 323.007 319.474C296.552 345.576 269.395 371.099 244.959 399.188C225.854 420.955 207.866 443.667 190.929 467.167C181.225 480.594 172.108 494.472 163.813 508.817C139.593 552.131 122.125 599.363 110.684 647.591C122.379 609.798 144.488 542.674 192.293 468.101C236.809 397.784 309.193 351.053 355.705 282.335C388.116 235.245 419.536 168.136 343.352 0.00373369L343.348 0Z" fill="#E9EAEA"/>
<path opacity="0.14" d="M354.183 0H351.933C377.988 60.9974 400.911 126.557 401.121 190.026C401.005 195.791 400.702 202.811 400.101 208.538C393.181 278.522 347.027 313.974 303.74 354.947C285.651 371.753 267.477 389.521 250.663 407.559C228.064 431.914 206.329 457.131 186.802 484.036C151.339 532.63 131.539 589.763 130.81 591.686C124.828 607.987 119.437 625.461 115.072 642.214C130.62 595.099 150.293 549.171 176.168 506.767C192.937 478.23 212.035 450.922 234.738 426.754C268.572 390.171 308.623 359.954 341.957 322.845C361.342 301.335 379.049 277.567 390.236 250.706C394.238 241.768 399.439 224.892 400.994 214.949C403.512 202.015 419.654 142.202 354.183 0.0037337V0Z" fill="#E9EAEA"/>
<path opacity="0.12" d="M398.808 268.243C398.673 268.512 398.539 268.781 398.404 269.05C398.726 268.456 398.587 268.733 398.808 268.243ZM338.602 339.579C320.061 356.213 301.009 372.619 282.857 389.693C258.513 412.457 235.074 436.398 213.126 461.47C176.157 503.653 149.534 546.46 124.896 618.882C122.979 624.83 121.245 630.849 119.463 636.838C121.682 630.991 123.752 625.103 125.953 619.256C147.446 565.819 161.857 536.763 195.762 487.52C200.298 481.045 205.716 473.686 210.518 467.417C227.059 446.023 245.97 426.459 266.136 408.462C300.205 377.865 337.533 350.381 367.178 315.168C378.672 301.772 390.386 284.982 398.404 269.054C396.641 272.294 394.477 276.487 392.534 279.493C378.534 302.668 358.584 321.587 338.602 339.583V339.579ZM365.433 -0.000172555H362.795C391.043 65.1341 412.966 129.197 414.871 190.112C415.973 212.455 410.75 240.752 404.887 254.287C401.296 263.49 401.326 262.628 398.808 268.24C426.925 211.693 430.026 135.361 365.433 -0.00390625V-0.000172555Z" fill="#E9EAEA"/>
<path opacity="0.1" d="M416.68 265.518C415.82 267.516 414.92 269.506 413.978 271.496C416.075 267.183 416.329 266.399 416.68 265.518ZM386.825 311.121C371.39 328.125 353.783 342.951 336.259 357.77C320.244 371.185 304.185 384.698 288.477 398.538C266.495 417.957 245.025 438.018 224.653 459.136C213.186 471.058 201.696 484.025 191.593 497.153C161.319 537.432 138.736 583.405 123.854 631.461C148.432 567.951 171.841 529.972 202.178 489.431C209.539 479.675 217.86 469.441 225.871 460.253C245.167 438.228 267.291 418.771 290.143 400.51C321.119 375.602 353.701 351.961 380.006 321.871C394.776 305.293 405.915 288.518 413.982 271.496C410.612 278.429 406.771 285.154 402.391 291.493C397.852 298.221 392.195 305.039 386.833 311.125L386.825 311.121ZM375.687 0H373.355C414.681 94.5521 439.644 176.253 424.149 243.116C423.301 246.062 422.666 249.295 421.627 252.177C418.713 260.84 419.927 257.438 416.68 265.522C442.245 206.167 438.12 131.008 375.687 0.0037337V0Z" fill="#E9EAEA"/>
<path opacity="0.08" d="M386.616 0H384.441C409.827 56.4161 441.543 137.034 442.723 206.373C442.738 213.56 442.398 221.203 441.715 228.349C441.176 232.004 440.702 237.22 439.865 240.805C437.391 253.062 438.464 247.111 436.203 256.135C435.661 257.972 434.002 262.557 433.3 264.73C439.084 249.512 442.806 233.304 444.252 215.901C450.361 144.714 414.098 56.6066 386.616 0ZM433.296 264.73C432.538 266.728 433.091 265.365 433.296 264.73V264.73ZM405.71 310.823C389.956 329.133 371.308 344.557 352.591 359.76C329.541 378.238 296.215 404.55 274.218 423.562C248.687 445.568 223.226 468.008 201.423 493.804C169.02 532.735 144.401 578.155 128.24 626.085C138.646 601.106 150.674 575.99 164.709 552.811C182.961 522.202 205.055 493.945 228.991 467.582C265.62 426.489 312.614 397.246 355.401 363.225C366.857 353.988 378.104 344.064 388.294 333.426C405.541 315.553 419.31 296.321 428.951 275.147C425.263 282.648 422.52 288.286 415.406 298.416C412.555 302.422 408.826 307.067 405.713 310.819L405.71 310.823ZM432.881 265.805C430.852 270.727 431.024 270.596 432.881 265.805V265.805ZM431.424 269.446C430.632 271.365 429.806 273.262 428.947 275.147C429.702 273.616 429.997 273.023 431.424 269.446Z" fill="#E9EAEA"/>
<path opacity="0.06" d="M447.387 270.2C447.062 271.081 446.729 271.955 446.389 272.829C446.748 271.974 447.017 271.249 447.387 270.2ZM458.223 190.975C455.566 138.793 432.217 71.0821 397.411 0H395.005C437.732 94.5708 464.164 175.943 454.647 241.682C453.309 251.289 450.6 261.045 447.387 270.2C456.672 245.069 459.71 218.369 458.223 190.975ZM435.318 295.037C418.721 322.98 386.022 348.414 378.848 354.26C352.435 375.3 324.807 395.137 298.102 415.889C267.997 439.31 237.642 462.855 211.475 490.738C176.931 528.213 150.174 572.921 132.631 620.712C146.863 589.954 156.048 571.924 175.287 543.029C189.437 522.034 205.717 502.578 222.86 483.98C242.828 462.112 264.918 442.204 288.739 424.585C344.88 382.483 417.558 346.913 446.389 272.832C444.727 276.775 441.633 284.201 438.517 289.556L435.318 295.037Z" fill="#E9EAEA"/>
<path opacity="0.04" d="M470.168 178.777C462.639 118.623 431.208 46.3949 408.311 0H405.837C429.332 50.7446 452.887 107.792 464.489 166.751C465.247 170.081 466.069 175.98 466.72 179.27C473.703 220.363 468.752 244.796 468.338 249.026C466.989 258.032 463.865 268.371 464.063 267.702C462.994 271.343 461.873 274.423 463.151 270.764C463.973 268.486 466.522 259.69 467.351 255.344C467.691 253.589 468.502 250.811 468.707 249.09C473.109 225.986 473.012 202.109 470.165 178.777H470.168ZM462.583 272.403C461.231 276.279 461.556 275.446 462.583 272.403V272.403ZM405.161 349.007C385.522 365.286 364.608 379.937 343.788 394.685C314.502 415.34 283.911 436.622 255.727 458.628C243.998 467.836 232.478 477.633 221.732 487.979C201.846 507.439 184.232 529.304 169.193 552.695C154.277 576.046 146.198 593.448 137.025 615.328C139.913 609.679 142.641 603.768 145.638 598.19C159.997 571.072 168.883 558.262 181.848 540.068C197.183 519.185 215.006 499.863 233.52 481.755C254.755 460.839 277.966 441.924 302.653 425.201C343.019 397.452 387.528 374.411 421.691 338.624C443.755 314.997 453.145 294.902 453.391 294.383C454.068 292.927 455.461 290.06 456.142 288.603C457.449 286.016 460.072 279.62 461.683 275.002C450.44 306.133 430.248 327.807 405.168 349.007H405.161Z" fill="#E9EAEA"/>
<path opacity="0.02" d="M418.997 0H416.647C460.977 95.1868 498.096 197.486 479.174 269.196C477.433 275.543 477.175 276.241 477.474 275.409C487.484 242.716 504.836 170.593 418.997 0ZM477.373 275.696C476.835 277.231 476.846 277.234 477.373 275.696V275.696ZM470.401 293.368C469.246 295.488 467.135 299.827 465.909 301.907C452.895 324.055 436.746 339.867 416.632 356.086C398.518 370.633 378.423 384.067 359.094 397.004C329.519 416.527 291.082 441.132 262.654 461.578C255.97 466.409 248.523 472.096 242.13 477.297C217.021 497.702 194.912 521.799 176.143 548.118C167.643 560.741 171.114 555.286 165.472 564.314L162.049 569.795C154.333 582.68 147.484 596.223 141.416 609.951C149.405 594.766 157.905 579.85 167.538 565.651C171.671 559.464 175.071 554.726 175.489 554.177C196.481 524.875 219.696 501.853 244.398 479.963C266.776 459.969 291.123 442.103 316.613 426.268C379.308 386.822 431.511 365.066 466.421 302.183C467.456 300.144 469.646 295.664 470.643 293.48C471.409 291.602 473.629 286.337 474.35 284.552C474.94 282.887 476.144 279.288 476.981 276.85C476.099 279.374 475.097 282.088 474.253 284.515C472.975 287.383 471.753 290.549 470.408 293.371L470.401 293.368Z" fill="#E9EAEA"/>
</g>
<defs>
<clipPath id="clip0_1009_11495">
<rect width="486" height="782" fill="white"/>
</clipPath>
</defs>
</svg>
