<svg width="32" height="32" viewBox="0 0 32 32" fill="none" xmlns="http://www.w3.org/2000/svg">
<path d="M26.4007 24.7453C26.3487 27.4885 22.8051 29.3467 20.6059 27.5799C20.5472 27.5337 20.3316 27.3191 20.3609 27.3519C20.3124 27.2966 20.2672 27.2367 20.2232 27.177C20.0799 26.9794 20.3045 27.3158 20.1769 27.107C20.0493 26.8981 20.0043 26.7909 19.9489 26.4871C19.8372 25.881 19.9409 25.2217 20.1928 24.6606C20.7651 23.3861 22.0125 22.4999 23.4124 22.4209C24.2411 22.3734 25.1103 22.5869 25.7504 23.1333C26.2392 23.5498 26.3848 23.999 26.4007 24.7453C26.4131 25.3582 26.8465 26.0751 27.3591 26.4037C27.8343 26.7085 28.2001 26.4747 28.1888 25.925C28.1391 23.5159 26.5361 21.0402 24.2196 20.2375C22.2847 19.567 20.1137 20.2477 18.9419 21.9331C16.438 25.5355 20.0301 31.4543 24.4273 30.6246C26.7359 30.1889 28.1448 28.2065 28.1876 25.9261C28.1989 25.321 27.7271 24.5861 27.2292 24.2666C26.7313 23.9471 26.4108 24.2046 26.4007 24.7453Z" fill="#B49164"/>
<path d="M12.0977 24.745C12.0458 27.4882 8.50325 29.3475 6.30415 27.5796C6.24544 27.5334 6.02983 27.3188 6.05918 27.3516C6.01063 27.2963 5.96547 27.2364 5.92144 27.1767C5.77808 26.9791 6.00272 27.3155 5.87516 27.1067C5.74759 26.8978 5.70244 26.7906 5.64712 26.4868C5.5252 25.8231 5.66067 25.1084 5.96322 24.5102C6.6925 23.0674 8.28538 22.2072 9.89745 22.451C10.5533 22.5504 11.2194 22.8495 11.6665 23.344C11.759 23.4456 11.8956 23.6759 11.9351 23.773C12.048 24.0507 12.0909 24.3758 12.0977 24.745C12.109 25.358 12.5447 26.0771 13.0573 26.4044C13.5337 26.7092 13.8971 26.4756 13.887 25.9258C13.8441 23.6703 12.4544 21.4248 10.4134 20.446C8.37231 19.4674 6.11788 20.0396 4.78351 21.7432C1.99624 25.3004 5.65389 31.4699 10.1277 30.6255C12.4352 30.1896 13.8441 28.205 13.887 25.9258C13.8983 25.3207 13.4265 24.587 12.9286 24.2675C12.4307 23.9479 12.109 24.2054 12.0988 24.746L12.0977 24.745Z" fill="#B49164"/>
<path d="M4.86634 2.52347C5.91622 6.31321 6.96611 10.1041 8.01712 13.8938C8.16839 14.4414 8.32079 14.9889 8.47207 15.5363C8.62334 16.0839 9.01168 16.8437 9.60887 17.0198C10.2061 17.1959 10.2862 16.5614 10.1688 16.1358C9.11894 12.3461 8.06904 8.55521 7.01803 4.76548C6.86676 4.21796 6.71436 3.67044 6.56308 3.12292C6.41182 2.5754 6.02347 1.81564 5.42627 1.63953C4.82908 1.46343 4.74894 2.09787 4.86634 2.52347Z" fill="#B49164"/>
<path d="M24.6451 20.4292C24.6451 20.7385 24.6531 21.0477 24.644 21.356L25.4738 20.8773C23.9576 19.8557 21.9742 19.6445 20.3688 20.5985C18.8843 21.4801 18.1539 23.0629 18.1223 24.7449L18.5186 24.1139H12.497L13.8878 25.9259C13.8144 22.0209 9.48508 18.2865 5.79468 20.7747L7.36612 22.538C7.34241 21.7715 7.3458 21.0207 7.7443 20.3377C8.30198 19.3816 9.30106 18.8385 10.3972 18.8148C11.2157 18.7968 12.0375 18.8148 12.8571 18.8148C15.8499 18.8148 18.8438 18.8148 21.8364 18.8148C22.1503 18.8148 22.4686 18.8024 22.7824 18.8193C23.3435 18.8487 23.926 19.0508 24.3347 19.4459C24.5808 19.6841 24.4419 19.5644 24.4138 19.5317C24.4668 19.5949 24.5391 19.7484 24.5142 19.6784C24.5899 19.8963 24.6395 20.1356 24.6463 20.4325C24.6599 21.0467 25.0911 21.7635 25.6047 22.092C26.0788 22.3957 26.447 22.1643 26.4344 21.6133C26.3747 18.9909 24.2636 16.3967 21.5418 16.3741C20.388 16.3651 19.2332 16.3741 18.0783 16.3741C15.1951 16.3741 12.3073 16.3233 9.42524 16.3741C8.17216 16.3967 7.01164 16.9804 6.28688 18.0111C5.56212 19.0417 5.54406 20.1944 5.58132 21.3605C5.59598 21.8425 5.88273 22.3697 6.19996 22.7119C6.38961 22.9161 6.83328 23.3384 7.15276 23.1239C8.26021 22.3776 9.7086 22.1541 10.9289 22.7829C11.1186 22.8812 11.3004 23.0064 11.4595 23.1419C11.4866 23.1645 11.7248 23.4072 11.6492 23.3215C11.6763 23.3508 11.9043 23.6703 11.7948 23.502C11.9472 23.7357 11.9404 23.7279 12.015 23.9751C12.0782 24.1839 12.0996 24.4909 12.1041 24.7484C12.1166 25.3952 12.7408 26.5603 13.495 26.5603H19.5166C19.8631 26.5603 19.9083 26.1877 19.9128 25.9292C19.9647 23.1464 23.3402 21.4937 25.6059 23.02C26.0902 23.3463 26.4187 23.0708 26.4356 22.5413C26.4447 22.2332 26.4367 21.9227 26.4367 21.6145C26.4367 21.0049 25.983 20.2779 25.4783 19.9551C24.9736 19.6321 24.6486 19.8884 24.6486 20.4337L24.6451 20.4292Z" fill="#B49164"/>
<path d="M9.39414 16.3694C9.33544 16.3694 9.27561 16.3704 9.2169 16.3739L10.6077 18.1858C10.5998 18.0774 10.5998 17.9679 10.6054 17.8584C10.0252 17.5615 9.44381 17.2658 8.86356 16.9688C8.8929 17.076 8.92338 17.1832 8.95273 17.2916C9.06337 17.6902 9.24964 18.0458 9.52622 18.3528C9.72265 18.5719 9.9823 18.8123 10.2984 18.8123H10.3887C10.4948 18.8156 10.5772 18.7784 10.6348 18.6983C10.7183 18.6339 10.7635 18.5447 10.7725 18.433C10.7962 18.2987 10.7928 18.1666 10.7624 18.0356C10.7454 17.8764 10.7037 17.723 10.6371 17.5762C10.5005 17.259 10.3164 16.9383 10.0557 16.7058C9.87166 16.542 9.65378 16.3694 9.39414 16.3694H9.30382C9.752 16.8762 10.2013 17.3831 10.6495 17.89C10.6201 17.7827 10.5896 17.6755 10.5603 17.5671C10.4689 17.2375 10.3164 16.8954 10.0974 16.629L9.87618 16.3828C9.77797 16.2779 9.66394 16.1978 9.53525 16.1414C9.4709 16.0939 9.39865 16.0691 9.3185 16.0656C9.22141 16.033 9.12772 16.0431 9.03402 16.095L8.90193 16.2271C8.82856 16.3682 8.80033 16.5183 8.81726 16.6787C8.81162 16.7882 8.81162 16.8966 8.81953 17.006C8.85226 17.4508 9.05546 17.8866 9.32753 18.2343C9.45397 18.4026 9.60412 18.5459 9.77684 18.6644C9.90666 18.7582 10.0512 18.809 10.2103 18.8168C10.269 18.8134 10.33 18.8123 10.3887 18.8123C10.4948 18.8156 10.5772 18.7784 10.6348 18.6983C10.7183 18.6339 10.7635 18.5447 10.7725 18.433C10.7962 18.2987 10.7928 18.1666 10.7624 18.0356C10.7454 17.8764 10.7037 17.723 10.6371 17.5762C10.5005 17.259 10.3164 16.9383 10.0557 16.7058C9.87166 16.542 9.65378 16.3694 9.39414 16.3694Z" fill="#B49164"/>
<path d="M21.8923 17.0022V17.0361C21.8956 16.9525 21.9002 16.8678 21.9047 16.7843L21.9024 16.8182L22.4951 16.4761C22.2004 16.4186 21.9126 16.3745 21.6123 16.3723L22.6068 18.8153H23.2854C23.5032 18.8153 23.6286 18.6245 23.6692 18.4359C23.7256 18.1718 23.6364 17.8173 23.5338 17.5791C23.3971 17.2618 23.2131 16.9413 22.9523 16.7087C22.7683 16.545 22.5504 16.3723 22.2908 16.3723H21.6123C21.3944 16.3723 21.2691 16.563 21.2284 16.7515C21.172 17.0158 21.2612 17.3702 21.3639 17.6085C21.5006 17.9257 21.6846 18.2462 21.9454 18.4789C22.1304 18.6437 22.3462 18.8141 22.6068 18.8153C22.7999 18.8163 22.9896 18.8322 23.1804 18.8626L22.9715 18.8254C23.0054 18.831 23.0392 18.8378 23.0731 18.8446C23.2052 18.8987 23.3351 18.8954 23.4615 18.8333C23.5778 18.7542 23.6455 18.6437 23.6647 18.5025C23.6738 18.3963 23.6782 18.2903 23.6816 18.183C23.6895 17.8873 23.5168 17.5001 23.3746 17.2539C23.2255 16.9954 22.9874 16.6793 22.7243 16.5235C22.5583 16.4253 22.2987 16.2875 22.1114 16.4197C21.9138 16.5586 21.9014 16.7798 21.8946 17.0033L21.8923 17.0022Z" fill="#B49164"/>
<path d="M21.8976 16.8199L21.892 17.0004L22.2883 16.3694H9.30577C9.75394 16.8763 10.2033 17.3831 10.6514 17.89C9.47624 13.6454 8.29992 9.40067 7.1236 5.15484C6.9362 4.47751 6.74766 3.79903 6.56026 3.12168L6.38868 3.99545C7.5808 3.6026 8.92306 3.66243 10.052 4.22801C10.4753 4.44025 10.8479 4.71232 11.1786 5.03405C11.3728 5.22371 11.4507 5.31515 11.6358 5.56125C11.725 5.67979 11.8605 5.89089 11.9971 6.14941C11.9023 5.97104 12.1077 6.391 12.1021 6.37858C12.163 6.52082 12.2229 6.66532 12.2714 6.81321C12.3245 6.97464 12.3979 7.2738 12.443 7.49168C12.5604 8.06517 12.5841 8.67477 12.5299 9.25729C12.4001 10.6718 11.8481 11.9734 10.9416 13.0628C10.4482 13.6567 11.6742 15.761 12.4283 15.2778C14.3249 14.0608 16.8028 13.7616 18.9647 14.3634C19.7921 14.5936 20.6411 14.9583 21.2711 15.5194C21.5951 15.8083 21.6583 15.8975 21.8016 16.1719C21.7103 15.9958 21.7949 16.1583 21.8265 16.2531C21.8953 16.462 21.778 15.9822 21.8547 16.3592C21.8829 16.497 21.8931 16.5952 21.8976 16.8199C21.91 17.4328 22.3435 18.1508 22.856 18.4794C23.3313 18.7842 23.696 18.5504 23.6857 18.0007C23.6339 15.3488 21.516 13.1791 19.1645 12.2557C16.5985 11.2476 13.4128 11.4327 11.0748 12.933L12.5615 15.1479C14.8509 12.3934 14.7968 8.37449 13.0989 5.34112C11.4823 2.45451 8.3349 0.560194 5.03398 1.64959C4.73482 1.7478 4.80708 2.31903 4.8624 2.52336C6.0229 6.71161 7.18342 10.901 8.34394 15.0892C8.54714 15.823 8.75034 16.5568 8.95354 17.2906C9.10482 17.8359 9.6038 18.8112 10.2992 18.8112H23.2816C23.6316 18.8112 23.6688 18.4375 23.6779 18.1802L23.6835 17.9995C23.7039 17.3979 23.2173 16.655 22.7251 16.34C22.2329 16.0251 21.9135 16.2824 21.8953 16.8187L21.8976 16.8199Z" fill="#B49164"/>
<path d="M21.8966 16.8214V17.002L22.2927 16.3709H22.2871C22.7466 17.0585 23.206 17.747 23.6655 18.4346C23.6768 18.2912 23.6847 18.1456 23.6847 18.001C23.6769 17.8464 23.6441 17.6974 23.5877 17.5541C23.5402 17.3846 23.4702 17.2244 23.3777 17.0732C23.293 16.9173 23.1891 16.7762 23.0661 16.6498C22.9702 16.529 22.8573 16.4274 22.7263 16.3428L22.5016 16.2276C22.3695 16.1734 22.2398 16.1768 22.1132 16.2389L21.9813 16.3709C21.9078 16.5121 21.8797 16.6612 21.8966 16.8214C21.8966 16.8632 21.8966 16.9061 21.8943 16.9478L21.9067 16.6961C21.9067 16.7141 21.9044 16.7333 21.9032 16.7514L21.8908 17.0032L21.936 17.2933L22.0387 17.607C22.1043 17.7776 22.1911 17.9356 22.2984 18.0813C22.3561 18.1817 22.4261 18.2732 22.5095 18.3544C22.5727 18.438 22.6484 18.5102 22.7342 18.5701C22.7996 18.6356 22.8752 18.6852 22.9611 18.7202C23.0571 18.7834 23.1643 18.815 23.2817 18.815H23.2874C23.4239 18.8105 23.5278 18.7506 23.599 18.6344C23.6723 18.4933 23.7006 18.3432 23.6837 18.1829V18.0022C23.6757 17.8476 23.643 17.6985 23.5865 17.5552C23.5391 17.3858 23.4691 17.2256 23.3766 17.0742C23.2919 16.9185 23.1881 16.7773 23.065 16.6509C22.969 16.5301 22.856 16.4285 22.7251 16.3438L22.5005 16.2286C22.3685 16.1745 22.2386 16.1778 22.1122 16.24L21.98 16.3721C21.9067 16.5132 21.8785 16.6633 21.8954 16.8236L21.8966 16.8214Z" fill="#B49164"/>
</svg>
