<svg id="Group_2410" data-name="Group 2410" xmlns="http://www.w3.org/2000/svg" xmlns:xlink="http://www.w3.org/1999/xlink" width="37.659" height="37.691" viewBox="0 0 37.659 37.691">
  <defs>
    <clipPath id="clip-path">
      <rect id="Rectangle_8" data-name="Rectangle 8" width="37.659" height="37.691" fill="none"/>
    </clipPath>
  </defs>
  <path id="Path_2612" data-name="Path 2612" d="M94.508,111.443,90.5,109.129V104.5l4.008,2.314Z" transform="translate(-78.477 -90.618)" fill="#221e55"/>
  <path id="Path_2613" data-name="Path 2613" d="M94.508,52.25,90.5,54.564v4.628l4.008-2.314Z" transform="translate(-78.477 -45.309)" fill="#221e55"/>
  <path id="Path_2614" data-name="Path 2614" d="M124.675,0l-4.007,2.314V6.942l4.008-2.314V0Z" transform="translate(-104.637 0)" fill="#221e55"/>
  <path id="Path_2615" data-name="Path 2615" d="M34.175,52.25l-4.008,2.314v4.628l4.008-2.314Z" transform="translate(-26.159 -45.309)" fill="#221e55"/>
  <path id="Path_2616" data-name="Path 2616" d="M64.342,59.192l-4.008-2.314V52.25l4.008,2.314Z" transform="translate(-52.319 -45.309)" fill="#703c97"/>
  <path id="Path_2617" data-name="Path 2617" d="M185.009,59.192,181,56.878V52.25l4.008,2.314Z" transform="translate(-156.955 -45.309)" fill="#2f6eb6"/>
  <path id="Path_2618" data-name="Path 2618" d="M0,141.649l4.008,2.314,4.008-2.314-4.008-2.314Z" transform="translate(0 -120.824)" fill="#943293"/>
  <path id="Path_2619" data-name="Path 2619" d="M60.334,141.649h0l4.008,2.314,4.008-2.314-4.008-2.314Z" transform="translate(-52.319 -120.824)" fill="#943293"/>
  <path id="Path_2620" data-name="Path 2620" d="M90.5,89.4h0l4.008,2.314L98.516,89.4l-4.008-2.314Z" transform="translate(-78.477 -75.515)" fill="#48c8f5"/>
  <path id="Path_2621" data-name="Path 2621" d="M150.834,89.4h0l4.008,2.314L158.85,89.4l-4.008-2.314Z" transform="translate(-130.795 -75.515)" fill="#48c8f5"/>
  <g id="Group_2409" data-name="Group 2409">
    <g id="Group_2408" data-name="Group 2408" clip-path="url(#clip-path)">
      <path id="Path_2622" data-name="Path 2622" d="M85.658,153.406c0,.775,0,4.823,0,5.913H81.622a.134.134,0,0,0-.095.038l-1.2,2.025c-.036.066-.048.095-.028.144a.13.13,0,0,0,.122.082h13.8a2,2,0,0,0,1.53-.769,2,2,0,0,0,1.527.769h9.871a.131.131,0,0,0,.132-.129v-2.03a.13.13,0,0,0-.039-.091.139.139,0,0,0-.094-.038h-5.241V156.11a.522.522,0,0,1,.509-.523h3.524a.137.137,0,0,0,.1-.038l1.207-2.044c.036-.067.049-.1.029-.145a.132.132,0,0,0-.123-.083H101.82a2.18,2.18,0,0,0-2.217,2.08v3.961H97.616V149.249a.131.131,0,0,0-.082-.122c-.05-.02-.077-.007-.144.029l-2.028,1.2a.136.136,0,0,0-.037.095v8.87H93.339v-3.983a2.161,2.161,0,0,0-2.2-2.059H85.789a.132.132,0,0,0-.13.129m5.393,5.913H88.469a.519.519,0,0,1-.518-.506v-3.227h2.6a.517.517,0,0,1,.5.518Z" transform="translate(-69.627 -129.307)" fill="#808285"/>
      <path id="Path_2623" data-name="Path 2623" d="M215.937,254.613a.053.053,0,0,1,.056-.057h2.461a.053.053,0,0,1,.057.057v.6a.053.053,0,0,1-.057.056H216.8a.03.03,0,0,0-.034.034v.762a.03.03,0,0,0,.034.034h1.378a.053.053,0,0,1,.056.056v.6a.053.053,0,0,1-.056.057H216.8a.03.03,0,0,0-.034.034v.8a.03.03,0,0,0,.034.034h1.654a.053.053,0,0,1,.057.056v.6a.053.053,0,0,1-.057.056h-2.461a.053.053,0,0,1-.056-.056Z" transform="translate(-187.249 -220.738)" fill="#808285"/>
      <path id="Path_2624" data-name="Path 2624" d="M240.624,258.429c-.6,0-.847-.265-.847-.869v-2.947a.053.053,0,0,1,.057-.056h.677a.053.053,0,0,1,.057.056V257.5c0,.186.073.26.237.26h.119a.053.053,0,0,1,.056.056v.559a.053.053,0,0,1-.056.056Z" transform="translate(-207.922 -220.738)" fill="#808285"/>
      <path id="Path_2625" data-name="Path 2625" d="M256.124,265.214a.053.053,0,0,1-.056-.056v-1.57c0-.3-.147-.5-.429-.5s-.423.2-.423.5v1.57a.053.053,0,0,1-.056.056h-.677a.053.053,0,0,1-.056-.056v-1.57c0-.3-.141-.5-.424-.5s-.429.2-.429.5v1.57a.053.053,0,0,1-.056.056h-.677a.053.053,0,0,1-.057-.056v-2.62a.054.054,0,0,1,.057-.056h.677a.053.053,0,0,1,.056.056v.192h.006a.956.956,0,0,1,1.44.034h.006a1.115,1.115,0,0,1,.858-.344.916.916,0,0,1,.977,1.016v1.722a.053.053,0,0,1-.056.056Z" transform="translate(-219.199 -227.556)" fill="#808285"/>
    </g>
  </g>
</svg>
