<svg width="90" height="90" viewBox="0 0 90 90" fill="none" xmlns="http://www.w3.org/2000/svg">
<path d="M75.728 74.6404V24.0571C75.728 21.2993 75.6482 18.882 74.1816 16.3639C71.5993 11.9296 67.8747 11.5505 63.4897 11.5206V8.55391C63.4897 7.80922 62.4492 5.39844 61.4991 5.39844H26.8235C26.5588 5.39844 26.518 5.56513 26.518 5.81246V11.5249C26.5068 11.524 26.4949 11.5176 26.4836 11.5176C22.3863 11.5176 17.6341 10.8706 15.2317 15.0479C14.0895 17.0339 14.2797 19.2797 14.2797 21.4731V70.5404C14.2797 76.5165 15.6253 84.0081 23.1222 84.438C29.417 84.7989 35.8373 84.438 42.1402 84.438H66.5537C69.5006 84.438 72.3201 84.2508 74.2877 81.6307C75.8831 79.5066 75.728 77.1138 75.728 74.6404ZM28.8091 8.96301C29.232 8.83125 30.0102 8.96793 30.4295 8.96793H61.1935V18.9966H28.8142V16.3687C28.8142 14.1314 28.2792 11.1458 28.8091 8.96301ZM73.4319 23.85V69.3641C73.4319 71.0263 73.5331 72.7248 73.4319 74.3853C73.1815 78.4863 70.1756 80.7317 66.3121 80.8684C52.457 81.3597 38.5011 80.8684 24.6365 80.8684C22.8479 80.8684 19.5951 81.2635 18.1821 80.0451C16.2242 78.3573 16.5757 76.1854 16.5757 73.9923V26.5916C16.5757 24.9028 16.4616 23.1697 16.5757 21.4833C16.9764 15.5667 21.9386 15.1162 26.518 15.0882V19.4107C26.518 20.1554 27.5585 22.5661 28.5086 22.5661H63.1841C63.2888 22.5661 63.353 22.5031 63.3865 22.3972C63.4516 22.3729 63.4895 22.2963 63.4895 22.1523V15.08C63.5009 15.0809 63.5127 15.0873 63.524 15.0873C67.042 15.0873 72.6659 14.0641 73.4319 18.9038C73.679 20.4665 73.4319 22.2736 73.4319 23.85Z" fill="#BFC2C4"/>
</svg>
