<svg width="59" height="74" viewBox="0 0 59 74" fill="none" xmlns="http://www.w3.org/2000/svg">
<path d="M34.5548 0.366361H15.4371C12.9697 0.366361 10.4898 0.293513 8.02244 0.366361C3.08147 0.515224 0.262578 4.47434 0.221404 9.13025C0.0978793 22.7749 0.221404 36.4291 0.221404 50.077V58.9866C0.221404 60.8806 0.116882 62.7683 0.620482 64.6212C2.01092 69.7522 6.19808 73.6575 11.5793 73.6575H19.4595C27.552 73.6575 35.6444 73.6575 43.74 73.6575C45.9412 73.6575 48.1425 73.6796 50.3406 73.6575C55.2087 73.6068 58.3158 69.8662 58.3887 65.1596C58.5882 52.3194 58.3887 39.4634 58.3887 26.6232V25.3785C58.3887 23.6681 57.1154 21.6284 55.6997 20.7225C54.2839 19.8167 53.3717 20.5357 53.3717 22.0655V58.9739C53.3717 61.1562 53.6314 63.2371 51.9908 65.0076C50.1569 66.984 47.7276 66.8003 45.3141 66.8003H23.6689C18.4523 66.8003 13.2168 66.9333 8.00027 66.8003C7.19894 66.7813 5.75783 66.6419 5.21622 65.9071C4.98184 65.5904 5.27957 65.9166 5.26373 65.8438C5.21305 65.6474 5.23839 65.413 5.23839 65.2166C5.23839 64.8081 5.23839 64.3995 5.23839 63.9909V14.5875C5.23839 12.684 5.06419 11.0306 6.32161 9.38047C8.25365 6.84664 11.3291 7.21721 14.1226 7.21721H37.3452C40.0723 7.21721 37.1457 0.366361 34.5548 0.366361Z" fill="#D8DADB"/>
<path d="M35.4911 6.2765C41.3094 12.0948 47.1309 17.9163 52.9492 23.7346L55.4228 26.2083C56.3002 27.0856 57.9535 27.7096 58.3558 26.0879C58.7675 24.4314 57.4436 22.341 56.3445 21.2451C50.5262 15.4268 44.7047 9.60532 38.8864 3.78701L36.4128 1.31336C35.5354 0.436018 33.8821 -0.187939 33.4799 1.43371C33.0681 3.09021 34.392 5.18062 35.4911 6.2765Z" fill="#D8DADB"/>
<path d="M33.4426 2.13688V22.0686C33.4426 23.8835 35.2512 27.1521 37.3447 27.1521H57.2765C60.0035 27.1521 57.077 20.2981 54.4861 20.2981H34.5544L38.4565 25.3816V5.44987C38.4565 3.73953 37.1832 1.69979 35.7674 0.79395C34.3517 -0.111895 33.4426 0.60708 33.4426 2.13688Z" fill="#D8DADB"/>
<path d="M41.1991 36.9073H14.6224C11.8954 36.9073 14.8219 43.7614 17.4128 43.7614H43.9895C46.7165 43.7614 43.79 36.9073 41.1991 36.9073Z" fill="#D8DADB"/>
<path d="M41.1991 50.1942H14.6224C11.8954 50.1942 14.8219 57.0482 17.4128 57.0482H43.9895C46.7165 57.0482 43.79 50.1942 41.1991 50.1942Z" fill="#D8DADB"/>
<path d="M21.2674 23.6206H14.6224C11.8954 23.6206 14.8219 30.4746 17.4128 30.4746H24.0578C26.7848 30.4746 23.8582 23.6206 21.2674 23.6206Z" fill="#D8DADB"/>
</svg>
