<svg width="40" height="40" viewBox="0 0 40 40" fill="none" xmlns="http://www.w3.org/2000/svg">
<rect x="0.5" y="0.5" width="39" height="39" rx="19.5" stroke="#F0F0F1"/>
<path d="M12.323 19.9129C12.303 19.5409 12.395 19.2769 12.595 19.1249C12.783 18.9609 13.063 18.8809 13.435 18.8809C13.607 18.8809 13.763 18.8889 13.903 18.9089V19.7129H13.647C13.419 19.7129 13.295 19.8089 13.279 20.0009V20.2609H13.903V20.4889C13.903 20.6209 13.855 20.7369 13.759 20.8329C13.663 20.9289 13.551 20.9769 13.419 20.9769H13.291V23.9009H12.323V19.9129Z" fill="#532F6C"/>
<path d="M14.8788 18.9102C15.0028 18.9102 15.1108 18.9542 15.2068 19.0462C15.3028 19.1382 15.3508 19.2502 15.3508 19.3822V23.8982H14.3828V18.9102H14.8788Z" fill="#532F6C"/>
<path d="M16.2981 24.5877H16.5701C17.1021 24.5877 17.2901 24.3277 17.1381 23.8117L15.8301 20.0117H16.9261L17.6941 22.7077L18.3621 20.3557C18.4181 20.1277 18.5701 20.0117 18.8181 20.0117H19.5021L17.9821 24.5557C17.8581 24.8917 17.7181 25.1157 17.5541 25.2277C17.3661 25.3517 17.0861 25.4157 16.7141 25.4157C16.4661 25.4157 16.3301 25.4077 16.3021 25.3877V24.5877H16.2981Z" fill="#532F6C"/>
<path d="M21.2203 23.9729C20.8403 24.0009 20.5202 23.9489 20.2522 23.8169C19.8562 23.6169 19.6562 23.2609 19.6562 22.7569C19.6643 22.3649 19.8002 22.0689 20.0522 21.8689C20.3082 21.6689 20.7283 21.5409 21.3163 21.4809C21.7323 21.4329 21.9403 21.3049 21.9403 21.0929C21.9203 20.8729 21.7123 20.7649 21.3163 20.7649C20.9763 20.7649 20.7802 20.8569 20.7322 21.0369H19.7643C19.8763 20.3209 20.3802 19.9609 21.2722 19.9609C22.3322 19.9609 22.8722 20.3209 22.8922 21.0369V22.3569C22.8922 23.0169 22.6563 23.4769 22.1803 23.7329C21.9283 23.8609 21.6083 23.9409 21.2203 23.9729ZM21.1883 22.1809C20.8003 22.2569 20.6042 22.4409 20.6042 22.7249C20.6242 23.0289 20.7843 23.1849 21.0883 23.1849C21.3523 23.1849 21.5683 23.1089 21.7283 22.9569C21.8803 22.8049 21.9563 22.5889 21.9563 22.3129V21.9529C21.7283 22.0449 21.4763 22.1209 21.1883 22.1809Z" fill="#532F6C"/>
<path d="M26.4304 18.9082C26.5624 18.9082 26.6784 18.9562 26.7704 19.0522C26.8624 19.1482 26.9144 19.2642 26.9144 19.3962V19.9282V22.2202C26.9144 23.3842 26.3144 23.9642 25.1104 23.9562C23.9184 23.9362 23.3184 23.2842 23.3184 21.9922C23.3184 20.6722 23.8304 19.9962 24.8544 19.9562C25.3384 19.9562 25.7024 20.1562 25.9504 20.5602V18.9122H26.4304V18.9082ZM25.1384 20.8322C24.6184 20.8322 24.3424 21.2042 24.3144 21.9522C24.3064 22.7362 24.5744 23.1282 25.1264 23.1282C25.6744 23.1282 25.9504 22.7362 25.9504 21.9522C25.9304 21.2042 25.6584 20.8322 25.1384 20.8322Z" fill="#532F6C"/>
<path d="M30.7502 22.709C30.6382 23.149 30.4462 23.469 30.1822 23.669C29.8702 23.881 29.4982 23.985 29.0742 23.985C27.9102 23.945 27.3262 23.269 27.3262 21.949C27.3262 20.629 27.9142 19.965 29.0902 19.957C30.3142 19.957 30.8862 20.717 30.8102 22.237H28.3222C28.3582 22.829 28.6142 23.125 29.0902 23.125C29.3182 23.125 29.5262 23.033 29.7142 22.853C29.7982 22.757 29.9102 22.709 30.0422 22.709H30.7502ZM29.7862 21.533C29.7302 21.017 29.4942 20.757 29.0742 20.757C28.6582 20.757 28.4102 21.017 28.3342 21.533H29.7862Z" fill="#532F6C"/>
<path d="M32.7437 23.9729C32.3637 24.0009 32.0437 23.9489 31.7757 23.8169C31.3797 23.6169 31.1797 23.2609 31.1797 22.7569C31.1877 22.3649 31.3237 22.0689 31.5757 21.8689C31.8317 21.6689 32.2517 21.5409 32.8397 21.4809C33.2557 21.4329 33.4637 21.3049 33.4637 21.0929C33.4437 20.8729 33.2357 20.7649 32.8397 20.7649C32.4997 20.7649 32.3037 20.8569 32.2557 21.0369H31.2877C31.3997 20.3209 31.9037 19.9609 32.7957 19.9609C33.8557 19.9609 34.3957 20.3209 34.4157 21.0369V22.3569C34.4157 23.0169 34.1797 23.4769 33.7037 23.7329C33.4517 23.8609 33.1317 23.9409 32.7437 23.9729ZM32.7157 22.1809C32.3277 22.2569 32.1317 22.4409 32.1317 22.7249C32.1517 23.0289 32.3117 23.1849 32.6157 23.1849C32.8797 23.1849 33.0957 23.1089 33.2557 22.9569C33.4077 22.8049 33.4837 22.5889 33.4837 22.3129V21.9529C33.2557 22.0449 32.9997 22.1209 32.7157 22.1809Z" fill="#532F6C"/>
<path d="M35.5273 18.9102C35.6513 18.9102 35.7593 18.9542 35.8553 19.0462C35.9513 19.1382 35.9993 19.2502 35.9993 19.3822V23.8982H35.0312V18.9102H35.5273Z" fill="#532F6C"/>
<path d="M22.9919 17.3362C22.9919 17.4322 23.0239 17.5082 23.0919 17.5682C23.1599 17.6282 23.2519 17.6562 23.3639 17.6562C23.3959 17.6562 23.4199 17.6722 23.4359 17.7002C23.4519 17.7282 23.4599 17.7762 23.4599 17.8402C23.4599 17.9162 23.4559 17.9682 23.4519 17.9922C23.4479 18.0162 23.4359 18.0282 23.4199 18.0282C23.3479 18.0282 23.2719 18.0202 23.1959 18.0002C23.1159 17.9802 23.0439 17.9482 22.9759 17.9002C22.9599 18.0322 22.9279 18.1442 22.8759 18.2322C22.8239 18.3242 22.7559 18.3962 22.6759 18.4562C22.5959 18.5122 22.5039 18.5522 22.4039 18.5762C22.3039 18.6002 22.1959 18.6122 22.0799 18.6122C21.9599 18.6122 21.8439 18.5962 21.7359 18.5682C21.6279 18.5402 21.5319 18.4922 21.4439 18.4282C21.3599 18.3642 21.2919 18.2802 21.2439 18.1762C21.1959 18.0722 21.1719 17.9482 21.1719 17.8042C21.1719 17.7162 21.1879 17.6122 21.2159 17.4922C21.2479 17.3682 21.2919 17.2522 21.3519 17.1402L21.7559 17.2882C21.7319 17.3442 21.7159 17.3962 21.6999 17.4402C21.6839 17.4842 21.6719 17.5242 21.6639 17.5642C21.6559 17.6042 21.6479 17.6402 21.6439 17.6802C21.6399 17.7162 21.6359 17.7562 21.6359 17.7962C21.6359 17.8802 21.6479 17.9522 21.6759 18.0082C21.6999 18.0642 21.7359 18.1082 21.7839 18.1442C21.8279 18.1802 21.8799 18.2042 21.9359 18.2162C21.9919 18.2282 22.0479 18.2362 22.1039 18.2362C22.2519 18.2362 22.3599 18.2002 22.4279 18.1242C22.4959 18.0482 22.5319 17.9322 22.5319 17.7722V15.8362C22.5319 15.6922 22.6479 15.5762 22.7919 15.5762H22.9879V17.3362H22.9919Z" fill="#532F6C"/>
<path d="M23.4279 18.029C23.3719 18.029 23.3279 18.013 23.2999 17.985C23.2679 17.953 23.2559 17.909 23.2559 17.853C23.2559 17.797 23.2639 17.749 23.2839 17.713C23.3039 17.677 23.3319 17.657 23.3679 17.657C23.4599 17.657 23.5319 17.653 23.5839 17.649C23.6359 17.645 23.6839 17.629 23.7239 17.605C23.7519 17.589 23.7719 17.565 23.7919 17.541C23.8079 17.517 23.8239 17.489 23.8319 17.457C23.8439 17.425 23.8479 17.393 23.8519 17.361C23.8559 17.329 23.8559 17.297 23.8559 17.269V16.801C23.8559 16.657 23.9719 16.541 24.1159 16.541H24.3119V17.361C24.3119 17.529 24.2759 17.665 24.2079 17.769C24.1399 17.873 24.0239 17.949 23.8639 17.993C23.7959 18.009 23.7279 18.021 23.6599 18.025C23.5919 18.029 23.5159 18.029 23.4279 18.029ZM23.3679 18.537C23.3679 18.469 23.3919 18.413 23.4359 18.365C23.4799 18.321 23.5399 18.297 23.6079 18.297C23.6759 18.297 23.7319 18.321 23.7759 18.365C23.8199 18.409 23.8399 18.465 23.8399 18.537C23.8399 18.609 23.8199 18.665 23.7759 18.709C23.7319 18.753 23.6759 18.777 23.6079 18.777C23.5359 18.777 23.4799 18.753 23.4359 18.709C23.3879 18.665 23.3679 18.609 23.3679 18.537ZM23.9559 18.537C23.9559 18.469 23.9799 18.413 24.0239 18.365C24.0679 18.321 24.1279 18.297 24.1959 18.297C24.2639 18.297 24.3199 18.321 24.3639 18.365C24.4079 18.409 24.4279 18.465 24.4279 18.537C24.4279 18.609 24.4079 18.665 24.3639 18.709C24.3199 18.753 24.2639 18.777 24.1959 18.777C24.1239 18.777 24.0679 18.753 24.0239 18.709C23.9799 18.665 23.9559 18.609 23.9559 18.537Z" fill="#532F6C"/>
<path d="M25.2905 17.6571C25.3985 17.6571 25.4785 17.6331 25.5305 17.5891C25.5825 17.5451 25.6065 17.4611 25.6065 17.3451V17.2571C25.6065 17.1451 25.5705 17.0571 25.4945 16.9971C25.4185 16.9371 25.3105 16.9091 25.1705 16.9091H24.8545V16.5371H25.2625C25.3985 16.5371 25.5185 16.5531 25.6225 16.5851C25.7225 16.6171 25.8065 16.6611 25.8745 16.7211C25.9385 16.7771 25.9905 16.8451 26.0225 16.9251C26.0545 17.0011 26.0705 17.0891 26.0705 17.1771V17.3971C26.0705 17.6211 26.0265 17.7811 25.9345 17.8811C25.8425 17.9811 25.6905 18.0291 25.4705 18.0291H24.6465V17.6571H25.2905Z" fill="#532F6C"/>
<path d="M26.429 15.1447C26.397 15.0887 26.381 15.0327 26.381 14.9807C26.381 14.8767 26.413 14.7967 26.481 14.7327C26.545 14.6687 26.637 14.6367 26.753 14.6367C26.781 14.6367 26.809 14.6407 26.845 14.6447C26.881 14.6487 26.917 14.6567 26.953 14.6687L26.909 14.8527C26.865 14.8367 26.813 14.8287 26.757 14.8287C26.697 14.8287 26.653 14.8407 26.621 14.8687C26.589 14.8967 26.573 14.9367 26.573 14.9847C26.573 15.0367 26.589 15.0767 26.625 15.1047C26.661 15.1327 26.709 15.1447 26.773 15.1447H26.977V15.3367H26.293V15.1447H26.429ZM26.893 15.5767V18.0327H26.437V15.8407C26.437 15.6967 26.553 15.5807 26.697 15.5807H26.893V15.5767Z" fill="#532F6C"/>
<path d="M29.8962 17.736C29.8962 17.9 29.8722 18.04 29.8242 18.152C29.7762 18.264 29.7122 18.356 29.6282 18.424C29.5442 18.492 29.4482 18.54 29.3402 18.572C29.2322 18.604 29.1122 18.616 28.9882 18.616C28.8642 18.616 28.7522 18.6 28.6442 18.572C28.5362 18.544 28.4402 18.496 28.3562 18.432C28.2722 18.368 28.2042 18.284 28.1522 18.18C28.1002 18.076 28.0762 17.952 28.0762 17.808C28.0762 17.72 28.0922 17.616 28.1202 17.496C28.1522 17.372 28.1962 17.256 28.2562 17.144L28.6602 17.292C28.6362 17.348 28.6202 17.396 28.6042 17.444C28.5882 17.488 28.5762 17.532 28.5682 17.568C28.5602 17.608 28.5522 17.644 28.5482 17.684C28.5442 17.72 28.5402 17.76 28.5402 17.8C28.5402 17.888 28.5522 17.96 28.5802 18.016C28.6082 18.072 28.6442 18.12 28.6882 18.152C28.7322 18.184 28.7802 18.208 28.8362 18.22C28.8922 18.232 28.9442 18.24 29.0002 18.24C29.1442 18.24 29.2522 18.204 29.3242 18.128C29.3962 18.052 29.4282 17.936 29.4282 17.776V17.08C29.4282 16.944 29.5402 16.832 29.6762 16.832H29.8842V17.736H29.8962ZM28.8042 16.408C28.8042 16.34 28.8282 16.284 28.8722 16.236C28.9162 16.192 28.9762 16.168 29.0442 16.168C29.1122 16.168 29.1682 16.192 29.2122 16.236C29.2562 16.28 29.2762 16.336 29.2762 16.408C29.2762 16.48 29.2562 16.536 29.2122 16.58C29.1682 16.624 29.1122 16.648 29.0442 16.648C28.9722 16.648 28.9162 16.624 28.8722 16.58C28.8242 16.536 28.8042 16.48 28.8042 16.408Z" fill="#532F6C"/>
<path d="M30.7665 15.5762V18.0322H30.3105V15.8402C30.3105 15.6962 30.4265 15.5802 30.5705 15.5802H30.7665V15.5762Z" fill="#532F6C"/>
<path d="M31.2555 18.6131C31.1875 18.6131 31.1275 18.6091 31.0715 18.6011C31.0155 18.5931 30.9715 18.5811 30.9355 18.5691L30.9915 18.2131C31.0195 18.2171 31.0435 18.2211 31.0675 18.2251C31.0915 18.2291 31.1155 18.2291 31.1395 18.2291C31.2235 18.2291 31.2835 18.2051 31.3195 18.1571C31.3555 18.1091 31.3755 18.0291 31.3755 17.9211V16.7971C31.3755 16.6531 31.4915 16.5371 31.6355 16.5371H31.8315V17.6571H32.1115C32.1435 17.6571 32.1675 17.6731 32.1835 17.7011C32.1995 17.7331 32.2075 17.7811 32.2075 17.8451C32.2075 17.9171 32.2035 17.9691 32.1995 17.9931C32.1955 18.0171 32.1835 18.0291 32.1715 18.0291H31.8315C31.8275 18.1491 31.8075 18.2491 31.7755 18.3211C31.7435 18.3971 31.6995 18.4571 31.6435 18.5011C31.5875 18.5451 31.5275 18.5731 31.4595 18.5891C31.3955 18.6051 31.3275 18.6131 31.2555 18.6131Z" fill="#532F6C"/>
<path d="M32.9398 17.7912C32.8678 17.8832 32.7598 17.9512 32.6158 17.9912C32.5438 18.0072 32.4758 18.0193 32.4118 18.0233C32.3478 18.0273 32.2678 18.0273 32.1798 18.0273C32.1238 18.0273 32.0798 18.0113 32.0518 17.9833C32.0198 17.9513 32.0078 17.9072 32.0078 17.8512C32.0078 17.7872 32.0198 17.7393 32.0398 17.7033C32.0598 17.6713 32.0878 17.6512 32.1238 17.6512C32.2158 17.6512 32.2878 17.6473 32.3398 17.6433C32.3918 17.6393 32.4398 17.6233 32.4798 17.5993C32.5078 17.5833 32.5278 17.5633 32.5478 17.5353C32.5638 17.5073 32.5798 17.4793 32.5878 17.4473C32.5998 17.4153 32.6038 17.3832 32.6078 17.3512C32.6118 17.3192 32.6118 17.2873 32.6118 17.2593V16.7912C32.6118 16.6472 32.7278 16.5312 32.8718 16.5312H33.0678V17.3312C33.0678 17.4272 33.0998 17.5033 33.1678 17.5633C33.2358 17.6233 33.3278 17.6512 33.4398 17.6512C33.4718 17.6512 33.4958 17.6673 33.5118 17.6953C33.5278 17.7233 33.5358 17.7713 33.5358 17.8353C33.5358 17.9112 33.5318 17.9633 33.5278 17.9873C33.5238 18.0113 33.5118 18.0233 33.4958 18.0233C33.4518 18.0233 33.4078 18.0192 33.3558 18.0112C33.3038 18.0032 33.2518 17.9872 33.1998 17.9712C33.1478 17.9512 33.0998 17.9273 33.0518 17.8993C33.0038 17.8713 32.9678 17.8352 32.9398 17.7912ZM32.2878 18.5352C32.2878 18.4672 32.3118 18.4113 32.3558 18.3633C32.3998 18.3193 32.4598 18.2952 32.5278 18.2952C32.5958 18.2952 32.6518 18.3193 32.6958 18.3633C32.7398 18.4073 32.7598 18.4632 32.7598 18.5352C32.7598 18.6072 32.7398 18.6633 32.6958 18.7073C32.6518 18.7513 32.5958 18.7752 32.5278 18.7752C32.4558 18.7752 32.3998 18.7513 32.3558 18.7073C32.3118 18.6633 32.2878 18.6072 32.2878 18.5352ZM32.8798 18.5352C32.8798 18.4672 32.9038 18.4113 32.9478 18.3633C32.9918 18.3193 33.0518 18.2952 33.1198 18.2952C33.1878 18.2952 33.2438 18.3193 33.2878 18.3633C33.3318 18.4073 33.3518 18.4632 33.3518 18.5352C33.3518 18.6072 33.3318 18.6633 33.2878 18.7073C33.2438 18.7513 33.1878 18.7752 33.1198 18.7752C33.0478 18.7752 32.9918 18.7513 32.9478 18.7073C32.8998 18.6633 32.8798 18.6072 32.8798 18.5352Z" fill="#532F6C"/>
<path d="M33.4962 18.0302C33.4402 18.0302 33.3962 18.0142 33.3682 17.9862C33.3362 17.9542 33.3242 17.9102 33.3242 17.8542C33.3242 17.7902 33.3362 17.7422 33.3562 17.7062C33.3762 17.6742 33.4042 17.6542 33.4402 17.6542H33.7362V15.8342C33.7362 15.6902 33.8522 15.5742 33.9962 15.5742H34.1922V16.7622C34.3722 16.6702 34.5362 16.6022 34.6882 16.5662C34.8402 16.5302 34.9802 16.5102 35.1122 16.5102C35.2642 16.5102 35.4002 16.5302 35.5122 16.5662C35.6242 16.6022 35.7202 16.6542 35.7922 16.7222C35.8642 16.7902 35.9202 16.8702 35.9562 16.9662C35.9922 17.0622 36.0082 17.1662 36.0082 17.2782V17.4022C36.0082 17.6262 35.9522 17.7862 35.8442 17.8862C35.7362 17.9862 35.5762 18.0342 35.3602 18.0342H33.4962V18.0302ZM35.0162 16.8942C34.8722 16.8942 34.7322 16.9182 34.5962 16.9662C34.4562 17.0142 34.3242 17.0782 34.1922 17.1582V17.6622H35.2522C35.3122 17.6622 35.3642 17.6542 35.4042 17.6382C35.4442 17.6222 35.4762 17.5982 35.4962 17.5702C35.5162 17.5422 35.5322 17.5102 35.5402 17.4702C35.5482 17.4302 35.5522 17.3902 35.5522 17.3422C35.5522 17.2022 35.5042 17.0942 35.4122 17.0142C35.3122 16.9302 35.1842 16.8942 35.0162 16.8942Z" fill="#532F6C"/>
<path d="M5.43992 20.2257C6.29192 20.2137 9.75992 20.1537 10.5719 20.0137C10.5719 20.0137 11.2279 20.2777 10.7559 21.1577C10.7039 21.2537 10.6039 21.3137 10.4959 21.3177C9.70792 21.3577 6.39992 21.5297 5.29192 21.7537C5.29192 21.7537 4.67192 21.4537 5.15992 20.4097C5.20792 20.3017 5.31992 20.2297 5.43992 20.2257Z" fill="#CDDE00"/>
<path d="M4.62351 22.3682C5.47551 22.3562 8.94351 22.2962 9.75551 22.1562C9.75551 22.1562 10.4115 22.4202 9.93951 23.3002C9.88751 23.3962 9.78751 23.4562 9.67951 23.4602C8.89151 23.5002 5.58351 23.6722 4.47551 23.8962C4.47551 23.8962 3.85551 23.5962 4.34351 22.5522C4.39151 22.4442 4.49951 22.3722 4.62351 22.3682Z" fill="#CDDE00"/>
</svg>
