<svg width="40" height="40" viewBox="0 0 40 40" fill="none" xmlns="http://www.w3.org/2000/svg">
<rect x="0.5" y="0.5" width="39" height="39" rx="19.5" stroke="#F0F0F1"/>
<path d="M34.656 19.4004V19.4164C34.656 20.5844 33.796 21.3084 32.412 21.3084C31.588 21.3084 30.768 21.0484 30.108 20.5724C29.956 20.4644 29.864 20.2764 29.864 20.0804C29.864 19.7404 30.132 19.4764 30.476 19.4764C30.616 19.4764 30.736 19.5164 30.852 19.5964C31.364 19.9724 31.884 20.1564 32.444 20.1564C33.016 20.1564 33.356 19.9324 33.356 19.5524V19.5364C33.356 19.1564 33.084 18.9844 32.096 18.7324C30.948 18.4404 30.068 18.1164 30.068 16.8684V16.8524C30.068 15.7684 30.948 15.0164 32.208 15.0164C32.932 15.0164 33.584 15.2004 34.156 15.5604C34.296 15.6444 34.444 15.8204 34.444 16.0804C34.444 16.4204 34.176 16.6844 33.832 16.6844C33.712 16.6844 33.612 16.6564 33.5 16.5884C33.024 16.3084 32.596 16.1724 32.192 16.1724C31.696 16.1724 31.376 16.3924 31.376 16.7324V16.7484C31.376 17.1764 31.664 17.3084 32.724 17.5804C33.88 17.8724 34.656 18.3004 34.656 19.4004ZM19.676 15.0204C18.032 15.0244 16.792 16.3844 16.792 18.1764V20.6364C16.792 21.0004 17.088 21.2924 17.448 21.2924C17.812 21.2924 18.104 20.9964 18.104 20.6364V18.1764C18.104 17.0964 18.752 16.3364 19.676 16.3364C20.604 16.3404 21.252 17.0964 21.252 18.1764V20.6364C21.252 21.0004 21.544 21.2924 21.908 21.2924C22.272 21.2924 22.564 20.9964 22.564 20.6364V18.1764C22.564 16.3804 21.324 15.0244 19.676 15.0204ZM16.324 15.0484C16 14.8884 15.604 15.0204 15.444 15.3444L13.728 18.8204L12.008 15.3444C11.848 15.0204 11.452 14.8884 11.128 15.0484C10.804 15.2084 10.668 15.6044 10.832 15.9284L12.996 20.3044L12.076 22.1684C11.916 22.4924 12.048 22.8884 12.376 23.0484C12.468 23.0924 12.568 23.1164 12.664 23.1164C12.904 23.1164 13.14 22.9804 13.252 22.7484L16.62 15.9284C16.78 15.6044 16.648 15.2124 16.324 15.0484ZM6.44798 16.4724C6.08798 16.4724 5.79198 16.7644 5.79198 17.1284C5.79198 17.4924 6.08398 17.7844 6.44798 17.7844C6.80798 17.7844 7.10398 17.4924 7.10398 17.1284C7.10398 16.7644 6.80798 16.4724 6.44798 16.4724ZM7.43598 13.5044C7.38398 13.5044 7.32798 13.5004 7.27598 13.4964C7.18398 13.4924 7.07998 13.4844 6.96798 13.4844C5.23998 13.4844 4.17598 14.5604 4.08798 16.3764C4.08398 16.4044 4.08398 16.4364 4.08398 16.4644V20.6124C4.08398 20.9764 4.37598 21.2684 4.73998 21.2684C5.10398 21.2684 5.39598 20.9764 5.39598 20.6124V16.6284C5.39598 14.9884 6.29598 14.8004 6.96798 14.8004C7.03998 14.8004 7.11598 14.8044 7.19998 14.8084C7.26798 14.8124 7.33198 14.8164 7.39998 14.8204C7.76398 14.8324 8.06398 14.5444 8.07598 14.1844C8.08398 13.8164 7.79998 13.5164 7.43598 13.5044ZM9.37598 13.5204C9.01198 13.5204 8.71998 13.8124 8.71998 14.1764V20.6124C8.71998 20.9764 9.01198 21.2684 9.37598 21.2684C9.73998 21.2684 10.032 20.9764 10.032 20.6124V14.1764C10.032 13.8164 9.73598 13.5204 9.37598 13.5204ZM26.216 15.0204C24.508 15.0244 23.216 16.3524 23.184 18.1124C23.184 18.1204 23.184 18.1324 23.184 18.1404V18.1764C23.184 18.1844 23.184 18.1964 23.184 18.2044C23.216 19.9724 24.508 21.2964 26.216 21.2964C26.476 21.2964 26.708 21.2764 26.82 21.2524C27.176 21.1844 27.412 20.8404 27.344 20.4844C27.276 20.1284 26.932 19.8964 26.58 19.9644C26.552 19.9684 26.416 19.9844 26.216 19.9844C25.208 19.9844 24.5 19.2364 24.492 18.1604C24.5 17.0884 25.208 16.3404 26.212 16.3364C27.228 16.3404 27.936 17.0964 27.936 18.1764V20.6364C27.936 21.0004 28.228 21.2924 28.592 21.2924C28.956 21.2924 29.248 21.0004 29.248 20.6364V18.1764C29.256 16.3804 27.952 15.0244 26.216 15.0204ZM35.42 16.2884C35.748 16.2884 36.008 16.0244 36.008 15.7044V15.7004C36.008 15.3804 35.752 15.1204 35.424 15.1204C35.096 15.1204 34.836 15.3884 34.836 15.7044V15.7084C34.84 16.0244 35.096 16.2884 35.42 16.2884ZM35.42 16.1964C35.14 16.1964 34.932 15.9764 34.932 15.7044V15.7004C34.932 15.4284 35.144 15.2084 35.424 15.2084C35.704 15.2084 35.912 15.4284 35.912 15.7004V15.7044C35.916 15.9764 35.704 16.1964 35.42 16.1964ZM35.184 15.9404C35.184 15.9764 35.216 16.0084 35.252 16.0084C35.288 16.0084 35.32 15.9764 35.32 15.9404V15.7964H35.432L35.576 15.9764C35.592 16.0004 35.604 16.0084 35.632 16.0084C35.664 16.0084 35.696 15.9804 35.696 15.9404C35.696 15.9204 35.688 15.9084 35.68 15.8924L35.58 15.7684C35.656 15.7364 35.704 15.6764 35.704 15.5804V15.5764C35.704 15.5204 35.684 15.4764 35.652 15.4404C35.608 15.3964 35.544 15.3724 35.46 15.3724H35.252C35.216 15.3724 35.184 15.4044 35.184 15.4404V15.9404ZM35.32 15.6804V15.4964H35.456C35.524 15.4964 35.568 15.5284 35.568 15.5884V15.5924C35.568 15.6444 35.532 15.6804 35.46 15.6804H35.32Z" fill="#00B0AA"/>
<path d="M27.9885 24.0088C27.9885 23.8928 27.8965 23.8008 27.7805 23.8008C27.6645 23.8008 27.5725 23.8928 27.5725 24.0088V25.8808H26.7725C26.5765 25.8808 25.9805 25.8808 25.9805 24.9728V24.0088C25.9805 23.8928 25.8885 23.8008 25.7725 23.8008C25.6565 23.8008 25.5645 23.8928 25.5645 24.0088V24.9728C25.5645 25.8168 26.0045 26.2968 26.7725 26.2968H27.7845C27.8965 26.2968 27.9885 26.2048 27.9885 26.0888V26.0768C27.9885 26.0688 27.9885 26.0608 27.9885 26.0528V24.0088Z" fill="#00B0AA"/>
<path d="M28.7519 25.4198V23.0478C28.7519 22.9318 28.6599 22.8398 28.5439 22.8398C28.4279 22.8398 28.3359 22.9318 28.3359 23.0478V25.4198C28.3359 25.5358 28.4279 25.6318 28.5439 25.6318C28.6599 25.6278 28.7519 25.5358 28.7519 25.4198Z" fill="#00B0AA"/>
<path d="M26.8525 23.2324C26.9085 23.2324 26.9605 23.2124 27.0005 23.1724C27.0405 23.1324 27.0605 23.0804 27.0605 23.0244C27.0605 22.9684 27.0405 22.9164 27.0005 22.8764C26.9605 22.8364 26.9085 22.8164 26.8525 22.8164C26.7965 22.8164 26.7445 22.8364 26.7045 22.8764C26.6645 22.9164 26.6445 22.9684 26.6445 23.0244C26.6445 23.0804 26.6685 23.1324 26.7045 23.1724C26.7405 23.2124 26.7965 23.2324 26.8525 23.2324Z" fill="#00B0AA"/>
<path d="M24.4121 23.8C24.2961 23.8 24.2041 23.892 24.2041 24.008V25.204H23.4561C23.2601 25.204 22.6601 25.204 22.6601 24.296V23.04C22.6601 22.924 22.5681 22.832 22.4521 22.832C22.3361 22.832 22.2441 22.924 22.2441 23.04V24.296C22.2441 25.14 22.6841 25.62 23.4561 25.62H24.3601C24.3681 25.62 24.3721 25.62 24.3801 25.62H24.3841H24.3881C24.3961 25.62 24.4001 25.62 24.4081 25.62C24.5241 25.62 24.6161 25.528 24.6161 25.412V24.004C24.6201 23.892 24.5281 23.8 24.4121 23.8Z" fill="#00B0AA"/>
<path d="M24.4014 23.2324C24.4574 23.2324 24.5094 23.2124 24.5494 23.1724C24.5894 23.1324 24.6094 23.0804 24.6094 23.0244C24.6094 22.9684 24.5854 22.9164 24.5494 22.8764C24.5094 22.8364 24.4574 22.8164 24.4014 22.8164C24.3454 22.8164 24.2934 22.8364 24.2534 22.8764C24.2134 22.9164 24.1934 22.9684 24.1934 23.0244C24.1934 23.0804 24.2174 23.1324 24.2534 23.1724C24.2934 23.2124 24.3454 23.2324 24.4014 23.2324Z" fill="#00B0AA"/>
<path d="M21.6089 23.8009C21.4929 23.8009 21.4009 23.8929 21.4009 24.0089V24.7129C21.4009 24.7329 21.3969 25.2089 21.0249 25.2089H20.3929L20.4169 25.1529C20.4769 25.0169 20.5089 24.8569 20.5089 24.7129V24.0089C20.5089 23.8929 20.4169 23.8009 20.3009 23.8009C20.1849 23.8009 20.0929 23.8929 20.0929 24.0089V24.7129C20.0929 24.7329 20.0889 25.2089 19.7169 25.2089H19.2089V24.0049C19.2089 23.8889 19.1169 23.7969 19.0009 23.7969C18.8849 23.7969 18.7929 23.8889 18.7929 24.0049V25.8769H18.0089C17.8129 25.8769 17.2129 25.8769 17.2129 24.9689V24.0049C17.2129 23.8889 17.1209 23.7969 17.0049 23.7969C16.8889 23.7969 16.7969 23.8889 16.7969 24.0049V24.9689C16.7969 25.8129 17.2369 26.2929 18.0089 26.2929H18.9729C18.9769 26.2929 18.9809 26.2929 18.9849 26.2929C18.9889 26.2929 18.9929 26.2929 18.9969 26.2929C19.1129 26.2929 19.2049 26.2009 19.2049 26.0849V25.6249H21.0529C21.0609 25.6249 21.0689 25.6249 21.0769 25.6249C21.6169 25.5889 21.8129 25.0609 21.8129 24.7129V24.0089C21.8169 23.8929 21.7209 23.8009 21.6089 23.8009Z" fill="#00B0AA"/>
<path d="M30.6475 25.9766C30.5915 25.9766 30.5395 26.0006 30.4995 26.0366C30.4595 26.0766 30.4355 26.1286 30.4355 26.1846C30.4355 26.2366 30.4595 26.2926 30.4995 26.3326C30.5395 26.3726 30.5915 26.3926 30.6475 26.3926C30.6995 26.3926 30.7555 26.3686 30.7955 26.3326C30.8355 26.2926 30.8555 26.2406 30.8555 26.1846C30.8555 26.1286 30.8355 26.0766 30.7955 26.0366C30.7555 26.0006 30.7035 25.9766 30.6475 25.9766Z" fill="#00B0AA"/>
<path d="M30.04 25.9766C29.988 25.9766 29.932 26.0006 29.892 26.0366C29.852 26.0766 29.832 26.1286 29.832 26.1846C29.832 26.2366 29.856 26.2926 29.892 26.3326C29.932 26.3686 29.984 26.3926 30.04 26.3926C30.092 26.3926 30.148 26.3686 30.188 26.3326C30.228 26.2926 30.248 26.2406 30.248 26.1846C30.248 26.1286 30.228 26.0766 30.188 26.0366C30.148 26.0006 30.096 25.9766 30.04 25.9766Z" fill="#00B0AA"/>
<path d="M33.3554 23.4438C32.8794 23.4278 32.4394 23.5718 32.1274 23.8478L32.1114 23.8638C32.0834 23.8878 32.0514 23.9158 32.0234 23.9438L31.9554 24.0078V23.0518C31.9554 22.9358 31.8634 22.8438 31.7474 22.8438C31.6314 22.8438 31.5394 22.9358 31.5394 23.0518V24.7358C31.5394 24.7398 31.5394 24.7438 31.5394 24.7478C31.5394 24.7558 31.5394 24.7598 31.5394 24.7598C31.5394 24.8158 31.5634 24.8678 31.6034 24.9078C31.6434 24.9478 31.6954 24.9678 31.7514 24.9678C31.8074 24.9678 31.8594 24.9438 31.8994 24.9078C31.9194 24.8838 31.9394 24.8558 31.9474 24.8198L31.9594 24.7758C31.9834 24.6998 31.9994 24.6678 32.0274 24.6158C32.0674 24.5398 32.1234 24.4598 32.1994 24.3678C32.2474 24.3038 32.3194 24.2438 32.3874 24.1838L32.4034 24.1678C32.6354 23.9638 32.9714 23.8558 33.3394 23.8678C33.9474 23.8918 34.0674 24.1358 34.0674 24.5278V25.2158H30.6234L30.6474 25.1598C30.7074 25.0198 30.7394 24.8638 30.7394 24.7198V23.9998C30.7394 23.8838 30.6474 23.7918 30.5314 23.7918C30.4154 23.7918 30.3234 23.8838 30.3234 23.9998V24.7118C30.3234 24.7318 30.3194 25.2078 29.9474 25.2078H29.5234V23.9998C29.5234 23.8838 29.4314 23.7918 29.3154 23.7918C29.2034 23.7918 29.1074 23.8838 29.1074 23.9998V25.4398C29.1074 25.8278 28.7834 26.0838 28.6354 26.1398C28.5274 26.1798 28.4754 26.2998 28.5154 26.4078C28.5554 26.5118 28.6794 26.5678 28.7834 26.5278C29.0634 26.4238 29.4074 26.1038 29.4994 25.6598L29.5074 25.6278H34.2794C34.3954 25.6278 34.4874 25.5318 34.4874 25.4158V24.5198C34.4914 23.8318 34.1114 23.4718 33.3554 23.4438Z" fill="#00B0AA"/>
</svg>
