<svg width="32" height="32" viewBox="0 0 32 32" fill="none" xmlns="http://www.w3.org/2000/svg">
<path d="M3.95769 27.6494C3.93963 27.6494 3.92383 27.6651 3.92383 27.6833C3.92383 27.7013 3.93963 27.7171 3.95769 27.7171H28.0384C28.0564 27.7171 28.0723 27.7013 28.0723 27.6833C28.0723 27.6651 28.0564 27.6494 28.0384 27.6494H3.95769Z" fill="#B49164"/>
<path d="M3.28305 26.4783L3.24918 26.5121C2.67682 27.0844 3.31014 28.1173 3.7617 28.5701C4.16021 28.9685 4.49323 28.9404 4.97866 28.9404H6.67993C8.58551 28.9404 10.4911 28.9404 12.3956 28.9404C16.805 28.9404 21.2146 28.9404 25.6241 28.9404H27.7804C27.9983 28.9404 28.5717 29.0385 28.7524 28.858C29.3246 28.2856 28.6913 27.2526 28.2398 26.8C27.8413 26.4014 27.5082 26.4297 27.0228 26.4297H25.3893C23.4792 26.4297 21.569 26.4297 19.6578 26.4297H6.49365C5.48329 26.4297 4.47291 26.4297 3.46366 26.4297C2.45442 26.4297 3.53479 28.8727 4.45823 28.8727H12.6101C16.9225 28.8727 21.2349 28.8727 25.5462 28.8727C26.5431 28.8727 27.541 28.8727 28.5378 28.8727L27.8762 28.5362L27.9101 28.5701C27.7397 27.8837 27.5681 27.1984 27.3976 26.5121C27.4676 26.4421 27.6121 26.503 27.3694 26.4974C27.2102 26.494 27.05 26.4974 26.8896 26.4974C26.3083 26.4974 25.728 26.4974 25.1467 26.4974C23.2285 26.4974 21.3094 26.4974 19.3914 26.4974C15.079 26.4974 10.7666 26.4974 6.45527 26.4974C5.45845 26.4974 4.46049 26.4974 3.46366 26.4974L4.12521 26.8338L4.09134 26.8C4.26181 27.4864 4.43339 28.1716 4.60386 28.858L4.63773 28.8241C5.35233 28.1095 3.85766 25.9036 3.28305 26.4783Z" fill="#B49164"/>
<path d="M15.9999 4.28125C14.7072 4.28125 13.6562 5.31872 13.6562 6.59325C13.6562 7.86778 14.7072 8.90525 15.9999 8.90525C17.2924 8.90525 18.3435 7.86778 18.3435 6.59325C18.3435 5.31872 17.2924 4.28125 15.9999 4.28125ZM15.9999 8.81268C14.7625 8.81268 13.7567 7.82037 13.7567 6.60114C13.7567 5.38193 14.7625 4.38962 15.9999 4.38962C17.2372 4.38962 18.243 5.38193 18.243 6.60114C18.243 7.82037 17.2372 8.81268 15.9999 8.81268Z" fill="#B49164"/>
<path d="M15.5041 3.06083C13.7757 3.11615 12.5949 4.6142 12.7834 6.30531C12.9877 8.1443 14.5129 10.1278 16.4987 10.1278C18.2304 10.1278 19.4033 8.53603 19.2193 6.88331C19.0083 4.99351 17.4932 3.12404 15.5041 3.06083C14.5513 3.03035 15.5719 5.4733 16.4987 5.50378C16.8407 5.51507 17.2257 5.64151 17.43 5.77584C17.4143 5.76568 17.5225 5.97002 17.4628 5.80859C17.4503 5.77698 17.4176 5.74086 17.4199 5.70472C17.4085 5.87068 17.4537 6.0197 17.4199 6.20032C17.2573 7.08312 16.3665 7.68596 15.5041 7.68596C15.1587 7.68596 14.8188 7.58323 14.5615 7.3947C14.6699 7.47486 14.4655 7.25359 14.5185 7.3518C14.54 7.39019 14.5885 7.43647 14.584 7.48614C14.5976 7.35294 14.5513 7.20956 14.5716 7.06394C14.7015 6.12468 15.6091 5.53426 16.4997 5.50491C17.4887 5.4733 16.4231 3.0326 15.5052 3.06195L15.5041 3.06083Z" fill="#B49164"/>
<path d="M15.506 7.59102C15.4393 7.58877 14.4966 7.42846 14.5825 7.27945C14.6152 7.22299 14.6412 7.63279 14.6717 7.41717C14.6897 7.28734 14.657 7.14172 14.6874 6.99834C14.8602 6.17198 15.6832 5.61091 16.5017 5.61091C16.846 5.61091 17.1045 5.81299 17.3732 5.87396C17.5956 5.92475 17.197 5.76333 17.3189 5.71365C17.3596 5.69785 17.3381 6.09974 17.3337 6.13022C17.2026 7.01416 16.3458 7.56168 15.507 7.58989C14.5181 7.62263 15.5838 10.0633 16.5017 10.0328C18.1769 9.97753 19.3058 8.52914 19.1206 6.8911C18.9197 5.10517 17.4364 3.16797 15.507 3.16797C13.8284 3.16797 12.7085 4.71457 12.888 6.30972C13.0946 8.14645 14.5678 9.9685 16.5017 10.0328C17.4544 10.0645 16.4338 7.6215 15.507 7.58989L15.506 7.59102Z" fill="#B49164"/>
<path d="M16.0085 12.048C13.0614 12.048 10.2606 13.3225 8.12152 15.6379C6.04627 17.8844 4.85547 20.8986 4.85547 23.9071C4.85547 23.9253 4.87011 23.941 4.88683 23.941H27.1251C27.1439 23.941 27.1607 23.9207 27.1616 23.8982C27.1616 20.8975 25.9709 17.8834 23.8956 15.6368C21.7565 13.3214 18.9547 12.048 16.0085 12.048ZM27.0968 23.8732H4.90879L4.92447 23.4625C5.03634 20.4583 6.25327 17.6191 8.34944 15.4663C10.4508 13.309 13.1691 12.1214 16.0033 12.1214C18.8376 12.1214 21.5569 13.309 23.6593 15.4663C25.7576 17.6191 26.9735 20.4595 27.0823 23.4625L27.0968 23.8732Z" fill="#B49164"/>
<path d="M15.5485 10.8263C12.523 10.8512 9.63957 12.1652 7.49531 14.4648C6.38711 15.6535 5.48696 17.05 4.89627 18.6147C4.60563 19.3846 4.37248 20.1804 4.22612 20.9978C4.08393 21.7914 3.89575 22.8096 4.07035 23.6079C4.24493 24.406 4.79381 25.1623 5.56223 25.1623H10.4603C14.0483 25.1623 17.6364 25.1623 21.2244 25.1623C22.6819 25.1623 24.1381 25.1623 25.5956 25.1623C26.2176 25.1623 26.9536 25.2808 27.5684 25.1623C28.1204 25.0562 27.9949 24.3123 27.9709 23.8584C27.9239 23.0107 27.7952 22.1595 27.5913 21.3387C27.1575 19.5968 26.4152 17.97 25.4397 16.5082C23.6248 13.7863 20.8637 11.7125 17.7953 11.0736C17.052 10.9189 16.3065 10.832 15.5485 10.8263C14.6527 10.8196 15.6133 13.2625 16.4696 13.2693C21.6468 13.3111 26.2887 17.5547 26.3337 23.3087L26.4121 22.8571L26.3755 22.9L26.664 22.7194C24.1549 22.7194 21.6447 22.7194 19.1356 22.7194C15.1533 22.7194 11.1712 22.7194 7.18899 22.7194H4.42685L5.03949 23.0558L5.00813 23.0219C5.23291 23.513 5.45873 24.0052 5.68351 24.4963C5.73264 18.3178 10.8816 13.3133 16.4685 13.2682C17.3729 13.2603 16.4017 10.8184 15.5476 10.8252L15.5485 10.8263Z" fill="#B49164"/>
<path d="M26.6377 22.651C24.1369 22.651 21.6372 22.651 19.1365 22.651C15.1532 22.651 11.1689 22.651 7.18565 22.651H4.44965C4.87934 23.2548 5.30798 23.8588 5.73768 24.4628C5.90913 19.8851 8.60122 15.8775 12.5301 14.157C16.5322 12.4038 21.4574 13.5519 24.2414 17.1882C25.5964 18.9571 26.1881 21.0072 26.2708 23.2831C26.2937 23.9006 26.6774 24.6096 27.1584 24.9426C27.5912 25.2418 27.9466 25.0183 27.9268 24.4639C27.727 19.0079 24.6388 13.9436 19.9174 11.836C15.1929 9.72605 9.73346 11.3799 6.55628 15.6516C4.91384 17.8599 4.18724 20.4891 4.08269 23.2843C4.05865 23.9278 4.69638 25.0962 5.37072 25.0962H12.872C16.8552 25.0962 20.8396 25.0962 24.8228 25.0962C25.7344 25.0962 26.6472 25.0962 27.5588 25.0962C28.4704 25.0962 27.4929 22.6532 26.6377 22.6532V22.651Z" fill="#B49164"/>
</svg>
