<svg width="133" height="38" viewBox="0 0 133 38" fill="none" xmlns="http://www.w3.org/2000/svg">
<path d="M50.3446 10.8269C50.3446 11.5095 50.0936 12.1921 49.5899 12.695C49.0157 13.198 48.2611 13.4495 47.4703 13.4136L46.9675 13.3777V15.8925H45.5664V8.63542C46.2489 8.59949 46.8961 8.59949 47.6147 8.59949C48.5121 8.59949 49.1954 8.77913 49.6621 9.17435C50.1289 9.60541 50.3807 10.2162 50.3446 10.8269ZM48.8714 10.9347C48.8714 10.1084 48.4046 9.7132 47.4703 9.7132H46.9314V12.1562C47.111 12.1921 47.3268 12.1921 47.5064 12.1921C47.8657 12.228 48.225 12.0843 48.5121 11.8688C48.7639 11.6532 48.9075 11.294 48.8714 10.9347Z" fill="#C8C9CA"/>
<path d="M52.9674 8.92301C52.9674 9.13858 52.896 9.35415 52.7164 9.49787C52.5368 9.64158 52.321 9.74937 52.1053 9.74937C51.8896 9.74937 51.6385 9.67751 51.495 9.49787C51.3153 9.35415 51.2432 9.13858 51.2432 8.92301C51.2432 8.70752 51.3153 8.49195 51.495 8.34823C51.8182 8.02487 52.3932 8.02487 52.7164 8.34823C52.896 8.49195 53.0035 8.70752 52.9674 8.92301ZM52.8239 15.8927H51.4589V10.5397H52.8239V15.8927Z" fill="#C8C9CA"/>
<path d="M55.7693 15.8928H54.4043V8.02502H55.7693V15.8928Z" fill="#C8C9CA"/>
<path d="M62.237 16.4316C62.237 17.0424 61.9138 17.6172 61.4101 17.9406C60.7998 18.3716 60.0452 18.5872 59.2905 18.5513C58.7163 18.5872 58.1052 18.4435 57.6023 18.1561C57.207 17.9046 56.9912 17.4376 56.9912 16.9706C56.9912 16.6831 57.0634 16.4316 57.243 16.2161C57.3866 16.0006 57.5662 15.785 57.8181 15.6772C57.4949 15.5335 57.2791 15.2101 57.2791 14.8509C57.2791 14.6354 57.3505 14.4557 57.4588 14.2761C57.5662 14.0965 57.7459 13.9887 57.9255 13.8809C57.3866 13.5935 57.0995 13.0187 57.1356 12.4079C57.1356 11.8691 57.3505 11.3302 57.7459 10.9709C58.2134 10.5757 58.8598 10.3602 59.4701 10.3961C59.758 10.3961 60.0452 10.432 60.3331 10.5039H62.1648V11.5817H61.4462C61.6259 11.7613 61.698 12.0127 61.698 12.2642C61.7341 12.8032 61.5184 13.3061 61.123 13.6654C60.6563 14.0606 60.0452 14.2401 59.4349 14.2042C59.2905 14.2042 59.1469 14.2042 59.0034 14.1683C58.8598 14.2042 58.7524 14.3479 58.7524 14.5276C58.7524 14.6354 58.8237 14.7431 58.932 14.7791C59.1469 14.8509 59.3627 14.8509 59.5784 14.8509L60.4044 14.8869C61.6259 14.9228 62.237 15.4616 62.237 16.4316ZM60.872 16.6472C60.872 16.2161 60.5841 15.9646 60.0452 15.9646L59.1108 15.9287H58.8598C58.5727 16.1084 58.3931 16.4316 58.357 16.755C58.357 17.0065 58.4645 17.2221 58.6802 17.3298C58.932 17.4735 59.2191 17.5453 59.5062 17.5453C59.8655 17.5813 60.2248 17.4735 60.5127 17.2939C60.7276 17.1502 60.872 16.8987 60.872 16.6472ZM60.4044 12.372C60.4405 12.1205 60.3331 11.8691 60.1534 11.6894C59.722 11.3661 59.1469 11.3661 58.7163 11.6894C58.3931 12.0846 58.3931 12.6594 58.7163 13.0546C59.1469 13.3779 59.722 13.3779 60.1534 13.0546C60.3331 12.875 60.4405 12.6235 60.4044 12.372Z" fill="#C8C9CA"/>
<path d="M66.26 10.4318L66.1878 11.7611C65.7932 11.6173 65.3257 11.7611 65.0747 12.0844C64.7868 12.5514 64.6793 13.1263 64.7154 13.6651V15.8566H63.3496V10.5036H64.6432C64.6432 10.8629 64.6071 11.2222 64.5357 11.5814H64.5718C64.895 10.7551 65.4693 10.3599 66.26 10.4318Z" fill="#C8C9CA"/>
<path d="M68.811 8.92301C68.811 9.13858 68.7388 9.35415 68.5592 9.49787C68.3795 9.64158 68.1638 9.74937 67.9481 9.74937C67.7331 9.74937 67.4813 9.67751 67.3378 9.49787C67.1581 9.35415 67.0859 9.13858 67.0859 8.92301C67.0859 8.70752 67.1581 8.49195 67.3378 8.34823C67.661 8.02487 68.236 8.02487 68.5592 8.34823C68.7388 8.49195 68.8463 8.70752 68.811 8.92301ZM68.6313 15.8927H67.2656V10.5397H68.6313V15.8927Z" fill="#C8C9CA"/>
<path d="M78.0793 15.8927H76.6783V12.5157C76.7144 12.2643 76.6422 12.0487 76.5347 11.8331C76.4265 11.6894 76.2115 11.5816 76.0319 11.6175C75.6726 11.6535 75.3494 11.8331 75.1697 12.1205C74.9179 12.4797 74.7744 12.9468 74.8105 13.378V15.9287H73.4447V12.5516C73.4447 12.3002 73.4094 12.0846 73.3011 11.869C73.1937 11.6894 73.014 11.5816 72.7983 11.6175C72.439 11.6535 72.1158 11.8331 71.9362 12.1205C71.6843 12.4797 71.5408 12.9109 71.5769 13.342V15.8927H70.2119V10.5398H71.5047C71.5047 10.8631 71.4694 11.1865 71.4333 11.5097C71.613 11.1865 71.864 10.935 72.1519 10.7194C72.4751 10.5398 72.8344 10.432 73.1937 10.432C73.8762 10.3601 74.5226 10.8272 74.6661 11.5097C74.8105 11.1865 75.0615 10.935 75.3494 10.7553C75.6726 10.5398 76.0319 10.432 76.4265 10.432C77.5043 10.432 78.0433 11.0068 78.0433 12.1924V15.8927H78.0793Z" fill="#C8C9CA"/>
<path d="M86.0918 15.8925H82.1396V8.6355H86.0918V9.82107H83.5407V11.6173H85.9483V12.767H83.5407V14.7429H86.0918V15.8925Z" fill="#C8C9CA"/>
<path d="M92.1629 15.8924H90.4386L89.3968 14.0961L88.3551 15.8924H86.7383L88.5708 13.1979L86.8457 10.5394H88.4986L89.5404 12.2998L90.5822 10.5394H92.1276L90.4386 13.162L92.1629 15.8924Z" fill="#C8C9CA"/>
<path d="M98.0185 12.9108C98.0546 13.7012 97.8028 14.4915 97.2999 15.1382C96.8332 15.6771 96.1146 15.9286 95.2164 15.9286C95.0007 15.9286 94.7496 15.9286 94.5339 15.8927V18.4434H93.1689V10.5038H94.4617C94.4617 10.7912 94.4617 11.1145 94.4264 11.4019H94.4617C94.7496 10.7553 95.4321 10.36 96.1507 10.396C96.7257 10.36 97.2647 10.6115 97.5879 11.0427C97.911 11.4738 98.0185 12.1205 98.0185 12.9108ZM96.5814 13.0545C96.5814 12.0486 96.2943 11.5456 95.6831 11.5456C95.3247 11.5456 95.0368 11.7253 94.8571 12.0486C94.6414 12.4078 94.5339 12.839 94.5339 13.27V14.743C94.7496 14.8149 95.0007 14.8508 95.2525 14.8508C96.1146 14.8867 96.5814 14.276 96.5814 13.0545Z" fill="#C8C9CA"/>
<path d="M103.623 12.6951C103.623 12.9465 103.623 13.2339 103.587 13.4854H100.281C100.281 14.4554 100.785 14.9224 101.755 14.9224C102.293 14.9224 102.796 14.8147 103.299 14.5991L103.444 15.641C102.832 15.8565 102.15 16.0002 101.503 16.0002C99.7424 16.0002 98.8802 15.102 98.8802 13.2698C98.8449 12.5154 99.096 11.7968 99.5627 11.2221C100.03 10.6831 100.713 10.3958 101.431 10.4317C102.042 10.3958 102.653 10.6114 103.084 11.0783C103.479 11.5454 103.658 12.1202 103.623 12.6951ZM102.257 12.5513C102.293 12.2639 102.186 11.9406 102.006 11.725C101.827 11.5454 101.575 11.4376 101.324 11.4376C101.072 11.4376 100.785 11.5454 100.605 11.725C100.426 11.9765 100.281 12.2639 100.281 12.5513H102.257Z" fill="#C8C9CA"/>
<path d="M107.827 10.4318L107.755 11.7611C107.36 11.6173 106.893 11.7611 106.641 12.0844C106.354 12.5514 106.247 13.1263 106.282 13.6651V15.8566H104.917V10.5036H106.211C106.211 10.8629 106.174 11.2222 106.102 11.5814H106.138C106.462 10.7551 107.001 10.3599 107.827 10.4318Z" fill="#C8C9CA"/>
<path d="M110.378 8.92301C110.378 9.13858 110.306 9.35415 110.127 9.49787C109.947 9.64158 109.731 9.74937 109.515 9.74937C109.3 9.74937 109.049 9.67751 108.905 9.49787C108.726 9.35415 108.653 9.13858 108.653 8.92301C108.653 8.70752 108.726 8.49195 108.905 8.34823C109.228 8.02487 109.803 8.02487 110.127 8.34823C110.306 8.49195 110.378 8.70752 110.378 8.92301ZM110.198 15.8927H108.833V10.5397H110.198V15.8927Z" fill="#C8C9CA"/>
<path d="M116.161 12.6951C116.161 12.9465 116.161 13.2339 116.125 13.4854H112.819C112.819 14.4554 113.323 14.9224 114.293 14.9224C114.832 14.9224 115.334 14.8147 115.837 14.5991L115.982 15.641C115.37 15.8565 114.688 16.0002 114.042 16.0002C112.28 16.0002 111.418 15.102 111.418 13.2698C111.383 12.5154 111.634 11.7968 112.101 11.2221C112.568 10.6831 113.251 10.3958 113.969 10.4317C114.58 10.3958 115.191 10.6114 115.622 11.0783C116.017 11.5454 116.197 12.1202 116.161 12.6951ZM114.795 12.5513C114.832 12.2639 114.724 11.9406 114.544 11.725C114.365 11.5454 114.113 11.4376 113.862 11.4376C113.61 11.4376 113.323 11.5454 113.143 11.725C112.964 11.9765 112.819 12.2639 112.819 12.5513H114.795Z" fill="#C8C9CA"/>
<path d="M122.089 15.8925H120.724V12.4436C120.759 12.228 120.688 11.9765 120.579 11.797C120.472 11.6533 120.256 11.5814 120.077 11.5814C119.717 11.5814 119.394 11.761 119.214 12.0843C118.963 12.4436 118.819 12.8748 118.855 13.3058V15.8925H117.49V10.5395H118.784C118.784 10.8629 118.748 11.1862 118.712 11.5095C118.891 11.1862 119.143 10.9347 119.43 10.7192C119.753 10.5395 120.149 10.4318 120.544 10.4318C121.622 10.4318 122.125 11.0065 122.125 12.1203L122.089 15.8925Z" fill="#C8C9CA"/>
<path d="M127.227 15.713C126.76 15.8926 126.221 15.9645 125.718 15.9645C125.071 16.0004 124.425 15.7849 123.922 15.3179C123.491 14.8867 123.275 14.2401 123.275 13.3419C123.239 12.5874 123.491 11.833 123.957 11.2223C124.461 10.6474 125.215 10.36 125.97 10.3959C126.365 10.3959 126.76 10.4678 127.155 10.5756L126.94 11.7612C126.616 11.6174 126.293 11.5456 125.933 11.5456C125.574 11.5456 125.215 11.6893 124.999 11.9767C124.748 12.3359 124.641 12.7671 124.676 13.1982C124.676 14.2401 125.107 14.743 125.933 14.743C126.293 14.743 126.652 14.6711 126.975 14.5274L127.227 15.713Z" fill="#C8C9CA"/>
<path d="M132.652 12.6951C132.652 12.9465 132.652 13.2339 132.616 13.4854H129.311C129.311 14.4554 129.814 14.9224 130.784 14.9224C131.323 14.9224 131.826 14.8147 132.329 14.5991L132.472 15.641C131.862 15.8565 131.179 16.0002 130.532 16.0002C128.772 16.0002 127.91 15.102 127.91 13.2698C127.874 12.5154 128.125 11.7968 128.592 11.2221C129.06 10.6831 129.742 10.3958 130.461 10.4317C131.071 10.3958 131.682 10.6114 132.113 11.0783C132.508 11.5454 132.688 12.1202 132.652 12.6951ZM131.287 12.5513C131.323 12.2639 131.215 11.9406 131.035 11.725C130.855 11.5454 130.604 11.4376 130.352 11.4376C130.101 11.4376 129.814 11.5454 129.634 11.725C129.454 11.9765 129.311 12.2639 129.311 12.5513H131.287Z" fill="#C8C9CA"/>
<path d="M50.3446 22.0719C50.3807 22.7904 50.0936 23.4371 49.5899 23.94C49.0157 24.443 48.2611 24.6945 47.4703 24.6586L46.9675 24.6227V27.1375H45.5664V19.8804C46.2489 19.8445 46.8961 19.8445 47.6147 19.8445C48.5121 19.8445 49.1954 20.0241 49.6621 20.4193C50.1289 20.8504 50.3807 21.4612 50.3446 22.0719ZM48.8714 22.2156C48.8714 21.3893 48.4046 20.9941 47.4703 20.9941H46.9314V23.4371C47.111 23.473 47.3268 23.473 47.5064 23.473C47.8657 23.509 48.225 23.3653 48.5121 23.1497C48.7639 22.9341 48.9075 22.5749 48.8714 22.2156Z" fill="#C8C9CA"/>
<path d="M54.3686 21.6767L54.2972 23.006C53.9018 22.8623 53.4351 23.006 53.1832 23.3293C52.8961 23.7964 52.7879 24.3712 52.824 24.9101V27.1016H51.459V21.7845H52.7518C52.7518 22.1437 52.7165 22.503 52.6443 22.8623H52.6804C53.0036 22 53.5425 21.6049 54.3686 21.6767Z" fill="#C8C9CA"/>
<path d="M60.117 24.3711C60.1531 25.1256 59.8652 25.88 59.3623 26.4548C58.8595 26.9937 58.1409 27.3171 57.3863 27.2812C56.7038 27.3171 56.0574 27.1015 55.5545 26.6344C55.1231 26.2034 54.9073 25.5207 54.9073 24.5867C54.8712 23.8322 55.1591 23.0778 55.662 22.503C56.1648 21.9641 56.8834 21.6767 57.6381 21.7126C58.3206 21.6767 59.003 21.9282 59.4698 22.3952C59.9013 22.7904 60.117 23.473 60.117 24.3711ZM58.7159 24.443C58.7159 23.3652 58.3206 22.8623 57.5298 22.8623C57.2066 22.8623 56.8834 23.006 56.6677 23.2574C56.3806 23.5807 56.2731 24.0119 56.3084 24.443C56.3084 25.5567 56.7038 26.0956 57.4945 26.0956C57.8538 26.0956 58.177 25.9519 58.3566 25.6644C58.6077 25.3052 58.752 24.91 58.7159 24.443Z" fill="#C8C9CA"/>
<path d="M66.1883 27.7122C66.1883 28.3229 65.8651 28.8977 65.3623 29.2211C64.752 29.6522 63.9973 29.8678 63.2426 29.8319C62.6676 29.8678 62.0573 29.7241 61.5545 29.4366C61.1591 29.1851 60.9434 28.7182 60.9434 28.2511C60.9434 27.9636 61.0155 27.7122 61.1952 27.4967C61.3387 27.2811 61.5184 27.0655 61.7694 26.9577C61.4462 26.814 61.2305 26.4907 61.2305 26.1314C61.2305 25.9159 61.3026 25.7362 61.4101 25.5567C61.5184 25.377 61.698 25.2692 61.8777 25.1615C61.3387 24.874 61.0508 24.2992 61.0869 23.6885C61.0869 23.1496 61.3026 22.6107 61.698 22.2515C62.1648 21.8562 62.812 21.6407 63.4223 21.6766C63.7094 21.6766 63.9973 21.7125 64.2844 21.7844H66.1169V22.8622H65.3984C65.578 23.0418 65.6494 23.2933 65.6494 23.5447C65.6855 24.0837 65.4697 24.5866 65.0752 24.9459C64.6076 25.3411 63.9973 25.5207 63.3862 25.4848C63.2426 25.4848 63.0991 25.4848 62.9555 25.4489C62.812 25.4848 62.7037 25.6284 62.7037 25.8081C62.7037 25.9159 62.7759 26.0237 62.8833 26.0596C63.0991 26.1314 63.3148 26.1314 63.5297 26.1314L64.3566 26.1674C65.578 26.2033 66.1883 26.7063 66.1883 27.7122ZM64.8233 27.8918C64.8233 27.4607 64.5362 27.2092 63.9973 27.2092L63.0269 27.1733H62.7759C62.488 27.3529 62.3083 27.6763 62.273 27.9996C62.273 28.2511 62.3805 28.4667 62.5962 28.5744C62.8473 28.7182 63.1352 28.79 63.4223 28.79C63.7816 28.8259 64.1409 28.7182 64.428 28.5385C64.6798 28.4307 64.8233 28.1792 64.8233 27.8918ZM64.3566 23.6166C64.3927 23.3652 64.2844 23.1137 64.1048 22.934C63.6741 22.6107 63.0991 22.6107 62.6676 22.934C62.3444 23.3292 62.3444 23.904 62.6676 24.2992C63.0991 24.6225 63.6741 24.6225 64.1048 24.2992C64.2844 24.1196 64.3927 23.8681 64.3566 23.6166Z" fill="#C8C9CA"/>
<path d="M70.2121 21.6767L70.14 23.006C69.7446 22.8623 69.2778 23.006 69.026 23.3293C68.7389 23.7964 68.6314 24.3712 68.6667 24.9101V27.1016H67.3018V21.7845H68.5953C68.5953 22.1437 68.5593 22.503 68.4871 22.8623H68.5232C68.8464 22 69.4214 21.6049 70.2121 21.6767Z" fill="#C8C9CA"/>
<path d="M75.2047 27.1375H73.8759C73.8759 26.85 73.8759 26.5267 73.912 26.2393C73.7684 26.5267 73.5527 26.8141 73.2647 26.9938C72.9416 27.1734 72.5823 27.2811 72.223 27.2811C71.7923 27.317 71.3969 27.1375 71.1098 26.8501C70.8219 26.5626 70.6784 26.1316 70.7145 25.7363C70.7145 25.1615 71.0377 24.6226 71.5405 24.3352C72.223 23.976 73.0137 23.8323 73.8037 23.8682V23.6886C73.8398 23.4371 73.7323 23.1856 73.5888 22.9701C73.373 22.7904 73.1212 22.7186 72.8341 22.7545C72.2591 22.7545 71.7201 22.8982 71.2173 23.1137L71.0016 22.0719C71.6488 21.8204 72.3313 21.7126 73.0137 21.7126C73.8037 21.7126 74.3787 21.8564 74.7019 22.1796C75.0251 22.5749 75.2047 23.0778 75.1695 23.5808V25.7723C75.1695 26.3111 75.1695 26.7423 75.2047 27.1375ZM73.7684 24.9101V24.7663C72.5823 24.7663 72.0081 25.0178 72.0081 25.5567C72.0081 25.7363 72.0794 25.8801 72.1869 25.9878C72.3312 26.0956 72.4748 26.1675 72.6545 26.1675C72.9777 26.1675 73.2648 26.0238 73.4444 25.7723C73.6601 25.5567 73.7684 25.2333 73.7684 24.9101Z" fill="#C8C9CA"/>
<path d="M84.6183 27.1372H83.2533V23.7602C83.2894 23.5087 83.2172 23.2931 83.1097 23.0775C83.0015 22.9338 82.7857 22.8261 82.6061 22.862C82.2476 22.8979 81.9236 23.0775 81.744 23.365C81.4929 23.7243 81.3494 24.1912 81.3847 24.6224V27.1731H80.0197V23.7961C80.0197 23.5446 79.9836 23.329 79.8762 23.1135C79.7687 22.9338 79.5891 22.8261 79.3733 22.862C79.014 22.8979 78.6908 23.0775 78.5112 23.365C78.2594 23.7243 78.1158 24.1553 78.1519 24.5865V27.1372H76.7861V21.7843H78.0797C78.0797 22.1075 78.0436 22.4309 78.0083 22.7543C78.1872 22.4309 78.439 22.1794 78.7261 21.9638C79.0501 21.7843 79.4094 21.6765 79.7687 21.6765C80.4512 21.6046 81.0976 22.0716 81.2411 22.7543C81.3847 22.4309 81.6365 22.1794 81.9236 21.9998C82.2476 21.7842 82.6061 21.6765 83.0015 21.6765C84.0793 21.6765 84.6183 22.2513 84.6183 23.4368V27.1372Z" fill="#C8C9CA"/>
<path d="M25.4022 20.0205C25.2258 19.9199 24.9066 19.7547 24.4647 19.6146C23.8247 19.4098 22.9377 19.2589 21.8847 19.4241C21.5294 19.4816 21.1557 19.575 20.7675 19.7115C20.7315 19.7259 20.6922 19.7367 20.6561 19.7511C20.4588 19.8265 20.2607 19.9164 20.0634 20.0133C19.8942 20.0995 19.7258 20.193 19.5606 20.2935C19.1796 20.5235 18.8027 20.7857 18.4362 21.066C18.0192 18.5439 18.2237 16.2052 18.3207 15.0556C18.3207 15.0484 18.3279 15.0447 18.3351 15.0484C19.2261 15.6088 18.9783 17.1788 18.7883 17.6278C18.7883 17.6351 18.7987 17.6422 18.8059 17.6351C19.9158 16.3201 19.3737 14.8687 19.1475 14.5023C19.1435 14.4951 19.1548 14.4879 19.162 14.4915C19.3232 14.6208 19.4523 14.7609 19.5638 14.9011C19.9086 15.3394 20.0345 15.8172 20.0674 16.2339C20.0851 16.4566 20.0778 16.6615 20.0674 16.8375C20.0674 16.8842 20.0602 16.9309 20.0562 16.9704C20.0562 16.9776 20.0602 16.9776 20.0674 16.9776C20.0674 16.9776 20.0706 16.9776 20.0738 16.9776C20.3722 16.3884 20.5157 15.4975 20.0674 14.6316C19.9447 14.3981 19.7795 14.1646 19.5638 13.9419C19.5028 13.8771 19.4347 13.8125 19.3625 13.7515C19.3561 13.7443 19.3625 13.7335 19.3697 13.737C19.4387 13.755 19.4996 13.773 19.5638 13.7945C19.7546 13.8592 19.9198 13.9526 20.0674 14.0604C20.405 14.3083 20.6312 14.6532 20.7716 15.0088C20.8822 15.3035 20.9368 15.6088 20.9328 15.8746C20.9328 15.8855 20.9472 15.8855 20.9512 15.8746C21.1589 15.1059 21.0338 14.5275 20.7716 14.0999C20.5847 13.7981 20.3257 13.5754 20.0674 13.4209C19.891 13.3167 19.7145 13.2412 19.5638 13.1946C19.474 13.1695 19.3913 13.1515 19.3232 13.1407C19.3127 13.1407 19.316 13.1263 19.3232 13.1227C19.4058 13.1156 19.4852 13.112 19.5638 13.1084C19.7506 13.1084 19.9158 13.1227 20.0674 13.1515C20.3649 13.2054 20.5951 13.3131 20.7716 13.4281C21.0547 13.6185 21.195 13.8413 21.2415 13.9346C21.2455 13.9419 21.26 13.9346 21.26 13.9275C21.2199 13.5215 21.0338 13.2054 20.7716 12.9755C20.5703 12.7994 20.3257 12.6772 20.0674 12.6054C19.9014 12.5587 19.729 12.5336 19.5638 12.5336C19.3376 12.5336 19.1219 12.5695 18.935 12.6449C18.9278 12.6449 18.9206 12.6378 18.9246 12.6342C19.0866 12.4006 19.32 12.2533 19.5638 12.1814C19.733 12.1311 19.9054 12.1132 20.0674 12.1204C20.2214 12.1311 20.3649 12.1635 20.4804 12.2174C20.4877 12.221 20.4949 12.2102 20.4909 12.203C20.3649 12.0593 20.2214 11.9444 20.0674 11.8582C19.9054 11.7683 19.7362 11.7144 19.5638 11.6929C19.1147 11.6426 18.6551 11.833 18.3496 12.2964C18.3496 12.3 18.3391 12.3037 18.3351 12.2964C18.2782 12.1923 18.2205 12.0773 18.1667 11.9551C18.044 11.6713 17.9438 11.3515 17.89 11.0354C17.89 11.0247 17.8756 11.0247 17.8756 11.0354C17.8219 11.3515 17.7208 11.6749 17.5989 11.9587C17.5452 12.0809 17.4915 12.1959 17.4337 12.2964C17.4337 12.3037 17.4225 12.3 17.4193 12.2964C16.8844 11.4881 15.8851 11.5061 15.278 12.203C15.2708 12.2102 15.278 12.221 15.2892 12.2174C15.695 12.0234 16.4601 12.0809 16.8443 12.6342C16.8483 12.6413 16.8443 12.6485 16.8338 12.6449C16.2412 12.397 15.3245 12.5587 14.8361 13.1407C14.6605 13.349 14.5418 13.6114 14.5089 13.9275C14.5089 13.9383 14.5201 13.9419 14.5233 13.9346C14.5634 13.8628 14.6565 13.7083 14.8329 13.5539C15.1168 13.3024 15.6156 13.0437 16.4425 13.1227C16.4529 13.1227 16.4529 13.1371 16.4425 13.1407C16.0214 13.1946 15.1521 13.5682 14.8329 14.4304C14.6885 14.8113 14.6565 15.2891 14.8144 15.8711C14.8144 15.8818 14.8329 15.8818 14.8329 15.8711C14.8329 15.8567 14.8329 15.8459 14.8329 15.8316C14.8401 15.0484 15.2892 13.9994 16.3951 13.7335C16.4024 13.7335 16.4096 13.7443 16.4024 13.7479C15.1633 14.8364 15.2892 16.1836 15.691 16.9776C15.695 16.9848 15.7095 16.9812 15.7095 16.974C15.6549 16.374 15.6124 15.3035 16.6037 14.4951C16.6109 14.4879 16.6221 14.4951 16.6181 14.5059C16.3879 14.8723 15.8458 16.3237 16.9557 17.6387C16.963 17.6458 16.9774 17.6387 16.9702 17.6314C16.7833 17.1823 16.5355 15.6124 17.4265 15.052C17.4297 15.052 17.4409 15.052 17.4409 15.0592C17.538 16.2087 17.7393 18.5476 17.3262 21.0695C16.6109 20.5199 15.853 20.0349 15.1056 19.7547C15.0125 19.7188 14.9227 19.69 14.8329 19.6577C14.0602 19.4026 13.3524 19.3308 12.7345 19.3595C11.7429 19.4026 10.9849 19.7008 10.5682 19.9092C10.4855 19.9523 10.4137 19.9882 10.3562 20.0205C10.3347 20.0349 10.349 20.0672 10.3742 20.0565C10.4388 20.0349 10.5035 20.0169 10.5682 19.999C11.3298 19.7834 12.0519 19.7259 12.7345 19.787C13.4782 19.8517 14.1787 20.0565 14.8329 20.3547C15.7487 20.7678 16.5788 21.357 17.3295 21.9821C16.2732 22.9054 15.379 23.8036 14.8329 24.1197C14.804 24.1341 14.7784 24.152 14.7535 24.1628C14.6244 23.9831 14.3982 23.8826 14.15 23.9365C13.9344 23.9831 13.762 24.1556 13.7117 24.3711C13.6686 24.5616 13.7189 24.77 13.8266 24.8777C14.1141 25.1651 14.4519 25.1867 14.8329 25.025C15.5651 24.7161 16.4778 23.7461 17.5949 22.7186C17.6887 22.6324 17.7818 22.5461 17.8788 22.4599C17.9758 22.5461 18.0697 22.6324 18.1627 22.715C18.6696 23.1784 19.1331 23.6347 19.5606 24.0191C19.7362 24.1771 19.9014 24.3245 20.0634 24.4574C20.3152 24.6622 20.5486 24.831 20.7675 24.946C21.195 25.1723 21.5655 25.201 21.8847 24.9208C21.9031 24.9065 21.9208 24.8921 21.9352 24.8741C22.0074 24.8023 22.0932 24.5616 22.0499 24.3676C22.025 24.2562 21.9641 24.1592 21.8847 24.0802C21.8093 24.0083 21.7163 23.958 21.612 23.9328C21.3642 23.879 21.1373 23.9831 21.0081 24.1592C20.9368 24.1232 20.8542 24.073 20.7675 24.0119C20.5662 23.8753 20.3297 23.6778 20.0634 23.4443C19.9054 23.3042 19.7362 23.1532 19.5606 22.9916C19.2157 22.679 18.8348 22.3306 18.4322 21.9785C18.7883 21.6803 19.1652 21.3929 19.5606 21.1234C19.7258 21.0121 19.8942 20.9043 20.0634 20.8037C20.2896 20.6672 20.5269 20.5414 20.7675 20.4265C21.1268 20.254 21.4965 20.1104 21.8847 19.999C22.6827 19.769 23.5408 19.69 24.4647 19.8373C24.7622 19.884 25.0718 19.9558 25.3837 20.0529C25.4094 20.06 25.4238 20.0277 25.4022 20.0169" fill="#C8C9CA"/>
<path d="M17.8792 33.6316L16.1846 35.326L17.8792 37.0204L19.5737 35.326L17.8792 33.6316Z" fill="#C8C9CA"/>
<path d="M4.26358 23.9381L3.65039 25.824L5.53641 26.4372L6.14952 24.5513L4.26358 23.9381Z" fill="#C8C9CA"/>
<path d="M9.74515 7.37659L9.48828 8.99819L11.11 9.25499L11.3668 7.63338L9.74515 7.37659Z" fill="#C8C9CA"/>
<path d="M30.5511 17.4071L29.3906 18.5681L30.5511 19.729L31.7124 18.5681L30.5511 17.4071Z" fill="#C8C9CA"/>
<path d="M29.5634 13.5402L28.8184 15.0031L30.282 15.7483L31.027 14.2853L29.5634 13.5402Z" fill="#C8C9CA"/>
<path d="M11.1099 27.8866L9.48828 28.1435L9.74515 29.7651L11.3668 29.5082L11.1099 27.8866Z" fill="#C8C9CA"/>
<path d="M26.0113 7.38196L24.3896 7.63883L24.6471 9.26044L26.2687 9.00356L26.0113 7.38196Z" fill="#C8C9CA"/>
<path d="M14.3263 29.5281L12.8633 30.2732L13.6084 31.7362L15.0714 30.9911L14.3263 29.5281Z" fill="#C8C9CA"/>
<path d="M17.8773 4.73328L16.7168 5.89422L17.8773 7.05509L19.0385 5.89422L17.8773 4.73328Z" fill="#C8C9CA"/>
<path d="M16.0045 6.73547L15.2041 7.83699L16.306 8.63729L17.1064 7.53577L16.0045 6.73547Z" fill="#C8C9CA"/>
<path d="M19.4566 28.5045L18.6562 29.606L19.7574 30.4064L20.5577 29.3048L19.4566 28.5045Z" fill="#C8C9CA"/>
<path d="M8.49711 12.7021L7.20215 13.1229L7.62295 14.4179L8.91791 13.9971L8.49711 12.7021Z" fill="#C8C9CA"/>
<path d="M28.1342 22.7097L26.8398 23.1304L27.2601 24.4254L28.5553 24.0046L28.1342 22.7097Z" fill="#C8C9CA"/>
<path d="M6.84822 19.3396L6.04785 20.4412L7.14945 21.2415L7.94975 20.1399L6.84822 19.3396Z" fill="#C8C9CA"/>
<path d="M34.3476 22.1462L32.2119 23.2341L33.3002 25.3692L35.4351 24.2813L34.3476 22.1462Z" fill="#C8C9CA"/>
<path d="M9.02786 30.7444L6.66113 31.1196L7.03646 33.4864L9.40311 33.1111L9.02786 30.7444Z" fill="#C8C9CA"/>
<path d="M28.727 3.62866L26.3604 4.00393L26.7357 6.37062L29.1023 5.99538L28.727 3.62866Z" fill="#C8C9CA"/>
<path d="M3.26431 19.4575L2.09863 21.0619L3.70308 22.2276L4.86867 20.6232L3.26431 19.4575Z" fill="#C8C9CA"/>
<path d="M13.5957 5.40295L12.8506 6.86601L14.3135 7.61105L15.0585 6.14807L13.5957 5.40295Z" fill="#C8C9CA"/>
<path d="M6.19051 13.5593L4.72754 14.3044L5.47258 15.7674L6.93563 15.0223L6.19051 13.5593Z" fill="#C8C9CA"/>
<path d="M17.8792 30.0779L16.7188 31.2388L17.8792 32.3998L19.0405 31.2388L17.8792 30.0779Z" fill="#C8C9CA"/>
<path d="M27.2687 12.7124L26.8477 14.0074L28.1429 14.4281L28.5631 13.1331L27.2687 12.7124Z" fill="#C8C9CA"/>
<path d="M10.7687 25.6787H9.40723V27.0403H10.7687V25.6787Z" fill="#C8C9CA"/>
<path d="M2.46812 11.7886L0.333008 12.8765L1.42089 15.0115L3.55601 13.9237L2.46812 11.7886Z" fill="#C8C9CA"/>
<path d="M1.41015 22.1285L0.322266 24.2636L2.45738 25.3515L3.54526 23.2164L1.41015 22.1285Z" fill="#C8C9CA"/>
<path d="M10.6245 4.33032L10.0117 6.21642L11.8977 6.82921L12.5105 4.9432L10.6245 4.33032Z" fill="#C8C9CA"/>
<path d="M23.8569 30.3015L23.2441 32.1875L25.1304 32.8004L25.7431 30.9143L23.8569 30.3015Z" fill="#C8C9CA"/>
<path d="M31.5025 23.9424L29.6162 24.5553L30.2289 26.4413L32.1152 25.8285L31.5025 23.9424Z" fill="#C8C9CA"/>
<path d="M32.4975 19.4673L30.8936 20.633L32.0588 22.2373L33.6628 21.0716L32.4975 19.4673Z" fill="#C8C9CA"/>
<path d="M30.2231 10.6996L29.6104 12.5857L31.4958 13.1985L32.1085 11.3124L30.2231 10.6996Z" fill="#C8C9CA"/>
<path d="M29.1776 7.27039H27.1943V9.25344H29.1776V7.27039Z" fill="#C8C9CA"/>
<path d="M11.9017 30.3093L10.0156 30.9222L10.6285 32.8082L12.5145 32.1954L11.9017 30.3093Z" fill="#C8C9CA"/>
<path d="M19.9376 31.573L18.7715 33.1774L20.3762 34.343L21.5415 32.7386L19.9376 31.573Z" fill="#C8C9CA"/>
<path d="M5.45801 21.3705L4.71289 22.8335L6.17586 23.5786L6.92098 22.1156L5.45801 21.3705Z" fill="#C8C9CA"/>
<path d="M10.7687 10.0941H9.40723V11.4556H10.7687V10.0941Z" fill="#C8C9CA"/>
<path d="M7.1475 15.8909L6.0459 16.6912L6.84628 17.7927L7.94779 16.9924L7.1475 15.8909Z" fill="#C8C9CA"/>
<path d="M23.3196 7.88281L22.0244 8.30361L22.4454 9.59857L23.7398 9.17777L23.3196 7.88281Z" fill="#C8C9CA"/>
<path d="M19.7535 6.72803L18.6523 7.52832L19.4527 8.62992L20.5538 7.82955L19.7535 6.72803Z" fill="#C8C9CA"/>
<path d="M26.1061 23.5458L24.9922 23.7225L25.1686 24.8366L26.2826 24.66L26.1061 23.5458Z" fill="#C8C9CA"/>
<path d="M27.4632 17.7705L26.666 18.5682L27.4632 19.3659L28.2612 18.5682L27.4632 17.7705Z" fill="#C8C9CA"/>
<path d="M33.2906 11.769L32.2031 13.9042L34.338 14.992L35.4255 12.8569L33.2906 11.769Z" fill="#C8C9CA"/>
<path d="M29.1776 27.8811H27.1943V29.8642H29.1776V27.8811Z" fill="#C8C9CA"/>
<path d="M5.5316 10.7078L3.64551 11.3206L4.2583 13.2067L6.1444 12.5938L5.5316 10.7078Z" fill="#C8C9CA"/>
<path d="M25.1316 4.32288L23.2461 4.93599L23.8588 6.82193L25.7451 6.20881L25.1316 4.32288Z" fill="#C8C9CA"/>
<path d="M15.3799 2.7843L14.2139 4.38869L15.8186 5.55429L16.9839 3.94995L15.3799 2.7843Z" fill="#C8C9CA"/>
<path d="M30.2956 21.3923L28.832 22.1375L29.5779 23.6004L31.0407 22.8553L30.2956 21.3923Z" fill="#C8C9CA"/>
<path d="M5.20684 17.4095L4.0459 18.5705L5.20684 19.7314L6.36779 18.5705L5.20684 17.4095Z" fill="#C8C9CA"/>
<path d="M28.9144 19.3373L27.8125 20.1377L28.6129 21.2392L29.7148 20.4389L28.9144 19.3373Z" fill="#C8C9CA"/>
<path d="M13.3155 27.5204L12.0205 27.9412L12.4413 29.2361L13.7363 28.8153L13.3155 27.5204Z" fill="#C8C9CA"/>
<path d="M17.882 27.3512L17.084 28.1488L17.882 28.9466L18.6799 28.1488L17.882 27.3512Z" fill="#C8C9CA"/>
<path d="M11.7919 10.1741L11.6152 11.2882L12.7293 11.4649L12.906 10.3507L11.7919 10.1741Z" fill="#C8C9CA"/>
<path d="M8.51215 20.7623L8 21.7675L9.00512 22.2796L9.51727 21.2745L8.51215 20.7623Z" fill="#C8C9CA"/>
<path d="M8.56615 7.27039H6.58301V9.25344H8.56615V7.27039Z" fill="#C8C9CA"/>
<path d="M20.3831 2.79175L18.7783 3.95739L19.9444 5.56175L21.5484 4.39615L20.3831 2.79175Z" fill="#C8C9CA"/>
<path d="M21.4296 29.5082L20.6846 30.9712L22.1474 31.7163L22.8924 30.2533L21.4296 29.5082Z" fill="#C8C9CA"/>
<path d="M6.94047 25.0741L6.68359 26.6957L8.30519 26.9526L8.56207 25.331L6.94047 25.0741Z" fill="#C8C9CA"/>
<path d="M27.4432 10.1776L27.1865 11.7992L28.8081 12.0561L29.0648 10.4345L27.4432 10.1776Z" fill="#C8C9CA"/>
<path d="M26.3539 25.6787H24.9922V27.0403H26.3539V25.6787Z" fill="#C8C9CA"/>
<path d="M28.6148 15.894L27.8145 16.9956L28.9164 17.7959L29.7168 16.6943L28.6148 15.894Z" fill="#C8C9CA"/>
<path d="M16.3052 28.4987L15.2041 29.299L16.0045 30.4006L17.1056 29.6003L16.3052 28.4987Z" fill="#C8C9CA"/>
<path d="M14.6647 8.69031L14.1523 9.69543L15.1571 10.2076L15.6696 9.20245L14.6647 8.69031Z" fill="#C8C9CA"/>
<path d="M20.5908 26.9166L20.0791 27.9217L21.084 28.4339L21.5964 27.4288L20.5908 26.9166Z" fill="#C8C9CA"/>
<path d="M23.0573 25.6783L22.8809 26.7925L23.9948 26.9691L24.1712 25.855L23.0573 25.6783Z" fill="#C8C9CA"/>
<path d="M9.01782 14.8563L8.0127 15.3685L8.52484 16.3736L9.52996 15.8614L9.01782 14.8563Z" fill="#C8C9CA"/>
<path d="M27.2449 20.7831L26.2393 21.2952L26.7517 22.3003L27.7566 21.7882L27.2449 20.7831Z" fill="#C8C9CA"/>
<path d="M9.67082 23.5575L9.49414 24.6716L10.6083 24.8483L10.785 23.7342L9.67082 23.5575Z" fill="#C8C9CA"/>
<path d="M23.987 10.1611L22.873 10.3378L23.0495 11.4519L24.1634 11.2752L23.987 10.1611Z" fill="#C8C9CA"/>
<path d="M15.1678 26.931L14.1631 27.4432L14.6754 28.4483L15.6803 27.9362L15.1678 26.931Z" fill="#C8C9CA"/>
<path d="M7.04126 3.63879L6.66602 6.00546L9.03274 6.38079L9.40798 4.01406L7.04126 3.63879Z" fill="#C8C9CA"/>
<path d="M26.7454 30.762L26.3701 33.1287L28.7368 33.5039L29.1121 31.1373L26.7454 30.762Z" fill="#C8C9CA"/>
<path d="M17.8821 0.111694L16.1875 1.80612L17.8821 3.50053L19.5767 1.80611L17.8821 0.111694Z" fill="#C8C9CA"/>
<path d="M3.70787 14.9056L2.10352 16.0713L3.26919 17.6757L4.87355 16.51L3.70787 14.9056Z" fill="#C8C9CA"/>
<path d="M32.0528 14.9001L30.8867 16.5045L32.4915 17.6702L33.6568 16.0658L32.0528 14.9001Z" fill="#C8C9CA"/>
<path d="M8.56615 27.8811H6.58301V29.8642H8.56615V27.8811Z" fill="#C8C9CA"/>
<path d="M15.8217 31.5812L14.2178 32.7468L15.383 34.3511L16.9878 33.1855L15.8217 31.5812Z" fill="#C8C9CA"/>
<path d="M24.6412 27.8795L24.3838 29.5011L26.0054 29.758L26.2628 28.1364L24.6412 27.8795Z" fill="#C8C9CA"/>
<path d="M8.31008 10.1847L6.68848 10.4415L6.94528 12.0631L8.56688 11.8063L8.31008 10.1847Z" fill="#C8C9CA"/>
<path d="M28.814 25.0831L27.1924 25.34L27.449 26.9616L29.0706 26.7047L28.814 25.0831Z" fill="#C8C9CA"/>
<path d="M22.1591 5.4198L20.6963 6.16492L21.4413 7.62789L22.9041 6.88285L22.1591 5.4198Z" fill="#C8C9CA"/>
<path d="M12.4481 7.8938L12.0273 9.18876L13.3223 9.60947L13.743 8.31452L12.4481 7.8938Z" fill="#C8C9CA"/>
<path d="M22.4513 27.5321L22.0303 28.8271L23.3255 29.2479L23.7457 27.9529L22.4513 27.5321Z" fill="#C8C9CA"/>
<path d="M7.6297 22.7144L7.20898 24.0093L8.50394 24.4301L8.92466 23.1352L7.6297 22.7144Z" fill="#C8C9CA"/>
<path d="M26.3539 10.0941H24.9922V11.4556H26.3539V10.0941Z" fill="#C8C9CA"/>
<path d="M17.8802 8.18677L17.083 8.98442L17.8802 9.78207L18.6781 8.98442L17.8802 8.18677Z" fill="#C8C9CA"/>
<path d="M10.5985 12.2812L9.48438 12.4579L9.66097 13.5721L10.7752 13.3954L10.5985 12.2812Z" fill="#C8C9CA"/>
<path d="M8.2996 17.7721L7.50195 18.5697L8.2996 19.3674L9.09734 18.5697L8.2996 17.7721Z" fill="#C8C9CA"/>
<path d="M26.739 14.8359L26.2266 15.8411L27.2314 16.3532L27.7439 15.3481L26.739 14.8359Z" fill="#C8C9CA"/>
<path d="M25.1745 12.2914L24.998 13.4055L26.112 13.5822L26.2892 12.468L25.1745 12.2914Z" fill="#C8C9CA"/>
<path d="M12.7187 25.6663L11.6045 25.8429L11.7812 26.9571L12.8954 26.7805L12.7187 25.6663Z" fill="#C8C9CA"/>
<path d="M21.0936 8.70483L20.0879 9.21698L20.6004 10.2221L21.6052 9.70996L21.0936 8.70483Z" fill="#C8C9CA"/>
</svg>
