<svg width="105" height="46" viewBox="0 0 105 46" fill="none" xmlns="http://www.w3.org/2000/svg">
<path d="M0.825195 19.9445C0.825195 18.7166 1.389 18.1857 2.35138 18.1857C3.31375 18.1857 3.87834 18.7001 3.87834 19.9445C3.87834 21.1724 3.28087 21.6868 2.35138 21.6868C1.389 21.6868 0.825195 21.1724 0.825195 19.9445ZM1.48843 19.9445C1.48843 20.7078 1.73786 21.0562 2.35138 21.0562C2.96569 21.0562 3.2143 20.7244 3.2143 19.9445C3.2143 19.231 2.96569 18.8162 2.35138 18.8162C1.73786 18.8162 1.48843 19.231 1.48843 19.9445ZM1.58868 17.5386C1.53815 17.5386 1.50527 17.522 1.50527 17.4556V16.8749C1.50527 16.8251 1.52211 16.7919 1.58868 16.7919H2.13563C2.18536 16.7919 2.21904 16.8085 2.21904 16.8749V17.4556C2.21904 17.5054 2.2022 17.5386 2.13563 17.5386H1.58868ZM2.56709 17.5386C2.51737 17.5386 2.48449 17.522 2.48449 17.4556V16.8749C2.48449 16.8251 2.50053 16.7919 2.56709 16.7919H3.11486C3.16458 16.7919 3.19746 16.8085 3.19746 16.8749V17.4556C3.19746 17.5054 3.18142 17.5386 3.11486 17.5386H2.56709Z" fill="#C8C9CA"/>
<path d="M4.40958 23.2134C4.35986 23.2134 4.32617 23.1968 4.32617 23.1305V22.6659C4.32617 22.6161 4.34302 22.5829 4.40958 22.5829H4.59165C5.02311 22.5829 5.23883 22.3506 5.23883 21.9027V18.4181C5.23883 18.3684 5.25567 18.3352 5.32223 18.3352H5.83632C5.88604 18.3352 5.91971 18.3518 5.91971 18.4181V20.4425C5.91971 20.8075 6.18516 20.99 6.64951 20.99H6.73211C6.94785 20.99 7.0473 21.073 7.0473 21.2887C7.0473 21.5708 6.94785 21.6205 6.73211 21.6205H6.5661C6.30065 21.6205 6.06887 21.5376 5.91971 21.3717V21.9027C5.91971 22.7654 5.47141 23.23 4.62532 23.23H4.40958V23.2134Z" fill="#C8C9CA"/>
<path d="M6.73225 21.6205C6.51651 21.6205 6.4668 21.5376 6.4668 21.3219C6.4668 21.0564 6.51651 21.0066 6.73225 21.0066H7.61203C7.82776 21.0066 7.92721 21.073 7.92721 21.3052C7.92721 21.5708 7.82776 21.6371 7.61203 21.6371H6.73225V21.6205Z" fill="#C8C9CA"/>
<path d="M7.62873 21.6205C7.413 21.6205 7.36328 21.5376 7.36328 21.3219C7.36328 21.0564 7.413 21.0066 7.62873 21.0066H8.50771C8.72344 21.0066 8.82289 21.073 8.82289 21.3052C8.82289 21.5708 8.72344 21.6371 8.50771 21.6371H7.62873V21.6205Z" fill="#C8C9CA"/>
<path d="M8.52424 21.6205C8.30851 21.6205 8.25879 21.5376 8.25879 21.3219C8.25879 21.0564 8.30851 21.0066 8.52424 21.0066H9.40322C9.61895 21.0066 9.71837 21.073 9.71837 21.3052C9.71837 21.5708 9.61895 21.6371 9.40322 21.6371H8.52424V21.6205Z" fill="#C8C9CA"/>
<path d="M10.665 21.2221C10.4324 21.5706 10.0347 21.6203 9.73552 21.6203H9.38745C9.17172 21.6203 9.07227 21.5208 9.07227 21.3051C9.07227 21.0396 9.17172 21.0064 9.38745 21.0064H9.78523C10.0178 21.0064 10.2833 20.8239 10.2833 20.2764C10.2833 20.1767 10.2833 20.0772 10.2833 19.9611C10.2833 18.7332 10.8471 18.2189 11.8094 18.2189C12.7718 18.2189 13.3364 18.7332 13.3364 19.9611C13.3364 20.0772 13.3196 20.2099 13.3196 20.3096C13.3196 20.8571 13.585 21.023 13.8176 21.023H14.0494C14.2651 21.023 14.3653 21.106 14.3653 21.3217C14.3653 21.6038 14.2651 21.6535 14.0494 21.6535H13.8673C13.5682 21.6535 13.1535 21.6203 12.9378 21.2719C12.6724 21.5872 12.2746 21.7199 11.7934 21.7199C11.3122 21.6867 10.9305 21.5374 10.665 21.2221ZM10.9633 19.9445C10.9633 20.7077 11.2128 21.0562 11.8263 21.0562C12.4406 21.0562 12.6892 20.7243 12.6892 19.9445C12.6892 19.231 12.4406 18.8162 11.8263 18.8162C11.2128 18.8162 10.9633 19.231 10.9633 19.9445Z" fill="#C8C9CA"/>
<path d="M17.9325 19.4466C17.9325 20.1435 17.4345 20.7242 17.003 20.9731C17.0696 20.9897 17.1522 20.9897 17.2524 20.9897H18.4305C18.6463 20.9897 18.7457 21.0395 18.7457 21.2718C18.7457 21.5373 18.6463 21.6202 18.4305 21.6202H17.3022C16.9204 21.6202 16.5715 21.5705 16.2564 21.3713C15.9083 21.5705 15.4768 21.6202 15.1617 21.6202H14.0662C13.8504 21.6202 13.751 21.5207 13.751 21.3049C13.751 21.0395 13.8504 21.0063 14.0662 21.0063H15.0951C15.2274 21.0063 15.46 21.0063 15.7752 20.9233C15.5931 20.0605 15.1617 19.7784 14.6805 19.4134C14.581 19.3471 14.5642 19.3139 14.5642 19.2474V18.7663C14.5642 18.6999 14.581 18.6335 14.6468 18.6003C14.8962 18.451 15.4929 18.1855 16.2403 18.1855C17.4016 18.2021 17.9325 18.6833 17.9325 19.4466ZM15.2611 19.0318C15.8089 19.3471 16.2403 19.9112 16.4224 20.6744C16.7712 20.4588 17.2187 20.0107 17.2187 19.4964C17.2187 18.9654 16.7873 18.8161 16.2403 18.8161C15.7752 18.8161 15.3774 18.9654 15.2611 19.0318Z" fill="#C8C9CA"/>
<path d="M18.4305 21.6205C18.2148 21.6205 18.165 21.5376 18.165 21.3219C18.165 21.0564 18.2148 21.0066 18.4305 21.0066H19.3095C19.5252 21.0066 19.6246 21.073 19.6246 21.3052C19.6246 21.5708 19.5252 21.6371 19.3095 21.6371H18.4305V21.6205Z" fill="#C8C9CA"/>
<path d="M19.326 21.6205C19.1103 21.6205 19.0605 21.5376 19.0605 21.3219C19.0605 21.0564 19.1103 21.0066 19.326 21.0066H20.205C20.4207 21.0066 20.5202 21.073 20.5202 21.3052C20.5202 21.5708 20.4207 21.6371 20.205 21.6371H19.326V21.6205Z" fill="#C8C9CA"/>
<path d="M20.2058 21.6205C19.9901 21.6205 19.8906 21.5708 19.8906 21.3385C19.8906 21.073 19.9901 20.99 20.2058 20.99H20.7038C20.9693 20.99 21.0856 20.8905 21.0856 20.5586V16.2279C21.0856 16.1781 21.1024 16.145 21.1682 16.145H21.683C21.7328 16.145 21.7657 16.1615 21.7657 16.2279V20.5918C21.7657 21.3053 21.5002 21.6039 20.8201 21.6039H20.2058V21.6205Z" fill="#C8C9CA"/>
<path d="M23.5736 21.5375C23.5736 21.5873 23.5576 21.6204 23.491 21.6204H22.9762C22.9264 21.6204 22.8936 21.6039 22.8936 21.5375V16.2444C22.8936 16.1946 22.9104 16.1614 22.9762 16.1614H23.491C23.5407 16.1614 23.5736 16.178 23.5736 16.2444V21.5375Z" fill="#C8C9CA"/>
<path d="M25.2668 23.2299C25.2171 23.2299 25.1834 23.2133 25.1834 23.147V22.6824C25.1834 22.6326 25.2003 22.5994 25.2668 22.5994H26.2292C26.6606 22.5994 26.9758 22.4335 26.9758 21.8362V21.6204H26.1129C25.1674 21.6204 24.5859 21.2056 24.5859 19.9943C24.5859 18.7665 25.2828 18.2024 26.1297 18.2024C27.0921 18.2024 27.6391 18.7167 27.6391 19.9612V21.8362C27.6391 22.8317 27.0921 23.2465 26.2452 23.2465H25.2668V23.2299ZM25.25 19.9943C25.25 20.7577 25.5483 21.0065 26.1626 21.0065H26.9758V19.9612C26.9758 19.2477 26.7433 18.8329 26.1297 18.8329C25.582 18.8163 25.25 19.2809 25.25 19.9943Z" fill="#C8C9CA"/>
<path d="M31.6875 23.2132C30.8574 23.2132 30.3594 22.8813 30.3594 22.118C30.3594 21.2386 31.0066 20.9897 31.5046 20.9897H32.7653C33.3628 20.9897 33.4623 20.8072 33.4623 20.2264C33.4623 19.3802 33.1968 18.8161 32.3675 18.8161C32.0026 18.8161 31.6875 18.982 31.4549 19.2308C31.422 19.264 31.3883 19.264 31.3386 19.2308L30.9905 18.9488C30.9408 18.9156 30.9408 18.8825 30.9737 18.8327C31.272 18.451 31.7035 18.1855 32.3507 18.1855C33.8279 18.1855 34.176 19.1811 34.176 20.2264C34.176 20.326 34.1592 20.409 34.176 20.4919C34.1928 20.8237 34.4743 20.9897 34.9058 20.9897H34.9892C35.2049 20.9897 35.3044 21.0727 35.3044 21.2884C35.3044 21.5705 35.2049 21.6202 34.9892 21.6202H34.8232C34.4583 21.6202 34.1431 21.4709 34.0268 21.1556C33.844 21.5041 33.5288 21.6202 33.0308 21.6202H31.5214C31.1894 21.6202 31.0731 21.8359 31.0731 22.1014C31.0731 22.4498 31.2223 22.5992 31.7701 22.5992H32.0355C32.0852 22.5992 32.1181 22.6158 32.1181 22.6822V23.1468C32.1181 23.1966 32.1021 23.2297 32.0355 23.2297H31.6875V23.2132ZM32.4999 23.1136C32.4501 23.1136 32.4173 23.097 32.4173 23.0306V22.4498C32.4173 22.4001 32.4341 22.3669 32.4999 22.3669H33.0476C33.0974 22.3669 33.131 22.3835 33.131 22.4498V23.0306C33.131 23.0804 33.1142 23.1136 33.0476 23.1136H32.4999Z" fill="#C8C9CA"/>
<path d="M34.9901 21.6205C34.7743 21.6205 34.7246 21.5376 34.7246 21.3219C34.7246 21.0564 34.7743 21.0066 34.9901 21.0066H35.869C36.0848 21.0066 36.1842 21.073 36.1842 21.3052C36.1842 21.5708 36.0848 21.6371 35.869 21.6371H34.9901V21.6205Z" fill="#C8C9CA"/>
<path d="M35.8856 21.6205C35.6698 21.6205 35.6201 21.5376 35.6201 21.3219C35.6201 21.0564 35.6698 21.0066 35.8856 21.0066H36.7653C36.9811 21.0066 37.0805 21.073 37.0805 21.3052C37.0805 21.5708 36.9811 21.6371 36.7653 21.6371H35.8856V21.6205Z" fill="#C8C9CA"/>
<path d="M36.7821 21.6205C36.5663 21.6205 36.5166 21.5376 36.5166 21.3219C36.5166 21.0564 36.5663 21.0066 36.7821 21.0066H37.6618C37.8776 21.0066 37.977 21.073 37.977 21.3052C37.977 21.5708 37.8776 21.6371 37.6618 21.6371H36.7821V21.6205Z" fill="#C8C9CA"/>
<path d="M38.6238 19.2308C38.5901 19.264 38.5572 19.264 38.5075 19.2308L38.1595 18.9488C38.1089 18.9156 38.1089 18.8825 38.1426 18.8327C38.441 18.451 38.8724 18.1855 39.5196 18.1855C40.9961 18.1855 41.3449 19.1811 41.3449 20.2264C41.3449 20.326 41.3281 20.409 41.3449 20.4919C41.3618 20.8237 41.6433 20.9897 42.0747 20.9897H42.1581C42.3739 20.9897 42.4733 21.0727 42.4733 21.2884C42.4733 21.5705 42.3739 21.6202 42.1581 21.6202H41.9921C41.6272 21.6202 41.3121 21.4709 41.1958 21.1556C41.0129 21.5041 40.6977 21.6202 40.1997 21.6202H37.6783C37.4625 21.6202 37.3623 21.5207 37.3623 21.3049C37.3623 21.0395 37.4625 21.0063 37.6783 21.0063H39.9511C40.5486 21.0063 40.648 20.8237 40.648 20.243C40.648 19.3968 40.3826 18.8327 39.5525 18.8327C39.1716 18.8161 38.8564 18.982 38.6238 19.2308Z" fill="#C8C9CA"/>
<path d="M42.1404 21.6205C41.9246 21.6205 41.8252 21.5708 41.8252 21.3385C41.8252 21.073 41.9246 20.99 42.1404 20.99H42.6384C42.9039 20.99 43.0202 20.8905 43.0202 20.5586V16.2279C43.0202 16.1781 43.0362 16.145 43.1028 16.145H43.6168C43.6665 16.145 43.7002 16.1615 43.7002 16.2279V20.5918C43.7002 21.3053 43.4348 21.6039 42.7547 21.6039H42.1404V21.6205Z" fill="#C8C9CA"/>
<path d="M45.5092 21.5375C45.5092 21.5873 45.4924 21.6204 45.4266 21.6204H44.9117C44.862 21.6204 44.8291 21.6039 44.8291 21.5375V16.2444C44.8291 16.1946 44.8452 16.1614 44.9117 16.1614H45.4266C45.4763 16.1614 45.5092 16.178 45.5092 16.2444V21.5375Z" fill="#C8C9CA"/>
<path d="M48.3633 19.9445C48.3633 18.7166 48.9271 18.1857 49.8895 18.1857C50.8518 18.1857 51.4164 18.7001 51.4164 19.9445C51.4164 21.1724 50.819 21.6868 49.8895 21.6868C48.9439 21.6868 48.3633 21.1724 48.3633 19.9445ZM49.0265 19.9445C49.0265 20.7078 49.2759 21.0562 49.8895 21.0562C50.5038 21.0562 50.7524 20.7244 50.7524 19.9445C50.7524 19.231 50.5038 18.8162 49.8895 18.8162C49.2759 18.8162 49.0265 19.231 49.0265 19.9445ZM49.126 17.5386C49.0762 17.5386 49.0434 17.522 49.0434 17.4556V16.8749C49.0434 16.8251 49.0602 16.7919 49.126 16.7919H49.6737C49.7234 16.7919 49.7571 16.8085 49.7571 16.8749V17.4556C49.7571 17.5054 49.7403 17.5386 49.6737 17.5386H49.126ZM50.1052 17.5386C50.0555 17.5386 50.0226 17.522 50.0226 17.4556V16.8749C50.0226 16.8251 50.0386 16.7919 50.1052 16.7919H50.6529C50.7027 16.7919 50.7355 16.8085 50.7355 16.8749V17.4556C50.7355 17.5054 50.7195 17.5386 50.6529 17.5386H50.1052Z" fill="#C8C9CA"/>
<path d="M51.9477 23.2134C51.8979 23.2134 51.8643 23.1968 51.8643 23.1305V22.6659C51.8643 22.6161 51.8811 22.5829 51.9477 22.5829H52.1297C52.5612 22.5829 52.7769 22.3506 52.7769 21.9027V18.4181C52.7769 18.3684 52.7938 18.3352 52.8603 18.3352H53.3744C53.4241 18.3352 53.457 18.3518 53.457 18.4181V21.9027C53.457 22.7654 53.0095 23.23 52.1634 23.23H51.9477V23.2134Z" fill="#C8C9CA"/>
<path d="M55.2162 21.5375C55.2162 21.5873 55.2002 21.6204 55.1336 21.6204H54.6195C54.5698 21.6204 54.5361 21.6039 54.5361 21.5375V16.2444C54.5361 16.1946 54.553 16.1614 54.6195 16.1614H55.1336C55.1833 16.1614 55.2162 16.178 55.2162 16.2444V21.5375Z" fill="#C8C9CA"/>
<path d="M55.8629 23.2298C55.8132 23.2298 55.7803 23.2132 55.7803 23.1469V22.6823C55.7803 22.6325 55.7971 22.5993 55.8629 22.5993H56.0457C56.4772 22.5993 56.6929 22.3671 56.6929 21.919V18.418C56.6929 18.3682 56.7098 18.335 56.7755 18.335H57.2904C57.3401 18.335 57.373 18.3516 57.373 18.418V21.9025C57.373 22.7653 56.9255 23.2298 56.0786 23.2298H55.8629ZM56.7755 17.5386C56.7258 17.5386 56.6929 17.522 56.6929 17.4556V16.8749C56.6929 16.8251 56.7098 16.7919 56.7755 16.7919H57.3233C57.373 16.7919 57.4067 16.8085 57.4067 16.8749V17.4556C57.4067 17.5054 57.3898 17.5386 57.3233 17.5386H56.7755Z" fill="#C8C9CA"/>
<path d="M59.016 23.2299C58.9663 23.2299 58.9334 23.2133 58.9334 23.147V22.6824C58.9334 22.6326 58.9503 22.5994 59.016 22.5994H59.9784C60.4099 22.5994 60.725 22.4335 60.725 21.8362V21.6204H59.8629C58.9166 21.6204 58.3359 21.2056 58.3359 19.9943C58.3359 18.7665 59.0329 18.2024 59.879 18.2024C60.8413 18.2024 61.3891 18.7167 61.3891 19.9612V21.8362C61.3891 22.8317 60.8413 23.2465 59.9952 23.2465H59.016V23.2299ZM59 19.9943C59 20.7577 59.2983 21.0065 59.9126 21.0065H60.725V19.9612C60.725 19.2477 60.4933 18.8329 59.879 18.8329C59.332 18.8163 59 19.2809 59 19.9943Z" fill="#C8C9CA"/>
<path d="M0.759026 25.8848C0.759026 25.8516 0.775877 25.835 0.808758 25.835H1.10789C1.14077 25.835 1.17365 25.8516 1.17365 25.8848L2.0863 27.9588H2.10317L2.99896 25.8848C3.0158 25.8516 3.03265 25.835 3.06553 25.835H3.36387C3.39755 25.835 3.41358 25.8516 3.41358 25.8848V28.8714C3.41358 28.9046 3.39755 28.9212 3.36387 28.9212H3.08237C3.04868 28.9212 3.03266 28.9046 3.03266 28.8714V26.7309H3.01582L2.25231 28.4234C2.23547 28.4566 2.20259 28.4732 2.16971 28.4732H1.98686C1.95398 28.4732 1.9203 28.4566 1.90426 28.4234L1.14078 26.7309H1.12394V28.8714C1.12394 28.9046 1.10789 28.9212 1.07421 28.9212H0.79192C0.759038 28.9212 0.742188 28.9046 0.742188 28.8714V25.8848H0.759026Z" fill="#C8C9CA"/>
<path d="M4.14453 25.8848C4.14453 25.8516 4.16058 25.835 4.19426 25.835H4.50945C4.54233 25.835 4.55915 25.8516 4.55915 25.8848V28.8714C4.55915 28.9046 4.54233 28.9212 4.50945 28.9212H4.19426C4.16058 28.9212 4.14453 28.9046 4.14453 28.8714V25.8848Z" fill="#C8C9CA"/>
<path d="M5.27246 25.8848C5.27246 25.8516 5.28849 25.835 5.32217 25.835H5.60367C5.63736 25.835 5.67024 25.8516 5.68708 25.8848L7.08091 28.1911H7.09777V25.8848C7.09777 25.8516 7.11379 25.835 7.14748 25.835H7.42898C7.46267 25.835 7.47869 25.8516 7.47869 25.8848V28.8714C7.47869 28.9046 7.46267 28.9212 7.42898 28.9212H7.14748C7.11379 28.9212 7.08091 28.9046 7.06407 28.8714L5.67024 26.5816H5.65419V28.8714C5.65419 28.9046 5.63736 28.9212 5.60367 28.9212H5.32217C5.28849 28.9212 5.27246 28.9046 5.27246 28.8714V25.8848Z" fill="#C8C9CA"/>
<path d="M8.19238 25.8848C8.19238 25.8516 8.20923 25.835 8.24211 25.835H8.55727C8.59096 25.835 8.60701 25.8516 8.60701 25.8848V28.8714C8.60701 28.9046 8.59096 28.9212 8.55727 28.9212H8.24211C8.20923 28.9212 8.19238 28.9046 8.19238 28.8714V25.8848Z" fill="#C8C9CA"/>
<path d="M9.18781 28.5726C9.17177 28.556 9.17177 28.5228 9.18781 28.5063L9.3875 28.274C9.40354 28.2574 9.42038 28.2574 9.45326 28.274C9.65295 28.4399 9.95131 28.5892 10.3162 28.5892C10.7477 28.5892 10.9971 28.3735 10.9971 28.0582C10.9971 27.7928 10.8471 27.6269 10.3499 27.5605L10.1999 27.5439C9.60323 27.4609 9.30409 27.1623 9.30409 26.6977C9.30409 26.1501 9.68584 25.8016 10.3002 25.8016C10.6651 25.8016 10.9971 25.9178 11.2289 26.0838C11.2457 26.1004 11.2625 26.1169 11.2457 26.1501L11.0965 26.399C11.0797 26.4156 11.0628 26.4156 11.03 26.4156C10.7813 26.2497 10.5656 26.1833 10.2833 26.1833C9.90157 26.1833 9.70268 26.3824 9.70268 26.6811C9.70268 26.9465 9.8687 27.0959 10.3499 27.1789L10.4991 27.1955C11.0965 27.2784 11.3949 27.5439 11.3949 28.0582C11.3949 28.5892 11.0131 28.9875 10.2833 28.9875C9.81897 28.9543 9.42039 28.7718 9.18781 28.5726Z" fill="#C8C9CA"/>
<path d="M12.656 28.9046C12.6223 28.9046 12.6054 28.888 12.6054 28.8548V26.2332C12.6054 26.2166 12.5894 26.2 12.5726 26.2H11.7265C11.6936 26.2 11.6768 26.1834 11.6768 26.1502V25.8848C11.6768 25.8516 11.6936 25.835 11.7265 25.835H13.867C13.8998 25.835 13.9167 25.8516 13.9167 25.8848V26.1668C13.9167 26.2 13.8998 26.2166 13.867 26.2166H13.0209C13.004 26.2166 12.9872 26.2332 12.9872 26.2497V28.8714C12.9872 28.9046 12.9711 28.9212 12.9375 28.9212H12.656V28.9046Z" fill="#C8C9CA"/>
<path d="M16.1571 28.9047C16.1242 28.9047 16.1074 28.8881 16.0905 28.8549L15.477 27.5939H14.7961C14.7801 27.5939 14.7633 27.6105 14.7633 27.6271V28.8549C14.7633 28.8881 14.7464 28.9047 14.7135 28.9047H14.3984C14.3655 28.9047 14.3486 28.8881 14.3486 28.8549V25.8683C14.3486 25.8351 14.3655 25.8185 14.3984 25.8185H15.5099C16.0905 25.8185 16.4723 26.1669 16.4723 26.6979C16.4723 27.1127 16.2397 27.4114 15.8748 27.5276L16.522 28.8218C16.5388 28.8549 16.5388 28.8715 16.4891 28.8715H16.1571V28.9047ZM15.5267 27.2289C15.8916 27.2289 16.0905 27.0464 16.0905 26.7145C16.0905 26.3827 15.8748 26.2001 15.5267 26.2001H14.813C14.7961 26.2001 14.7801 26.2167 14.7801 26.2333V27.1957C14.7801 27.2123 14.7961 27.2289 14.813 27.2289H15.5267Z" fill="#C8C9CA"/>
<path d="M17.7836 28.9046C17.75 28.9046 17.7339 28.888 17.7339 28.8548V27.6436L16.8373 25.8848C16.8213 25.8516 16.8373 25.835 16.871 25.835H17.1862C17.2191 25.835 17.2359 25.8516 17.2527 25.8848L17.9328 27.1956H17.9497L18.6298 25.8848C18.6466 25.8516 18.6626 25.835 18.6963 25.835H19.0115C19.0444 25.835 19.0612 25.8516 19.0444 25.8848L18.1317 27.6436V28.8548C18.1317 28.888 18.1149 28.9046 18.082 28.9046H17.7836Z" fill="#C8C9CA"/>
<path d="M20.4205 28.2408C20.3547 28.0582 20.3379 27.8923 20.3379 27.378C20.3379 26.8636 20.3547 26.6977 20.4205 26.5152C20.5865 26.034 20.9354 25.8016 21.4663 25.8016C21.9972 25.8016 22.3621 26.0506 22.5113 26.5152C22.5778 26.6977 22.5947 26.8802 22.5947 27.378C22.5947 27.8923 22.5778 28.0582 22.5113 28.2408C22.3453 28.722 21.9972 28.9543 21.4663 28.9543C20.9354 28.9543 20.5865 28.7054 20.4205 28.2408ZM22.1295 28.1247C22.1632 28.0085 22.1961 27.826 22.1961 27.378C22.1961 26.9299 22.1632 26.7309 22.1295 26.6313C22.0301 26.3326 21.8143 26.1833 21.4823 26.1833C21.1343 26.1833 20.9354 26.3492 20.8359 26.6313C20.8022 26.7474 20.7694 26.9465 20.7694 27.378C20.7694 27.826 20.8022 28.0251 20.8359 28.1247C20.9354 28.4233 21.1343 28.5726 21.4823 28.5726C21.8143 28.5892 22.0301 28.4233 22.1295 28.1247Z" fill="#C8C9CA"/>
<path d="M23.2258 25.8848C23.2258 25.8516 23.2427 25.835 23.2756 25.835H25.1169C25.1506 25.835 25.1674 25.8516 25.1674 25.8848V26.1668C25.1674 26.2 25.1506 26.2166 25.1169 26.2166H23.6573C23.6404 26.2166 23.6236 26.2332 23.6236 26.2497V27.179C23.6236 27.1956 23.6404 27.2121 23.6573 27.2121H24.902C24.9348 27.2121 24.9517 27.2287 24.9517 27.2619V27.544C24.9517 27.5772 24.9348 27.5938 24.902 27.5938H23.6573C23.6404 27.5938 23.6236 27.6104 23.6236 27.627V28.888C23.6236 28.9212 23.6076 28.9378 23.5739 28.9378H23.2587C23.2258 28.9378 23.209 28.9212 23.209 28.888V25.8848H23.2258Z" fill="#C8C9CA"/>
<path d="M26.7607 25.8848C26.7607 25.8516 26.7768 25.835 26.8104 25.835H27.1256C27.1585 25.835 27.1754 25.8516 27.1754 25.8848V27.1458C27.1754 27.1624 27.1922 27.179 27.2082 27.179H28.5363C28.5524 27.179 28.5692 27.1624 28.5692 27.1458V25.8848C28.5692 25.8516 28.586 25.835 28.6189 25.835H28.9341C28.967 25.835 28.9838 25.8516 28.9838 25.8848V28.8714C28.9838 28.9046 28.967 28.9212 28.9341 28.9212H28.6189C28.586 28.9212 28.5692 28.9046 28.5692 28.8714V27.5772C28.5692 27.5606 28.5524 27.544 28.5363 27.544H27.2082C27.1922 27.544 27.1754 27.5606 27.1754 27.5772V28.8714C27.1754 28.9046 27.1585 28.9212 27.1256 28.9212H26.8104C26.7768 28.9212 26.7607 28.9046 26.7607 28.8714V25.8848Z" fill="#C8C9CA"/>
<path d="M30.4759 25.8848C30.4927 25.8516 30.5096 25.835 30.5256 25.835H30.8247C30.8576 25.835 30.8745 25.8516 30.8905 25.8848L31.9363 28.8714C31.9531 28.9046 31.9363 28.9212 31.9034 28.9212H31.5874C31.5545 28.9212 31.5377 28.9046 31.5217 28.8714L31.2891 28.2077H30.0444L29.8126 28.8714C29.7958 28.9046 29.779 28.9212 29.7461 28.9212H29.4469C29.4141 28.9212 29.4141 28.9046 29.4141 28.8714L30.4759 25.8848ZM31.156 27.8261L30.6748 26.4323H30.6587L30.1775 27.8261H31.156Z" fill="#C8C9CA"/>
<path d="M32.1693 28.5728L32.4011 28.3736C32.4179 28.357 32.4508 28.357 32.4677 28.3902C32.5671 28.4732 32.7163 28.5728 32.916 28.5728C33.2809 28.5728 33.4798 28.357 33.4798 27.909V25.8848C33.4798 25.8516 33.4966 25.835 33.5295 25.835H33.8447C33.8783 25.835 33.8944 25.8516 33.8944 25.8848V27.9256C33.8944 28.6226 33.5126 28.9544 32.916 28.9544C32.6 28.9544 32.3345 28.8216 32.1854 28.6392C32.1525 28.6226 32.1525 28.606 32.1693 28.5728Z" fill="#C8C9CA"/>
<path d="M34.3597 28.5728L34.5915 28.3736C34.6084 28.357 34.6412 28.357 34.6581 28.3902C34.7575 28.4732 34.9067 28.5728 35.1064 28.5728C35.4713 28.5728 35.6702 28.357 35.6702 27.909V25.8848C35.6702 25.8516 35.687 25.835 35.7199 25.835H36.0351C36.0688 25.835 36.0848 25.8516 36.0848 25.8848V27.9256C36.0848 28.6226 35.7031 28.9544 35.1064 28.9544C34.7912 28.9544 34.5258 28.8216 34.3758 28.6392C34.3429 28.6226 34.3429 28.606 34.3597 28.5728Z" fill="#C8C9CA"/>
<path d="M38.6236 25.8848C38.6404 25.8516 38.6565 25.835 38.6733 25.835H38.9716C39.0053 25.835 39.0214 25.8516 39.0382 25.8848L40.084 28.8714C40.1 28.9046 40.084 28.9212 40.0503 28.9212H39.7351C39.7022 28.9212 39.6854 28.9046 39.6685 28.8714L39.4368 28.2077H38.1921L37.9595 28.8714C37.9435 28.9046 37.9267 28.9212 37.8938 28.9212H37.5778C37.5449 28.9212 37.5449 28.9046 37.5449 28.8714L38.6236 25.8848ZM39.3205 27.8261L38.8393 26.4323H38.8225L38.3413 27.8261H39.3205Z" fill="#C8C9CA"/>
<path d="M40.5479 25.8848C40.5479 25.8516 40.5647 25.835 40.5976 25.835H40.8799C40.9128 25.835 40.9456 25.8516 40.9625 25.8848L42.3563 28.1911H42.3732V25.8848C42.3732 25.8516 42.3892 25.835 42.4229 25.835H42.7052C42.7381 25.835 42.7549 25.8516 42.7549 25.8848V28.8714C42.7549 28.9046 42.7381 28.9212 42.7052 28.9212H42.4229C42.3892 28.9212 42.3563 28.9046 42.3395 28.8714L40.9456 26.5816H40.9296V28.8714C40.9296 28.9046 40.9128 28.9212 40.8799 28.9212H40.5976C40.5647 28.9212 40.5479 28.9046 40.5479 28.8714V25.8848Z" fill="#C8C9CA"/>
<path d="M43.4854 25.8848C43.4854 25.8516 43.5022 25.835 43.5351 25.835H44.564C45.0949 25.835 45.4269 26.0507 45.5593 26.4821C45.609 26.648 45.6427 26.8139 45.6427 27.3615C45.6427 27.909 45.609 28.075 45.5593 28.2409C45.4269 28.6723 45.0949 28.888 44.564 28.888H43.5351C43.5022 28.888 43.4854 28.8714 43.4854 28.8382V25.8848ZM43.8831 28.5064C43.8831 28.523 43.9 28.5396 43.9168 28.5396H44.4806C44.8623 28.5396 45.0781 28.4234 45.1775 28.1248C45.2112 28.0086 45.2441 27.8592 45.2441 27.3781C45.2441 26.8969 45.2112 26.7475 45.1775 26.6314C45.0781 26.3162 44.8623 26.2166 44.4806 26.2166H43.9168C43.9 26.2166 43.8831 26.2332 43.8831 26.2497V28.5064Z" fill="#C8C9CA"/>
<path d="M47.3018 27.8427V25.8848C47.3018 25.8516 47.3178 25.835 47.3515 25.835H47.6667C47.6996 25.835 47.7164 25.8516 47.7164 25.8848V27.8427C47.7164 28.3404 47.9819 28.5894 48.3965 28.5894C48.8111 28.5894 49.0766 28.3404 49.0766 27.8427V25.8848C49.0766 25.8516 49.0934 25.835 49.1263 25.835H49.4414C49.4751 25.835 49.492 25.8516 49.492 25.8848V27.8427C49.492 28.5728 49.0766 28.9544 48.4133 28.9544C47.6996 28.9544 47.3018 28.5562 47.3018 27.8427Z" fill="#C8C9CA"/>
<path d="M50.1721 25.8848C50.1721 25.8516 50.189 25.835 50.2218 25.835H50.5202C50.5538 25.835 50.5867 25.8516 50.5867 25.8848L51.4994 27.9588H51.5162L52.412 25.8848C52.4289 25.8516 52.4449 25.835 52.4786 25.835H52.7769C52.8106 25.835 52.8267 25.8516 52.8267 25.8848V28.8714C52.8267 28.9046 52.8106 28.9212 52.7769 28.9212H52.4946C52.4618 28.9212 52.4449 28.9046 52.4449 28.8714V26.7309H52.4289L51.6654 28.4234C51.6486 28.4566 51.6157 28.4732 51.582 28.4732H51.3999C51.3671 28.4732 51.3334 28.4566 51.3165 28.4234L50.5538 26.7309H50.537V28.8714C50.537 28.9046 50.5202 28.9212 50.4873 28.9212H50.205C50.1721 28.9212 50.1553 28.9046 50.1553 28.8714V25.8848H50.1721Z" fill="#C8C9CA"/>
<path d="M55.3485 28.9047C55.3156 28.9047 55.2988 28.8881 55.2819 28.8549L54.6684 27.5939H53.9875C53.9715 27.5939 53.9547 27.6105 53.9547 27.6271V28.8549C53.9547 28.8881 53.9378 28.9047 53.9049 28.9047H53.5897C53.5569 28.9047 53.54 28.8881 53.54 28.8549V25.8683C53.54 25.8351 53.5569 25.8185 53.5897 25.8185H54.7013C55.2819 25.8185 55.6637 26.1669 55.6637 26.6979C55.6637 27.1127 55.4311 27.4114 55.0662 27.5276L55.7134 28.8218C55.7302 28.8549 55.7302 28.8715 55.6805 28.8715H55.3485V28.9047ZM54.7013 27.2289C55.0662 27.2289 55.2659 27.0464 55.2659 26.7145C55.2659 26.3827 55.0502 26.2001 54.7013 26.2001H53.9875C53.9715 26.2001 53.9547 26.2167 53.9547 26.2333V27.1957C53.9547 27.2123 53.9715 27.2289 53.9875 27.2289H54.7013Z" fill="#C8C9CA"/>
<path d="M57.1246 25.8848C57.1414 25.8516 57.1574 25.835 57.1743 25.835H57.4726C57.5063 25.835 57.5223 25.8516 57.5392 25.8848L58.585 28.8714C58.601 28.9046 58.585 28.9212 58.5513 28.9212H58.2361C58.2032 28.9212 58.1864 28.9046 58.1695 28.8714L57.9378 28.2077H56.6931L56.4605 28.8714C56.4445 28.9046 56.4276 28.9212 56.394 28.9212H56.0788C56.0459 28.9212 56.0459 28.9046 56.0459 28.8714L57.1246 25.8848ZM57.8046 27.8261L57.3234 26.4323H57.3066L56.8254 27.8261H57.8046Z" fill="#C8C9CA"/>
<path d="M59.0322 25.8848C59.0322 25.8516 59.0491 25.835 59.0819 25.835H59.3971C59.4308 25.835 59.4468 25.8516 59.4468 25.8848V27.1458C59.4468 27.1624 59.4637 27.179 59.4805 27.179H60.8078C60.8246 27.179 60.8407 27.1624 60.8407 27.1458V25.8848C60.8407 25.8516 60.8575 25.835 60.8904 25.835H61.2056C61.2393 25.835 61.2561 25.8516 61.2561 25.8848V28.8714C61.2561 28.9046 61.2393 28.9212 61.2056 28.9212H60.8904C60.8575 28.9212 60.8407 28.9046 60.8407 28.8714V27.5772C60.8407 27.5606 60.8246 27.544 60.8078 27.544H59.4805C59.4637 27.544 59.4468 27.5606 59.4468 27.5772V28.8714C59.4468 28.9046 59.4308 28.9212 59.3971 28.9212H59.0819C59.0491 28.9212 59.0322 28.9046 59.0322 28.8714V25.8848Z" fill="#C8C9CA"/>
<g opacity="0.2">
<path d="M77.2686 15.9789L76.9863 15.4148C84.055 11.8142 86.8258 6.4216 86.8427 6.35522C86.7264 6.58752 84.5193 12.2789 77.2686 15.9789Z" fill="#C8C9CA"/>
</g>
<g opacity="0.2">
<path d="M98.6395 14.7677C91.8034 11.6317 89.995 6.55433 89.8955 6.35522C89.9123 6.405 92.2846 11.1671 98.9049 14.2036L98.6395 14.7677Z" fill="#C8C9CA"/>
</g>
<path d="M72.4234 18.4678H72.2734L72.3071 14.585L72.4066 14.5021C72.4892 14.4357 81.566 11.8307 88.2032 0.381728L88.4518 -0.0496826L88.7004 0.381728C95.2381 11.8307 104.862 14.4357 104.961 14.5021L105.078 14.585V18.4678H104.928L104.497 14.8672C103.402 14.0043 94.6407 13.4567 88.4349 2.82085C82.1635 13.4567 73.883 14.0043 72.8549 14.8506L72.4234 18.4678Z" fill="#C8C9CA"/>
<path d="M73.0039 45.1322C73.0039 45.1322 76.1733 42.2284 77.5503 40.984C80.5698 40.4862 89.4966 39.0592 103.899 28.6058C98.0257 35.1101 88.1525 42.411 73.0039 45.1322Z" fill="#C8C9CA"/>
<path d="M89.082 40.2707C93.3798 42.3282 98.3577 44.0207 104.098 45.0494C104.098 45.0494 100.93 42.1457 99.5519 40.9012C98.158 40.669 95.5203 40.2541 91.6708 38.8271C91.2554 39.1258 90.4759 39.5739 89.082 40.2707Z" fill="#C8C9CA"/>
<path d="M88.236 37.4331C84.1876 35.6245 79.176 32.8369 73.2197 28.5228C76.256 31.8911 80.3541 35.4586 85.6969 38.4951C86.3112 38.2462 87.2071 37.8811 88.236 37.4331Z" fill="#C8C9CA"/>
<path d="M101.593 25.5697C101.593 25.5697 99.3034 27.6935 97.5278 28.0751C95.7522 28.4568 93.5291 28.3738 91.6541 28.6558C89.7791 28.938 88.6844 30.7963 88.6844 30.7963C88.6844 30.7963 87.5889 28.938 85.7138 28.6558C83.8388 28.3738 81.6157 28.4402 79.8401 28.0751C78.0646 27.6935 75.7749 25.5697 75.7749 25.5697C75.7749 25.5697 73.535 24.9889 72.2734 25.2875C72.6552 25.6029 73.3689 26.1338 73.3521 26.1338C79.4584 30.5641 84.5694 33.3682 88.6844 35.1768C92.7496 33.3848 97.8269 30.5972 103.867 26.2334C104.215 25.9678 104.663 25.636 105.078 25.2875C103.817 24.9889 101.593 25.5697 101.593 25.5697Z" fill="#C8C9CA"/>
<path d="M93.0307 18.733V28.1245C92.5663 28.1577 92.0851 28.2075 91.6537 28.2739C90.1604 28.4896 89.1651 29.734 88.8163 30.2152L88.6839 30.3978C88.4177 30.0161 87.9702 28.9708 86.8249 28.5062C86.6092 28.4232 86.2275 28.3734 86.1777 28.3568V20.691L93.0307 18.733Z" fill="#C8C9CA"/>
<path d="M93.0307 15.9457L86.1777 17.8704V20.2266L93.0307 18.3018V15.9457Z" fill="#C8C9CA"/>
<path d="M99.8513 20.3757V26.6146C99.8513 26.6146 98.1086 27.5603 97.0299 27.7761C96.1341 27.9586 94.3754 28.0084 93.0312 28.1245V18.733L99.8513 20.3757Z" fill="#C8C9CA"/>
<path d="M93.0312 15.9457V17.8372V18.3018L99.8513 19.9611V17.7211L93.0312 15.9457Z" fill="#C8C9CA"/>
<path d="M85.9298 23.1471H77.833V24.657H85.9298V23.1471Z" fill="#C8C9CA"/>
<path d="M85.9294 21.4049H78.1807V22.9148H85.9294V21.4049Z" fill="#C8C9CA"/>
<path d="M85.9294 24.8724V28.274C85.9125 28.274 85.8965 28.274 85.8796 28.2574C84.0046 27.9753 81.6316 28.0417 79.8568 27.6766C79.8071 27.66 79.7405 27.6434 79.6908 27.6434C79.641 27.6268 79.5745 27.6102 79.5248 27.5936C78.8607 27.378 78.1478 26.9631 77.5166 26.5483V24.8724H85.9294Z" fill="#C8C9CA"/>
<path d="M85.033 13.6558V13.5563C85.0995 13.5065 85.1492 13.4234 85.1492 13.3405C85.1492 13.241 85.0827 13.1414 84.9993 13.1082L84.9832 12.8427C85.0658 12.8095 85.1156 12.7266 85.1156 12.6436C85.1156 12.5441 85.0498 12.4611 84.9495 12.428L84.9335 12.1624C85.0161 12.1458 85.0827 12.0795 85.0827 11.9799C85.0827 11.8804 84.9993 11.7974 84.9167 11.7974L84.8838 11.4158L84.8501 11.7974C84.7675 11.814 84.7009 11.8804 84.7009 11.9799C84.7009 12.0629 84.7507 12.1293 84.8341 12.1624L84.8172 12.428C84.7338 12.4611 84.6681 12.5441 84.6681 12.6436C84.6681 12.7266 84.7178 12.8095 84.7835 12.8427L84.7675 13.1248C84.6841 13.1746 84.6183 13.2575 84.6183 13.3571C84.6183 13.4567 84.6681 13.5231 84.7338 13.5729V13.6724C84.7338 13.6724 84.4026 14.7841 81.3495 16.4268C79.375 17.4887 78.7607 19.1977 78.5786 20.2597C78.4784 20.8404 78.4952 21.2387 78.4952 21.2387H85.9288V20.9068V20.2431V17.6546L88.617 16.8416C86.0948 15.3317 85.033 13.6558 85.033 13.6558Z" fill="#C8C9CA"/>
</svg>
