<svg width="32" height="32" viewBox="0 0 32 32" fill="none" xmlns="http://www.w3.org/2000/svg">
<path d="M13.2461 28.7497V16.5892L12.8498 17.2203H20.146L18.7551 15.4084V27.5689C18.7551 28.1785 19.2089 28.9056 19.7136 29.2284C20.2181 29.5513 20.5433 29.2951 20.5433 28.7497V16.5892C20.5433 15.9423 19.8987 14.7773 19.1525 14.7773H11.8552C11.512 14.7773 11.459 15.1499 11.459 15.4084V27.5689C11.459 28.1785 11.9128 28.9056 12.4174 29.2284C12.9221 29.5513 13.2461 29.2951 13.2461 28.7497Z" fill="#B49164"/>
<path d="M5.73186 13.5244C8.92215 11.0431 12.1113 8.56174 15.3016 6.08153C15.7599 5.7248 16.2183 5.36918 16.6755 5.01245L16.0624 4.9086C19.2528 7.38993 22.4419 9.87126 25.6322 12.3515C26.0906 12.7082 26.549 13.0638 27.0062 13.4205L26.0476 11.7611V24.2479C26.0476 24.6261 26.0906 25.0313 26.0048 25.4039C25.5983 27.1684 23.7075 26.9381 22.3415 26.9381C18.292 26.9381 14.2427 26.9381 10.1944 26.9381C9.12987 26.9381 8.06193 26.964 6.99737 26.9381C6.73885 26.9324 6.50629 26.8975 6.26695 26.7891C6.15519 26.7383 5.99377 26.6728 5.93054 26.5621C5.90345 26.5148 5.97006 26.5881 5.95763 26.5464C5.9249 26.4267 5.94747 26.2439 5.94747 26.114C5.94409 25.5269 5.94747 24.9399 5.94747 24.3529C5.94747 20.6388 5.94747 16.9247 5.94747 13.2106V12.9419C5.94747 12.3323 5.49366 11.6053 4.98903 11.2824C4.48442 10.9595 4.15929 11.2158 4.15929 11.7611V24.8327C4.15929 26.6559 5.23739 28.7003 7.08767 29.2444C7.72551 29.4319 8.41414 29.3811 9.0723 29.3811C11.6406 29.3811 14.2088 29.3811 16.7759 29.3811C19.3431 29.3811 21.7206 29.3811 24.194 29.3811C25.1163 29.3811 26.0183 29.3856 26.7792 28.7399C27.7568 27.91 27.8359 26.7732 27.8359 25.6003V14.0167C27.8359 12.9362 27.863 12.0602 26.8695 11.2745C23.3643 8.50529 19.8162 5.78801 16.2894 3.0459C16.1708 2.95333 16.0523 2.86076 15.9338 2.76932C15.8084 2.67222 15.4788 2.54241 15.3208 2.66545C12.1305 5.1468 8.94134 7.62813 5.75105 10.1083C5.29271 10.4651 4.83438 10.8207 4.37717 11.1774C3.59935 11.7825 5.03419 14.0673 5.73186 13.5244Z" fill="#B49164"/>
</svg>
