<svg width="32" height="32" viewBox="0 0 32 32" fill="none" xmlns="http://www.w3.org/2000/svg">
<path d="M21.7704 3.57144C16.4456 0.60777 9.56695 1.70358 5.54404 6.3275C-2.33593 15.385 5.59022 30.8991 17.4996 30.0482C24.4496 29.5519 29.4543 23.7469 29.6214 16.9315C29.4901 11.5747 26.5053 6.20682 21.7704 3.57132V3.57144ZM17.7758 27.3968C10.9947 28.7326 3.86584 24.1946 3.87927 16.9316C3.89045 10.9716 8.32201 5.72524 14.1444 4.57908C21.0627 3.21719 27.8633 7.80691 28.0408 15.0443C27.8943 21.0161 23.6961 26.2308 17.7758 27.3968Z" fill="#B49164"/>
<path d="M23.0337 10.6257C23.0335 10.623 23.0333 10.6201 23.0329 10.6174C23.0268 10.518 23.0037 10.4093 22.9624 10.2924C22.7363 9.51993 22.04 8.32748 21.5409 8.48248C19.9412 8.97885 18.3416 9.47545 16.7421 9.97182C15.6153 10.3214 14.4886 10.6712 13.3619 11.0208C12.9873 11.1371 12.1875 11.2242 11.9073 11.5107C11.6541 11.7701 11.5814 12.495 11.4785 12.826C11.1356 13.9312 10.7927 15.0361 10.4497 16.1413C9.93072 17.8135 9.41166 19.4856 8.89271 21.1581C8.73252 21.6745 9.69377 23.7001 10.3688 23.4907C11.9684 22.9941 13.5681 22.4977 15.1676 22.0014C16.2944 21.6517 17.4211 21.302 18.5479 20.9524C18.9224 20.8361 19.7222 20.749 20.0024 20.4625C20.2558 20.203 20.3283 19.4782 20.4312 19.1472C20.7741 18.042 21.117 16.9371 21.46 15.8319C21.9735 14.1775 22.4869 12.5229 23.0004 10.8686C23.0265 10.8298 23.036 10.7671 23.0347 10.6904C23.0356 10.6696 23.035 10.6478 23.0338 10.6257H23.0337ZM20.0475 13.1626C19.7097 14.2509 19.3719 15.3392 19.0343 16.4272C18.9158 16.8089 18.7167 17.9262 18.5175 18.1209C18.353 18.2816 17.3062 18.4701 16.9769 18.5722C15.9058 18.9046 14.8346 19.237 13.7635 19.5694C12.9754 19.8141 12.1874 20.0587 11.3991 20.3032C11.5536 19.8057 11.7079 19.3082 11.8624 18.8103C12.2001 17.7223 12.5379 16.6339 12.8755 15.5459C12.9941 15.1642 13.1931 14.047 13.3923 13.8523C13.5568 13.6916 14.6036 13.5031 14.9329 13.4009C16.004 13.0686 17.0752 12.7361 18.1463 12.4038C18.9344 12.159 19.7225 11.9145 20.5108 11.67C20.3562 12.1675 20.2019 12.6651 20.0475 13.1626Z" fill="#B49164"/>
</svg>
