<svg width="225" height="160" viewBox="0 0 225 160" fill="none" xmlns="http://www.w3.org/2000/svg">
<g clip-path="url(#clip0_2196_49938)">
<path d="M2.24452 122.37C2.22999 122.106 2.21322 121.845 2.19869 121.587C2.15957 120.906 2.20652 121.705 2.24452 122.37ZM0 94.4664V73.9607C0.782453 85.6804 1.6085 97.4028 1.67557 109.131C1.76723 113.006 1.96619 117.447 2.18528 121.328C1.822 114.887 1.12338 107.68 0.639376 102.041C0.387873 99.5192 0.177729 96.9942 0.00111779 94.4655L0 94.4664ZM5.3341 198.762H4.41192C4.70031 169.829 2.24564 122.379 2.24564 122.37C2.73188 130.572 6.65979 169.855 5.3341 198.762Z" fill="#6E583D"/>
<path opacity="0.97" d="M11.6865 198.762C9.81755 176.045 7.68146 152.787 6.74475 130.185C5.49394 108.849 4.00169 101.718 3.1354 87.5797C2.2054 73.3626 2.18416 59.1124 1.0742 44.9036C0.70309 40.1673 0.343162 35.4292 0.0737742 30.6884C0.0491828 30.1814 0.0245914 29.6734 0 29.1655V1.18405C0.00335337 1.25307 0.00670674 1.323 0.0111779 1.39201C1.90472 38.3711 0.957946 44.6772 2.78442 66.2136C4.0464 80.3064 5.05353 94.7287 5.46711 108.858C6.18585 128.097 10.4782 159.86 12.3751 198.762H11.6854H11.6865Z" fill="#6E583D"/>
<path opacity="0.94" d="M4.75993 53.663C4.43354 48.7427 3.85788 42.6629 3.39623 37.6708C2.29297 25.2169 1.63906 12.5669 1.20312 -0.00210571H1.85256C3.04413 14.8941 4.04008 29.9145 4.54308 44.7536C5.32777 63.7456 8.16472 82.6317 8.90917 101.627C9.12826 105.65 9.42559 111.888 9.72628 115.862C10.2773 123.692 10.6116 124.426 8.07083 101.674C6.1024 85.7862 5.79613 69.6072 4.75993 53.663ZM10.2237 121.968C10.1902 121.582 10.1533 121.196 10.1197 120.81C10.1544 121.192 10.189 121.577 10.2237 121.968ZM18.7882 198.762C12.6091 164.023 11.3247 134.419 10.2248 121.968C10.2472 122.213 15.5891 171.71 19.5092 198.762H18.7893H18.7882Z" fill="#6E583D"/>
<path opacity="0.91" d="M25.8817 198.762C18.3791 172.413 15.5086 134.966 15.0682 130.164C14.4154 123.103 13.6564 115.874 12.7365 108.823C9.5452 87.5539 9.24675 66.0424 7.07488 44.7141C5.36354 29.9283 4.18986 14.9116 3.19727 -0.00117493H3.88694C7.3465 30.5687 7.14977 43.8435 8.67667 58.9403C10.1007 73.1059 11.9149 87.4674 12.6795 101.662C12.9533 105.701 13.3222 111.932 13.6877 115.925C13.7 116.073 19.0118 167.598 26.7212 198.762H25.8828H25.8817Z" fill="#6E583D"/>
<path opacity="0.88" d="M33.0889 198.761C24.2594 175.873 20.7216 144.649 18.9075 126.858C18.3743 122.248 17.7673 117.191 17.1436 112.59C12.8435 83.2667 13.0335 75.4339 11.6172 59.0001C10.4983 44.9781 10.6258 53.0032 5.23242 -0.00117493H5.92769C9.9562 27.6618 10.3329 44.8134 11.9559 58.978C14.2217 79.9871 14.2552 73.2844 17.3459 112.575C18.0837 120.889 23.8492 169.408 34.0356 198.762H33.0889V198.761Z" fill="#6E583D"/>
<path opacity="0.85" d="M40.2966 198.762C31.2861 180.336 26.3175 153.975 23.608 130.86C22.8636 125.073 22.0084 118.724 21.15 112.947C16.5 84.0139 16.5246 75.0263 14.9384 59.1105C14.441 53.7578 9.8603 19.2641 7.26367 -0.00117493H7.99694C12.6682 26.1242 13.5591 45.5965 15.2782 59.0857C17.3551 76.2667 18.3019 78.524 21.008 109.336C22.2443 123.309 29.4473 172.616 41.0344 198.762H40.2966Z" fill="#6E583D"/>
<path opacity="0.82" d="M47.5263 198.762C31.7957 172.091 27.8454 129.852 25.7864 117.031C20.9553 87.0708 22.9908 103.367 18.2995 59.2817C17.6243 52.7115 12.9609 21.3879 9.35938 -0.00117493H10.0837C12.497 11.4065 15.1093 26.6423 16.8944 44.8042C18.9109 64.0474 22.5225 83.2989 24.2506 102.562C24.8374 108.152 25.5237 115.1 26.3688 120.628C27.4855 128.455 34.8137 173.819 48.3725 198.762H47.5263Z" fill="#6E583D"/>
<path opacity="0.79" d="M54.806 198.762C37.2556 173.504 33.0382 135.02 29.962 117.645C23.4062 82.0916 24.0668 78.2958 21.706 59.5016C20.9593 53.1927 16.1808 22.9651 11.4961 -0.00117493H12.235C14.731 10.1035 17.8731 25.3034 20.093 44.9229C22.4102 64.2968 26.2107 83.6789 28.2071 103.079C29.4769 114.129 30.3733 121.17 32.5877 132.119C36.5089 149.481 42.6131 179.336 55.6253 198.762H54.806Z" fill="#6E583D"/>
<path opacity="0.76" d="M22.8411 45.118C19.9426 30.1243 17.337 14.9438 13.7109 -0.00117493H14.4174C17.9965 12.6074 21.1934 28.0088 23.3306 45.0656C26.4034 68.2288 27.462 67.4429 33.1851 111.016C33.7261 115.053 34.2716 118.434 34.6181 120.459C34.38 119.199 34.0167 117.316 33.4981 114.707C26.2704 79.3614 27.1311 68.2914 22.8411 45.118ZM34.6181 120.459C35.0462 122.958 35.1725 123.395 34.6181 120.459V120.459ZM62.1314 198.762C43.6644 175.986 38.242 140.111 35.3737 124.581C37.5925 136.209 46.5852 178.057 62.9708 198.762H62.1303H62.1314ZM34.9881 122.498C35.2944 124.147 35.5403 125.475 35.2306 123.826C35.149 123.39 35.0686 122.947 34.9881 122.498Z" fill="#6E583D"/>
<path opacity="0.73" d="M69.5426 198.762C47.6764 174.947 42.1188 136.724 38.4949 119.142C37.5146 114.385 36.3756 109.18 35.4389 104.438C32.3515 89.8084 30.7452 74.7944 28.6404 60.0473C27.7786 54.0163 22.5474 23.97 15.873 -0.00117493H16.6533C22.7709 18.9862 25.6079 38.038 26.6117 45.2238C29.5269 64.9142 33.7018 84.6175 36.2705 104.34C37.3089 111.674 38.4401 119.222 40.0263 126.491C41.0669 131.42 50.6743 176.605 70.4335 198.762H69.5415H69.5426Z" fill="#6E583D"/>
<path opacity="0.7" d="M76.9065 198.762C54.3372 177.244 47.6606 141.494 42.8575 119.995C41.7844 115.193 40.5604 109.957 39.5477 105.164C36.2368 90.4065 34.4618 75.2389 32.1658 60.3537C31.6651 57.1036 26.1264 25.2205 18.1309 -0.00210571H18.9379C24.8532 16.394 28.1317 33.7793 29.9358 45.3895C33.1417 65.2621 37.5089 85.1522 40.3794 105.06C41.7095 113.73 43.2543 122.544 45.4239 131.1C53.861 164.378 64.4767 185.641 77.9148 198.762H76.9065Z" fill="#6E583D"/>
<path opacity="0.67" d="M84.3651 198.762C59.9604 177.918 52.5103 142.505 47.2868 120.895C39.4366 89.8139 38.6139 77.4795 35.73 60.6721C35.1991 57.4523 29.3854 25.1745 20.4219 -0.00117493H21.2669C25.2664 10.0087 29.7543 24.5819 33.2955 45.5569C36.7919 65.6255 41.3503 85.7181 44.5404 105.82C45.808 113.283 47.2209 120.989 49.1211 128.366C60.1224 171.791 76.6065 191.123 85.2369 198.762H84.3651Z" fill="#6E583D"/>
<path opacity="0.64" d="M91.8871 198.762C64.3067 177.397 56.2385 138.903 52.7644 125.604C40.4822 80.1168 42.5903 72.7746 36.2066 45.787C32.3569 30.4473 28.8795 14.8821 22.877 -0.00210571H23.6482C33.8067 22.9578 36.9399 48.9322 41.2423 68.5536C49.1327 104.716 49.4401 116.189 55.996 136.862C63.4986 158.733 72.7315 182.636 93.063 198.762H91.8871Z" fill="#6E583D"/>
<path opacity="0.61" d="M57.3875 126.515C58.3924 130.097 58.5835 130.716 57.3875 126.515V126.515ZM37.6809 38.303C34.1956 25.4359 30.8042 12.3976 25.3047 -0.00117493H26.0793C36.9521 22.6145 40.7213 49.8883 44.1238 65.1139C52.6637 103.584 52.154 104.373 55.4783 118.96C56.2004 122.031 56.9605 124.931 57.3875 126.516C57.1639 125.717 56.8241 124.506 56.3379 122.802C44.4938 81.9223 45.881 68.1809 37.6809 38.3039V38.303ZM99.2577 198.762C75.8009 182.355 65.3719 154.335 58.1811 129.266C59.0273 132.18 59.9417 135.078 60.9287 137.952C69.0125 159.898 79.2493 183.482 100.742 198.762H99.2588H99.2577Z" fill="#6E583D"/>
<path opacity="0.58" d="M107.051 198.762C84.9829 184.592 72.8079 161.085 65.7882 139.101C64.5418 135.437 63.2676 131.33 62.1218 127.626C51.6694 94.0864 50.2464 79.4653 46.6281 61.6273C46.4895 60.9261 39.652 25.5721 27.543 -0.000244141H28.5713C39.557 21.0723 43.6235 46.7964 46.9635 61.5794C58.9909 115.652 59.6649 120.076 63.3257 131.455C75.267 168.703 92.2049 188.179 108.411 198.762H107.051Z" fill="#6E583D"/>
<path opacity="0.55" d="M114.713 198.762C91.654 185.181 78.5635 162.314 70.8921 140.223C69.0735 135.273 67.2683 129.797 65.653 124.783C56.1094 95.8725 53.9442 78.95 50.3237 61.9263C50.1817 61.2408 42.9731 25.3273 30 -0.00117493H31.1256C43.0033 21.1505 47.2509 48.0507 51.5812 65.8114C60.5157 101.963 62.5221 116.12 68.2105 132.518C80.2 167.294 97.5291 187.507 116.206 198.762H114.713Z" fill="#6E583D"/>
<path opacity="0.52" d="M73.6722 135.015C73.1256 133.556 72.6002 132.098 72.0961 130.641C72.6125 132.101 73.1368 133.56 73.6722 135.015ZM54.046 62.2098C47.1437 30.45 39.0464 11.216 32.8203 -0.00117493H33.7548C45.4301 19.4564 50.1729 44.7315 54.3803 62.1573C59.0638 80.6561 63.4243 99.3968 68.176 117.869C69.3095 122.073 70.6117 126.349 72.0961 130.641C71.5238 129.023 70.9616 127.403 70.4083 125.784C60.3996 97.3209 57.8689 79.4018 54.046 62.2107V62.2098ZM122.394 198.762C98.6705 185.853 84.2879 163.442 76.0799 141.35C75.2516 139.249 74.4513 137.135 73.6722 135.015C83.0516 160.034 98.8147 184.955 124 198.762H122.394Z" fill="#6E583D"/>
<path opacity="0.49" d="M130.188 198.762C105.659 186.438 90.3795 164.873 81.3478 142.47C78.6304 136.049 76.1143 129.357 73.8049 122.832C66.9562 104.473 62.6885 85.4236 58.7125 66.5218C56.0689 54.3734 52.6921 42.2958 48.6647 30.4132C45.1951 20.1144 41.4136 9.5965 35.5664 -0.00117493H36.4014C45.5416 14.2582 50.6812 31.8929 54.1351 46.2692C58.1335 62.7978 70.2827 109.96 72.8022 118.788C81.5534 149.163 99.8405 182.547 131.855 198.762H130.188Z" fill="#6E583D"/>
<path opacity="0.46" d="M138.036 198.762C111.978 186.648 95.7513 165.067 85.8142 141.621C64.2028 92.8128 67.0409 73.0129 51.9876 30.2586C48.3805 20.0049 44.4369 9.47136 38.2891 -0.00117493H39.1676C52.6918 19.9791 57.8526 47.8206 62.9699 66.7399C70.5105 93.872 75.9809 118.43 83.2935 135.707C84.3331 138.183 85.6655 141.099 86.8548 143.53C102.222 174.12 121.085 190.056 139.742 198.762H138.036Z" fill="#6E583D"/>
<path opacity="0.43" d="M145.972 198.762C120.387 187.673 102.97 167.955 92.1299 144.672C90.6321 141.648 89.1286 138.306 87.7325 135.113C105.05 174.033 129.382 190.824 147.848 198.762H145.972ZM87.4553 134.479C87.728 135.106 87.8532 135.389 87.5749 134.759C87.5347 134.666 87.4955 134.572 87.4553 134.479ZM41.0469 -0.00117493H41.9422C57.1509 21.2471 62.4581 52.2127 67.9588 71.1366C74.5906 94.1572 80.1774 117.41 87.4553 134.478C66.9506 86.388 69.9418 69.3901 55.3289 30.0645C51.6391 19.7297 47.4462 9.42627 41.0469 -0.00117493Z" fill="#6E583D"/>
<path opacity="0.4" d="M153.957 198.762C125.588 187.412 107.45 166.655 95.6175 141.773C91.039 132.483 87.0094 122.962 83.4247 113.382C72.7084 85.2525 71.7952 64.7385 58.6857 29.8307C55.5324 21.3391 51.0881 9.98575 43.875 -0.00117493H44.8575C59.5766 19.6497 65.1488 48.3461 70.6774 67.2396C76.4318 86.6797 81.5781 106.432 88.4961 125.603C90.0543 129.67 91.7857 133.815 93.6994 137.771C110.585 173.213 135.305 190.321 155.798 198.762H153.957Z" fill="#6E583D"/>
<path opacity="0.37" d="M161.982 198.762C134.588 188.604 115.283 169.412 103.211 146.787C101.181 143.153 99.2889 139.459 97.4859 135.745C77.815 95.5081 77.103 70.7952 65.1504 37.8917C61.0738 26.7462 55.9018 12.0212 46.8008 -0.00117493H47.8101C63.0467 19.4675 68.7866 48.4611 74.5578 67.4475C80.0875 85.7328 85.3098 104.301 91.8332 122.348C93.3869 126.52 95.0904 130.657 97.0164 134.724C115.362 173.501 142.211 190.605 164.262 198.762H161.983H161.982Z" fill="#6E583D"/>
<path opacity="0.34" d="M65.4361 29.2354C62.351 21.4579 57.483 9.71153 49.8262 -0.00117493H50.8344C65.4831 18.0347 71.6119 44.7858 77.1729 63.3204C83.3096 83.2906 89.2272 103.545 96.7175 123.189C98.4333 127.579 100.336 131.876 102.428 136.061C100.284 131.844 98.2589 127.587 96.3263 123.302C81.5636 91.4196 80.1529 66.0534 65.4372 29.2354H65.4361ZM104.316 139.709C103.67 138.503 103.041 137.287 102.428 136.061C103.048 137.28 103.677 138.497 104.316 139.709ZM170.114 198.762C142.092 189.092 121.809 170.526 108.857 147.803C107.376 145.311 105.694 142.295 104.34 139.756C104.332 139.74 104.323 139.724 104.315 139.708C118.489 166.165 140.66 187.721 172.598 198.762H170.114Z" fill="#6E583D"/>
<path opacity="0.31" d="M178.301 198.762C149.767 189.549 128.374 171.616 114.575 148.785C113.078 146.421 111.656 144.027 110.284 141.614C129.15 174.476 155.623 190.678 180.96 198.762H178.301ZM72.1826 37.4205C67.4018 25.0181 61.9201 11.0421 52.8828 -0.00117493H53.9335C69.6698 18.5868 75.7506 46.9446 82.3735 67.7687C88.3883 86.5417 94.1718 105.604 101.642 124.008C103.396 128.251 105.366 132.48 107.532 136.598C107.909 137.319 108.291 138.031 108.676 138.738C108.286 138.028 107.897 137.317 107.514 136.604C86.4176 97.5555 84.9019 70.6913 72.1826 37.4215V37.4205ZM110.029 141.166C109.574 140.367 109.122 139.557 108.676 138.737C109.122 139.549 109.573 140.359 110.029 141.166Z" fill="#6E583D"/>
<path opacity="0.28" d="M186.68 198.762C156.74 189.695 133.593 171.993 117.739 145.699C113.481 138.958 109.726 131.952 106.218 124.923C91.7408 96.7393 86.9935 66.128 75.7083 37.1233C71.1533 25.6015 66.4899 13.9536 58.8095 3.55263C57.931 2.34625 57.001 1.15918 56.0195 -0.00210571H57.0881C73.5375 18.8969 79.7223 48.3442 86.2994 67.88C96.8982 99.8367 104.557 125.324 117.791 145.675C134.815 171.504 158.202 189.463 189.355 198.762H186.681H186.68Z" fill="#6E583D"/>
<path opacity="0.25" d="M121.103 143.027C120.412 141.945 119.74 140.859 119.089 139.771C119.743 140.855 120.417 141.943 121.103 143.027ZM113.492 129.947C94.8763 96.0979 91.951 68.5159 79.244 36.7856C74.5157 25.1221 69.669 13.3049 61.5795 2.89009C60.8317 1.91008 60.047 0.944794 59.2266 -0.00117493H60.3321C67.7218 8.28798 72.7753 18.3734 76.7245 27.7023C81.5991 39.6603 86.1608 55.7325 90.243 67.9601C96.7765 87.2981 103.127 106.744 111.617 125.565C112.61 127.718 113.662 129.898 114.772 132.017C116.109 134.607 117.545 137.196 119.089 139.771C118.804 139.299 118.522 138.828 118.245 138.359C116.606 135.591 115.002 132.764 113.492 129.946V129.947ZM195.012 198.762C164.108 190.112 140.608 172.6 124.778 148.633C123.535 146.803 122.3 144.92 121.103 143.027C136.052 166.446 160.123 188.235 197.969 198.762H195.012Z" fill="#6E583D"/>
<path opacity="0.22" d="M125.45 141.975C124.992 141.27 124.541 140.565 124.097 139.853C124.543 140.563 124.995 141.27 125.45 141.975ZM79.0199 27.5257C75.2753 19.0911 70.3011 8.69931 62.4766 -0.00117493H63.5519C81.1079 19.0699 87.8493 49.1844 92.677 63.464C98.7679 81.591 105.116 99.7428 112.631 117.495C114.865 122.656 117.282 127.801 120.003 132.808C121.284 135.183 122.648 137.535 124.096 139.854C122.208 136.829 120.385 133.771 118.661 130.723C97.5126 93.9226 95.6615 64.3676 79.0187 27.5266L79.0199 27.5257ZM203.565 198.762C172.246 190.538 146.97 173.857 129.151 147.467C127.885 145.667 126.651 143.831 125.451 141.975C140.542 165.147 164.826 187.978 206.859 198.762H203.565Z" fill="#6E583D"/>
<path opacity="0.19" d="M131.516 143.5C130.552 142.091 129.596 140.675 128.681 139.24C129.605 140.669 130.551 142.089 131.516 143.5ZM86.3242 35.9878C82.5338 26.9846 78.5824 17.9593 73.1421 9.53944C70.9881 6.20464 68.5648 2.98212 65.8262 -0.00117493H67.0021C83.2905 17.5001 89.9973 44.8668 96.5811 63.4143C110.745 104.853 118.781 121.61 124.061 131.397C125.504 134.055 127.045 136.672 128.683 139.24C126.139 135.249 123.686 131.219 121.371 127.147C103.808 96.6556 99.4974 67.776 86.3264 35.9878H86.3242ZM212.205 198.762C189.178 193.223 167.782 182.609 151.981 167.672C144.061 160.267 137.39 152.075 131.516 143.5C150.481 170.816 178.198 189.887 215.494 198.762H212.205Z" fill="#6E583D"/>
<path opacity="0.16" d="M220.733 198.762C174.919 188.456 149.791 164.269 131.852 136.493C115.178 110.853 109.279 91.3368 100.161 63.406C90.034 32.688 80.6759 12.4905 69.1816 -0.00210571H70.4224C86.6393 17.1863 93.7227 44.1923 100.49 63.3306C107.064 81.9563 113.969 100.597 122.369 118.713C126.978 128.514 132.387 138.117 139.217 147.016C162.106 177.07 193.574 191.961 224.414 198.762H220.733Z" fill="#6E583D"/>
<path opacity="0.13" d="M229.791 198.762C228.976 198.591 228.164 198.417 227.353 198.236C179.706 187.699 156.006 163.414 140.252 141.484C124.242 119.276 115.484 97.9494 107.266 72.8068C103.067 60.1586 98.7583 47.3762 93.4074 35.0317C87.6295 21.9658 81.5633 9.45755 72.6992 -0.00117493H73.921C90.2966 17.1366 97.4069 44.1306 104.403 63.2146C112.764 85.9656 121.149 108.967 133.283 130.569C137.133 137.236 141.601 143.73 146.678 149.815C157.405 162.672 182.628 188.415 233.491 198.762H229.791Z" fill="#6E583D"/>
<path opacity="0.1" d="M238.671 198.762C184.885 188.265 161.748 161.096 154.294 152.606C148.364 145.838 143.06 138.661 138.261 131.317C114.286 94.99 110.714 61.6908 92.6173 25.1479C88.4423 16.6333 83.419 7.52698 76.2305 -0.00117493H77.4869C88.8559 11.8059 95.7773 28.3437 101.389 43.8435C103.824 50.5536 109.376 66.1482 111.898 72.6476C119.764 92.8966 127.727 113.24 139.21 132.322C142.196 137.161 145.488 141.881 149.132 146.403C175.548 179.474 212.583 193.044 242.596 198.762H238.671Z" fill="#6E583D"/>
<path opacity="0.07" d="M155.195 147.429C154.367 146.438 153.545 145.444 152.748 144.435C153.552 145.44 154.367 146.438 155.195 147.429ZM247.926 198.762C247.764 198.733 247.602 198.705 247.44 198.675C222.241 194.148 197.895 184.889 178.926 170.334C169.938 163.494 162.12 155.715 155.195 147.428C185.702 183.576 228.341 194.722 252.113 198.762H247.926ZM142.046 129.694C130.077 111.792 122.182 92.3233 115.383 72.7424C103.886 40.0054 94.2544 15.08 79.7578 -0.000244141H81.1182C98.3511 17.859 105.789 47.1332 115.961 72.5979C123.95 92.7171 132.15 112.903 143.812 131.806C146.721 136.43 149.64 140.504 152.75 144.436C151.205 142.482 149.682 140.517 148.215 138.526C146.204 135.8 143.902 132.495 142.047 129.695L142.046 129.694Z" fill="#6E583D"/>
<path opacity="0.04" d="M256.632 198.762C212.811 191.578 182.081 173.257 158.926 145.608C155.35 141.371 152.008 136.958 148.853 132.499C119.172 90.4378 117.059 50.2757 92.0766 10.9161C89.4744 6.96382 86.6274 3.29037 83.4473 -0.00117493H84.7607C101.376 17.0842 108.644 43.9751 116.185 62.6717C125.139 85.581 134.38 108.602 147.655 130.091C172.284 169.355 212.265 190.933 262.001 198.762H256.632Z" fill="#6E583D"/>
</g>
<defs>
<clipPath id="clip0_2196_49938">
<rect width="225" height="160" rx="16" transform="matrix(1 0 0 -1 0 160)" fill="white"/>
</clipPath>
</defs>
</svg>
