<svg width="32" height="32" viewBox="0 0 32 32" fill="none" xmlns="http://www.w3.org/2000/svg">
<path d="M21.7747 3.56066C19.8741 2.50278 17.7755 1.9713 15.6794 1.9231C15.5843 1.91779 15.1271 1.92027 15.0622 1.92242C11.4923 2.00494 7.98631 3.50422 5.53787 6.31864C-2.16114 15.1681 5.22065 30.1683 16.6665 30.0795C16.7587 30.0775 17.277 30.0709 17.5013 30.0549C24.4558 29.5582 29.4638 23.7494 29.6309 16.9297C29.4995 11.5693 26.5127 6.19784 21.7747 3.56066ZM28.0465 14.9901H21.8973C21.5115 11.2625 20.0911 7.59192 17.7769 4.39062C23.2543 4.91962 27.8751 9.05924 28.0465 14.9901ZM15.4398 27.6309C15.4126 27.6309 15.3853 27.6319 15.3581 27.6319C12.7255 24.7045 11.4777 21.1053 11.4014 17.4489H20.3354C19.7905 21.1806 18.0814 24.7967 15.4398 27.6309ZM11.5245 14.9901C11.9906 11.091 13.7315 7.28735 16.4867 4.33418C16.5105 4.33395 16.5343 4.33304 16.5582 4.33304C19.3066 7.38646 20.5461 11.1716 20.5221 14.9902L11.5245 14.9901ZM12.7526 4.9388C10.8138 8.05442 9.90519 11.5146 9.91762 14.9901H4.04164C4.80895 10.3304 8.24314 6.38819 12.7526 4.9388ZM3.88439 17.359C3.96826 17.4141 4.05123 17.4489 4.12992 17.4489H10.0822C10.5342 21.0103 11.9234 24.5041 14.1358 27.5685C8.79606 27.0315 4.09922 23.0899 3.88439 17.359ZM19.1669 27.0343C21.0197 24.0579 21.9285 20.7673 21.9955 17.4489H27.7586C26.8074 21.9122 23.5729 25.6286 19.1669 27.0343Z" fill="#B49164"/>
</svg>
