<svg width="32" height="32" viewBox="0 0 32 32" fill="none" xmlns="http://www.w3.org/2000/svg">
<path d="M27.9879 29.0718C27.9879 28.1936 27.9913 27.3152 27.9879 26.4369C27.9812 24.4489 27.1695 22.5524 25.8239 21.1017C24.582 19.7629 22.8616 18.9625 21.0316 18.941C20.4887 18.9342 19.9445 18.941 19.4004 18.941C17.1673 18.941 14.9332 18.941 12.7003 18.941C10.8105 18.941 8.80328 18.7333 7.08509 19.6861C5.09708 20.789 4.04268 22.8966 4.01333 25.1217C4.00092 26.0452 4.01333 26.9686 4.01333 27.8921C4.01333 28.5017 4.46714 29.2288 4.97177 29.5516C5.4764 29.8745 5.80152 29.6182 5.80152 29.0729V26.56C5.80152 25.1026 6.36936 23.6858 7.47681 22.7104C8.48268 21.8242 9.72673 21.3908 11.0566 21.384C11.6414 21.3817 12.2272 21.384 12.812 21.384H19.1012C20.5643 21.384 22.3061 21.1706 23.706 21.6718C25.3012 22.243 26.1884 23.4916 26.1997 25.1704C26.2065 26.078 26.1997 26.9845 26.1997 27.8921C26.1997 28.5017 26.6536 29.2288 27.1581 29.5516C27.6628 29.8745 27.9879 29.617 27.9879 29.0718Z" fill="#B49164"/>
<path d="M20.6536 8.47666C20.6253 10.4974 19.2537 12.2833 17.4136 13.0329C15.6717 13.7419 13.4376 13.4202 12.1404 11.9988C11.9587 11.799 11.7566 11.4875 11.6652 11.2797C11.4857 10.8756 11.3954 10.5313 11.3615 10.0492C11.2915 9.05466 11.5523 8.07252 12.0704 7.22358C13.1282 5.48845 15.1117 4.55372 17.1224 4.7761C18.145 4.889 19.1645 5.37217 19.86 6.13418C19.7741 6.04049 19.931 6.22223 19.9298 6.21998C19.992 6.29674 20.0506 6.37464 20.1082 6.45366C20.0609 6.37577 20.062 6.37802 20.1128 6.4593C20.1794 6.56204 20.2414 6.66929 20.299 6.77766C20.2088 6.60833 20.395 6.99441 20.3928 6.99102C20.5654 7.41549 20.6456 7.93817 20.6536 8.47666C20.6625 9.08853 21.1006 9.8099 21.6109 10.1362C22.0884 10.4421 22.4485 10.2062 22.4406 9.6575C22.4 6.77653 20.5836 3.96329 17.9385 2.80165C15.5204 1.74048 12.671 2.43249 10.9698 4.42728C7.15857 8.89324 11.6584 16.7313 17.4272 15.7581C20.4424 15.249 22.3988 12.6446 22.4406 9.6575C22.4485 9.05128 21.9822 8.31862 21.4821 7.99801C20.9821 7.6774 20.6614 7.93478 20.6536 8.47666Z" fill="#B49164"/>
</svg>
