<svg width="1440" height="900" viewBox="0 0 1440 900" fill="none" xmlns="http://www.w3.org/2000/svg">
<g opacity="0.09" clip-path="url(#clip0_1923_10725)">
<path opacity="0.85" d="M1497.4 321.233C1497.68 323.671 1497.94 326.113 1498.2 328.554C1497.94 326.146 1497.67 323.708 1497.4 321.233ZM1435.46 0C1443.41 82.05 1471.68 120.921 1487.1 234.887C1490.72 259.408 1494.24 292.312 1497.4 321.233C1496.8 316.033 1496.17 310.854 1495.48 305.692C1468.88 115.392 1438.4 83.8292 1433.6 0H1435.46ZM1514.09 554.321C1514.21 574.958 1514.84 597.8 1515.44 618.442C1516.28 645.888 1521.38 716.029 1515.16 860.683C1512.76 751.312 1514.53 624.142 1513.8 597.096C1512.34 538.754 1507.92 501.975 1503.61 405.075C1502.49 379.717 1500.88 353.975 1498.2 328.554C1498.96 335.45 1499.69 342.046 1500.4 348.158C1509.46 430.608 1512.35 440.05 1514.09 554.321Z" fill="#B49164"/>
<path opacity="0.79" d="M1405.8 0.000260416H1407.92C1406.98 67.7753 1421.95 89.0336 1446.35 182.734C1462.71 244.104 1470.79 307.463 1481.24 370C1489.11 416.384 1494.13 463.321 1496.34 510.292C1498.04 547.292 1499.53 586.192 1501.86 623.034C1507.41 697.596 1507.35 773.95 1505.36 848.683C1498.88 662.333 1501.79 625.521 1497.56 566.754C1493.49 510.763 1486.91 454.192 1482.41 398.271C1480.82 380.142 1478.9 360.213 1476.44 342.179C1465.9 262.9 1442.49 186.071 1420.79 109.3C1407.26 62.1003 1404.63 28.2419 1405.8 -0.00390625V0.000260416Z" fill="#B49164"/>
<path opacity="0.82" d="M1421.41 0C1423.76 62.675 1439.77 90.2792 1461.04 177.288C1470.17 214.062 1476.09 251.533 1481.15 288.988C1482.53 299.946 1484.58 313.225 1485.88 324.113C1506.63 479.467 1501.84 443.279 1507.38 592.487C1509.14 641.95 1515.6 705.779 1510.26 854.688C1509.3 822.3 1507.01 697.138 1507.1 627.95C1507.02 570.917 1489.56 355.429 1488.48 345.217C1486.39 326.779 1483.65 307.425 1480.54 289.088C1479.23 281.058 1476.78 269.363 1475.31 261.229C1471.64 243.079 1467.39 223.967 1463.12 205.917C1437.31 95.0833 1419.63 63.5083 1419.52 0H1421.41H1421.41Z" fill="#B49164"/>
<path opacity="0.76" d="M1459.48 313.292C1460.67 319.192 1461.79 325.354 1462.84 331.562C1461.77 325.737 1460.65 319.65 1459.48 313.292ZM1392.67 0H1394.7C1389.21 102.396 1419.69 107.8 1456.58 297.667C1457.58 303.058 1458.54 308.254 1459.47 313.292C1459.35 312.687 1459.23 312.079 1459.11 311.479C1452.08 274.921 1441.76 238.429 1431.16 202.8C1400.68 99.8417 1386.66 67.125 1392.67 0ZM1500.46 842.683C1496.98 764.446 1492.87 608.279 1491.14 583.167C1488.7 543.571 1469.78 380.892 1469.78 380.842C1468.96 374.437 1467.55 362.758 1466.74 356.462C1465.55 348.454 1464.25 339.971 1462.84 331.567C1492.45 493.242 1482.13 456.829 1493.7 604.112C1495.56 633.612 1503.34 699.137 1500.46 842.687V842.683Z" fill="#B49164"/>
<path opacity="0.73" d="M1379.83 0H1381.22C1374.64 77.8083 1392.82 115.929 1416.6 193.354C1421.21 208.567 1425.88 225.133 1429.74 240.554C1435.48 262.792 1440.69 286.258 1445.68 308.654C1451.36 334.867 1457.92 364.292 1463.18 390.742C1472.35 436.467 1477.36 483.017 1480.65 529.512C1481.65 542.117 1483.47 566.004 1484.38 578.317C1486.45 602.5 1489 630.65 1491.16 654.95C1495.22 715.133 1496.26 776.383 1495.55 836.679C1492.23 773.721 1485.51 603.517 1483.36 578.396C1480.15 535.75 1457.25 360.637 1447.13 315.487C1443.67 299.637 1439.72 283.629 1435.22 268.042C1399.74 138.283 1368.06 101.537 1379.83 0Z" fill="#B49164"/>
<path opacity="0.7" d="M1366.2 0H1368.36C1355.2 113.888 1393.18 146.554 1424.78 278.921C1433.22 311.296 1442.34 347.729 1449.97 380.329C1467.69 456.479 1470.22 510.538 1477.26 580.417C1479.6 604.554 1482.46 629 1484.69 653.192C1489.3 712.221 1491 771.488 1490.66 830.688C1476.63 572.542 1476.52 582.146 1474.82 566.663C1468.71 508.467 1457.23 445.813 1448.41 387.729C1444.66 364.867 1440.56 341.925 1435.07 319.417C1427.55 287.804 1417.55 256.829 1406.75 226.204C1375.52 135.592 1352.85 87.3708 1366.2 0Z" fill="#B49164"/>
<path opacity="0.67" d="M1353.19 0H1355.44C1340.7 99.6917 1364.83 135.467 1392.93 223.558C1401.42 248.925 1409.76 277.417 1417.29 303.225C1418.03 305.842 1418.75 308.408 1419.46 310.933C1418.73 308.358 1417.99 305.792 1417.22 303.242C1409.46 276.825 1399.75 250.283 1389.89 224.633C1358.36 141.662 1336.72 89.9292 1353.19 0ZM1479.98 672.112C1483.63 722.842 1485.75 773.817 1485.76 824.688C1481.66 759.396 1475.19 667.792 1470.78 603.262C1469.93 591.854 1468.77 580.112 1467.49 568.742C1460.51 508.554 1447.1 444.067 1436.35 384.225C1431.92 361.217 1426.84 337.517 1420.53 314.737C1462.4 463.967 1453.73 455.971 1472.62 603.079C1475.4 625.888 1478.28 649.242 1479.98 672.117V672.112Z" fill="#B49164"/>
<path opacity="0.64" d="M1340.8 0H1342.62C1325.14 99.2958 1345.97 137.458 1375.63 222.063C1388.11 256.792 1399.63 291.85 1410.74 327.038C1415.55 342.133 1420.58 358.129 1425.02 373.338C1447.39 446.392 1454.38 522.667 1465.01 597.988C1475.81 670.896 1479.93 745.067 1480.86 818.683C1475.65 746.421 1469.29 670.358 1463.17 598.2C1455.67 520.192 1437.28 443.763 1420.79 367.292C1414.65 340.375 1407.01 313.638 1397.82 287.608C1355.72 167.95 1315 123.996 1340.8 0Z" fill="#B49164"/>
<path opacity="0.61" d="M1327.78 0H1330.11C1306.77 116.996 1333.62 151.317 1377.38 272.396C1388.19 301.679 1399.7 333.75 1409.72 363.392C1435.21 439.017 1441.58 492.408 1452.95 565.617C1458.69 603.154 1473.27 677.688 1475.96 812.683C1469.88 739.279 1457.23 601.913 1451.88 565.775C1441.69 497.642 1424.18 430.825 1407.48 364.058C1402.32 344.725 1395.97 323.571 1389.17 304.792C1379.12 276.633 1366.96 249.321 1354.97 221.95C1317.6 137.913 1307.64 84.1292 1327.78 0Z" fill="#B49164"/>
<path opacity="0.58" d="M1314.88 0H1317.25C1296.75 90.9292 1307.18 135.817 1334.94 206.796C1346.41 236.054 1364.48 279.858 1375.99 308.892C1391.17 347.263 1406.53 385.825 1417.18 425.737C1431.59 478.946 1439.44 533.621 1449.29 587.746C1452.94 607.871 1467.42 683.513 1471.06 806.688C1458.65 675.421 1447.53 588.438 1447.48 588.029C1443.39 556.204 1437.13 524.692 1429.6 493.517C1419.83 453.508 1408.9 413.733 1397.62 374.142C1392.48 356.55 1387.01 339.033 1380.76 321.8C1368.34 287.237 1352.34 254.187 1337 220.85C1308.93 160.087 1288.77 100.887 1314.88 0Z" fill="#B49164"/>
<path opacity="0.52" d="M1290.06 0H1292.26C1254.1 144.117 1288.87 185.1 1361.05 341.933C1363.96 348.142 1369.62 360.642 1372.38 366.925C1394.08 415.433 1410.29 465.662 1441.43 617.7C1452.09 675.912 1458.14 735.6 1461.26 794.688C1453.13 722.992 1442.87 648.825 1431.14 577.8C1421.98 523.775 1405.41 471.383 1387.7 419.65C1375.86 385.337 1363.75 350.525 1348.99 317.308C1341.81 301.162 1333.2 283.779 1325.12 267.996C1313.12 244.679 1300.53 221.379 1290.71 196.992C1265.32 135.021 1267.36 75.2375 1290.06 0.00833333L1290.06 0Z" fill="#B49164"/>
<path opacity="0.55" d="M1302.37 0H1304.71C1284.04 83.3708 1287.55 133.317 1316.64 205.871C1338.35 260.529 1364.94 315.35 1386.74 369.958C1414.62 438.029 1426.86 510.858 1441.21 582.6C1445.61 604.7 1450.09 627.971 1453.08 650.246C1459.63 699.246 1464.29 751.354 1466.16 800.688C1456 704.479 1453.25 685.425 1441.39 596.487C1438.85 578.6 1435.9 560.05 1432.13 542.413C1419.9 482.3 1388.42 383.138 1374.86 345.088C1359.86 301.771 1338.48 261.167 1318.78 219.875C1315.01 211.863 1310.97 202.854 1307.73 194.654C1285.55 140.988 1278.96 83.5792 1302.38 0L1302.37 0Z" fill="#B49164"/>
<path opacity="0.49" d="M1277.35 0H1279.92C1249.16 109.492 1258.93 162.421 1295.81 241.988C1305.2 262.333 1315.97 283.288 1326.32 303.183C1333.44 317.029 1344.53 337.908 1351.45 351.825C1391.85 429.083 1410.51 514.854 1430.82 598.938C1443.7 654.092 1452.89 730.688 1456.36 788.688C1439.78 659.429 1422.73 572.946 1422.68 572.696C1401.35 463.846 1338.2 327.658 1332.36 315.454C1315.58 280.604 1294.96 247.308 1279.04 212.025C1251.87 151.154 1248.86 88.8583 1277.35 0L1277.35 0Z" fill="#B49164"/>
<path opacity="0.46" d="M1265.63 0H1267.45C1232.57 116.046 1240.3 174.75 1295.66 277.904C1319.18 321.8 1346.53 364.929 1365.83 410.933C1389 465.579 1403.65 523.288 1419.33 580.379C1419.93 582.65 1442.37 659.583 1451.45 782.688C1444.28 732.713 1435.18 667.3 1415.48 574.279C1391.83 462.708 1321.71 326.329 1315.25 313.913C1297.32 279.625 1276.01 246.917 1260.63 211.304C1230.62 140.888 1240.43 75.0458 1265.62 0.00416667L1265.63 0Z" fill="#B49164"/>
<path opacity="0.43" d="M1252.66 0H1254.99C1233.26 67.9167 1220.96 133.333 1243.56 202.921C1253.78 234.683 1269.49 264.308 1286.4 293.129C1266.43 259.329 1245.33 225.796 1234.61 187.8C1224.22 150 1219.37 94.975 1252.66 0H1252.66ZM1286.39 293.129C1289.59 298.538 1289.37 298.2 1286.39 293.129V293.129ZM1351.79 407.704C1366.48 438.521 1378.03 470.971 1388.62 503.383C1407.22 562.288 1434.46 637.558 1446.55 776.688C1444.29 762.05 1428.16 652.571 1403.42 555.95C1376.35 453.1 1303.96 323.825 1297.7 312.688C1294.77 307.458 1291.76 302.254 1288.71 297.063C1294.1 306.175 1299.59 315.213 1305.03 324.217C1321.77 351.275 1338.29 378.863 1351.79 407.704Z" fill="#B49164"/>
<path opacity="0.4" d="M1240.33 0H1242.77C1218.9 71.4292 1205.39 137.371 1227.6 208.758C1244.87 263.142 1279.48 309.758 1309.79 357.442C1353.67 424.421 1379.5 500.904 1404.02 576.525C1404.56 578.196 1430.07 653.463 1441.66 770.688C1439.15 756.179 1411.34 580.142 1371.09 486.85C1342.09 418.621 1295.86 339.033 1286.79 323.492C1266.12 288.2 1242.11 254.404 1226.73 216.308C1198.05 145.3 1215.44 67.3667 1240.33 0.00416667L1240.33 0Z" fill="#B49164"/>
<path opacity="0.37" d="M1228.07 0H1230.52C1196.08 100.679 1188.96 171.808 1223.97 246.317C1232.07 264 1242.77 281.8 1246.84 288.346C1246.81 288.304 1246.79 288.267 1246.76 288.225C1226.01 255.6 1206.36 221.071 1199.61 182.517C1189.41 122.967 1205.81 58.4 1228.07 0ZM1248.52 290.942C1256.68 303.604 1255.22 301.588 1248.52 290.942V290.942ZM1246.84 288.346C1249.25 292.075 1248.87 291.608 1246.84 288.346V288.346ZM1322.25 402.079C1340.52 433.663 1355.35 467.133 1368.77 501.004C1373.84 513.479 1378.73 526.671 1383.5 539.225C1385.79 545.629 1388.3 552.029 1390.58 558.458C1394.21 568.458 1398.29 580.575 1401.63 590.8C1404.31 599.196 1425.66 666.746 1436.75 764.683C1434.26 751.104 1405.78 589.767 1367.59 501.487C1353.46 468.163 1335.89 435.925 1317.92 404.558C1297.67 369.221 1276.15 334.083 1254.12 299.675C1261.62 311.142 1269.47 322.379 1277.29 333.483C1293.03 355.842 1308.68 378.3 1322.24 402.079H1322.25Z" fill="#B49164"/>
<path opacity="0.34" d="M1215.66 0H1218.23C1190.6 77.3375 1176.79 142.342 1192.28 207.596C1209.58 282.058 1267.42 336.754 1306.71 399.796C1323.8 426.75 1338.49 455.275 1351.64 484.329C1377.5 542.242 1414.35 620.7 1431.85 758.688C1429.69 747.788 1409.92 641.963 1376.75 547.808C1349.7 470.013 1305.71 406.221 1235.33 299.617C1228.13 288.7 1220.1 276.146 1213.62 264.867C1199.87 241.183 1188.9 215.479 1184.15 188.379C1174.25 131.438 1190.65 63.8125 1215.66 0.00416667L1215.66 0Z" fill="#B49164"/>
<path opacity="0.31" d="M1203.59 0H1205.89C1174.03 85.85 1150.96 180.296 1195.32 264.625C1205.75 284.892 1218.71 303.729 1232.51 321.842C1263.47 360.954 1295.7 400.517 1319.85 444.313C1337.78 475.904 1353.62 509.263 1368.44 542.371C1377.04 561.533 1409.82 633.221 1426.95 752.688C1425.28 745.229 1423.46 736.763 1421.88 729.317C1367.31 501.042 1336.63 473.9 1239.69 333.533C1219.28 303.963 1196.89 273.421 1182.59 240.383C1165.03 201.142 1148.67 136.363 1203.59 0.00416667L1203.59 0Z" fill="#B49164"/>
<path opacity="0.28" d="M1190.31 289.313C1191.97 291.925 1193.7 294.575 1195.49 297.263C1193.73 294.65 1192 292.004 1190.31 289.313ZM1191.19 0.000260416H1193.79C1158.76 92.2086 1136.74 183.838 1176.58 264.775C1180.8 273.4 1185.41 281.538 1190.31 289.313C1186.25 282.971 1182.55 276.875 1179.3 271.075C1167.59 249.746 1163.13 237.934 1157.92 220.588C1155.6 211.942 1153.52 202.454 1152.4 193.559C1146.94 150.329 1154.37 88.5544 1191.19 -0.00390625V0.000260416ZM1316.12 459.184C1333.42 488.713 1349.29 519.196 1363.98 550.096C1390.39 605.034 1410.61 675.254 1422.05 746.684C1402.79 663.817 1390.36 627.413 1371.55 576.575C1367.74 566.075 1363.35 555.109 1359.04 544.796C1344.29 508.963 1324.61 475.3 1302.47 443.546C1268.68 395.304 1224.69 341.229 1195.49 297.263C1209.19 317.592 1224.69 335.6 1239.87 353.746C1268.18 386.65 1294.18 421.684 1316.12 459.184Z" fill="#B49164"/>
<path opacity="0.25" d="M1179.06 0H1181.67C1151.78 76.3333 1127.03 160.4 1147.49 236.137C1155.06 263.721 1169.22 289.042 1186.33 311.837C1208.38 340.967 1234.53 366.967 1257.43 395.404C1292.37 437.879 1321.21 484.975 1347.29 533.287C1376.54 586.842 1401.14 651.754 1417.16 740.687C1409.74 711.546 1373.87 560.379 1303.86 463.45C1266.78 411.312 1222.93 364.367 1186.1 312.008C1167.58 285.962 1151.01 257.867 1142.55 226.829C1140.91 220.737 1139.56 214.512 1138.38 208.3C1138.15 206.867 1137.37 201.45 1137.1 199.75C1137.01 199.179 1136.92 198.608 1136.85 198.037C1136.56 194.875 1136.2 190.867 1135.91 187.7C1132.1 124.983 1156.77 52.4 1179.06 0Z" fill="#B49164"/>
<path opacity="0.22" d="M1167.32 0H1169.61C1138.65 77.6125 1119.02 146.221 1126.05 212.496C1127.76 231.646 1135.05 255.337 1139.65 265.3C1155.32 301.492 1176.66 325.962 1203 354.363C1228.18 381.05 1253.09 408.104 1275.15 437.463C1297.38 466.692 1317.4 497.508 1336.21 529.029C1359.24 567.738 1372.81 597.954 1387.67 641.608C1398.02 672.008 1406.03 703.196 1412.26 734.692C1398.17 681.717 1381.08 629.317 1358.31 579.392C1343.77 545.992 1326.93 512.963 1305.91 483.133C1265.16 424.917 1212.52 376.2 1171 318.446C1132.44 265.396 1124.75 231.621 1121.13 199.192C1118.05 164.671 1120.57 108.179 1167.33 0.00833333L1167.32 0Z" fill="#B49164"/>
<path opacity="0.19" d="M1135.06 293.804C1136.15 295.654 1137.26 297.496 1138.39 299.325C1137.24 297.5 1136.13 295.658 1135.06 293.804ZM1154.97 0H1157.29C1134.09 56.5 1109.93 126.579 1109.25 191.75C1109.46 203.442 1108.34 232.229 1122.73 268.879C1125.14 274.254 1127.02 279.892 1135.07 293.804C1107.1 246.183 1105.74 210.133 1105.04 188.308C1104.89 145.358 1117.06 85.5625 1154.97 0ZM1184.27 355.263C1223.25 394.3 1261.14 434.713 1293.34 479.638C1314.92 509.417 1335.78 539.992 1352.85 572.617C1356.7 580.017 1388.46 640.567 1407.35 728.688C1384.12 648.158 1364.7 605.325 1339.75 556.133C1334.48 546.092 1328.95 535.758 1323.16 526.013C1281.7 453.704 1215.41 400.983 1164.37 336.05C1155.13 324.308 1146.27 312.096 1138.39 299.325C1143.9 308.125 1150.16 316.583 1156.61 324.596C1165.29 335.113 1174.82 345.438 1184.27 355.263Z" fill="#B49164"/>
<path opacity="0.16" d="M1143.7 0H1146.15C1118.9 64.9208 1091.31 144.212 1095.12 217.237C1095.57 221.996 1095.95 227.892 1096.74 232.608C1097.11 234.804 1097.28 237.179 1097.77 239.408C1102.78 268.975 1115.95 296.792 1134.26 320.458C1144.01 333.296 1155.09 345.058 1166.4 356.521C1195.93 385.65 1226.25 414.133 1253.52 445.479C1274.85 469.771 1294.93 495.117 1313.83 521.342C1324.66 536.325 1334.84 551.812 1344.1 567.821C1371.14 616.158 1390.64 668.867 1403.41 722.687C1390.35 680.512 1365.67 605.604 1312.31 522.383C1262.62 443.912 1181.82 391.762 1129.9 315.075C1093.72 262.525 1058.65 187.633 1143.69 0.00416667L1143.7 0Z" fill="#B49164"/>
<path opacity="0.14" d="M1130.65 0H1133.16C1104.07 68.0708 1078.48 141.233 1078.25 212.062C1078.38 218.496 1078.72 226.329 1079.39 232.721C1087.11 310.821 1138.63 350.383 1186.95 396.108C1207.14 414.862 1227.43 434.692 1246.2 454.821C1271.42 482 1295.69 510.142 1317.48 540.167C1357.07 594.396 1379.17 658.154 1379.98 660.3C1386.66 678.492 1392.68 697.992 1397.55 716.688C1380.2 664.108 1358.24 612.854 1329.35 565.533C1310.64 533.688 1289.32 503.212 1263.98 476.242C1226.21 435.417 1181.5 401.696 1144.29 360.283C1122.65 336.279 1102.89 309.754 1090.4 279.779C1085.93 269.804 1080.13 250.971 1078.39 239.875C1075.58 225.442 1057.56 158.692 1130.65 0.00416667V0Z" fill="#B49164"/>
<path opacity="0.12" d="M1080.83 299.35C1080.98 299.65 1081.13 299.95 1081.28 300.25C1080.92 299.588 1081.08 299.896 1080.83 299.35ZM1148.04 378.959C1168.73 397.521 1190 415.829 1210.26 434.884C1237.43 460.288 1263.6 487.004 1288.1 514.984C1329.36 562.059 1359.08 609.829 1386.58 690.65C1388.72 697.288 1390.66 704.004 1392.65 710.688C1390.17 704.163 1387.86 697.592 1385.4 691.067C1361.41 631.434 1345.33 599.009 1307.48 544.054C1302.42 536.829 1296.37 528.617 1291.01 521.621C1272.54 497.746 1251.44 475.913 1228.93 455.829C1190.9 421.684 1149.23 391.013 1116.14 351.717C1103.31 336.767 1090.23 318.029 1081.28 300.254C1083.25 303.871 1085.67 308.55 1087.83 311.904C1103.46 337.767 1125.73 358.879 1148.04 378.963V378.959ZM1118.09 0.000260417H1121.03C1089.5 72.6878 1065.03 144.179 1062.9 212.159C1061.67 237.092 1067.5 268.671 1074.05 283.775C1078.05 294.046 1078.02 293.084 1080.83 299.346C1049.45 236.242 1045.98 151.059 1118.09 -0.00390625V0.000260417Z" fill="#B49164"/>
<path opacity="0.1" d="M1060.88 296.308C1061.84 298.538 1062.85 300.758 1063.9 302.979C1061.56 298.167 1061.28 297.292 1060.88 296.308ZM1094.21 347.2C1111.44 366.175 1131.09 382.721 1150.65 399.258C1168.53 414.229 1186.46 429.308 1203.99 444.754C1228.53 466.425 1252.49 488.812 1275.23 512.379C1288.03 525.683 1300.86 540.154 1312.14 554.804C1345.93 599.754 1371.14 651.058 1387.75 704.688C1360.31 633.812 1334.18 591.429 1300.32 546.188C1292.1 535.3 1282.82 523.879 1273.87 513.625C1252.33 489.046 1227.64 467.333 1202.13 446.954C1167.55 419.158 1131.18 392.775 1101.82 359.196C1085.33 340.696 1072.9 321.975 1063.9 302.979C1067.66 310.717 1071.95 318.221 1076.83 325.296C1081.9 332.804 1088.22 340.412 1094.2 347.204L1094.21 347.2ZM1106.64 0H1109.25C1063.12 105.517 1035.25 196.692 1052.55 271.308C1053.49 274.596 1054.2 278.204 1055.36 281.421C1058.62 291.087 1057.26 287.292 1060.88 296.312C1032.35 230.075 1036.95 146.2 1106.64 0.00416667V0Z" fill="#B49164"/>
<path opacity="0.08" d="M1094.44 0H1096.87C1068.53 62.9583 1033.13 152.925 1031.81 230.304C1031.79 238.325 1032.17 246.854 1032.94 254.829C1033.54 258.908 1034.07 264.729 1035 268.729C1037.76 282.408 1036.57 275.767 1039.09 285.838C1039.69 287.888 1041.55 293.004 1042.33 295.429C1035.87 278.446 1031.72 260.358 1030.11 240.938C1023.29 161.496 1063.76 63.1708 1094.44 0ZM1042.33 295.429C1043.18 297.658 1042.56 296.138 1042.33 295.429V295.429ZM1073.13 346.867C1090.71 367.3 1111.53 384.513 1132.42 401.479C1158.15 422.1 1195.35 451.463 1219.9 472.679C1248.4 497.238 1276.82 522.279 1301.16 551.067C1337.33 594.513 1364.81 645.2 1382.85 698.688C1371.24 670.812 1357.81 642.783 1342.14 616.917C1321.77 582.758 1297.11 551.225 1270.39 521.804C1229.5 475.946 1177.04 443.313 1129.28 405.346C1116.5 395.038 1103.94 383.963 1092.57 372.092C1073.32 352.146 1057.95 330.683 1047.19 307.054C1051.3 315.425 1054.36 321.717 1062.3 333.021C1065.49 337.492 1069.65 342.675 1073.12 346.863L1073.13 346.867ZM1042.8 296.629C1045.06 302.121 1044.87 301.975 1042.8 296.629V296.629ZM1044.42 300.692C1045.31 302.833 1046.23 304.95 1047.19 307.054C1046.35 305.346 1046.02 304.683 1044.42 300.692Z" fill="#B49164"/>
<path opacity="0.06" d="M1026.61 301.533C1026.97 302.517 1027.34 303.492 1027.72 304.467C1027.32 303.512 1027.02 302.704 1026.61 301.533ZM1014.51 213.121C1017.48 154.887 1043.54 79.325 1082.39 0H1085.08C1037.39 105.537 1007.88 196.346 1018.5 269.708C1020 280.429 1023.02 291.317 1026.61 301.533C1016.24 273.487 1012.85 243.692 1014.51 213.121ZM1040.08 329.25C1058.61 360.433 1095.11 388.817 1103.11 395.342C1132.6 418.821 1163.44 440.958 1193.25 464.117C1226.85 490.254 1260.74 516.529 1289.94 547.646C1328.5 589.467 1358.37 639.358 1377.95 692.692C1362.07 658.367 1351.81 638.246 1330.34 606C1314.54 582.571 1296.37 560.858 1277.24 540.104C1254.95 515.7 1230.29 493.483 1203.7 473.821C1141.03 426.837 1059.9 387.142 1027.72 304.471C1029.58 308.871 1033.03 317.158 1036.51 323.133L1040.08 329.25Z" fill="#B49164"/>
<path opacity="0.04" d="M1001.18 199.508C1009.58 132.379 1044.67 51.775 1070.23 0H1072.99C1046.76 56.6292 1020.47 120.292 1007.52 186.087C1006.67 189.804 1005.75 196.387 1005.03 200.058C997.232 245.917 1002.76 273.183 1003.22 277.904C1004.73 287.954 1008.21 299.492 1007.99 298.746C1009.19 302.808 1010.44 306.246 1009.01 302.163C1008.09 299.621 1005.25 289.804 1004.32 284.954C1003.94 282.996 1003.04 279.896 1002.81 277.975C997.895 252.192 998.004 225.546 1001.18 199.508H1001.18ZM1009.64 303.992C1011.15 308.317 1010.79 307.388 1009.64 303.992V303.992ZM1073.74 389.479C1095.66 407.646 1119.01 423.996 1142.25 440.454C1174.94 463.504 1209.09 487.254 1240.55 511.812C1253.64 522.087 1266.5 533.021 1278.49 544.567C1300.69 566.283 1320.35 590.683 1337.14 616.787C1353.79 642.846 1362.81 662.267 1373.05 686.683C1369.82 680.379 1366.78 673.783 1363.43 667.558C1347.4 637.296 1337.49 623 1323.01 602.696C1305.9 579.392 1286 557.829 1265.33 537.621C1241.63 514.279 1215.72 493.171 1188.17 474.508C1143.11 443.542 1093.42 417.829 1055.29 377.892C1030.66 351.525 1020.18 329.1 1019.9 328.521C1019.15 326.896 1017.59 323.696 1016.84 322.071C1015.38 319.183 1012.45 312.046 1010.65 306.892C1023.2 341.633 1045.74 365.821 1073.73 389.479H1073.74Z" fill="#B49164"/>
<path opacity="0.02" d="M1058.3 0H1060.92C1011.44 106.225 970.003 220.388 991.124 300.413C993.068 307.496 993.356 308.275 993.022 307.346C981.848 270.863 962.479 190.375 1058.3 0ZM993.135 307.667C993.735 309.379 993.723 309.383 993.135 307.667V307.667ZM1000.92 327.388C1002.21 329.754 1004.56 334.596 1005.93 336.917C1020.46 361.633 1038.48 379.279 1060.94 397.379C1081.16 413.613 1103.59 428.604 1125.16 443.042C1158.18 464.829 1201.08 492.288 1232.81 515.104C1240.27 520.496 1248.59 526.842 1255.72 532.646C1283.75 555.417 1308.43 582.308 1329.38 611.679C1338.87 625.767 1334.99 619.679 1341.29 629.754L1345.11 635.871C1353.73 650.25 1361.37 665.363 1368.14 680.683C1359.23 663.738 1349.74 647.092 1338.99 631.246C1334.37 624.342 1330.58 619.054 1330.11 618.442C1306.68 585.742 1280.77 560.05 1253.19 535.621C1228.21 513.308 1201.04 493.371 1172.58 475.7C1102.6 431.679 1044.33 407.4 1005.36 337.225C1004.2 334.95 1001.76 329.95 1000.65 327.513C999.791 325.417 997.314 319.542 996.509 317.55C995.85 315.692 994.507 311.675 993.573 308.954C994.557 311.771 995.675 314.8 996.617 317.508C998.044 320.708 999.408 324.242 1000.91 327.392L1000.92 327.388Z" fill="#B49164"/>
<path opacity="0.28" d="M403.072 665.642C409.62 668.534 416.214 671.317 422.804 674.151C416.189 671.359 409.599 668.521 403.072 665.642ZM82.7167 43.1797C83.1171 76.138 83.142 241.538 117.568 368.505C136.829 440.192 172.444 503.896 226.106 554.617C227.045 555.551 227.987 556.471 228.872 557.292L230.123 558.521C231.861 560.23 233.603 561.862 235.349 563.417C236.905 564.801 239.507 567.117 244.216 571.367C245.776 572.696 248.633 575.005 251.398 577.238C253.409 578.863 255.307 580.392 256.47 581.363C258.143 582.676 260.282 584.259 262.347 585.792C264.045 587.051 265.65 588.238 267.002 589.28C271.323 592.455 278.117 597.076 282.938 600.246L283.255 600.471C284.957 601.617 286.867 602.846 288.753 604.059C321.911 625.963 355.966 644.846 403.067 665.642C337.381 637.238 322.416 628.359 293.983 612.263C289.724 609.713 285.107 606.676 280.849 604.076C278.113 602.251 270.818 597.321 267.999 595.43C265.275 593.426 258.139 588.201 255.507 586.263C249.171 581.33 241.597 575.238 235.57 569.83C231.003 566.001 224.797 559.93 220.422 555.763C192.973 528.396 168.607 494.609 149.404 455.109C143.473 443.146 137.618 429.963 132.8 417.505C130.423 411.934 127.641 404.105 125.564 398.271C124.588 395.596 122.974 391.213 122.127 388.584C117.856 375.788 113.664 362.217 110.032 349.276C102.307 319.992 76.6773 228.892 82.7125 43.1839L82.7167 43.1797ZM839.109 900.001H836.215C700.937 791.155 585.229 744.034 422.8 674.151C435.763 679.73 448.893 684.967 461.747 690.155C640.523 758.63 743.305 818.109 839.109 900.001Z" fill="#B49164"/>
<path opacity="0.25" d="M426.744 668.513C431.178 670.267 441.067 674.167 445.505 675.917C441.054 674.2 431.178 670.279 426.744 668.513ZM879.574 900H877.021C733.728 787.55 599.084 736.417 445.509 675.917C447.286 676.617 449.071 677.288 450.856 677.967C553.067 717.604 712.798 762.271 879.578 900.004L879.574 900ZM89.2805 47.9375C91.049 157.196 96.813 272.171 127.077 379.229C140.632 425.971 161.849 470.892 191.529 509.604C206.106 528.533 218.364 540.55 224.295 546.638C225.768 547.992 227.34 549.492 229.029 551.113C229.029 551.113 229.037 551.121 229.042 551.125C229.918 551.988 230.793 552.846 231.665 553.7C232.178 554.204 232.691 554.704 233.196 555.204C248.207 569.942 264.832 583.417 282.616 595.263C294.441 603.146 307.033 610.658 320.046 617.588C320.062 617.596 320.075 617.604 320.091 617.613C320.73 617.954 321.372 618.296 322.018 618.646C322.031 618.65 322.039 618.658 322.052 618.663C332.846 624.842 343.807 630.721 354.83 636.263C378.304 648.021 402.378 658.671 426.744 668.513C382.9 651.175 333.142 631.867 289.152 604.167C287.158 602.888 285.127 601.579 283.33 600.371L283.013 600.146C278.191 596.971 271.401 592.354 267.08 589.183C265.728 588.142 264.123 586.954 262.425 585.696C260.361 584.167 258.221 582.583 256.553 581.271C255.389 580.304 253.491 578.771 251.481 577.146C248.716 574.913 245.859 572.604 244.303 571.279C239.594 567.029 236.991 564.713 235.436 563.329C233.689 561.774 231.949 560.143 230.214 558.438L228.962 557.208C228.504 556.783 228.028 556.325 227.549 555.863C213.622 541.933 201.009 527.908 189.222 511.329C160.723 471.496 140.424 426.213 125.321 379.783C121.108 366.642 117.113 352.917 113.672 339.488C90.7779 253.425 86.5361 137.688 89.2889 47.9458L89.2805 47.9375Z" fill="#B49164"/>
<path opacity="0.22" d="M917.094 900C789.612 802.525 675.631 751.608 477.031 680.638C582.124 718.192 744.4 759 919.926 900H917.094ZM477.031 680.638C470.691 678.417 464.368 676.158 458.679 674.096C464.785 676.308 470.908 678.45 477.031 680.638ZM95.8484 52.6958C97.254 137.775 101.266 223.475 117.049 307.246C132.898 396.958 161.623 478.967 227.873 544.3L235.501 551.683L236.456 552.604C236.894 553 237.52 553.55 238.221 554.167C238.817 554.738 239.455 555.333 240.031 555.833L245.853 561.458C247.367 562.804 250.303 565.375 253.144 567.858C255.163 569.625 257.069 571.292 258.203 572.296L266.787 579.108C271.608 582.967 276.864 586.696 281.948 590.304C282.786 590.9 283.62 591.492 284.446 592.079C291.607 596.838 302.256 603.713 312.345 609.433C324.928 616.542 338.154 623.179 352.777 629.721C354.241 630.446 355.784 631.171 357.353 631.888C364.451 635.342 371.596 638.692 378.77 641.942C407.666 655.063 442.984 668.383 454.705 672.713C451.405 671.521 445.937 669.558 437.858 666.692C400.638 653.292 360.956 638.692 324.978 620.088C324.824 620.004 324.67 619.921 324.516 619.838C322.993 619.013 321.55 618.233 320.115 617.471C307.106 610.542 294.515 603.033 282.694 595.15C264.918 583.313 248.297 569.838 233.291 555.108C232.782 554.613 232.273 554.108 231.76 553.604C230.796 552.658 229.825 551.704 228.853 550.75C185.697 506.775 156.301 452.538 135.034 390.612C108.073 312.725 91.6359 210.979 95.8568 52.6875L95.8484 52.6958ZM454.7 672.721C460.381 674.775 459.634 674.546 454.7 672.721V672.721Z" fill="#B49164"/>
<path opacity="0.19" d="M504.892 683.486C498.949 681.582 486.565 677.661 480.63 675.707C486.565 677.645 498.957 681.536 504.892 683.486ZM957.617 899.999C838.806 811.041 727.978 756.678 504.892 683.486C626.276 723.311 778.554 758.328 960.078 899.999H957.621H957.617ZM475.496 673.986C482.882 676.432 481.865 676.153 475.496 673.986V673.986ZM102.417 57.4573C103.973 131.178 106.563 233.086 129.64 338.107C131.042 344.607 132.768 352.816 134.553 359.245C135.717 363.586 137.26 370.553 138.662 374.999C145.944 401.216 162.69 453.774 194.339 498.136C196.712 501.266 201.55 508.249 203.969 511.261C206.071 513.903 212.081 521.186 214.229 523.891C216.665 526.566 222.721 533.386 225.099 535.986C235.234 546.278 235.918 547.049 246.32 556.486C247.05 557.166 247.788 557.841 248.514 558.495C248.777 558.732 249.035 558.966 249.285 559.195C249.928 559.778 250.395 560.211 250.804 560.595C251.513 561.228 252.847 562.453 254.14 563.636C255.291 564.695 256.384 565.695 256.989 566.236C258.153 567.441 278.79 585.374 304.207 600.895C304.895 601.282 306.501 602.278 308.053 603.237C309.437 604.091 310.743 604.899 311.36 605.257C312.578 605.961 315.694 607.695 318.446 609.224C320.582 610.411 322.601 611.532 323.543 612.07C342.045 622.07 362.257 631.191 385.326 639.953C385.789 640.128 386.26 640.311 386.732 640.495C387.099 640.653 387.47 640.816 387.837 640.974C421.212 655.191 461.419 669.199 475.492 673.986C469.944 672.149 459.655 668.778 443.322 663.511C413.338 653.716 383.337 643.216 354.462 630.403C353.907 630.141 353.361 629.874 352.827 629.611C338.208 623.07 324.986 616.436 312.403 609.328C302.318 603.607 291.674 596.732 284.516 591.978C283.691 591.391 282.857 590.799 282.018 590.203C276.934 586.595 271.683 582.866 266.861 579.011L258.278 572.203C257.143 571.203 255.237 569.532 253.218 567.766C250.378 565.278 247.442 562.711 245.932 561.366L240.109 555.741C239.68 555.366 239.217 554.936 238.758 554.507C177.067 494.211 142.974 412.045 123.23 328.391C99.2681 222.353 101.374 98.2448 102.413 57.4531L102.417 57.4573Z" fill="#B49164"/>
<path opacity="0.16" d="M108.982 62.2148C110.855 158.132 116.393 254.548 138.249 348.165C140.205 357.815 146.361 380.498 149.627 390.927C151.424 396.682 170.339 461.852 208.023 509.544C209.195 511.032 211.881 514.694 213.053 516.148C229.582 536.519 242.345 548.823 260.28 564.336C262.749 566.515 265.285 568.723 267.891 570.94C276.508 578.531 291.198 588.84 297.112 592.919C297.3 593.048 297.421 593.132 297.463 593.161C315.114 604.582 331.768 613.857 349.87 622.34C369.585 631.582 391.612 640.111 417.204 648.407C418.276 648.811 419.444 649.215 420.641 649.623C580.772 709.015 784.001 731.54 1001.7 899.998H998.738C900.698 827.957 779.155 760.336 554.212 692.394C473.648 668.273 432.832 657.611 389.618 641.498C388.191 640.927 386.752 640.361 385.372 639.836C362.307 631.077 342.103 621.956 323.606 611.961C322.663 611.423 320.644 610.302 318.509 609.115C315.756 607.586 312.641 605.852 311.427 605.152C310.81 604.794 309.504 603.99 308.119 603.132C306.568 602.173 304.962 601.177 304.274 600.79C278.869 585.277 258.244 567.357 257.076 566.152C256.467 565.602 255.379 564.607 254.224 563.548C252.931 562.365 251.596 561.14 250.887 560.507C250.478 560.123 250.011 559.69 249.369 559.107C249.114 558.877 248.86 558.644 248.597 558.407C247.617 557.515 246.599 556.594 245.632 555.677C245.327 555.39 244.96 555.052 244.576 554.698C244.384 554.523 244.193 554.344 243.997 554.165C243.559 553.719 243.142 553.286 242.77 552.865C225.415 535.34 221.165 529.273 213.262 519.507C180.787 478.048 160.93 430.902 143.65 381.169C141.706 374.823 139.195 366.377 137.294 359.848C111.914 269.077 106.913 156.044 108.986 62.2148H108.982Z" fill="#B49164"/>
<path opacity="0.14" d="M115.552 66.9766C117.905 177.752 124.929 280.802 154.12 385.577C165.173 423.281 181.727 465.556 208.362 502.902C219.736 519.493 233.458 534.781 247.794 548.847C251.547 552.277 257.357 557.602 261.662 561.252C262.116 561.66 262.571 562.064 263.005 562.46C288.08 585.252 316.98 604.231 351.352 620.485C366.692 627.739 382.842 634.331 400.718 640.639C416.626 646.252 433.568 651.514 452.507 656.731L452.745 656.797C453.212 656.927 453.684 657.06 454.159 657.197C460.54 659.272 466.93 661.302 473.32 663.272C501.206 671.914 532.317 680.589 560.453 688.006C714.425 728.835 859.837 764.86 1041.21 900.001H1039.22C951.254 836.406 835.684 768.056 604.068 700.227C551.194 684.852 493.023 670.885 440.178 655.472C433.021 653.343 425.872 651.139 418.757 648.843C418.24 648.66 417.735 648.477 417.247 648.293C391.655 639.997 369.637 631.472 349.925 622.231C331.828 613.747 315.178 604.477 297.535 593.06C297.493 593.031 297.377 592.947 297.185 592.818C295.379 591.572 292.755 589.747 289.736 587.593C282.733 582.56 277.144 578.364 272.097 574.322C270.625 573.127 269.232 571.956 267.972 570.847C263.822 567.318 259.856 563.818 256.06 560.418C253.216 557.777 250.229 554.931 246.93 551.739C244.044 548.918 238.138 542.443 235.202 539.377C234.046 538.143 224.341 526.614 223.252 525.322L222.393 524.193C221.138 522.493 215.228 514.897 213.78 512.927C211.645 510.218 209.38 506.506 207.303 503.622C169.165 447.097 151.472 387.685 149.528 381.052C139.894 350.797 111.986 257.556 115.536 66.9807L115.552 66.9766Z" fill="#B49164"/>
<path opacity="0.12" d="M122.117 71.7344C124.786 188.58 134.738 351.047 188.53 460.463C208.112 501.263 235.026 534.893 267.547 562.388C268.481 563.222 269.423 564.051 270.353 564.818C273.386 567.539 276.505 570.218 279.625 572.784C306.657 595.313 338.001 613.768 375.451 629.205C405.251 641.488 439.236 651.993 482.4 662.263C483.584 662.605 484.819 662.93 486.066 663.247C535.607 677.384 578.496 687.388 632.851 700.684C727.517 723.68 902.693 766.555 1083.14 900.001H1080.34C913.191 782.868 750.686 730.343 587.964 689.813C562.684 683.509 523.75 674.343 498.141 668.247C484.081 664.922 470.117 661.443 456.315 657.701C455.131 657.343 453.946 656.997 452.778 656.676L452.541 656.609C413.084 645.751 380.001 633.897 351.402 620.372C317.038 604.122 288.146 585.147 263.084 562.368C262.366 561.718 261.599 561.034 260.856 560.372C260.573 560.122 260.289 559.868 260.006 559.613C245.908 546.455 232.728 531.718 220.624 515.109C163.179 436.597 117.596 314.843 122.113 71.7344H122.117Z" fill="#B49164"/>
<path opacity="0.1" d="M128.685 76.4922C131.584 194.871 141.836 351.946 194.518 461.359C214.984 504.301 245.048 542.284 282.406 571.505C282.736 571.771 283.07 572.038 283.395 572.305C283.457 572.355 283.516 572.405 283.574 572.451C283.9 572.713 284.216 572.98 284.529 573.238C284.538 573.242 284.542 573.251 284.55 573.255C301.834 587.655 321.241 600.642 342.233 611.859C362.332 622.596 384.713 632.151 408.75 640.246C438.805 650.392 471.475 658.846 514.677 667.663C515.011 667.73 515.357 667.805 515.703 667.88C515.882 667.917 516.062 667.955 516.241 667.996C677.962 708.892 892.456 731.671 1123.98 900.001H1121.28C1034.45 839.58 899.359 761.23 661.324 702.142C589.365 684.334 534.209 674.459 483.984 662.576C483.458 662.434 482.937 662.288 482.424 662.142C439.264 651.871 405.284 641.371 375.487 629.088C338.05 613.659 306.714 595.209 279.695 572.688C276.58 570.121 273.46 567.442 270.428 564.721C269.956 564.334 269.485 563.926 269.01 563.517C233.161 530.976 205.6 489.992 185.551 446.076C138.324 344.405 126.521 207.909 128.673 76.4922H128.685Z" fill="#B49164"/>
<path opacity="0.08" d="M1161.93 900C994.93 787.237 826.39 730.208 623.052 688.412C750.81 714.675 955.699 750.429 1164.99 900H1161.93ZM135.25 81.25C137.778 176.792 143.805 273.1 167.228 366.075C187.286 448.854 222.283 521.696 287.67 572.925C288.963 573.987 290.268 575.029 291.586 576.025C324.123 602.762 363.554 623.771 412.136 640.25C432.474 647.15 454.366 653.258 479.058 658.925C499.003 663.504 520.625 667.767 547.097 672.342C548.019 672.55 549.016 672.742 550.017 672.929C582.879 680.254 605.843 684.912 623.048 688.412C590.62 681.892 557.891 676.196 525.35 669.75C523.073 669.3 520.796 668.837 518.518 668.379C517.217 668.083 515.916 667.796 514.698 667.546C471.5 658.733 438.838 650.279 408.783 640.133C384.751 632.037 362.378 622.487 342.283 611.75C321.299 600.537 301.897 587.554 284.621 573.162C283.758 572.442 282.823 571.692 281.922 570.967C151.058 459.392 132.835 254.175 135.242 81.2542L135.25 81.25Z" fill="#B49164"/>
<path opacity="0.06" d="M141.817 86.0078C144.47 179.337 150.351 273.387 172.828 364.304C189.086 430.979 214.97 497.854 263.602 547.808C273.85 558.524 284.819 568.195 296.36 576.958C297.424 577.812 298.496 578.65 299.567 579.441C317.469 593.945 337.322 606.649 358.577 617.204C385.825 630.991 416.506 642.308 452.371 651.795C454.018 652.233 455.695 652.67 457.355 653.095C465.15 655.133 473.263 657.07 481.479 658.858C491.581 661.104 503.168 663.424 516.164 665.812C521.119 666.729 526.087 667.612 531.054 668.466C545.427 670.958 561.264 673.516 578.493 676.129C744.873 708.941 966.608 731.391 1206.02 900H1203.4C1108.7 836.145 958.283 752.312 694.602 698.283C655.358 690.429 613.758 683.262 574.193 676.812C565.751 675.433 557.272 674.024 548.776 672.558C548.209 672.445 547.65 672.333 547.12 672.212C520.644 667.637 499.026 663.37 479.085 658.795C454.394 653.129 432.509 647.02 412.172 640.125C363.607 623.65 324.188 602.649 291.66 575.92C291.255 575.616 290.854 575.308 290.454 574.995C280.74 566.929 271.456 558.187 262.676 548.679C217.802 500.854 189.148 439.904 171.618 377.237C139.311 262.249 141.48 114.724 141.809 86.0078H141.817Z" fill="#B49164"/>
<path opacity="0.04" d="M606.084 678.787C607.615 679.058 609.204 679.312 610.818 679.553C792.935 711.37 1007.98 734.591 1246.96 899.999H1244.1C960.941 715.187 699.466 697.053 531.351 668.391C522.797 666.908 514.764 665.449 507.256 664.016C510.284 664.578 513.341 665.137 516.415 665.678C546.6 671.053 577.268 675.103 606.089 678.791L606.084 678.787ZM148.383 90.7701C152.658 222.645 163.223 385.258 231.654 500.595C250.356 531.195 274.693 558.433 303.351 580.045C304.49 580.949 305.624 581.828 306.751 582.649C315.009 589.22 323.73 595.424 332.668 601.091C360.734 618.833 391.874 633.024 427.864 644.478C431.951 645.808 436.126 647.103 440.368 648.358C440.122 648.287 439.88 648.216 439.634 648.149C438.329 647.774 437.031 647.399 435.743 647.02C435.155 646.849 434.571 646.674 433.987 646.499C432.719 646.124 431.459 645.741 430.208 645.362C429.695 645.203 429.178 645.049 428.665 644.891C427.305 644.47 425.954 644.049 424.606 643.624C424.139 643.478 423.672 643.328 423.209 643.183C421.808 642.733 420.415 642.283 419.026 641.824C418.559 641.67 418.096 641.52 417.633 641.366C416.248 640.908 414.872 640.441 413.499 639.974C413.057 639.824 412.611 639.67 412.169 639.52C410.784 639.045 409.412 638.562 408.044 638.078C407.639 637.933 407.235 637.791 406.83 637.645C405.433 637.145 404.04 636.641 402.659 636.133C402.317 636.008 401.98 635.883 401.642 635.753C400.203 635.22 398.772 634.687 397.354 634.145C397.112 634.053 396.874 633.958 396.633 633.866C395.244 633.333 393.859 632.795 392.487 632.249C392.299 632.174 392.107 632.099 391.915 632.024C390.46 631.445 389.017 630.862 387.582 630.274C387.336 630.174 387.094 630.074 386.848 629.974C385.438 629.395 384.041 628.808 382.652 628.22C382.385 628.108 382.114 627.995 381.847 627.878C380.47 627.291 379.102 626.699 377.747 626.103C377.48 625.987 377.213 625.87 376.946 625.749C375.586 625.149 374.231 624.541 372.888 623.928C372.642 623.816 372.392 623.703 372.145 623.591C370.782 622.966 369.426 622.337 368.079 621.703C367.87 621.608 367.666 621.508 367.457 621.408C366.073 620.749 364.696 620.091 363.328 619.42C363.195 619.353 363.057 619.287 362.924 619.22C361.493 618.52 360.071 617.812 358.661 617.099C358.653 617.095 358.64 617.091 358.632 617.087C337.385 606.541 317.541 593.837 299.643 579.337C299.239 579.041 298.839 578.728 298.438 578.42C252.746 541.028 219.722 492.133 196.594 434.599C190 418.266 145.893 318.362 148.383 90.7617V90.7701Z" fill="#B49164"/>
<path opacity="0.02" d="M640.282 682.102C685.594 689.044 730.948 695.548 775.801 703.136C1028.7 741.644 1196.13 836.902 1288.27 899.998H1285.36C1179.48 831.161 1017.05 745.19 750.684 699.277C697.089 690.152 650.504 684.432 607.657 678.932C607.136 678.844 606.615 678.757 606.106 678.665C590.511 676.669 574.378 674.569 558.074 672.207C584.572 675.919 611.369 678.94 638.568 681.907C639.131 681.969 639.702 682.036 640.282 682.107V682.102ZM154.953 95.5273C159.411 228.469 170.719 397.627 243.621 511.827C263.074 541.869 287.765 567.29 316.494 587.715C317.124 588.186 317.745 588.648 318.354 589.111C333.837 600.798 350.962 611.394 369.255 620.607C382.773 627.411 397.313 633.652 412.632 639.232C405.254 636.619 398.084 633.877 391.107 630.998L390.94 630.932C385.785 628.802 380.734 626.594 375.779 624.311C375.662 624.257 375.549 624.207 375.432 624.152C373.848 623.419 372.271 622.677 370.707 621.932C370.594 621.877 370.482 621.823 370.369 621.769C367.216 620.257 364.1 618.711 361.026 617.132C360.88 617.057 360.739 616.986 360.593 616.911C359.129 616.157 357.673 615.394 356.226 614.623C356.017 614.511 355.809 614.398 355.6 614.29C354.153 613.519 352.714 612.736 351.283 611.948C351.166 611.882 351.05 611.819 350.933 611.752C349.527 610.977 348.13 610.19 346.741 609.398C346.62 609.332 346.499 609.261 346.383 609.194C344.998 608.402 343.617 607.598 342.249 606.79C342.003 606.644 341.757 606.502 341.515 606.357C340.176 605.561 338.842 604.761 337.515 603.952C337.294 603.819 337.073 603.682 336.852 603.544C335.471 602.698 334.099 601.848 332.735 600.986C323.802 595.323 315.084 589.119 306.83 582.548C306.313 582.169 305.792 581.777 305.266 581.377C231.325 521.865 152.801 408.336 154.953 95.5273Z" fill="#B49164"/>
<path opacity="0.91" d="M-60.5432 0H-57.6154C-62.954 137.787 -61.6777 211.708 -61.6569 212.95C-61.39 223.096 -60.902 234.542 -60.4307 244.679C-58.3578 295.85 -45.4864 397.929 -40.0017 449.946C-36.4815 481.246 -32.3608 513.317 -26.7676 544.287C-9.82146 641.958 27.1322 772.404 25.7225 900.004H24.3377C23.2492 824.171 8.57196 750.554 -5.96347 669.646C-12.9288 630.046 -20.0818 584.008 -26.8344 544.3C-39.4638 471.625 -53.749 397.829 -57.5027 324.079C-59.4172 293.758 -60.9187 259.004 -62.1949 228.863C-64.272 184.567 -69.2227 110.837 -60.5432 0.00416667V0Z" fill="#B49164"/>
<path opacity="0.88" d="M-53.1652 0H-50.8212C-52.5813 46.8333 -54.5958 117.829 -53.7366 185.75C-53.574 206.587 -53.0901 228.392 -51.6303 249.146C-51.3217 253.863 -51.0214 260.221 -50.5751 264.971C-49.5199 276.529 -48.1602 292.942 -46.813 304.442C-38.9718 369.933 -30.3631 435.617 -20.0319 500.775C0.380222 622.758 52.2031 755.575 62.1172 900H60.7575C51.3147 800.979 22.2647 711.088 1.91097 609.654C-7.96144 561.204 -20.741 502.608 -30.3465 454.254C-39.6892 407.567 -45.4324 360.075 -48.7607 312.583C-51.234 279.671 -56.5894 179.9 -56.6854 177.892C-57.2359 159.983 -60.9146 103.238 -53.161 0L-53.1652 0Z" fill="#B49164"/>
<path opacity="0.85" d="M-46.1056 0H-43.8325C-46.164 71.8125 -48.9834 208.192 -40.0036 285.788C-38.9442 295.292 -37.6304 307.879 -36.2498 317.308C-28.2793 374.896 -19.3287 432.446 -8.75976 489.617C-3.01232 520.471 4.75385 552.067 13.3833 582.258C40.5398 677.671 82.2524 785.662 99.0234 900.004H97.2842C81.2973 805.929 57.6152 750.779 28.7738 643.933C19.844 611.1 11.3646 576.946 3.09378 543.917C-1.32732 526.35 -5.91528 507.596 -10.2697 489.95C-34.6733 397.458 -41.4926 301.812 -47.1567 206.704C-53.1752 126.371 -49.801 50.3708 -46.1056 0.00416667V0Z" fill="#B49164"/>
<path opacity="0.82" d="M-38.7751 0H-36.7815C-38.8335 64.7625 -39.2506 70.9167 -37.9452 180.258C-37.8367 198.342 -36.94 217.879 -36.0891 235.938C-35.2008 247.854 -33.8035 263.675 -32.7358 275.592C-22.6798 363.096 1.81561 486.121 12.7558 525.9C24.7595 571.95 41.2593 617.312 58.1638 661.758C106.621 791.458 124.985 846.1 136.488 900H134.357C108.001 794.267 74.6762 735.154 25.8522 571.85C16.9391 541.529 7.76323 510.433 -0.515915 479.971C-17.5288 418.521 -27.3179 355.067 -32.4897 291.575C-34.2874 274.092 -35.6262 253.442 -37.2361 236.021C-38.0453 223.554 -39.2256 208.9 -40.2433 196.296C-42.1535 163.762 -46.4787 111.625 -38.7793 0H-38.7751Z" fill="#B49164"/>
<path opacity="0.79" d="M-31.9289 0H-30.0437C-32.5003 89.6542 -31.6077 119.979 -29.7267 202.025C-29.1386 214.608 -28.4337 229.412 -27.6454 241.95C-26.6945 253.987 -24.9844 269.7 -23.7832 281.742C-15.7793 345.133 -2.49928 407.812 11.7108 470.067C18.9181 500.904 27.56 532.442 38.1623 562.267C50.1786 597.158 65.2937 632.25 80.2462 665.992C133.988 788.671 156.202 839.046 173.711 900H171.455C131.385 776.092 98.7148 740.171 38.0915 562.287C9.37097 478.654 -9.31036 417.417 -19.75 329.617C-20.3214 325.638 -21.2724 317.729 -21.6352 313.712C-23.191 298.854 -25.268 280.842 -26.5068 265.938C-27.1324 258.596 -28.1668 249.317 -28.8007 242.042C-29.4014 234.404 -30.1229 225.671 -30.8111 218.117C-39.1111 134.192 -35.3657 49.3042 -31.9372 0L-31.9289 0Z" fill="#B49164"/>
<path opacity="0.76" d="M-24.8935 0H-23.2043C-25.9321 115.879 -23.4045 141.442 -21.7153 208.283C-20.7477 224.337 -20.0553 240.433 -18.4161 256.438C-10.4373 336.421 8.49004 415.058 29.4069 492.529C34.4786 510.029 44.1633 540.725 52.4216 561.183C91.1396 661.917 163.204 771.108 210.914 900H209.171C167.387 794.579 128.982 741 86.2431 643.062C66.419 598.354 43.3875 539.05 32.5975 508.412C14.104 457.967 0.423553 405.592 -7.54695 352.467C-15.6467 299.367 -21.0313 245.871 -25.4357 192.379C-31.3124 120.258 -27.7964 43.1583 -24.8976 0L-24.8935 0Z" fill="#B49164"/>
<path opacity="0.73" d="M-17.8669 0H-16.3444C-18.5258 115.696 -17.1286 115.45 -13.7043 214.925C-12.3446 236.408 -10.8515 258.179 -7.85678 279.517C1.64441 353.142 20.8429 425.354 42.5355 496.229C45.38 505.025 50.068 518.221 53.0377 526.917C55.7529 533.983 60.5494 546.417 63.3939 553.358C112.748 670.346 188.449 762.429 248.676 899.996H246.565C174.118 746.267 124.122 709.804 41.5845 500.867C7.37518 414.938 -5.14159 322.671 -14.4426 231.263C-21.8333 172.233 -23.8645 91.5042 -17.8627 0L-17.8669 0Z" fill="#B49164"/>
<path opacity="0.7" d="M-10.8209 0H-9.41959C-10.2788 84.7292 -11.847 97.9875 -5.56989 223.988C-2.25406 263.625 -2.59192 261.892 0.990845 287.067C3.3891 305.7 7.24304 325.121 10.8759 343.483C25.8492 410.387 50.0944 494.362 78.9358 557.387C81.4842 562.8 85.3256 570.346 87.924 575.787C137.173 674.542 220.749 769.104 286.832 900H284.559C227.489 794.129 187.929 751.088 139.255 669.138C116.807 631.917 95.932 592.862 77.013 553.767C47.9505 494.921 25.0567 432.767 12.9779 368.142C3.42664 320.517 -2.23315 272.342 -8.01395 224.2C-16.0846 151.379 -15.4464 73.9167 -10.8251 0.00416667L-10.8209 0Z" fill="#B49164"/>
<path opacity="0.67" d="M-3.96844 0H-3.03836C-4.01849 55.5083 -5.28232 214.942 12.4521 311.396C15.8181 330.212 20.1057 349.4 24.6853 367.975C39.9548 426.567 58.7612 484.413 83.9114 539.554C103.452 582.229 128.852 622.008 156.522 659.842C216.916 742.5 276.713 813.142 325.688 900H323.243C251.284 780.725 185.434 719.267 119.138 605.179C62.8403 511.192 37.8528 444.567 23.3799 376.787C15.059 339.275 9.19061 300.5 4.05627 262.425C-1.94141 218.392 -12.9441 137.592 -3.96844 0Z" fill="#B49164"/>
<path opacity="0.64" d="M2.97137 0H3.67633C2.90054 49.3542 2.08722 157.096 11.9972 253.679C16.1054 295.229 24.0843 336.7 35.1704 376.954C73.0376 509.171 113.678 580.95 165.143 646.346C235.688 734.817 305.337 805.625 364.238 900H362.145C280.425 776.75 193.554 707.892 104.181 556.142C84.1488 522.471 66.5644 487.188 53.3303 450.279C26.9413 376.375 15.7176 298.108 5.94107 220.612C3.45941 198.275 -4.75723 121.504 2.97137 0Z" fill="#B49164"/>
<path opacity="0.61" d="M9.87711 0H10.3401C9.6102 49.7458 7.99194 220.121 31.1026 328.883C48.1114 406 76.0311 480.996 114.424 550.042C133.777 584.6 157.534 616.654 183.418 646.596C241.818 714.704 329.652 793.3 402.801 900H400.59C334.365 808.767 270.355 750.667 215.162 686.537C170.847 635.037 129.226 580.771 95.7008 521.575C61.8376 462.225 42.4432 395.921 29.8514 329.133C12.4506 235.842 0.400909 149.604 9.87292 0H9.87711Z" fill="#B49164"/>
<path opacity="0.58" d="M16.7689 0H16.9942C16.477 43.7083 14.3582 225.404 40.6346 338.188C50.8531 382.879 65.9683 426.358 84.3201 468.304C102.276 508.796 123.359 548.267 149.256 584.312C163.495 603.992 179.299 622.942 195.811 640.767C207.506 653.412 219.698 665.592 231.968 677.675C308.637 751.454 380.793 817.337 441.938 900H439.406C328.786 759.175 220.82 694.658 121.403 545.929C92.495 502.85 70.6314 455.146 56.1126 405.387C41.4688 355.933 32.1385 304.542 24.2014 253.642C22.3954 240.671 7.32611 152.85 16.7647 0H16.7689Z" fill="#B49164"/>
<path opacity="0.55" d="M23.6108 0.351823C23.3146 34.6727 20.3492 229.589 50.3126 347.831C68.7478 421.069 99.7539 491.164 141.183 554.31C166.875 593.239 198.399 628.11 232.667 659.673C245.525 671.527 258.597 683.139 271.827 694.573C357.834 768.514 424.184 828.16 481.074 900.002H478.488C387.259 791.285 303.55 735.156 219.52 648.094C126.001 552.248 78.2073 479.319 49.0739 348.123C33.1579 277.839 12.6373 177.181 23.6108 0.347656V0.351823Z" fill="#B49164"/>
<path opacity="0.52" d="M30.1806 5.10938C30.068 59.151 27.795 244.918 62.4882 366.343C88.1973 456.538 139.511 552.693 212.18 624.089C222.599 634.276 233.818 644.672 244.846 654.193C327.283 724.334 428.36 791.072 520.223 900.001H517.653C394.446 762.143 280.54 705.789 169.375 578.93C93.0063 491.434 66.3586 406.43 43.8736 288.618C41.2418 274.397 20.0454 176.468 30.1765 5.11354L30.1806 5.10938Z" fill="#B49164"/>
<path opacity="0.49" d="M36.7443 9.86719C36.4816 112.367 39.0591 178.73 50.4206 270.863C56.0721 315.48 65.8569 360.042 81.3099 402.313C111.002 483.988 158.8 559.663 222.251 619.342C246.359 642.076 272.527 662.513 299.266 682.055C405.969 758.059 486.075 817.542 559.586 899.996H557.054C437.634 773.546 327.14 718.167 215.503 613.326C157.303 558.921 110.222 501.363 79.1745 403.042C66.2532 363.017 56.7812 321.555 49.1277 280.201C29.9334 174.446 33.829 63.9297 36.7402 9.86719H36.7443Z" fill="#B49164"/>
<path opacity="0.46" d="M43.3175 14.625C43.2424 51.4833 41.3489 255.846 80.3214 378.517C103.924 454.275 144.928 524.496 198.92 582.629C298.032 691.192 447.936 738.717 599.117 900H596.652C483.038 785.425 379.338 732.588 266.896 644.271C237.988 621.558 209.601 597.875 184.334 571.1C136.544 521.3 107.107 465.121 85.8978 400.858C84.3671 395.958 81.8979 388.213 80.3631 383.313C78.97 378.371 76.701 370.571 75.2663 365.642C74.4155 362.363 72.6511 355.788 71.7878 352.3C58.8957 302.458 33.566 202.617 43.3217 14.6333L43.3175 14.625Z" fill="#B49164"/>
<path opacity="0.43" d="M49.8795 19.3867C49.942 54.3367 48.9452 243.203 82.4997 362.445C112.463 471.224 176.932 562.124 261.863 628.366C300.656 658.774 344.821 684.737 387.122 710.17C498.104 776.103 575.361 835.299 638.938 900.003H635.968C493.024 762.762 375.69 719.408 239.457 611.428C157.8 545.658 105.139 474.37 68.9819 312.799C57.6914 261.595 42.4637 171.524 49.8753 19.3909L49.8795 19.3867Z" fill="#B49164"/>
<path opacity="0.4" d="M56.4491 24.1445C57.6127 272.432 88.2184 364.39 101.282 400.165C103.396 405.536 105.84 412.611 108.109 417.915C109.473 421.078 112.297 427.861 113.686 431.036C115.959 436.053 119.375 443.265 121.74 448.245C122.995 450.715 127.007 458.436 128.254 460.907C129.089 462.645 138.673 480.624 152.675 501.511C182.622 546.09 220.485 585.386 262.881 618.299C370.143 701.903 521.954 747.128 678.645 900.003H675.921C554.065 787.415 454.048 742.953 317.603 656.361C277.471 630.74 237.531 603.924 203.305 570.599C179.84 547.932 159.348 521.795 142.477 493.89C140.258 490.036 136.421 483.315 134.173 479.349C132.167 475.536 128.4 468.224 126.44 464.511C124.613 460.611 121.076 453.278 119.279 449.403C117.093 444.34 113.848 436.953 111.759 431.853C64.6198 314.428 49.4545 190.736 56.4531 24.1445H56.4491Z" fill="#B49164"/>
<path opacity="0.37" d="M63.0142 28.9023C63.5981 146.819 70.3423 311.39 115.73 420.244C147.645 498.407 202.804 564.144 270.376 614.252C293.629 631.748 318.337 647.294 343.688 661.577C463.441 727.732 580.792 771.511 718.172 900.002H715.74C558.537 761.023 417.537 713.119 277.313 621.257C236.663 594.561 198.942 562.448 169.896 523.182C168.975 521.869 163.453 514.444 162.702 513.332C161.755 511.977 159.628 508.673 158.639 507.248C149.709 493.865 141.334 479.544 134.14 465.177C124.392 446.223 115.258 423.215 114.374 420.79C73.5247 313.923 56.0988 198.502 63.0224 28.9023H63.0142Z" fill="#B49164"/>
<path opacity="0.34" d="M69.5844 33.6641C71.7657 277.302 101.099 390.518 144.868 466.76C151.829 479.047 159.345 490.727 160.246 491.981C163.479 496.602 168.096 503.656 171.562 508.077C202.626 550.364 242.02 586.26 285.067 616.097C312.069 634.939 340.765 651.422 370.09 666.381C476.126 720.56 609.86 766.247 758.301 900.006H755.206C590.787 760.339 469.707 725.306 309.204 633.406C293.518 624.46 277.989 614.61 263.116 604.339C256.889 599.835 249.119 594.393 243.18 589.556C238.733 586.189 232.16 580.539 227.827 576.935C150.457 510.614 112.657 416.014 89.9214 319.093C66.8441 221.643 66.7816 105.414 69.5886 33.6724L69.5844 33.6641Z" fill="#B49164"/>
<path opacity="0.31" d="M798.562 900.001H795.739C678.137 802.414 586.253 759.947 433.3 687.801C421.688 682.318 410.098 676.889 405.847 674.951C410.114 676.855 421.763 682.151 433.554 687.239C618.832 764.73 710.749 822.564 798.558 900.005L798.562 900.001ZM385.202 665.276C392.05 668.572 398.966 671.739 405.847 674.947C398.945 671.793 392.054 668.572 385.202 665.276ZM76.1497 38.4219C77.4886 158.151 84.8084 324.289 134.508 433.851C184.788 545.314 274.453 612.018 385.202 665.276C346.425 646.989 307.995 627.868 272.297 604.143C182.248 544.372 136.585 462.614 106.434 358.38C92.7581 311.693 69.6182 216.801 76.1456 38.426L76.1497 38.4219Z" fill="#B49164"/>
</g>
<defs>
<clipPath id="clip0_1923_10725">
<rect width="1440" height="900" fill="white" transform="matrix(-1 0 0 1 1440 0)"/>
</clipPath>
</defs>
</svg>
