<svg width="40" height="40" viewBox="0 0 40 40" fill="none" xmlns="http://www.w3.org/2000/svg">
<rect x="0.5" y="0.5" width="39" height="39" rx="19.5" stroke="#F0F0F1"/>
<path opacity="0.974" fill-rule="evenodd" clip-rule="evenodd" d="M19.9941 8.22266C20.1369 8.41186 20.2229 8.62626 20.2533 8.86666C20.5117 8.64386 20.8073 8.57546 21.1409 8.66226C20.9861 8.73866 20.8605 8.84826 20.7637 8.99226C21.8677 8.87666 22.7317 9.27466 23.3557 10.1863C23.3477 10.2023 23.3373 10.2051 23.3241 10.1943C22.6945 9.74186 21.9929 9.54826 21.2193 9.61306C22.3793 9.89826 23.0521 10.6287 23.2377 11.8043C22.8545 11.3479 22.4225 10.9471 21.9417 10.6027C21.8021 10.5067 21.6557 10.4283 21.5017 10.3671C22.0281 11.0191 22.2241 11.7603 22.0909 12.5899C21.8821 11.8527 21.4893 11.2351 20.9129 10.7363C21.0237 11.2967 21.0445 11.8623 20.9757 12.4327C20.9553 12.5983 20.9209 12.7607 20.8737 12.9195C20.7461 12.4035 20.5917 11.8955 20.4105 11.3959C20.3105 11.1279 20.1745 10.8819 20.0021 10.6575C19.8293 10.8931 19.6933 11.1499 19.5937 11.4271C19.4161 11.9175 19.2645 12.4151 19.1381 12.9195C18.9573 12.1899 18.9441 11.4623 19.0989 10.7359C18.5229 11.2327 18.1329 11.8507 17.9285 12.5895C17.7885 11.7583 17.9849 11.0175 18.5177 10.3667C18.2369 10.4951 17.9749 10.6575 17.7321 10.8535C17.3865 11.1363 17.0725 11.4503 16.7897 11.7959C16.9133 10.7907 17.4577 10.0995 18.4233 9.72226C18.5461 9.67626 18.6717 9.63946 18.8005 9.61226C18.4277 9.56666 18.0609 9.59826 17.7009 9.70666C17.3281 9.81706 16.9825 9.98226 16.6641 10.2015C16.9797 9.69026 17.4249 9.32666 17.9993 9.10986C18.4105 8.97986 18.8293 8.94306 19.2561 8.99986C19.1597 8.85466 19.0341 8.74226 18.8789 8.66226C19.2045 8.57866 19.4977 8.64146 19.7585 8.85066C19.8021 8.62786 19.8805 8.41826 19.9941 8.22266Z" fill="#006936"/>
<path opacity="0.988" fill-rule="evenodd" clip-rule="evenodd" d="M10.7746 11.7266C13.6646 12.2914 16.5526 12.8674 19.4378 13.4546C19.4822 14.399 19.5162 15.3414 19.5398 16.2822C18.6326 15.815 17.6954 15.4194 16.7278 15.0962C15.7106 14.7626 14.6738 14.6842 13.6174 14.8606C14.247 14.879 14.8702 14.9522 15.4866 15.0806C16.2342 15.293 16.957 15.5706 17.6542 15.913C18.2034 16.1878 18.743 16.4782 19.2722 16.785C18.4106 17.3178 17.5362 17.831 16.649 18.3246C16.7922 18.5018 16.9438 18.6718 17.1046 18.835C17.1202 18.8454 17.1362 18.8454 17.1518 18.835C17.9526 18.3174 18.7614 17.8118 19.5786 17.319C19.6462 18.8074 19.7014 20.2942 19.7434 21.7802C18.8698 20.8146 17.9926 19.8514 17.1122 18.8898C16.8418 19.0654 16.5566 19.2146 16.2562 19.3374C15.667 19.5278 15.0702 19.559 14.4654 19.4318C14.2514 19.377 14.0366 19.3246 13.8214 19.2746C14.8438 19.2266 15.7706 18.9074 16.6018 18.3162C14.6458 16.1658 12.6954 14.0114 10.7506 11.8522C10.737 11.8054 10.7446 11.7634 10.7746 11.7266Z" fill="#006936"/>
<path opacity="0.988" fill-rule="evenodd" clip-rule="evenodd" d="M29.1361 11.7271C29.2461 11.7035 29.2905 11.7455 29.2697 11.8527C27.3133 14.0027 25.3629 16.1575 23.4185 18.3167C24.2481 18.9111 25.1749 19.2303 26.1989 19.2751C25.8669 19.3635 25.5317 19.4367 25.1937 19.4951C24.5089 19.5611 23.8649 19.4303 23.2617 19.1023C23.1413 19.0315 23.0209 18.9611 22.9005 18.8903C22.0257 19.8543 21.1513 20.8175 20.2773 21.7807C20.2721 21.7519 20.2669 21.7231 20.2617 21.6943C20.3165 20.2355 20.3769 18.7771 20.4425 17.3195C21.2553 17.8187 22.0645 18.3243 22.8693 18.8355C22.8849 18.8459 22.9009 18.8459 22.9165 18.8355C23.0645 18.6651 23.2165 18.4975 23.3721 18.3327C22.4869 17.8327 21.6125 17.3167 20.7489 16.7855C21.7517 16.1795 22.8041 15.6743 23.9061 15.2695C24.2989 15.1283 24.7021 15.0287 25.1157 14.9711C25.5433 14.9167 25.9729 14.8799 26.4037 14.8611C25.3649 14.6871 24.3437 14.7603 23.3405 15.0811C22.3569 15.4079 21.4041 15.8083 20.4817 16.2827C20.5001 15.3403 20.5341 14.3979 20.5837 13.4551C23.4349 12.8779 26.2861 12.3019 29.1361 11.7271Z" fill="#006936"/>
<path opacity="0.952" fill-rule="evenodd" clip-rule="evenodd" d="M11.3398 22.707C11.5546 22.707 11.769 22.707 11.9838 22.707C11.9838 22.9218 11.9838 23.1362 11.9838 23.351C11.769 23.351 11.5546 23.351 11.3398 23.351C11.3398 23.1362 11.3398 22.9218 11.3398 22.707Z" fill="#006936"/>
<path opacity="0.976" fill-rule="evenodd" clip-rule="evenodd" d="M12.5957 22.707C12.8053 22.707 13.0145 22.707 13.2241 22.707C13.2241 22.9218 13.2241 23.1362 13.2241 23.351C13.0145 23.351 12.8053 23.351 12.5957 23.351C12.5957 23.1362 12.5957 22.9218 12.5957 22.707Z" fill="#006936"/>
<path opacity="0.975" fill-rule="evenodd" clip-rule="evenodd" d="M27.6292 22.707C27.844 22.707 28.0584 22.707 28.2732 22.707C28.276 23.7542 28.2732 24.8014 28.2652 25.8486C28.0636 26.0502 27.862 26.2518 27.6604 26.4534C25.3984 26.4614 23.1364 26.4638 20.8744 26.4614C20.8772 26.671 20.8744 26.8802 20.8664 27.0898C20.6596 27.2966 20.4528 27.5034 20.246 27.7102C19.6176 27.7182 18.9892 27.7206 18.3608 27.7182C18.3608 27.5034 18.3608 27.289 18.3608 27.0742C18.984 27.0742 19.6068 27.0742 20.23 27.0742C20.2328 26.671 20.23 26.2678 20.222 25.8646C20.0256 26.061 19.8292 26.2574 19.6328 26.4538C19.2088 26.4618 18.7844 26.4642 18.3604 26.4618C18.3576 25.8282 18.3604 25.1946 18.3684 24.561C18.57 24.3594 18.7716 24.1578 18.9732 23.9562C19.6068 23.9482 20.2404 23.9458 20.874 23.9482C20.874 24.5714 20.874 25.1942 20.874 25.8174C20.9944 25.8174 21.1148 25.8174 21.2352 25.8174C21.2324 25.4038 21.2352 24.9902 21.2432 24.5766C21.45 24.3698 21.6568 24.163 21.8636 23.9562C22.492 23.9482 23.1204 23.9458 23.7488 23.9482C23.7488 24.163 23.7488 24.3774 23.7488 24.5922C23.1256 24.5922 22.5028 24.5922 21.8796 24.5922C21.8796 25.0006 21.8796 25.409 21.8796 25.8174C22.6284 25.8174 23.3772 25.8174 24.126 25.8174C24.126 25.1942 24.126 24.5714 24.126 23.9482C24.3408 23.9482 24.5552 23.9482 24.77 23.9482C24.77 24.5714 24.77 25.1942 24.77 25.8174C24.9692 25.8174 25.168 25.8174 25.3668 25.8174C25.3668 25.1942 25.3668 24.5714 25.3668 23.9482C25.5816 23.9482 25.796 23.9482 26.0108 23.9482C26.0108 24.5714 26.0108 25.1942 26.0108 25.8174C26.2152 25.8174 26.4192 25.8174 26.6236 25.8174C26.6236 25.1942 26.6236 24.5714 26.6236 23.9482C26.8384 23.9482 27.0528 23.9482 27.2676 23.9482C27.2676 24.5714 27.2676 25.1942 27.2676 25.8174C27.388 25.8174 27.5084 25.8174 27.6288 25.8174C27.6292 24.7802 27.6292 23.7438 27.6292 22.707ZM19.0052 24.5918C19.4136 24.5918 19.822 24.5918 20.2304 24.5918C20.2304 25.0002 20.2304 25.4086 20.2304 25.817C19.822 25.817 19.4136 25.817 19.0052 25.817C19.0052 25.4086 19.0052 25.0002 19.0052 24.5918Z" fill="#006936"/>
<path opacity="0.974" fill-rule="evenodd" clip-rule="evenodd" d="M28.6504 22.707C28.8652 22.707 29.0796 22.707 29.2944 22.707C29.2944 23.9586 29.2944 25.2098 29.2944 26.4614C29.0796 26.4614 28.8652 26.4614 28.6504 26.4614C28.6504 25.2098 28.6504 23.9582 28.6504 22.707Z" fill="#006936"/>
<path opacity="0.983" fill-rule="evenodd" clip-rule="evenodd" d="M11.3388 23.9473C11.9672 23.9473 12.5956 23.9473 13.224 23.9473C13.224 24.5705 13.224 25.1933 13.224 25.8165C13.6376 25.8165 14.0512 25.8165 14.4648 25.8165C14.4648 25.1933 14.4648 24.5705 14.4648 23.9473C14.6744 23.9473 14.8836 23.9473 15.0932 23.9473C15.096 24.5809 15.0932 25.2145 15.0852 25.8481C14.8836 26.0497 14.682 26.2513 14.4804 26.4529C13.852 26.4609 13.2236 26.4633 12.5952 26.4609C12.598 26.2617 12.5952 26.0629 12.5872 25.8641C12.3908 26.0605 12.1944 26.2569 11.998 26.4533C11.5688 26.4613 11.1392 26.4637 10.71 26.4613C10.7072 25.8329 10.71 25.2045 10.718 24.5761C10.9284 24.3685 11.1352 24.1589 11.3388 23.9473ZM11.3548 24.5913C11.7684 24.5913 12.182 24.5913 12.5956 24.5913C12.5956 25.0049 12.5956 25.4185 12.5956 25.8321C12.182 25.8321 11.7684 25.8321 11.3548 25.8321C11.3548 25.4189 11.3548 25.0049 11.3548 24.5913Z" fill="#006936"/>
<path opacity="0.973" fill-rule="evenodd" clip-rule="evenodd" d="M16.0991 23.9473C16.7275 23.9473 17.3559 23.9473 17.9843 23.9473C17.9871 24.5809 17.9843 25.2145 17.9763 25.8481C17.7747 26.0497 17.5731 26.2513 17.3715 26.4529C16.7379 26.4609 16.1043 26.4633 15.4707 26.4609C15.4707 26.2461 15.4707 26.0317 15.4707 25.8169C16.0939 25.8169 16.7167 25.8169 17.3399 25.8169C17.3399 25.4085 17.3399 25.0001 17.3399 24.5917C16.9263 24.5917 16.5127 24.5917 16.0991 24.5917C16.0991 24.3765 16.0991 24.1621 16.0991 23.9473Z" fill="#006936"/>
<path opacity="0.946" fill-rule="evenodd" clip-rule="evenodd" d="M13.209 27.0742C13.4238 27.0742 13.6382 27.0742 13.853 27.0742C13.853 27.289 13.853 27.5034 13.853 27.7182C13.6382 27.7182 13.4238 27.7182 13.209 27.7182C13.209 27.5034 13.209 27.289 13.209 27.0742Z" fill="#006936"/>
<path opacity="0.976" fill-rule="evenodd" clip-rule="evenodd" d="M14.4648 27.0742C14.6744 27.0742 14.8836 27.0742 15.0932 27.0742C15.0932 27.289 15.0932 27.5034 15.0932 27.7182C14.8836 27.7182 14.6744 27.7182 14.4648 27.7182C14.4648 27.5034 14.4648 27.289 14.4648 27.0742Z" fill="#006936"/>
<path opacity="0.977" fill-rule="evenodd" clip-rule="evenodd" d="M22.9957 28.0156C23.2105 28.0156 23.4249 28.0156 23.6397 28.0156C23.6397 29.2672 23.6397 30.5184 23.6397 31.77C23.4249 31.77 23.2105 31.77 22.9957 31.77C22.9985 31.5656 22.9957 31.3616 22.9877 31.1572C22.7861 31.3588 22.5845 31.5604 22.3829 31.762C21.9641 31.77 21.5453 31.7724 21.1261 31.77C21.1233 31.1364 21.1261 30.5028 21.1341 29.8692C21.3357 29.6676 21.5373 29.466 21.7389 29.2644C22.1577 29.2564 22.5765 29.254 22.9957 29.2564C22.9957 28.8432 22.9957 28.4292 22.9957 28.0156ZM21.7545 29.9008C22.1681 29.9008 22.5817 29.9008 22.9953 29.9008C22.9953 30.3092 22.9953 30.7176 22.9953 31.126C22.5817 31.126 22.1681 31.126 21.7545 31.126C21.7545 30.7176 21.7545 30.3092 21.7545 29.9008Z" fill="#006936"/>
<path opacity="0.97" fill-rule="evenodd" clip-rule="evenodd" d="M24 28.0156C24.2148 28.0156 24.4292 28.0156 24.644 28.0156C24.644 28.2248 24.644 28.4344 24.644 28.644C24.4292 28.644 24.2148 28.644 24 28.644C24 28.4348 24 28.2252 24 28.0156Z" fill="#006936"/>
<path opacity="0.976" fill-rule="evenodd" clip-rule="evenodd" d="M13.0826 28.6289C13.7162 28.6289 14.3498 28.6289 14.9834 28.6289C14.9834 28.8437 14.9834 29.0581 14.9834 29.2729C14.3602 29.2729 13.7374 29.2729 13.1142 29.2729C13.1142 29.4773 13.1142 29.6813 13.1142 29.8857C13.7374 29.8857 14.3602 29.8857 14.9834 29.8857C14.9862 30.3045 14.9834 30.7237 14.9754 31.1425C14.7686 31.3493 14.5618 31.5561 14.355 31.7629C13.7266 31.7709 13.0982 31.7733 12.4698 31.7709C12.4698 31.5561 12.4698 31.3417 12.4698 31.1269C13.093 31.1269 13.7158 31.1269 14.339 31.1269C14.339 30.9225 14.339 30.7185 14.339 30.5141C13.7158 30.5141 13.093 30.5141 12.4698 30.5141C12.467 30.0901 12.4698 29.6657 12.4778 29.2417C12.6822 29.0393 12.8842 28.8353 13.0826 28.6289Z" fill="#006936"/>
<path opacity="0.984" fill-rule="evenodd" clip-rule="evenodd" d="M15.9732 29.2578C16.6016 29.2578 17.23 29.2578 17.8584 29.2578C17.8584 30.0954 17.8584 30.9334 17.8584 31.771C17.6488 31.771 17.4396 31.771 17.23 31.771C17.2328 31.5666 17.23 31.3626 17.222 31.1582C17.0204 31.3598 16.8188 31.5614 16.6172 31.763C16.1984 31.771 15.7796 31.7734 15.3604 31.771C15.3576 31.1374 15.3604 30.5038 15.3684 29.8702C15.5732 29.6682 15.7748 29.4638 15.9732 29.2578ZM15.9892 29.9018C16.4028 29.9018 16.8164 29.9018 17.23 29.9018C17.23 30.3102 17.23 30.7186 17.23 31.127C16.8164 31.127 16.4028 31.127 15.9892 31.127C15.9892 30.7186 15.9892 30.3102 15.9892 29.9018Z" fill="#006936"/>
<path opacity="0.973" fill-rule="evenodd" clip-rule="evenodd" d="M18.2348 29.2578C18.4496 29.2578 18.664 29.2578 18.8788 29.2578C18.8788 29.881 18.8788 30.5038 18.8788 31.127C19.2872 31.127 19.6956 31.127 20.104 31.127C20.104 30.5038 20.104 29.881 20.104 29.2578C20.3188 29.2578 20.5332 29.2578 20.748 29.2578C20.7508 29.8862 20.748 30.5146 20.74 31.143C20.5332 31.3498 20.3264 31.5566 20.1196 31.7634C19.4912 31.7714 18.8628 31.7738 18.2344 31.7714C18.2348 30.9334 18.2348 30.0954 18.2348 29.2578Z" fill="#006936"/>
<path opacity="0.97" fill-rule="evenodd" clip-rule="evenodd" d="M24 29.2578C24.2148 29.2578 24.4292 29.2578 24.644 29.2578C24.644 30.0954 24.644 30.9334 24.644 31.771C24.4292 31.771 24.2148 31.771 24 31.771C24 30.9334 24 30.0954 24 29.2578Z" fill="#006936"/>
<path opacity="0.972" fill-rule="evenodd" clip-rule="evenodd" d="M25.6353 29.2578C26.2689 29.2578 26.9025 29.2578 27.5361 29.2578C27.5361 30.0954 27.5361 30.9334 27.5361 31.771C27.3213 31.771 27.1069 31.771 26.8921 31.771C26.8949 31.5666 26.8921 31.3626 26.8841 31.1582C26.6825 31.3598 26.4809 31.5614 26.2793 31.763C25.8605 31.771 25.4417 31.7734 25.0225 31.771C25.0197 31.1374 25.0225 30.5038 25.0305 29.8702C25.2353 29.6682 25.4369 29.4638 25.6353 29.2578ZM25.6669 29.9018C26.0753 29.9018 26.4837 29.9018 26.8921 29.9018C26.8921 30.3102 26.8921 30.7186 26.8921 31.127C26.4837 31.127 26.0753 31.127 25.6669 31.127C25.6669 30.7186 25.6669 30.3102 25.6669 29.9018Z" fill="#006936"/>
</svg>
