 <svg width="20" height="20" viewBox="0 0 20 20" fill="none"
                             xmlns="http://www.w3.org/2000/svg">
                          <path
                            d="M2.3158 18.5848L2.31573 18.5848C2.04349 18.5789 1.70208 18.5451 1.41341 18.3947C1.26084 18.3153 1.11223 18.1978 1.00262 18.0271C0.892015 17.8548 0.839961 17.6576 0.836863 17.4498L0.836859 17.4495C0.833405 17.2089 0.83457 16.9642 0.835705 16.7256C0.83626 16.609 0.836808 16.4939 0.836808 16.3814V13.4435C0.836808 13.3301 0.790931 13.1674 0.689016 12.9951C0.630873 12.8969 0.563495 12.8109 0.495666 12.7421V15.2621C0.495666 15.4044 0.495089 15.5443 0.494518 15.683C0.493394 15.9558 0.49229 16.2237 0.495628 16.4946L2.3158 18.5848ZM2.3158 18.5848C4.73206 18.6369 7.15847 18.6195 9.57532 18.6022C10.7793 18.5936 11.9809 18.585 13.1776 18.585H13.1823H13.187H13.1917H13.1964H13.2011H13.2058H13.2105H13.2152H13.2199H13.2246H13.2293H13.234H13.2386H13.2433H13.248H13.2527H13.2574H13.2621H13.2668H13.2715H13.2762H13.2809H13.2856H13.2903H13.295H13.2997H13.3044H13.309H13.3137H13.3184H13.3231H13.3278H13.3325H13.3372H13.3419H13.3466H13.3513H13.356H13.3607H13.3654H13.3701H13.3748H13.3795H13.3841H13.3888H13.3935H13.3982H13.4029H13.4076H13.4123H13.417H13.4217H13.4264H13.4311H13.4358H13.4405H13.4452H13.4499H13.4546H13.4593H13.4639H13.4686H13.4733H13.478H13.4827H13.4874H13.4921H13.4968H13.5015H13.5062H13.5109H13.5156H13.5203H13.525H13.5297H13.5344H13.5391H13.5438H13.5484H13.5531H13.5578H13.5625H13.5672H13.5719H13.5766H13.5813H13.586H13.5907H13.5954H13.6001H13.6048H13.6095H13.6142H13.6189H13.6236H13.6283H13.633H13.6376H13.6423H13.647H13.6517H13.6564H13.6611H13.6658H13.6705H13.6752H13.6799H13.6846H13.6893H13.694H13.6987H13.7034H13.7081H13.7128H13.7175H13.7222H13.7269H13.7315H13.7362H13.7409H13.7456H13.7503H13.755H13.7597H13.7644H13.7691H13.7738H13.7785H13.7832H13.7879H13.7926H13.7973H13.802H13.8067H13.8114H13.8161H13.8208H13.8255H13.8301H13.8348H13.8395H13.8442H13.8489H13.8536H13.8583H13.863H13.8677H13.8724H13.8771H13.8818H13.8865H13.8912H13.8959H13.9006H13.9053H13.91H13.9147H13.9194H13.9241H13.9288H13.9334H13.9381H13.9428H13.9475H13.9522H13.9569H13.9616H13.9663H13.971H13.9757H13.9804H13.9851H13.9898H13.9945H13.9992H14.0039H14.0086H14.0133H14.018H14.0227H14.0274H14.0321H14.0368H14.0415H14.0462H14.0508H14.0555H14.0602H14.0649H14.0696H14.0743H14.079H14.0837H14.0884H14.0931H14.0978H14.1025H14.1072H14.1119H14.1166H14.1213H14.126H14.1307H14.1354H14.1401H14.1448H14.1495H14.1542H14.1589H14.1636H14.1683H14.1729H14.1776H14.1823H14.187H14.1917H14.1964H14.2011H14.2058H14.2105H14.2152H14.2199H14.2246H14.2293H14.234H14.2387H14.2434H14.2481H14.2528H14.2575H14.2622H14.2669H14.2716H14.2763H14.281H14.2857H14.2904H14.2951H14.2998H14.3045H14.3091H14.3138H14.3185H14.3232H14.3279H14.3326H14.3373H14.342H14.3467H14.3514H14.3561H14.3608H14.3655H14.3702H14.3749H14.3796H14.3843H14.389H14.3937H14.3984H14.4031H14.4078H14.4125H14.4172H14.4219H14.4266H14.4313H14.436H14.4407H14.4454H14.4501H14.4548H14.4594H14.4641H14.4688H14.4735H14.4782H14.4829H14.4876H14.4923H14.497H14.5017H14.5064H14.5111H14.5158H14.5205H14.5252H14.5299H14.5346H14.5393H14.544H14.5487H14.5534H14.5581H14.5628H14.5675H14.5722H14.5769H14.5816H14.5863H14.591H14.5957H14.6004H14.6051H14.6098H14.6145H14.6192H14.6238H14.6285H14.6332H14.6379H14.6426H14.6473H14.652H14.6567H14.6614H14.6661H14.6708H14.6755H14.6802H14.6849H14.6896H14.6943H14.699H14.7037H14.7084H14.7131H14.7178H14.7225H14.7272H14.7319H14.7366H14.7413H14.746H14.7507H14.7554H14.7601H14.7648H14.7695H14.7742H14.7789H14.7836H14.7883H14.793H14.7977H14.8024H14.807H14.8117H14.8164H14.8211H14.8258H14.8305H14.8352H14.8399H14.8446H14.8493H14.854H14.8587H14.8634H14.8681H14.8728H14.8775H14.8822H14.8869H14.8916H14.8963H14.901H14.9057H14.9104H14.9151H14.9198H14.9245H14.9292H14.9339H14.9386H14.9433H14.948H14.9527H14.9574H14.9621H14.9668H14.9715H14.9762H14.9809H14.9856H14.9903H14.995H14.9997H15.0044H15.0091H15.0137H15.0184H15.0231H15.0278H15.0325H15.0372H15.0419H15.0466H15.0513H15.056H15.0607H15.0654H15.0701H15.0748H15.0795H15.0842H15.0889H15.0936H15.0983H15.103H15.1077H15.1124H15.1171H15.1218H15.1265H15.1312H15.1359H15.1406H15.1453H15.15H15.1547H15.1594H15.1641H15.1688H15.1735H15.1782H15.1829H15.1876H15.1923H15.197H15.2017H15.2064H15.2111H15.2158H15.2205H15.2252H15.2299H15.2346H15.2392H15.2439H15.2486H15.2533H15.258H15.2627H15.2674H15.2721H15.2768H15.2815H15.2862H15.2909H15.2956H15.3003H15.305H15.3097H15.3144H15.3191H15.3238H15.3285H15.3332H15.3379H15.3426H15.3473H15.352H15.3567H15.3614H15.3661H15.3708H15.3755H15.3802H15.3849H15.3896H15.3943H15.399H15.4037H15.4084H15.4131H15.4178H15.4225H15.4272H15.4319H15.4366H15.4413H15.446H15.4507H15.4554H15.4601H15.4648H15.4695H15.4741H15.4788H15.4835H15.4882H15.4929H15.4976H15.5023H15.507H15.5117H15.5164H15.5211H15.5258H15.5305H15.5352H15.5399H15.5446H15.5493H15.554H15.5587H15.5634H15.5681H15.5728H15.5775H15.5822C15.6418 18.585 15.7047 18.5859 15.7706 18.587C16.2553 18.5945 16.8965 18.6045 17.4769 18.2437C18.1252 17.841 18.3774 17.2542 18.4658 16.675C18.5258 16.2821 18.5135 15.8396 18.5031 15.4648C18.4995 15.3336 18.4961 15.2108 18.4961 15.1013V12.7412C18.5639 12.81 18.6313 12.896 18.6894 12.9943C18.7914 13.1665 18.8372 13.3293 18.8372 13.4426V16.5999C18.8372 16.7327 18.8396 16.8579 18.8419 16.9775C18.8478 17.2846 18.853 17.5551 18.815 17.8247L18.815 17.8248M2.3158 18.5848L18.815 17.8248M18.815 17.8248C18.6878 18.7288 17.9373 19.3911 17.0254 19.4165C16.1445 19.4411 15.2682 19.4329 14.3822 19.4247C13.9344 19.4205 13.4841 19.4163 13.0295 19.4163H13.0156H13.0018H12.9879H12.9741H12.9603H12.9464H12.9326H12.9187H12.9049H12.8911H12.8772H12.8634H12.8495H12.8357H12.8218H12.808H12.7942H12.7803H12.7665H12.7526H12.7388H12.725H12.7111H12.6973H12.6834H12.6696H12.6558H12.6419H12.6281H12.6142H12.6004H12.5866H12.5727H12.5589H12.545H12.5312H12.5174H12.5035H12.4897H12.4758H12.462H12.4481H12.4343H12.4205H12.4066H12.3928H12.3789H12.3651H12.3513H12.3374H12.3236H12.3097H12.2959H12.2821H12.2682H12.2544H12.2405H12.2267H12.2129H12.199H12.1852H12.1713H12.1575H12.1437H12.1298H12.116H12.1021H12.0883H12.0745H12.0606H12.0468H12.0329H12.0191H12.0053H11.9914H11.9776H11.9637H11.9499H11.9361H11.9222H11.9084H11.8945H11.8807H11.8669H11.853H11.8392H11.8253H11.8115H11.7977H11.7838H11.77H11.7561H11.7423H11.7285H11.7146H11.7008H11.6869H11.6731H11.6593H11.6454H11.6316H11.6177H11.6039H11.5901H11.5762H11.5624H11.5485H11.5347H11.5209H11.507H11.4932H11.4793H11.4655H11.4517H11.4378H11.424H11.4102H11.3963H11.3825H11.3686H11.3548H11.341H11.3271H11.3133H11.2994H11.2856H11.2718H11.2579H11.2441H11.2302H11.2164H11.2026H11.1887H11.1749H11.161H11.1472H11.1334H11.1195H11.1057H11.0918H11.078H11.0642H11.0503H11.0365H11.0226H11.0088H10.995H10.9811H10.9673H10.9535H10.9396H10.9258H10.9119H10.8981H10.8843H10.8704H10.8566H10.8427H10.8289H10.8151H10.8012H10.7874H10.7735H10.7597H10.7459H10.732H10.7182H10.7043H10.6905H10.6767H10.6628H10.649H10.6352H10.6213H10.6075H10.5936H10.5798H10.566H10.5521H10.5383H10.5244H10.5106H10.4968H10.4829H10.4691H10.4552H10.4414H10.4276H10.4137H10.3999H10.3861H10.3722H10.3584H10.3445H10.3307H10.3169H10.303H10.2892H10.2753H10.2615H10.2477H10.2338H10.22H10.2061H10.1923H10.1785H10.1646H10.1508H10.137H10.1231H10.1093H10.0954H10.0816H10.0678H10.0539H10.0401H10.0262H10.0124H9.99856H9.98473H9.97089H9.95705H9.94321H9.92937H9.91553H9.90169H9.88785H9.87402H9.86018H9.84634H9.8325H9.81866H9.80482H9.79098H9.77714H9.7633H9.74947H9.73563H9.72179H9.70795H9.69411H9.68027H9.66643H9.65259H9.63876H9.62492H9.61108H9.59724H9.5834H9.56956H9.55572H9.54189H9.52805H9.51421H9.50037H9.48653H9.47269H9.45885H9.44501H9.43118H9.41734H9.4035H9.38966H9.37582H9.36198H9.34814H9.3343H9.32047H9.30663H9.29279H9.27895H9.26511H9.25127H9.23743H9.22359H9.20975H9.19592H9.18208H9.16824H9.1544H9.14056H9.12672H9.11288H9.09904H9.08521H9.07137H9.05753H9.04369H9.02985H9.01601H9.00217H8.98833H8.97449H8.96066H8.94682H8.93298H8.91914H8.9053H8.89146H8.87762H8.86378H8.84995H8.83611H8.82227H8.80843H8.79459H8.78075H8.76691H8.75307H8.73923H8.7254H8.71156H8.69772H8.68388H8.67004H8.6562H8.64236H8.62852H8.61469H8.60085H8.58701H8.57317H8.55933H8.54549H8.53165H8.51781H8.50397H8.49014H8.4763H8.46246H8.44862H8.43478H8.42094H8.4071H8.39326H8.37942H8.36558H8.35174H8.33791H8.32407H8.31023H8.29639H8.28255H8.26871H8.25487H8.24103H8.22719H8.21335H8.19952H8.18568H8.17184H8.158H8.14416H8.13032H8.11648H8.10264H8.0888H8.07496H8.06112H8.04729H8.03345H8.01961H8.00577H7.99193H7.97809H7.96425H7.95041H7.93657H7.92273H7.90889H7.89505H7.88121H7.86738H7.85354H7.8397H7.82586H7.81202H7.79818H7.78434H7.7705H7.75666H7.74282H7.72898H7.71514H7.7013H7.68746H7.67362H7.65979H7.64595H7.63211H7.61827H7.60443H7.59059H7.57675H7.56291H7.54907H7.53523H7.52139H7.50755H7.49371H7.47987H7.46603H7.45219H7.43835H7.42451H7.41067H7.39683H7.38299H7.36915H7.35532H7.34148H7.32764H7.3138H7.29996H7.28612H7.27228H7.25844H7.2446H7.23076H7.21692H7.20308H7.18924H7.1754H7.16156H7.14772H7.13388H7.12004H7.1062H7.09236H7.07852H7.06468H7.05084H7.037H7.02316H7.00932H6.99548H6.98164H6.9678H6.95396H6.94012H6.92628H6.91244H6.8986H6.88476H6.87092H6.85708H6.84324H6.8294H6.81556H6.80172H6.78788H6.77404H6.7602H6.74636H6.73252H6.71868H6.70484H6.691H6.67716H6.66332H6.64948H6.63564H6.6218H6.60795H6.59411H6.58027H6.56643H6.55259H6.53875H6.52491H6.51107H6.49723H6.48339H6.46955H6.45571H6.44187H6.42803H6.41419H6.40035H6.38651H6.37267H6.35883H6.34498H6.33114H6.3173H6.30346H6.28962H6.27578H6.26194H6.2481H6.23426H6.22042H6.20658H6.19274H6.17889H6.16505H6.15121H6.13737H6.12353H6.10969H6.09585H6.08201H6.06817H6.05433H6.04048H6.02664H6.0128H5.99896H5.98512H5.97128H5.95744H5.9436H5.93895H5.9343H5.92965H5.925H5.92035H5.91571H5.91106H5.90641H5.90176H5.89711H5.89246H5.88782H5.88317H5.87852H5.87387H5.86922H5.86457H5.85993H5.85528H5.85063H5.84598H5.84133H5.83669H5.83204H5.82739H5.82274H5.81809H5.81345H5.8088H5.80415H5.7995H5.79485H5.79021H5.78556H5.78091H5.77626H5.77162H5.76697H5.76232H5.75767H5.75302H5.74838H5.74373H5.73908H5.73443H5.72979H5.72514H5.72049H5.71584H5.7112H5.70655H5.7019H5.69725H5.69261H5.68796H5.68331H5.67866H5.67402H5.66937H5.66472H5.66007H5.65543H5.65078H5.64613H5.64148H5.63684H5.63219H5.62754H5.62289H5.61825H5.6136H5.60895H5.6043H5.59966H5.59501H5.59036H5.58572H5.58107H5.57642H5.57177H5.56713H5.56248H5.55783H5.55319H5.54854H5.54389H5.53924H5.5346H5.52995H5.5253H5.52066H5.51601H5.51136H5.50671H5.50207H5.49742H5.49277H5.48813H5.48348H5.47883H5.47419H5.46954H5.46489H5.46025H5.4556H5.45095H5.44631H5.44166H5.43701H5.43236H5.42772H5.42307H5.41842H5.41378H5.40913H5.40448H5.39984H5.39519H5.39054H5.3859H5.38125H5.3766H5.37196H5.36731H5.36266H5.35802H5.35337H5.34872H5.34408H5.33943H5.33478H5.33014H5.32549H5.32084H5.3162H5.31155H5.3069H5.30226H5.29761H5.29297H5.28832H5.28367H5.27903H5.27438H5.26973H5.26509H5.26044H5.25579H5.25115H5.2465H5.24185H5.23721H5.23256H5.22791H5.22327H5.21862H5.21398H5.20933H5.20468H5.20004H5.19539H5.19074H5.1861H5.18145H5.17681H5.17216H5.16751H5.16287H5.15822H5.15357H5.14893H5.14428H5.13964H5.13499H5.13034H5.1257H5.12105H5.1164H5.11176H5.10711H5.10247H5.09782H5.09317H5.08853H5.08388H5.07923H5.07459H5.06994H5.0653H5.06065H5.056H5.05136H5.04671H5.04206H5.03742H5.03277H5.02813H5.02348H5.01883H5.01419H5.00954H5.0049H5.00025H4.9956H4.99096H4.98631H4.98167H4.97702H4.97237H4.96773H4.96308H4.95844H4.95379H4.94914H4.9445H4.93985H4.9352H4.93056H4.92591H4.92127H4.91662H4.91197H4.90733H4.90268H4.89804H4.89339H4.88874H4.8841H4.87945H4.87481H4.87016H4.86551H4.86087H4.85622H4.85158H4.84693H4.84228H4.83764H4.83299H4.82835H4.8237H4.81905H4.81441H4.80976H4.80512H4.80047H4.79582H4.79118H4.78653H4.78189H4.77724H4.77259H4.76795H4.7633H4.75866H4.75401H4.74936H4.74472H4.74007H4.73543H4.73078H4.72613H4.72149H4.71684H4.7122H4.70755H4.7029H4.69826H4.69361H4.68897H4.68432H4.67967H4.67503H4.67038H4.66574H4.66109H4.65644H4.6518H4.64715H4.64251H4.63786H4.63321H4.62857H4.62392H4.61928H4.61463H4.60998H4.60534H4.60069H4.59605H4.5914H4.58675H4.58211H4.57746H4.57282H4.56817H4.56352H4.55888H4.55423H4.54959H4.54494H4.54029H4.53565H4.531H4.52636H4.52171H4.51706H4.51242H4.50777H4.50312H4.49848H4.49383H4.48919H4.48454H4.47989H4.47525H4.4706H4.46596H4.46131H4.45666H4.45202H4.44737H4.44272H4.43808H4.43343H4.42879H4.42414H4.41949H4.41485H4.4102H4.40556H4.40091H4.39626H4.39162H4.38697H4.38232H4.37768H4.37303H4.36839H4.36374H4.35909H4.35445H4.3498H4.34515H4.34051H4.33586H4.33122H4.32657H4.32192H4.31728H4.31263H4.30798H4.30334H4.29869H4.29404H4.2894H4.28475H4.28011H4.27546H4.27081H4.26617H4.26152H4.25687H4.25223H4.24758H4.24293H4.23829H4.23364H4.22899H4.22435H4.2197H4.21506H4.21041H4.20576H4.20112H4.19647H4.19182H4.18718H4.18253H4.17788H4.17324H4.16859H4.16394H4.1593H4.15465H4.15H4.14536H4.14071H4.13606H4.13142H4.12677H4.12212H4.11748H4.11283H4.10818H4.10354H4.09889H4.09424H4.0896H4.08495H4.0803H4.07566H4.07101H4.06636H4.06172H4.05707H4.05242H4.04777H4.04313H4.03848H4.03383H4.02919H4.02454H4.01989H4.01525H4.0106H4.00595H4.00131H3.99666H3.99201H3.98736H3.98272H3.97807H3.97342H3.96878H3.96413H3.95948H3.95484H3.95019H3.94554H3.94089H3.93625H3.9316H3.92695H3.92231H3.91766H3.91301H3.90836H3.90372H3.89907H3.89442H3.88977H3.88513H3.88048H3.87583H3.87119H3.86654H3.86189H3.85724H3.8526H3.84795H3.8433H3.83865H3.83401H3.82936H3.82471H3.82006H3.81542H3.81077H3.80612H3.80147H3.79683H3.79218H3.78753H3.78288H3.77823H3.77359H3.76894H3.76429H3.75964H3.755H3.75035H3.7457H3.74105H3.73641H3.73176H3.72711H3.72246H3.71781H3.71317H3.70852H3.70387H3.69922H3.69457H3.68993H3.68528H3.68063H3.67598H3.67133H3.66669H3.66204H3.65739H3.65274H3.64809H3.64345H3.6388H3.63415H3.6295H3.62485H3.6202H3.61556H3.61091H3.60626H3.60161H3.59696H3.59231H3.58767H3.58302H3.57837H3.57372H3.56907H3.56442C2.70376 19.4163 2.0441 19.2749 1.47852 18.721M18.815 17.8248L1.47852 18.721M1.47852 18.721C0.882527 18.1369 0.505721 17.3101 0.495628 16.4947L1.47852 18.721ZM14.437 5.69004L14.4375 5.69055C14.5469 5.79962 14.6738 5.96865 14.7586 6.14643C14.7659 6.16165 14.7726 6.17645 14.7788 6.1908L10.8379 2.24982V2.0909L14.437 5.69004ZM9.49673 12.5578V3.26433L9.83787 2.92319V13.2592C9.77004 13.1904 9.70266 13.1044 9.64452 13.0061C9.5426 12.8339 9.49673 12.6712 9.49673 12.5578ZM9.60523 0.902501C9.63594 0.951568 9.66375 1.00125 9.68834 1.05048C9.64979 0.99228 9.61368 0.930484 9.58268 0.867402C9.59021 0.878838 9.59774 0.890537 9.60523 0.902501ZM8.49673 1.48891V2.85012L4.96005 6.38679C4.89099 6.32353 4.8073 6.22558 4.72717 6.09757C4.61867 5.92424 4.54653 5.74319 4.52348 5.60178C4.50981 5.51786 4.51678 5.47834 4.5208 5.46484L8.49673 1.48891ZM4.52297 5.45921C4.52301 5.45924 4.52275 5.4599 4.52207 5.46108C4.52259 5.45977 4.52293 5.45917 4.52297 5.45921Z"
                            fill="#B49164" stroke="#B49164"/>
                        </svg>