<svg width="32" height="32" viewBox="0 0 32 32" fill="none" xmlns="http://www.w3.org/2000/svg">
<path d="M27.9879 29.0718C27.9879 28.1936 27.9913 27.3152 27.9879 26.4369C27.9812 24.4489 27.1695 22.5524 25.8239 21.1017C24.582 19.7629 22.8616 18.9625 21.0316 18.941C20.4887 18.9342 19.9445 18.941 19.4004 18.941C17.1673 18.941 14.9332 18.941 12.7003 18.941C10.8105 18.941 8.80328 18.7333 7.08509 19.6861C5.09708 20.789 4.04268 22.8966 4.01333 25.1217C4.00092 26.0452 4.01333 26.9686 4.01333 27.8921C4.01333 28.5017 4.46714 29.2288 4.97177 29.5516C5.4764 29.8745 5.80152 29.6182 5.80152 29.0729V26.56C5.80152 25.1026 6.36936 23.6858 7.47681 22.7104C8.48268 21.8242 9.72673 21.3908 11.0566 21.384C11.6414 21.3817 12.2272 21.384 12.812 21.384H19.1012C20.5643 21.384 22.3061 21.1706 23.706 21.6718C25.3012 22.243 26.1884 23.4916 26.1997 25.1704C26.2065 26.078 26.1997 26.9845 26.1997 27.8921C26.1997 28.5017 26.6536 29.2288 27.1581 29.5516C27.6628 29.8745 27.9879 29.617 27.9879 29.0718Z" fill="#B49164"/>
<path d="M20.6575 8.47471C20.6292 10.4955 19.2576 12.2814 17.4175 13.031C15.6756 13.74 13.4415 13.4183 12.1443 11.9969C11.9626 11.7971 11.7605 11.4855 11.6691 11.2778C11.4896 10.8736 11.3993 10.5293 11.3654 10.0473C11.2954 9.05271 11.5562 8.07056 12.0744 7.22163C13.1321 5.4865 15.1156 4.55176 17.1263 4.77415C18.1489 4.88704 19.1684 5.37022 19.8639 6.13223C19.778 6.03854 19.9349 6.22028 19.9337 6.21803C19.9959 6.29479 20.0545 6.37268 20.1121 6.45171C20.0648 6.37382 20.0659 6.37607 20.1167 6.45735C20.1833 6.56008 20.2453 6.66734 20.3029 6.77571C20.2127 6.60638 20.3989 6.99246 20.3967 6.98907C20.5693 7.41354 20.6495 7.93622 20.6575 8.47471C20.6664 9.08658 21.1045 9.80795 21.6148 10.1342C22.0923 10.4401 22.4524 10.2042 22.4445 9.65555C22.4039 6.77458 20.5875 3.96134 17.9424 2.7997C15.5243 1.73852 12.6749 2.43054 10.9737 4.42532C7.16247 8.89128 11.6623 16.7293 17.4311 15.7561C20.4463 15.2471 22.4027 12.6426 22.4445 9.65555C22.4524 9.04932 21.9861 8.31667 21.486 7.99606C20.986 7.67544 20.6653 7.93283 20.6575 8.47471Z" fill="#B49164"/>
</svg>
