<svg width="52" height="35" viewBox="0 0 52 35" fill="none" xmlns="http://www.w3.org/2000/svg">
<path d="M6.68616 7.55693H6.0801V2.14154H6.68616V7.55693ZM11.691 6.09067C11.691 7.04863 10.9286 7.63512 9.83378 7.63512C9.01263 7.63512 8.23062 7.34192 7.62457 6.77492L8.01558 6.32533C8.50434 6.81405 9.16902 7.08777 9.87284 7.08777C10.6158 7.08777 11.0849 6.69672 11.0849 6.16886C11.0849 5.66057 10.8308 5.36736 9.67731 5.15227C8.42615 4.89812 7.85918 4.48759 7.85918 3.58825C7.85918 2.72804 8.6021 2.12199 9.65783 2.12199C10.3421 2.10244 11.0263 2.33704 11.5542 2.78669L11.2023 3.27548C10.7722 2.904 10.2052 2.70849 9.63826 2.70849C8.93444 2.70849 8.48477 3.09952 8.48477 3.56868C8.48477 4.07698 8.77805 4.37026 9.95103 4.62441C11.1436 4.80036 11.691 5.25003 11.691 6.09067ZM17.1259 2.06334C15.6011 2.04379 14.3499 3.27548 14.3499 4.80036V4.87855C14.3108 6.38395 15.5033 7.61563 16.9891 7.65469H17.1065C18.6313 7.67426 19.8826 6.44258 19.8826 4.91769V4.8395C19.8826 3.3341 18.7877 2.06334 17.1259 2.06334ZM19.2374 4.87855C19.2374 6.09067 18.3381 7.08777 17.1259 7.08777C15.9138 7.08777 14.9754 6.09067 14.9754 4.8395C14.9754 3.62739 15.8748 2.63029 17.0869 2.63029C18.3381 2.5912 19.2374 3.62739 19.2374 4.87855ZM12.7076 2.14154H13.3137V7.55693H12.7076V2.14154ZM2.36556 7.59606L0.0195312 2.16108H0.684239L0.997042 2.96265L2.60016 6.83362L2.75656 7.22459L2.69791 6.61853L4.51608 2.16108H5.1808L2.83476 7.59606H2.36556ZM24.8874 2.14154H25.4935V7.55693H25.0048L21.1533 2.68895L21.5052 3.49049V7.59606H20.8992V2.14154H21.4661L25.122 6.77492L24.8679 6.11024L24.8874 2.14154Z" fill="#C8C9CA"/>
<path d="M42.0133 8.14365H42.5803V8.71065H42.0133V8.14365ZM43.1668 8.14365H43.7338V8.71065H43.1668V8.14365ZM31.339 1.57481H30.772V0.988302H31.339V1.57481ZM45.3761 5.58261C45.6106 5.73899 45.8648 5.85632 46.1385 5.93451C46.4317 5.99314 46.7446 6.03228 47.0378 6.03228H47.1942L47.3897 5.62174V6.18866C47.4092 6.42324 47.3115 6.6579 47.1355 6.83386C46.9205 6.99024 46.6468 7.04887 46.3926 7.0293C46.2363 7.0293 46.0603 7.00981 45.9039 6.97067C45.767 6.93154 45.6106 6.87291 45.4151 6.81429L45.2196 7.36164C45.4347 7.4594 45.6302 7.49854 45.7866 7.55716C45.9625 7.5963 46.1189 7.61587 46.2949 7.61587C46.8423 7.61587 47.2528 7.47897 47.507 7.22482C47.7807 6.93154 47.9175 6.56014 47.898 6.16909V2.14177H46.9987C46.6664 2.14177 46.3535 2.20041 46.0407 2.29817C45.767 2.37637 45.5129 2.51322 45.2979 2.70873C45.1023 2.86513 44.9264 3.08019 44.8091 3.31477C44.6918 3.56891 44.6331 3.84263 44.6527 4.11635C44.6331 4.40963 44.7113 4.7224 44.8482 4.97655C44.9654 5.21113 45.161 5.42622 45.3761 5.58261ZM45.3761 3.54935C45.4738 3.37347 45.5911 3.23657 45.728 3.09976C45.8843 2.96287 46.0603 2.86513 46.2363 2.80648C46.4122 2.74782 46.6077 2.70873 46.8032 2.70873H47.7221L47.4092 2.86513V5.42622H46.8423C46.4513 5.42622 46.0603 5.30889 45.728 5.07431C45.5911 4.95698 45.4738 4.82016 45.3761 4.66378C45.2783 4.48782 45.2392 4.2923 45.2392 4.09678C45.2392 3.90125 45.2783 3.70581 45.3761 3.54935ZM32.4924 1.57481H31.9255V0.988302H32.4924V1.57481ZM49.4034 7.61587C49.247 7.5963 49.071 7.57673 48.9146 7.55716L49.071 7.00981C49.1102 7.0293 49.1688 7.04887 49.2274 7.04887H49.3643C49.462 7.04887 49.5597 7.00981 49.6184 7.00981C49.6771 6.97067 49.7357 6.91205 49.7748 6.85334C49.8139 6.75558 49.853 6.6579 49.8726 6.56014C49.9117 6.42324 49.9116 6.28642 49.9116 6.14953V2.14177H50.4787V6.14953C50.4787 6.34505 50.4591 6.56014 50.4199 6.75558C50.4005 6.91205 50.3223 7.06843 50.2245 7.20525C50.1267 7.34215 50.0094 7.43991 49.8726 7.49854C49.7944 7.5963 49.6379 7.61587 49.4034 7.61587ZM47.9567 1.57481H46.7054V1.08605C46.6858 0.890556 46.7446 0.695049 46.8618 0.538647C46.9987 0.42135 47.1942 0.362693 47.3702 0.382245H47.7807V0.773251H47.3897C47.3115 0.773251 47.2528 0.792803 47.1942 0.831899C47.1551 0.871004 47.1551 0.929653 47.1551 0.988302V1.12515H47.9567V1.57481ZM30.9284 7.53759H32.121V7.12706C32.121 7.1662 32.1601 7.1662 32.1601 7.18576C32.2578 7.32258 32.3751 7.42034 32.512 7.47897C32.6684 7.53759 32.8443 7.57673 33.0203 7.57673H43.7533V2.14177H43.1864V6.97067H33.0789C32.9812 6.97067 32.8834 6.93154 32.8247 6.93154C32.7661 6.89248 32.7075 6.83386 32.6684 6.77515C32.6293 6.67739 32.5902 6.57971 32.5706 6.48195C32.5315 6.34505 32.5315 6.20823 32.5315 6.07133V2.14177H30.9675C29.3644 2.14177 28.3086 3.39296 28.3086 4.83973C28.2304 6.24729 29.3253 7.4594 30.7329 7.53759C30.7916 7.53759 30.8698 7.53759 30.9284 7.53759ZM28.8756 4.80059C28.8756 3.60805 29.7358 2.65008 30.9284 2.65008H32.2774L31.9255 2.80648V6.07133C31.9255 6.26686 31.945 6.48195 31.9841 6.67739C32.0232 6.77515 32.0427 6.87291 32.0819 6.97067H30.9675C29.7554 6.99024 28.8756 6.03228 28.8756 4.80059Z" fill="#C8C9CA"/>
<path d="M2.16993 34.6735H1.72027L0.938261 33.6178L0.508154 34.0479V34.6735H0.15625V32.4056H0.508154V33.6178L1.70072 32.4056H2.11128L1.15331 33.3636L2.16993 34.6735Z" fill="#C8C9CA"/>
<path d="M2.97202 32.4056H2.62012V34.7125H2.97202V32.4056Z" fill="#C8C9CA"/>
<path d="M5.70901 32.4056V34.6735H5.37665L4.02768 32.953V34.6735H3.67578V32.4056H4.02768L5.3571 34.0674V32.4056H5.70901Z" fill="#C8C9CA"/>
<path d="M8.38638 33.4417V34.3997C8.11266 34.6343 7.78035 34.7516 7.42844 34.7516C6.80283 34.7907 6.27497 34.302 6.23588 33.6763V33.559C6.21633 32.9139 6.74418 32.386 7.38934 32.3665H7.42844C7.74124 32.3665 8.05404 32.4642 8.28862 32.6597L8.07361 32.9139C7.89764 32.7379 7.66304 32.6402 7.42844 32.6597C6.97878 32.6792 6.60733 33.0507 6.62688 33.5199C6.60733 33.9696 6.93969 34.3606 7.40889 34.3801H7.46754C7.68259 34.3801 7.87809 34.3215 8.03447 34.1846V33.6959H7.42844V33.4417H8.38638Z" fill="#C8C9CA"/>
<path d="M9.89244 32.4054H9.07129V34.7123H9.912C10.5375 34.7515 11.085 34.2627 11.1241 33.6371V33.5588C11.1045 32.9137 10.5767 32.3859 9.93149 32.4054C9.9185 32.4054 9.90543 32.4054 9.89244 32.4054ZM9.89244 34.3604H9.38414V32.6986H9.89244C10.3421 32.6986 10.7135 33.0701 10.7135 33.5198C10.7135 33.9695 10.3421 34.3604 9.89244 34.3604Z" fill="#C8C9CA"/>
<path d="M12.7859 32.3471C12.1211 32.3275 11.5933 32.8554 11.5738 33.5201V33.5396C11.5542 34.1847 12.0821 34.7126 12.7272 34.7322H12.7663C13.431 34.7322 13.9589 34.2043 13.9784 33.5396C13.9784 32.8944 13.4506 32.3471 12.7859 32.3471ZM13.6069 33.5592C13.6265 34.0088 13.2746 34.3998 12.8054 34.4194H12.7663C12.2971 34.4194 11.9256 34.0479 11.9256 33.5787V33.5592C11.9256 33.09 12.2971 32.7185 12.7663 32.7185C13.2355 32.7185 13.6069 33.09 13.6069 33.5592Z" fill="#C8C9CA"/>
<path d="M16.8128 32.4056V34.6735H16.4609V32.9139L15.6593 34.1065L14.8968 32.9139V34.6735H14.5449V32.4056H14.9164L15.6593 33.52L16.4022 32.4056H16.8128Z" fill="#C8C9CA"/>
<path d="M19.7654 32.3471C19.1007 32.3275 18.5728 32.8554 18.5533 33.5201V33.5396C18.5337 34.1847 19.0616 34.7126 19.7068 34.7322H19.7458C20.4106 34.7322 20.9384 34.2043 20.9579 33.5592C20.9579 32.8944 20.4301 32.3471 19.7654 32.3471ZM20.567 33.5592C20.5865 34.0088 20.2346 34.3998 19.7654 34.4194H19.7262C19.2571 34.4194 18.8856 34.0479 18.8856 33.5787V33.5592C18.866 33.1095 19.1985 32.7185 19.6676 32.6989H19.7262C20.1759 32.6794 20.5474 33.0313 20.567 33.4614V33.5592Z" fill="#C8C9CA"/>
<path d="M21.8773 32.6988V33.4027H23.0503V33.7155H21.8773V34.6735H21.5254V32.4056H23.2067V32.6988H21.8773Z" fill="#C8C9CA"/>
<path d="M26.5681 34.0479C26.5681 34.4584 26.2553 34.7127 25.7666 34.7127C25.4342 34.7127 25.1018 34.5758 24.8477 34.3607L25.0627 34.1066C25.2778 34.2825 25.532 34.3802 25.8056 34.3998C26.0989 34.3998 26.2553 34.263 26.2553 34.087C26.2553 33.9111 26.1185 33.7937 25.7079 33.696C25.2191 33.5592 24.9454 33.4418 24.9454 33.0313C24.9454 32.6208 25.2583 32.3861 25.7079 32.3861C26.0011 32.3861 26.2749 32.4839 26.5094 32.6403L26.314 32.8944C26.138 32.7576 25.9034 32.6794 25.6688 32.6794C25.4147 32.6794 25.2583 32.8162 25.2583 32.9922C25.2583 33.1681 25.3951 33.2854 25.8252 33.4028C26.3922 33.52 26.5681 33.696 26.5681 34.0479Z" fill="#C8C9CA"/>
<path d="M28.2494 32.3861H27.8974L26.8809 34.6931H27.2328L27.4869 34.1261H28.6404L28.8554 34.6931H29.2465L28.2494 32.3861ZM27.6042 33.8133L28.0538 32.7576L28.5035 33.8133H27.6042Z" fill="#C8C9CA"/>
<path d="M31.5341 32.4056V33.7155C31.5341 34.3606 31.1822 34.7321 30.5371 34.7321C29.931 34.7321 29.5791 34.3802 29.5791 33.735V32.4252H29.931V33.735C29.931 34.1847 30.146 34.4388 30.5761 34.4388C30.9672 34.4388 31.2213 34.1847 31.2213 33.735V32.4252L31.5341 32.4056Z" fill="#C8C9CA"/>
<path d="M33.0399 32.4056H32.1797V34.7125H33.0399C33.685 34.7517 34.2324 34.2629 34.252 33.6178C34.2911 32.9726 33.8023 32.4252 33.1572 32.4056H33.0399ZM33.0399 34.3606H32.5316V32.6988H33.0399C33.4896 32.6794 33.8805 33.0117 33.9001 33.4809V33.5396C33.9197 33.9697 33.5873 34.3411 33.1572 34.3606H33.0399Z" fill="#C8C9CA"/>
<path d="M35.2298 32.4056H34.8779V34.7125H35.2298V32.4056Z" fill="#C8C9CA"/>
<path d="M38.2992 32.3861H37.9473L36.9307 34.6931H37.2826L37.5367 34.1261H38.6902L38.9052 34.6931H39.2963L38.2992 32.3861ZM37.6931 33.8133L38.1428 32.7576L38.5924 33.8133H37.6931Z" fill="#C8C9CA"/>
<path d="M41.0755 33.8131H41.1146C41.4274 33.7545 41.662 33.4808 41.662 33.1484C41.6816 32.9725 41.6034 32.7769 41.4665 32.6597C41.2906 32.5032 41.0364 32.425 40.8018 32.4446H39.7656V34.7515H40.1175V33.9109H40.7041L41.271 34.7124H41.6816L41.0755 33.8131ZM40.1567 33.559V32.6988H40.8018C41.1146 32.6988 41.3102 32.8551 41.3102 33.1093C41.3102 33.3635 41.1146 33.5199 40.8018 33.5199H40.1567V33.559Z" fill="#C8C9CA"/>
<path d="M43.4798 32.3861H43.128L42.1113 34.6931H42.4632L42.7174 34.1261H43.8709L44.0859 34.6931H44.4769L43.4798 32.3861ZM42.8347 33.8133L43.2844 32.7576L43.7341 33.8133H42.8347Z" fill="#C8C9CA"/>
<path d="M46.393 33.5197L46.3344 33.4806L46.393 33.4415C46.5885 33.3438 46.7058 33.1482 46.7058 32.9332C46.7058 32.7963 46.6472 32.6399 46.5494 32.5422C46.3735 32.4054 46.1584 32.3272 45.9433 32.3467H44.9268V34.6536H45.9825C46.4908 34.6536 46.8231 34.4385 46.8231 34.0476C46.8427 33.7934 46.7254 33.6175 46.393 33.5197ZM45.3177 32.6986H45.9629C46.2561 32.6986 46.4126 32.8355 46.4126 33.0114C46.4126 33.2264 46.2561 33.3633 45.9238 33.3633H45.3177V32.6986ZM46.0215 34.3995H45.3177V33.6957H46.0215C46.4712 33.6957 46.5298 33.9107 46.5298 34.0476C46.4908 34.2626 46.3344 34.3995 46.0215 34.3995Z" fill="#C8C9CA"/>
<path d="M47.7806 32.4056H47.4287V34.7125H47.7806V32.4056Z" fill="#C8C9CA"/>
<path d="M49.599 32.3861H49.2471L48.2305 34.6931H48.5824L48.8365 34.1261H49.9899L50.2441 34.6931H50.596L49.599 32.3861ZM48.9929 33.8133L49.4426 32.7576L49.8923 33.8133H48.9929Z" fill="#C8C9CA"/>
<path d="M36.5394 27.2248H36.1875V27.5767H36.5394V27.2248ZM32.3947 30.1964H32.7075V27.2248H32.3947V30.1964ZM3.51902 27.9481H3.20622V29.864H1.89635V27.9481H1.38805C1.19255 27.9481 0.997042 27.9872 0.821087 28.0459C0.684239 28.1046 0.527837 28.1632 0.410536 28.261C0.293234 28.3587 0.195483 28.476 0.117282 28.6129C0.0586317 28.7497 0.0195312 28.9061 0.0195312 29.0625C0.0195312 29.2384 0.0586317 29.4144 0.117282 29.5708C0.175933 29.7077 0.273684 29.8445 0.410536 29.9227C0.547387 30.0204 0.703789 30.0987 0.860192 30.1182C1.03615 30.1573 1.19255 30.1769 1.36849 30.1769H3.53857L3.51902 27.9481ZM1.564 29.8445H1.2512C1.13389 29.8445 1.01659 29.825 0.899288 29.7859C0.80154 29.7468 0.703789 29.6881 0.606039 29.6295C0.508287 29.5708 0.449636 29.4731 0.410536 29.3753C0.371435 29.2776 0.351885 29.1602 0.351885 29.0625C0.351885 28.9648 0.371435 28.8475 0.410536 28.7497C0.469186 28.6519 0.527837 28.5737 0.606039 28.4955C0.703789 28.4369 0.80154 28.3782 0.899288 28.3392C0.997042 28.3196 1.11435 28.3 1.21209 28.2805H1.5249V29.8836H1.564V29.8445ZM2.61971 30.9393H2.97161V30.5874H2.61971V30.9393ZM1.89635 27.2248H1.54445V27.5767H1.89635V27.2248ZM22.0527 27.2248H21.7008V27.5767H22.0527V27.2248ZM3.20622 30.9393H3.55813V30.5874H3.20622V30.9393ZM22.6392 27.2248H22.2873V27.5767H22.6392V27.2248ZM35.9528 27.2248H35.6009V27.5767H35.9528V27.2248ZM1.30985 27.2248H0.957945V27.5767H1.30985V27.2248ZM23.7339 30.9393H24.0859V30.5874H23.7339V30.9393ZM25.865 27.9481H25.5521V29.864H24.3009V27.9481H23.9881V29.864H22.6782V27.9481H22.1699C21.9745 27.9481 21.779 27.9872 21.603 28.0459C21.4661 28.1046 21.3097 28.1632 21.1925 28.261C21.0751 28.3587 20.9774 28.476 20.8992 28.6129C20.8406 28.7497 20.8014 28.9061 20.8014 29.0625C20.8014 29.2384 20.8406 29.4144 20.8992 29.5708C20.9578 29.7077 21.0556 29.8445 21.1925 29.9227C21.3293 30.0204 21.4857 30.0987 21.6421 30.1182C21.818 30.1573 21.9745 30.1769 22.1504 30.1769H25.904L25.865 27.9481ZM22.3263 29.8445H22.0135C21.8962 29.8445 21.779 29.825 21.6616 29.7859C21.5639 29.7468 21.4661 29.6881 21.3684 29.6295C21.2707 29.5708 21.212 29.4731 21.1729 29.3753C21.1338 29.2776 21.1142 29.1602 21.1142 29.0625C21.1142 28.9648 21.1338 28.8475 21.1729 28.7497C21.2315 28.6519 21.2901 28.5737 21.3684 28.4955C21.4661 28.4369 21.5639 28.3782 21.6616 28.3392C21.7594 28.3 21.8767 28.2805 21.9745 28.2805H22.2873V29.8836H22.3263V29.8445ZM24.34 30.9393H24.6919V30.5874H24.34V30.9393ZM5.66955 28.2414C5.57179 28.1632 5.47405 28.085 5.37629 28.0263C5.259 27.9677 5.12214 27.9481 4.98529 27.9677H4.73113V28.2805H5.02439C5.10259 28.3 5.16124 28.3196 5.23944 28.3392C5.31765 28.3782 5.37629 28.4174 5.43494 28.476C5.47405 28.5347 5.4936 28.6129 5.5327 28.6715C5.57179 28.7497 5.57179 28.8475 5.57179 28.9256V29.8836H4.00778V30.1964H5.90415V28.8866C5.90415 28.7693 5.8846 28.6519 5.8455 28.5347C5.8064 28.4369 5.74775 28.3196 5.66955 28.2414ZM31.0848 29.8445H29.6773L30.2442 28.476C30.1464 28.4174 30.0487 28.3196 29.951 28.261C29.8532 28.2023 29.7554 28.1241 29.6381 28.0654C29.5404 28.0068 29.4426 27.9677 29.3253 27.9286C29.1103 27.8699 28.9147 27.8699 28.6997 27.9286C28.5824 27.9481 28.4846 28.0068 28.3869 28.0654C28.2696 28.1241 28.1719 28.1828 28.0741 28.261C27.9763 28.3196 27.8786 28.3978 27.7809 28.476L28.3478 29.8445H27.1357V27.9286H26.8229V30.4505C26.8229 30.5092 26.8034 30.5679 26.7642 30.607L26.6665 30.7048C26.6274 30.7438 26.5688 30.7438 26.5101 30.7438H26.4515C26.4123 30.7438 26.3733 30.7242 26.3537 30.7048L26.2559 31.0175C26.3341 31.0567 26.4319 31.0567 26.5101 31.0567C26.6078 31.0567 26.7056 31.0371 26.8034 30.998C26.8816 30.9589 26.9597 30.9198 26.9989 30.8416C27.0575 30.7634 27.0966 30.6852 27.0966 30.5874C27.1357 30.4701 27.1357 30.3529 27.1357 30.2355V30.1769H31.3977V27.2248H31.0848V29.8445ZM28.7583 29.8445L28.2501 28.5542C28.3674 28.4564 28.5042 28.3782 28.6411 28.3392C28.7779 28.3 28.9148 28.2805 29.0516 28.2805C29.208 28.2805 29.3644 28.3196 29.5013 28.3782C29.6381 28.4369 29.775 28.5151 29.8923 28.5933L29.384 29.8836H28.7779L28.7583 29.8445ZM25.5131 30.9393H25.865V30.5874H25.5131V30.9393ZM50.1464 30.1964H50.4591V27.2248H50.1464V30.1964ZM48.856 29.8445H47.7416C47.8003 29.6881 47.8394 29.5317 47.8394 29.3557C47.8394 29.1798 47.8003 29.0234 47.7416 28.867C47.6244 28.5737 47.3897 28.3392 47.0965 28.2218C46.9401 28.1632 46.7837 28.1241 46.6077 28.1241C46.4513 28.1241 46.2949 28.1632 46.1581 28.2218C46.0212 28.3 45.8844 28.3782 45.7671 28.476C45.6497 28.5933 45.5715 28.7106 45.5129 28.867C45.4543 29.0234 45.4152 29.1798 45.4152 29.3557C45.4152 29.4339 45.4152 29.5317 45.4543 29.6099C45.4738 29.6881 45.4934 29.7468 45.5129 29.825H44.4963C44.555 29.6686 44.5941 29.5121 44.5941 29.3362C44.5941 29.1602 44.555 29.0038 44.4963 28.8475C44.379 28.5542 44.1444 28.3196 43.8511 28.2023C43.6947 28.1436 43.5384 28.1046 43.3624 28.1046C43.206 28.1046 43.0496 28.1436 42.9127 28.2023C42.7759 28.2805 42.639 28.3587 42.5218 28.4564C42.4044 28.5737 42.3262 28.6911 42.2675 28.8475C42.2089 29.0038 42.1699 29.1602 42.1699 29.3362C42.1699 29.4144 42.1699 29.5121 42.2089 29.5903C42.2285 29.6686 42.2481 29.7272 42.2675 29.8054H41.2119V27.1857H40.899V29.8054H39.8433V29.3362C39.8433 29.2189 39.8238 29.1016 39.7847 28.9843C39.7456 28.8866 39.7065 28.7693 39.6283 28.6911C39.5305 28.6129 39.4328 28.5347 39.335 28.476C39.1982 28.4369 39.0613 28.4174 38.9245 28.4174H37.4582L38.0643 27.2248H37.7124L37.0672 28.4174C37.0868 28.476 37.1063 28.5542 37.1259 28.6129C37.1649 28.6715 37.1845 28.7106 37.2236 28.7693H38.9245C39.0027 28.7693 39.1004 28.7693 39.1786 28.8083C39.2568 28.8475 39.3155 28.8866 39.3742 28.9452C39.4132 29.0038 39.4328 29.082 39.4719 29.1407C39.511 29.1994 39.511 29.2776 39.511 29.3557V29.864H36.4611V27.9481H35.9528C35.7574 27.9481 35.5619 27.9872 35.3859 28.0459C35.249 28.1046 35.0926 28.1632 34.9754 28.261C34.8581 28.3587 34.7603 28.476 34.6821 28.6129C34.6235 28.7497 34.5843 28.9061 34.5843 29.0625C34.5843 29.2384 34.6235 29.4144 34.6821 29.5708C34.7407 29.7077 34.8385 29.8445 34.9754 29.9227C35.1122 30.0204 35.2686 30.0987 35.425 30.1182C35.6009 30.1573 35.7574 30.1769 35.9333 30.1769H42.5022C42.6 30.3137 42.7368 30.4115 42.8932 30.4701C43.0496 30.5288 43.206 30.5679 43.382 30.5679C43.5579 30.5679 43.7143 30.5288 43.8707 30.4701C44.0271 30.4115 44.164 30.3137 44.2617 30.1769H45.7084C45.8062 30.3137 45.943 30.4115 46.0994 30.4701C46.4123 30.607 46.7642 30.607 47.0769 30.4701C47.2333 30.4115 47.3702 30.3137 47.4679 30.1769H49.1297V27.2248H48.8169V29.8445H48.856ZM36.1875 29.8445H35.8551C35.7378 29.8445 35.6205 29.825 35.5032 29.7859C35.4055 29.7468 35.3077 29.6881 35.21 29.6295C35.1122 29.5708 35.0536 29.4731 35.0144 29.3753C34.9754 29.2776 34.9558 29.1602 34.9558 29.0625C34.9558 28.9648 34.9754 28.8475 35.0144 28.7497C35.0731 28.6519 35.1318 28.5737 35.21 28.4955C35.3077 28.4369 35.4055 28.3782 35.5032 28.3392C35.6009 28.3196 35.7183 28.3 35.816 28.2805H36.1288V29.8836H36.1875V29.8445ZM44.2226 29.7272C44.1835 29.8445 44.1053 29.9422 44.0271 30.0204C43.8511 30.1964 43.6166 30.2941 43.382 30.2747C43.2842 30.2747 43.1669 30.2551 43.0691 30.216C42.9714 30.1769 42.8737 30.1182 42.815 30.0204C42.7368 29.9422 42.6586 29.8445 42.6195 29.7272C42.5804 29.6295 42.5608 29.5121 42.5608 29.4144C42.5608 29.3167 42.5804 29.1994 42.6195 29.1016C42.6586 29.0038 42.7172 28.9061 42.7759 28.8083C42.8541 28.7301 42.9323 28.6715 43.0301 28.6129C43.1473 28.5737 43.2646 28.5542 43.382 28.5542C43.4992 28.5542 43.6166 28.5737 43.7339 28.6129C43.8511 28.6519 43.9489 28.7301 44.0271 28.8083C44.203 28.9843 44.3008 29.2189 44.2812 29.4535C44.2812 29.5513 44.2617 29.649 44.2226 29.7272ZM47.4288 29.7272C47.3897 29.8445 47.3115 29.9422 47.2333 30.0204C47.0574 30.1964 46.8228 30.2941 46.5882 30.2747C46.4709 30.2551 46.3535 30.2355 46.2363 30.216C46.1385 30.1769 46.0408 30.1182 45.9822 30.0204C45.904 29.9422 45.8257 29.8445 45.7866 29.7272C45.7475 29.6295 45.728 29.5121 45.728 29.4144C45.728 29.3167 45.7475 29.1994 45.7866 29.1016C45.8257 29.0038 45.8844 28.9061 45.943 28.8083C46.0212 28.7301 46.0994 28.6715 46.1972 28.6129C46.3145 28.5737 46.4317 28.5542 46.5491 28.5542C46.6664 28.5542 46.7837 28.5737 46.901 28.6129C47.0183 28.6519 47.1161 28.7301 47.1943 28.8083C47.3702 28.9843 47.4679 29.2189 47.4484 29.4535C47.4875 29.5317 47.4875 29.649 47.4288 29.7272ZM17.1651 29.8445H16.6177C16.4613 29.8445 16.3049 29.825 16.1681 29.7468C16.0703 29.6881 15.9725 29.5903 15.9138 29.4926C15.953 29.3949 15.953 29.2776 15.953 29.1798V28.1241H15.6402V29.2384C15.6402 29.3949 15.6011 29.5708 15.4837 29.6881C15.2883 29.8445 15.0146 29.8836 14.78 29.8054C14.6822 29.7663 14.6235 29.7468 14.5845 29.6685C14.5258 29.6099 14.4867 29.5513 14.4476 29.4731C14.4085 29.4144 14.3889 29.3362 14.3889 29.258V28.0654H14.0762V29.2189C14.0762 29.2971 14.0762 29.3949 14.037 29.4731C13.998 29.5317 13.9784 29.6099 13.9002 29.6295C13.822 29.649 13.7633 29.6881 13.7047 29.7272C13.6461 29.7663 13.5679 29.7663 13.4896 29.7663H12.8445V28.0654H12.5316V29.7663H10.733L11.3 28.3978C11.2023 28.3392 11.1045 28.2414 11.0068 28.1828C10.909 28.1241 10.8112 28.0459 10.694 27.9872C10.5962 27.9286 10.4985 27.8895 10.3811 27.8504C10.1857 27.7917 9.95103 27.7917 9.75551 27.8504C9.63826 27.8699 9.5405 27.9286 9.44273 27.9872C9.32541 28.0459 9.22773 28.1046 9.12996 28.1828C9.0322 28.2414 8.93444 28.3196 8.83668 28.3978L9.40368 29.7663H8.25019V27.8504H7.70278C7.35087 27.8504 7.01852 27.9677 6.74481 28.1632C6.62751 28.261 6.52976 28.3782 6.45156 28.5151C6.39291 28.6519 6.3538 28.8083 6.3538 28.9648C6.3538 29.1407 6.39291 29.3167 6.45156 29.4731C6.51021 29.6099 6.60796 29.7468 6.74481 29.825C6.88166 29.9227 7.03806 30.0009 7.19446 30.0204C7.37042 30.0596 7.52682 30.0791 7.70278 30.0791H7.89827V30.1769C7.89827 30.3137 7.83963 30.4701 7.74187 30.5679C7.62457 30.6461 7.46817 30.6656 7.33132 30.6656C7.23357 30.6656 7.13582 30.6656 7.03806 30.6265C6.94032 30.5874 6.84256 30.5483 6.74481 30.5288L6.64706 30.8416C6.74481 30.8807 6.84256 30.9198 6.95986 30.9393C7.05761 30.9784 7.15537 30.9784 7.25312 30.9784C7.50727 30.998 7.76142 30.9198 7.95692 30.7634C8.11329 30.607 8.19157 30.3723 8.172 30.1573V30.0987H13.2942C13.431 30.0987 13.5679 30.0596 13.7047 30.0009C13.8415 29.9422 13.9393 29.8445 13.998 29.7077C14.0566 29.8445 14.1934 29.9227 14.3108 30.0204C14.4671 30.0791 14.6235 30.1182 14.7995 30.1182C14.9754 30.1182 15.1514 30.0791 15.3078 30.0204C15.4447 29.9618 15.562 29.8445 15.6206 29.7077C15.6597 29.7468 15.6793 29.8054 15.7184 29.8445C15.7574 29.9032 15.8162 29.9422 15.8748 29.9814C15.953 30.0204 16.0116 30.0596 16.0898 30.0791C16.1485 30.1182 16.2267 30.1182 16.3049 30.1182H17.2628V27.2443H16.9501V29.864L17.1651 29.8445ZM7.97648 29.8445H7.66367C7.54637 29.8445 7.42907 29.825 7.31177 29.7859C7.21402 29.7468 7.11626 29.6881 7.01852 29.6295C6.92076 29.5708 6.86211 29.4731 6.82301 29.3753C6.78391 29.2776 6.76436 29.1602 6.76436 29.0625C6.76436 28.9648 6.78391 28.8475 6.82301 28.7497C6.88167 28.6519 6.94032 28.5737 7.01852 28.4955C7.11626 28.4369 7.21402 28.3782 7.31177 28.3392C7.40952 28.3 7.52682 28.2805 7.62457 28.2805H7.93738V29.8836H7.97648V29.8445ZM9.79464 29.8445L9.28635 28.5542C9.40368 28.4564 9.5405 28.3782 9.67731 28.3392C9.81421 28.3 9.95103 28.2805 10.0879 28.2805C10.2443 28.2805 10.4007 28.3196 10.5375 28.3782C10.6744 28.4369 10.8112 28.5151 10.9286 28.5933L10.4203 29.8836H9.81421L9.79464 29.8445ZM18.4358 30.1964H18.7487V27.2248H18.4358V30.1964Z" fill="#C8C9CA"/>
<path d="M44.0857 10.4702C40.0584 10.4702 37.1063 13.5201 37.1063 17.2542V17.2932C37.1063 21.0078 40.0193 24.0576 44.0467 24.0576C48.074 24.0576 51.0261 21.0078 51.0261 17.2737V17.2346C51.0652 13.4809 48.1523 10.4702 44.0857 10.4702ZM48.0349 17.2932C48.0349 19.5415 46.4318 21.3988 44.1053 21.3988C41.7788 21.3988 40.1366 19.5024 40.1366 17.2737V17.2346C40.1366 14.9863 41.7398 13.129 44.0662 13.129C46.3927 13.129 48.0349 15.0254 48.0349 17.2542V17.2932ZM4.71161 21.3206H9.6969V23.823H0V21.5552L4.3597 17.9775C6.00192 16.6285 6.62753 15.9247 6.62753 14.8299C6.62753 13.7351 5.88462 13.129 4.868 13.129C3.8514 13.129 3.16714 13.696 2.17008 14.8886L0.156402 13.2463C1.44672 11.4868 2.71749 10.5288 5.06351 10.5288C7.78099 10.5288 9.57965 12.132 9.57965 14.5562V14.5953C9.57965 16.7654 8.46522 17.8602 6.11922 19.6784L3.22579 21.9071L2.67838 22.3176L4.71161 21.3206ZM36.383 19.698V19.737C36.383 22.2004 34.5844 24.0185 31.6518 24.0185C29.2862 24.0185 27.644 23.0996 26.5297 21.7507L28.5238 19.8543C29.4231 20.8709 30.342 21.4184 31.6909 21.4184C32.7858 21.4184 33.5482 20.8123 33.5482 19.8152V19.7762C33.5482 18.7204 32.5902 18.1144 30.9872 18.1144H29.7945L29.3449 16.2962L33.5482 12.0733L31.8474 13.1682H27.2921V10.7048H36.1679V12.8749L32.8444 16.0421C34.6039 16.3353 36.383 17.2542 36.383 19.698Z" fill="#C8C9CA"/>
<path d="M22.3265 17.8796C22.1897 17.8013 22.0333 17.7231 21.8769 17.684C21.4663 17.5667 21.0362 17.5277 20.6256 17.5863C20.4497 17.6253 20.2542 17.6645 20.0782 17.7231C20.0522 17.7231 20.0327 17.7362 20.0196 17.7622C19.9218 17.8013 19.8241 17.86 19.7263 17.899C19.6286 17.9382 19.5699 17.9968 19.4722 18.0359C19.2767 18.1337 19.0812 18.2705 18.9248 18.4269C18.7879 17.4689 18.7684 16.4915 18.8661 15.514C19.3158 15.8072 19.179 16.5305 19.0812 16.7651C19.4722 16.3546 19.5309 15.7485 19.2376 15.2598L19.4331 15.4553C19.5699 15.6508 19.6481 15.8659 19.6873 16.1004V16.4524C19.8828 16.1004 19.8828 15.6508 19.6873 15.2989C19.6286 15.1816 19.5504 15.0643 19.4331 14.9861L19.3353 14.8883C19.3745 14.8883 19.394 14.9275 19.4331 14.9275C19.5309 14.9665 19.6091 15.0057 19.6873 15.0643C19.8436 15.1816 19.961 15.338 20.0392 15.514C20.0978 15.6312 20.1174 15.7877 20.0978 15.9245C20.1955 15.6312 20.1565 15.3184 20 15.0643C19.9218 14.9275 19.8046 14.8101 19.6481 14.7515C19.5699 14.6928 19.4917 14.6538 19.394 14.6538C19.3549 14.6538 19.2962 14.6146 19.2571 14.6146H19.394C19.4722 14.6146 19.5699 14.6146 19.6481 14.6538C19.7654 14.6732 19.9023 14.7124 20 14.7906C20.0978 14.8492 20.176 14.947 20.2151 15.0447C20.1955 14.8688 20.1174 14.7124 20 14.5951C19.9023 14.4974 19.785 14.4387 19.6481 14.3996C19.5699 14.3605 19.4722 14.3605 19.394 14.3605C19.2962 14.38 19.179 14.3996 19.0812 14.4191C19.1398 14.3018 19.2571 14.2237 19.394 14.2041C19.4722 14.1649 19.5699 14.1649 19.6481 14.1649C19.7068 14.1649 19.8046 14.2041 19.8436 14.2041C19.785 14.1455 19.7263 14.0868 19.6481 14.0477C19.5895 14.0281 19.4917 13.989 19.394 13.9499C19.1594 13.9108 18.9248 14.0281 18.827 14.2431C18.7879 14.1845 18.7684 14.1455 18.7293 14.0868C18.6707 13.9499 18.6315 13.7936 18.5925 13.6371C18.5729 13.7936 18.5142 13.9499 18.4556 14.0868C18.4165 14.1455 18.3969 14.2237 18.3578 14.2431C18.1819 13.9499 17.8105 13.8522 17.5367 14.0281C17.4585 14.0672 17.3998 14.1259 17.3412 14.2041C17.6149 14.0868 17.9277 14.1845 18.1037 14.3996C17.7713 14.2627 17.3804 14.3605 17.1457 14.6538C17.0479 14.7515 16.9893 14.9079 16.9893 15.0447C17.0284 14.9861 17.0871 14.9079 17.1457 14.8492C17.3608 14.6732 17.6345 14.595 17.9081 14.6342C17.7127 14.6732 17.263 14.8492 17.1457 15.2794C17.0675 15.514 17.0675 15.7485 17.1457 15.9831V15.9441C17.1261 15.4748 17.439 15.0447 17.9081 14.9275C17.3021 15.4748 17.3608 16.12 17.5562 16.4915C17.478 16.0418 17.654 15.5726 18.0059 15.2794C17.9081 15.4748 17.6149 16.1786 18.1624 16.7847C18.0646 16.5697 17.9473 15.7877 18.3774 15.5335C18.4751 16.511 18.4556 17.4885 18.3188 18.4465C17.9864 18.1728 17.6149 17.9578 17.2239 17.8013C17.1848 17.7622 17.1457 17.7622 17.0871 17.7622C16.7547 17.6449 16.4224 17.6058 16.0705 17.6058C15.699 17.6253 15.3471 17.7231 15.0148 17.86C14.9952 17.8796 14.956 17.899 14.917 17.9186V17.9578C14.956 17.9578 14.9756 17.9186 15.0148 17.9186C15.3667 17.8209 15.7186 17.7818 16.0705 17.8209C16.4224 17.86 16.7743 17.9578 17.0871 18.1141C17.5367 18.3292 17.9277 18.5833 18.2992 18.9157C17.7909 19.3653 17.3412 19.815 17.0871 19.9323C17.0675 19.9323 17.0479 19.9519 17.0479 19.9714C16.9893 19.8737 16.872 19.8345 16.7547 19.8737C16.657 19.8932 16.5592 19.9909 16.5396 20.0887C16.5006 20.1865 16.5201 20.2842 16.5983 20.3428C16.7352 20.4797 16.9307 20.4992 17.0871 20.4015C17.439 20.2451 17.8886 19.7954 18.436 19.2871L18.5729 19.1503L18.7097 19.2871C18.9443 19.4826 19.1594 19.6977 19.3745 19.9323C19.4722 19.9909 19.5309 20.0887 19.6286 20.1473C19.7654 20.2451 19.8436 20.3428 19.9805 20.3624C20.176 20.4602 20.3715 20.4992 20.5279 20.3624C20.5475 20.3624 20.567 20.3428 20.567 20.3233C20.6061 20.2451 20.6256 20.1669 20.6256 20.0691C20.6256 20.0105 20.5866 19.9714 20.5279 19.9323C20.4888 19.8932 20.4497 19.8737 20.3911 19.8737C20.2737 19.8541 20.176 19.8932 20.0978 19.9714C20.0587 19.9323 20.0392 19.9323 19.961 19.9127C19.8241 19.8345 19.7068 19.7368 19.6091 19.6195C19.5504 19.5608 19.4527 19.4826 19.3549 19.4044C19.1985 19.2481 19.003 19.0917 18.8075 18.9157C18.9639 18.7593 19.1594 18.6224 19.3549 18.5051C19.4331 18.4465 19.5113 18.3879 19.6091 18.3487C19.7263 18.2705 19.8436 18.2119 19.961 18.1532C20.1369 18.0554 20.3129 17.9968 20.5083 17.9578C20.9189 17.8404 21.349 17.8209 21.7596 17.899C21.9355 17.8209 22.131 17.8209 22.3265 17.8796Z" fill="#C8C9CA"/>
<path d="M18.6633 24.479L17.8477 25.2947L18.6633 26.1103L19.4789 25.2947L18.6633 24.479Z" fill="#C8C9CA"/>
<path d="M12.0585 19.7772L11.7627 20.6884L12.6738 20.9842L12.9697 20.0731L12.0585 19.7772Z" fill="#C8C9CA"/>
<path d="M14.6852 11.7679L14.5596 12.5596L15.3512 12.6852L15.4769 11.8936L14.6852 11.7679Z" fill="#C8C9CA"/>
<path d="M24.8011 16.5959L24.2344 17.1628L24.8011 17.7295L25.3679 17.1628L24.8011 16.5959Z" fill="#C8C9CA"/>
<path d="M24.3036 14.7183L23.9395 15.4324L24.6536 15.7964L25.0176 15.0823L24.3036 14.7183Z" fill="#C8C9CA"/>
<path d="M15.3571 21.6921L14.5654 21.8178L14.6911 22.6094L15.4827 22.4838L15.3571 21.6921Z" fill="#C8C9CA"/>
<path d="M22.5905 11.7213L21.7988 11.847L21.9245 12.6386L22.7161 12.5129L22.5905 11.7213Z" fill="#C8C9CA"/>
<path d="M16.9367 22.4706L16.2227 22.8346L16.5867 23.5488L17.3008 23.1847L16.9367 22.4706Z" fill="#C8C9CA"/>
<path d="M18.644 10.4397L18.0771 11.0065L18.644 11.5733L19.2107 11.0065L18.644 10.4397Z" fill="#C8C9CA"/>
<path d="M17.7609 11.4336L17.3701 11.9713L17.9078 12.3621L18.2986 11.8244L17.7609 11.4336Z" fill="#C8C9CA"/>
<path d="M19.4133 21.9674L19.0225 22.5051L19.5602 22.8959L19.951 22.3582L19.4133 21.9674Z" fill="#C8C9CA"/>
<path d="M14.1333 14.3313L13.501 14.5366L13.7063 15.1688L14.3385 14.9635L14.1333 14.3313Z" fill="#C8C9CA"/>
<path d="M23.6351 19.1588L23.0029 19.3641L23.2082 19.9963L23.8404 19.791L23.6351 19.1588Z" fill="#C8C9CA"/>
<path d="M13.2957 17.5502L12.9053 18.0881L13.4432 18.4786L13.8336 17.9407L13.2957 17.5502Z" fill="#C8C9CA"/>
<path d="M26.6371 18.891L25.6094 19.4147L26.133 20.4424L27.1608 19.9187L26.6371 18.891Z" fill="#C8C9CA"/>
<path d="M14.3307 23.0732L13.1914 23.2533L13.3714 24.3927L14.5107 24.2126L14.3307 23.0732Z" fill="#C8C9CA"/>
<path d="M23.9303 9.91846L22.791 10.0983L22.9708 11.2376L24.1102 11.0578L23.9303 9.91846Z" fill="#C8C9CA"/>
<path d="M11.5974 17.5748L11.0342 18.3497L11.8091 18.9129L12.3723 18.138L11.5974 17.5748Z" fill="#C8C9CA"/>
<path d="M16.5925 10.7894L16.2285 11.5036L16.9427 11.8676L17.3067 11.1534L16.5925 10.7894Z" fill="#C8C9CA"/>
<path d="M12.9896 14.7096L12.2754 15.0736L12.6394 15.7878L13.3536 15.4238L12.9896 14.7096Z" fill="#C8C9CA"/>
<path d="M18.64 22.7361L18.0732 23.3029L18.64 23.8697L19.2068 23.3029L18.64 22.7361Z" fill="#C8C9CA"/>
<path d="M23.2016 14.3396L22.9961 14.9718L23.6282 15.1773L23.8338 14.5451L23.2016 14.3396Z" fill="#C8C9CA"/>
<path d="M15.2097 20.6168H14.5449V21.2815H15.2097V20.6168Z" fill="#C8C9CA"/>
<path d="M11.1732 13.8669L10.1455 14.3906L10.6691 15.4183L11.6969 14.8947L11.1732 13.8669Z" fill="#C8C9CA"/>
<path d="M10.6957 18.9165L10.1719 19.9442L11.1995 20.468L11.7234 19.4404L10.6957 18.9165Z" fill="#C8C9CA"/>
<path d="M15.1376 10.3132L14.8418 11.2244L15.7529 11.5202L16.0488 10.6091L15.1376 10.3132Z" fill="#C8C9CA"/>
<path d="M21.5371 22.8641L21.2412 23.7753L22.1523 24.0711L22.4482 23.16L21.5371 22.8641Z" fill="#C8C9CA"/>
<path d="M25.2842 19.7689L24.373 20.0648L24.6689 20.9759L25.58 20.6801L25.2842 19.7689Z" fill="#C8C9CA"/>
<path d="M25.7876 17.5941L25.0127 18.1573L25.5758 18.9322L26.3508 18.369L25.7876 17.5941Z" fill="#C8C9CA"/>
<path d="M24.6337 13.3535L24.3379 14.2646L25.249 14.5605L25.5449 13.6494L24.6337 13.3535Z" fill="#C8C9CA"/>
<path d="M24.1445 11.6823H23.1865V12.6402H24.1445V11.6823Z" fill="#C8C9CA"/>
<path d="M15.7441 22.8762L14.833 23.1722L15.1289 24.0833L16.04 23.7874L15.7441 22.8762Z" fill="#C8C9CA"/>
<path d="M19.6794 23.4546L19.1162 24.2295L19.8912 24.7927L20.4543 24.0178L19.6794 23.4546Z" fill="#C8C9CA"/>
<path d="M12.6502 18.49L12.2861 19.2042L13.0003 19.5682L13.3643 18.854L12.6502 18.49Z" fill="#C8C9CA"/>
<path d="M15.2097 13.0312H14.5449V13.696H15.2097V13.0312Z" fill="#C8C9CA"/>
<path d="M13.4488 15.8287L12.9111 16.2195L13.3019 16.7572L13.8396 16.3664L13.4488 15.8287Z" fill="#C8C9CA"/>
<path d="M21.309 11.9861L20.6768 12.1914L20.8821 12.8236L21.5143 12.6183L21.309 11.9861Z" fill="#C8C9CA"/>
<path d="M19.5836 11.4113L19.0459 11.8021L19.4367 12.3398L19.9744 11.949L19.5836 11.4113Z" fill="#C8C9CA"/>
<path d="M22.6715 19.6002L22.1309 19.6862L22.2168 20.2268L22.7574 20.1408L22.6715 19.6002Z" fill="#C8C9CA"/>
<path d="M23.3018 16.7847L22.915 17.1721L23.3024 17.5588L23.6892 17.1714L23.3018 16.7847Z" fill="#C8C9CA"/>
<path d="M26.1196 13.892L25.5957 14.9196L26.6234 15.4435L27.1472 14.4158L26.1196 13.892Z" fill="#C8C9CA"/>
<path d="M24.1445 21.6725H23.1865V22.6305H24.1445V21.6725Z" fill="#C8C9CA"/>
<path d="M12.6519 13.2803L11.7412 13.5774L12.0383 14.4881L12.9491 14.191L12.6519 13.2803Z" fill="#C8C9CA"/>
<path d="M22.1777 10.2466L21.2666 10.5424L21.5625 11.4536L22.4736 11.1577L22.1777 10.2466Z" fill="#C8C9CA"/>
<path d="M17.4763 9.49316L16.9131 10.268L17.688 10.8313L18.2512 10.0564L17.4763 9.49316Z" fill="#C8C9CA"/>
<path d="M24.6985 18.5217L23.9844 18.8857L24.3485 19.5999L25.0626 19.2359L24.6985 18.5217Z" fill="#C8C9CA"/>
<path d="M12.5024 16.5974L11.9355 17.1643L12.5024 17.731L13.0691 17.1643L12.5024 16.5974Z" fill="#C8C9CA"/>
<path d="M24.1222 17.5095L23.585 17.9009L23.9763 18.4382L24.5136 18.0468L24.1222 17.5095Z" fill="#C8C9CA"/>
<path d="M16.4613 21.4877L15.8291 21.693L16.0344 22.3252L16.6666 22.1199L16.4613 21.4877Z" fill="#C8C9CA"/>
<path d="M18.6345 21.4183L18.2471 21.805L18.6338 22.1925L19.0212 21.8057L18.6345 21.4183Z" fill="#C8C9CA"/>
<path d="M15.722 13.097L15.6367 13.6377L16.1774 13.723L16.2627 13.1823L15.722 13.097Z" fill="#C8C9CA"/>
<path d="M14.1086 18.2367L13.8604 18.7246L14.3483 18.9728L14.5964 18.4849L14.1086 18.2367Z" fill="#C8C9CA"/>
<path d="M14.1543 11.6823H13.1963V12.6402H14.1543V11.6823Z" fill="#C8C9CA"/>
<path d="M19.8814 9.53467L19.1064 10.0977L19.6695 10.8728L20.4445 10.3097L19.8814 9.53467Z" fill="#C8C9CA"/>
<path d="M20.3806 22.4807L20.0166 23.1949L20.7307 23.5589L21.0947 22.8447L20.3806 22.4807Z" fill="#C8C9CA"/>
<path d="M13.3376 20.3552L13.2119 21.1469L14.0035 21.2725L14.1292 20.4808L13.3376 20.3552Z" fill="#C8C9CA"/>
<path d="M23.2653 13.072L23.1396 13.8637L23.9313 13.9893L24.057 13.1977L23.2653 13.072Z" fill="#C8C9CA"/>
<path d="M22.7955 20.6168H22.1309V21.2815H22.7955V20.6168Z" fill="#C8C9CA"/>
<path d="M23.8562 15.8514L23.4658 16.3894L24.0038 16.7798L24.3942 16.2418L23.8562 15.8514Z" fill="#C8C9CA"/>
<path d="M17.8827 21.9678L17.3447 22.3582L17.7352 22.8961L18.2731 22.5057L17.8827 21.9678Z" fill="#C8C9CA"/>
<path d="M17.1026 12.3389L16.8545 12.8269L17.3425 13.0749L17.5906 12.587L17.1026 12.3389Z" fill="#C8C9CA"/>
<path d="M19.9571 21.201L19.709 21.6891L20.197 21.9371L20.445 21.4492L19.9571 21.201Z" fill="#C8C9CA"/>
<path d="M21.1631 20.6136L21.0771 21.1543L21.6178 21.2402L21.7037 20.6995L21.1631 20.6136Z" fill="#C8C9CA"/>
<path d="M14.3491 15.3381L13.8604 15.5923L14.1145 16.081L14.6033 15.8464L14.3491 15.3381Z" fill="#C8C9CA"/>
<path d="M23.1901 18.2319L22.7021 18.4801L22.9503 18.9681L23.4382 18.7199L23.1901 18.2319Z" fill="#C8C9CA"/>
<path d="M14.7011 19.6029L14.6152 20.1435L15.1558 20.2295L15.2417 19.6889L14.7011 19.6029Z" fill="#C8C9CA"/>
<path d="M21.6373 13.0892L21.0967 13.1752L21.1826 13.7158L21.7232 13.6298L21.6373 13.0892Z" fill="#C8C9CA"/>
<path d="M17.3424 21.2061L16.8545 21.4541L17.1025 21.942L17.5906 21.694L17.3424 21.2061Z" fill="#C8C9CA"/>
<path d="M13.4037 9.9447L13.2236 11.084L14.3629 11.264L14.543 10.1247L13.4037 9.9447Z" fill="#C8C9CA"/>
<path d="M23.1616 23.1708L22.9775 24.3095L24.1163 24.4935L24.3002 23.3548L23.1616 23.1708Z" fill="#C8C9CA"/>
<path d="M18.6614 8.2146L17.8457 9.03021L18.6614 9.84583L19.477 9.03021L18.6614 8.2146Z" fill="#C8C9CA"/>
<path d="M11.7876 15.3616L11.0127 15.9248L11.5758 16.6997L12.3508 16.1364L11.7876 15.3616Z" fill="#C8C9CA"/>
<path d="M25.5351 15.3777L24.9717 16.1524L25.7464 16.7159L26.3099 15.9412L25.5351 15.3777Z" fill="#C8C9CA"/>
<path d="M14.1543 21.6725H13.1963V22.6305H14.1543V21.6725Z" fill="#C8C9CA"/>
<path d="M17.6518 23.4766L16.877 24.0398L17.4401 24.8147L18.2151 24.2515L17.6518 23.4766Z" fill="#C8C9CA"/>
<path d="M21.9614 21.6615L21.835 22.4531L22.6265 22.5794L22.7528 21.7879L21.9614 21.6615Z" fill="#C8C9CA"/>
<path d="M14.028 13.0696L13.2363 13.1954L13.3622 13.987L14.1538 13.8612L14.028 13.0696Z" fill="#C8C9CA"/>
<path d="M23.9782 20.3027L23.1865 20.4284L23.3122 21.22L24.1038 21.0944L23.9782 20.3027Z" fill="#C8C9CA"/>
<path d="M20.7492 10.7804L20.0352 11.1444L20.3992 11.8586L21.1133 11.4946L20.7492 10.7804Z" fill="#C8C9CA"/>
<path d="M16.0666 11.988L15.8613 12.6202L16.4935 12.8255L16.6988 12.1933L16.0666 11.988Z" fill="#C8C9CA"/>
<path d="M20.8762 21.5308L20.6709 22.163L21.3031 22.3683L21.5084 21.7361L20.8762 21.5308Z" fill="#C8C9CA"/>
<path d="M13.6604 19.1726L13.4551 19.8048L14.0873 20.0101L14.2926 19.3779L13.6604 19.1726Z" fill="#C8C9CA"/>
<path d="M22.7955 13.0312H22.1309V13.696H22.7955V13.0312Z" fill="#C8C9CA"/>
<path d="M18.6517 12.1333L18.2646 12.5204L18.6517 12.9075L19.0388 12.5204L18.6517 12.1333Z" fill="#C8C9CA"/>
<path d="M15.1247 14.1273L14.584 14.2127L14.6692 14.7533L15.2099 14.6681L15.1247 14.1273Z" fill="#C8C9CA"/>
<path d="M13.998 16.7701L13.6113 17.1575L13.9988 17.5443L14.3855 17.1569L13.998 16.7701Z" fill="#C8C9CA"/>
<path d="M22.9172 15.3593L22.6689 15.8472L23.1569 16.0953L23.4051 15.6074L22.9172 15.3593Z" fill="#C8C9CA"/>
<path d="M22.2023 14.0745L22.1162 14.6151L22.6568 14.701L22.7428 14.1604L22.2023 14.0745Z" fill="#C8C9CA"/>
<path d="M16.1607 20.6183L15.6201 20.7043L15.7061 21.2449L16.2467 21.1589L16.1607 20.6183Z" fill="#C8C9CA"/>
<path d="M20.2164 12.3687L19.7285 12.6167L19.9766 13.1046L20.4646 12.8566L20.2164 12.3687Z" fill="#C8C9CA"/>
</svg>
